<svg width="25" height="13" viewBox="0 0 25 13" fill="none" xmlns="http://www.w3.org/2000/svg">
<path d="M1.78816 3.6928e-06C2.20523 -0.000843134 2.60942 0.15012 2.93057 0.426689L12.4982 8.7378L22.0838 0.723517C22.2664 0.569417 22.4764 0.454339 22.702 0.384897C22.9275 0.315455 23.164 0.293019 23.3979 0.318878C23.6318 0.344738 23.8584 0.418382 24.0648 0.53558C24.2712 0.652777 24.4533 0.811216 24.6006 1.00179C24.7489 1.19155 24.8596 1.40989 24.9265 1.64427C24.9933 1.87865 25.0149 2.12445 24.99 2.36753C24.9651 2.6106 24.8942 2.84618 24.7815 3.0607C24.6687 3.27522 24.5163 3.46447 24.3329 3.61756L13.6228 12.578C13.3034 12.8508 12.9028 13 12.4893 13C12.0759 13 11.6752 12.8508 11.3558 12.578L0.645749 3.30218C0.465001 3.14645 0.315591 2.95518 0.206077 2.73934C0.0965623 2.52349 0.0290937 2.28732 0.00753689 2.04433C-0.014018 1.80135 0.0107623 1.55634 0.0804587 1.32332C0.150153 1.09031 0.263393 0.873873 0.413694 0.686412C0.579797 0.473601 0.789199 0.301675 1.02685 0.182992C1.2645 0.064309 1.5245 0.00181565 1.78816 3.6928e-06Z" fill="url(#paint0_linear_67_264)"/>
<defs>
<linearGradient id="paint0_linear_67_264" x1="25" y1="6.5" x2="-1.3391e-06" y2="6.5" gradientUnits="userSpaceOnUse">
<stop stop-color="#6A11CB"/>
<stop offset="1" stop-color="#2575FC"/>
</linearGradient>
</defs>
</svg>
