<svg width="103" height="28" viewBox="0 0 103 28" fill="none" xmlns="http://www.w3.org/2000/svg">
<path d="M101.748 18.0338L87.732 0.776047C86.9004 -0.273603 85.2108 -0.163724 83.835 0.85968L69.2877 11.9941L60.2622 1.03429C59.4305 -0.0153577 57.741 0.0945237 56.3652 1.11793L41.8178 12.2524L33.0513 1.3606C32.2196 0.310953 30.5301 0.420835 29.1543 1.44424L14.6069 12.5787L5.9764 1.16865C5.07672 0.37813 3.19624 0.160815 2.07942 1.25228L-21.0494 18.7182C-22.4251 19.7416 -22.8332 21.2964 -22.0015 22.3461L-18.225 26.9399C-17.3933 27.9896 -15.7037 27.8797 -14.328 26.8563L0.151372 15.981L8.91793 26.8727C9.36777 27.268 10.0765 27.7313 10.6624 27.6083C11.5072 27.5534 12.093 27.4304 12.8149 26.7891L27.2943 15.9138L36.0608 26.8056C36.5107 27.2008 37.2194 27.6641 37.8053 27.5411C38.6501 27.4862 39.2359 27.3632 39.9578 26.7219L54.4372 15.8466L63.2037 26.7384C63.6536 27.1336 64.3623 27.597 64.9482 27.474C65.793 27.419 66.3788 27.296 67.1007 26.6548L81.5801 15.7794L90.7416 26.221C91.5732 27.2707 93.2628 27.1608 94.6386 26.1374L100.795 21.6616C101.912 20.5702 102.32 19.0154 101.748 18.0338Z" fill="url(#paint0_radial_30_16504)"/>
<defs>
<radialGradient id="paint0_radial_30_16504" cx="0" cy="0" r="1" gradientUnits="userSpaceOnUse" gradientTransform="translate(42.3973 1.82605) rotate(14.7282) scale(47.492 41.6655)">
<stop stop-color="#5B2AA4"/>
<stop offset="0.9944" stop-color="#481A72"/>
</radialGradient>
</defs>
</svg>
