<svg width="32" height="17" viewBox="0 0 32 17" fill="none" xmlns="http://www.w3.org/2000/svg">
<g opacity="0.5">
<path d="M24.4586 16.3058L31.6943 9.07011C32.1019 8.66247 32.1019 7.94909 31.6943 7.54144L24.4586 0.305734C24.0509 -0.101912 23.3375 -0.101912 22.9299 0.305734L20.9936 2.24205C20.5859 2.6497 20.5859 3.36308 20.9936 3.77072L25.5796 8.35674L20.9936 12.9428C20.5859 13.3504 20.5859 14.0638 20.9936 14.4714L22.9299 16.4077C23.3375 16.7135 24.0509 16.7135 24.4586 16.3058Z" fill="url(#paint0_linear_67_7007)"/>
<path d="M14.0635 16.3058L21.2992 9.07011C21.7069 8.66247 21.7069 7.94909 21.2992 7.54144L14.0635 0.305734C13.6559 -0.101912 12.9425 -0.101912 12.5349 0.305734L10.5985 2.24205C10.1909 2.6497 10.1909 3.36308 10.5985 3.77072L15.1846 8.35674L10.5985 12.9428C10.1909 13.3504 10.1909 14.0638 10.5985 14.4714L12.5349 16.4077C12.9425 16.7135 13.6559 16.7135 14.0635 16.3058Z" fill="url(#paint1_linear_67_7007)"/>
<path d="M3.77056 16.3058L11.0063 9.07011C11.4139 8.66247 11.4139 7.94909 11.0063 7.54144L3.77056 0.305734C3.36291 -0.101912 2.64953 -0.101912 2.24189 0.305734L0.305577 2.24205C-0.102068 2.6497 -0.102068 3.36308 0.305577 3.77072L4.89159 8.35674L0.305577 12.9428C-0.102069 13.3504 -0.102069 14.0638 0.305577 14.4714L2.24189 16.4077C2.64953 16.7135 3.36291 16.7135 3.77056 16.3058Z" fill="url(#paint2_linear_67_7007)"/>
</g>
<defs>
<linearGradient id="paint0_linear_67_7007" x1="26.3474" y1="-0.00127335" x2="26.3474" y2="16.6262" gradientUnits="userSpaceOnUse">
<stop stop-color="#C72A16"/>
<stop offset="0.998" stop-color="#BA2244"/>
</linearGradient>
<linearGradient id="paint1_linear_67_7007" x1="15.9524" y1="-0.00127335" x2="15.9524" y2="16.6262" gradientUnits="userSpaceOnUse">
<stop stop-color="#C72A16"/>
<stop offset="0.998" stop-color="#BA2244"/>
</linearGradient>
<linearGradient id="paint2_linear_67_7007" x1="5.65939" y1="-0.00127335" x2="5.65939" y2="16.6262" gradientUnits="userSpaceOnUse">
<stop stop-color="#C72A16"/>
<stop offset="0.998" stop-color="#BA2244"/>
</linearGradient>
</defs>
</svg>
