<svg width="46" height="24" viewBox="0 0 46 24" fill="none" xmlns="http://www.w3.org/2000/svg">
<g opacity="0.5">
<path d="M10.8408 0.459772L0.439493 10.8611C-0.146498 11.4471 -0.146498 12.4726 0.439493 13.0586L10.8408 23.4599C11.4268 24.0459 12.4523 24.0459 13.0383 23.4599L15.8218 20.6765C16.4077 20.0905 16.4077 19.065 15.8218 18.479L9.22936 11.8866L15.8218 5.2942C16.4077 4.70821 16.4077 3.68273 15.8218 3.09673L13.0383 0.313276C12.4523 -0.126217 11.4268 -0.126219 10.8408 0.459772Z" fill="url(#paint0_linear_67_5746)"/>
<path d="M25.7837 0.459772L15.3824 10.8611C14.7964 11.4471 14.7964 12.4726 15.3824 13.0586L25.7837 23.4599C26.3697 24.0459 27.3952 24.0459 27.9812 23.4599L30.7646 20.6765C31.3506 20.0905 31.3506 19.065 30.7646 18.479L24.1722 11.8866L30.7646 5.2942C31.3506 4.70821 31.3506 3.68273 30.7646 3.09673L27.9812 0.313276C27.3952 -0.126217 26.3697 -0.126219 25.7837 0.459772Z" fill="url(#paint1_linear_67_5746)"/>
<path d="M40.5796 0.459772L30.1783 10.8611C29.5923 11.4471 29.5923 12.4726 30.1783 13.0586L40.5796 23.4599C41.1656 24.0459 42.1911 24.0459 42.7771 23.4599L45.5605 20.6765C46.1465 20.0905 46.1465 19.065 45.5605 18.479L38.9681 11.8866L45.5605 5.2942C46.1465 4.70821 46.1465 3.68273 45.5605 3.09673L42.7771 0.313276C42.1911 -0.126217 41.1656 -0.126219 40.5796 0.459772Z" fill="url(#paint2_linear_67_5746)"/>
</g>
<defs>
<linearGradient id="paint0_linear_67_5746" x1="5.69876" y1="18.2346" x2="18.2416" y2="5.69165" gradientUnits="userSpaceOnUse">
<stop stop-color="#FF9100"/>
<stop offset="1" stop-color="#FF4D00"/>
</linearGradient>
<linearGradient id="paint1_linear_67_5746" x1="20.5741" y1="18.2346" x2="33.1169" y2="5.69165" gradientUnits="userSpaceOnUse">
<stop stop-color="#FF9100"/>
<stop offset="1" stop-color="#FF4D00"/>
</linearGradient>
<linearGradient id="paint2_linear_67_5746" x1="35.4488" y1="18.2345" x2="47.9917" y2="5.69179" gradientUnits="userSpaceOnUse">
<stop stop-color="#FF9100"/>
<stop offset="1" stop-color="#FF4D00"/>
</linearGradient>
</defs>
</svg>
