<svg width="55" height="79" viewBox="0 0 55 79" fill="none" xmlns="http://www.w3.org/2000/svg">
<g opacity="0.5">
<path d="M22.3203 74.28C22.9203 74.52 23.5203 74.76 24.0003 75L77.7602 44.0401C77.8802 43.4401 77.8802 42.8401 78.0002 42.1201L22.3203 74.28Z" fill="url(#paint0_linear_67_6159)"/>
<path d="M9.24023 64.2002C9.60023 64.5602 9.96023 65.0402 10.3202 65.4002L76.3201 27.2403C76.2001 26.7603 75.9601 26.2803 75.8401 25.8003L9.24023 64.2002Z" fill="url(#paint1_linear_67_6159)"/>
<path d="M25.7998 75.8399C26.3998 76.0799 27.1198 76.3199 27.7198 76.4399L76.9197 48C77.0397 47.28 77.1597 46.68 77.2797 45.96L25.7998 75.8399Z" fill="url(#paint2_linear_67_6159)"/>
<path d="M13.6797 68.7599C14.0397 69.1199 14.5197 69.4799 14.9997 69.8399L77.7595 33.6C77.6395 33 77.6395 32.52 77.5195 32.04L13.6797 68.7599Z" fill="url(#paint3_linear_67_6159)"/>
<path d="M11.2798 66.4801C11.6398 66.8401 11.9998 67.2001 12.4798 67.5601L77.0396 30.2402C76.9196 29.7602 76.7996 29.1602 76.6796 28.6802L11.2798 66.4801Z" fill="url(#paint4_linear_67_6159)"/>
<path d="M16.1997 70.7997C16.6797 71.1597 17.1597 71.3997 17.6397 71.7597L77.9996 36.9598C77.9996 36.3598 77.8796 35.8798 77.8796 35.2798L16.1997 70.7997Z" fill="url(#paint5_linear_67_6159)"/>
<path d="M20.6396 73.5596L77.9995 40.4396C77.9995 39.9596 77.9995 39.5996 77.9995 39.1196C77.9995 38.9996 77.9995 38.7596 77.9995 38.6396L19.0796 72.5996C19.6796 72.9596 20.1596 73.1996 20.6396 73.5596Z" fill="url(#paint6_linear_67_6159)"/>
<path d="M34.5596 77.8797C35.3996 77.9997 36.3596 77.9997 37.1996 78.1197L73.5595 57.1197C73.9195 56.2797 74.3995 55.5597 74.7595 54.7197L34.5596 77.8797Z" fill="url(#paint7_linear_67_6159)"/>
<path d="M10.7998 12.0001L29.7598 1.08008C26.6398 1.80008 23.6398 3.00007 20.8798 4.44007L18.2398 6.00007C15.4798 7.68006 13.0798 9.72006 10.7998 12.0001Z" fill="url(#paint8_linear_67_6159)"/>
<path d="M1.31947 49.3198L66.7193 11.5199C66.3593 11.1599 65.9993 10.7999 65.5193 10.4399L0.959473 47.7598C1.07947 48.2398 1.19947 48.8398 1.31947 49.3198Z" fill="url(#paint9_linear_67_6159)"/>
<path d="M40.3198 78.1197C41.5198 78.1197 42.7198 77.9997 43.7998 77.8797L70.1998 62.6398C70.9198 61.6798 71.6398 60.7198 72.2398 59.7598L40.3198 78.1197Z" fill="url(#paint10_linear_67_6159)"/>
<path d="M48.3599 76.92C51.4799 76.2 54.4799 75 57.2398 73.56L59.8798 72C62.5198 70.32 65.0398 68.28 67.1998 66L48.3599 76.92Z" fill="url(#paint11_linear_67_6159)"/>
<path d="M29.8799 77.0401C30.5999 77.1601 31.3199 77.4001 32.1599 77.5201L75.8398 52.3202C76.0798 51.6002 76.3198 50.8802 76.5598 50.1602L29.8799 77.0401Z" fill="url(#paint12_linear_67_6159)"/>
<path d="M1.08021 30.1197C0.960214 30.8397 0.840215 31.4397 0.720215 32.1597L52.3201 2.3998C51.7201 2.1598 51.0001 1.9198 50.4001 1.7998L1.08021 30.1197Z" fill="url(#paint13_linear_67_6159)"/>
<path d="M0.360117 34.08C0.240117 34.68 0.240117 35.28 0.120117 36L55.8 3.84012C55.2 3.60012 54.6 3.36012 54.12 3.12012L0.360117 34.08Z" fill="url(#paint14_linear_67_6159)"/>
<path d="M2.27957 25.7996C2.03957 26.5195 1.79957 27.2395 1.55957 27.9595L48.1195 1.07961C47.3995 0.959609 46.6795 0.719609 45.8395 0.599609L2.27957 25.7996Z" fill="url(#paint15_linear_67_6159)"/>
<path d="M7.91988 15.48C7.19988 16.44 6.47988 17.4 5.87988 18.36L37.7998 0C36.5998 0 35.3998 0.12 34.3198 0.239999L7.91988 15.48Z" fill="url(#paint16_linear_67_6159)"/>
<path d="M4.32011 21.12C3.96012 21.96 3.48012 22.6799 3.12012 23.5199L43.44 0.24C42.6 0.12 41.64 0.12 40.8 0L4.32011 21.12Z" fill="url(#paint17_linear_67_6159)"/>
<path d="M7.32031 61.7998C7.56031 62.1598 7.92031 62.6398 8.28031 62.9998L75.2402 24.3599C75.0002 23.8799 74.8801 23.3999 74.6402 22.9199L7.32031 61.7998Z" fill="url(#paint18_linear_67_6159)"/>
<path d="M0 37.6801C0 38.1601 0 38.5201 0 39.0001C0 39.1201 0 39.3601 0 39.4801L58.9199 5.52017C58.4399 5.16017 57.8399 4.92018 57.3599 4.68018L0 37.6801Z" fill="url(#paint19_linear_67_6159)"/>
<path d="M4.07959 56.5199C4.31959 56.9999 4.55959 57.4799 4.79959 57.8399L72.3594 18.84C72.1194 18.36 71.8794 18 71.5194 17.52L4.07959 56.5199Z" fill="url(#paint20_linear_67_6159)"/>
<path d="M5.64014 59.2797C5.88014 59.7597 6.12014 60.1197 6.48014 60.5997L73.92 21.5998C73.68 21.1198 73.44 20.6398 73.2 20.2798L5.64014 59.2797Z" fill="url(#paint21_linear_67_6159)"/>
<path d="M0.120117 41.2798C0.120117 41.8798 0.240117 42.3598 0.240117 42.9598L61.8 7.31986C61.32 6.95986 60.84 6.71986 60.36 6.35986L0.120117 41.2798Z" fill="url(#paint22_linear_67_6159)"/>
<path d="M2.87988 53.76C3.11988 54.24 3.23988 54.72 3.47988 55.2L70.7997 16.3201C70.5597 15.9601 70.1997 15.4801 69.8397 15.1201L2.87988 53.76Z" fill="url(#paint23_linear_67_6159)"/>
<path d="M0.359863 44.6397C0.479863 45.2397 0.479863 45.7197 0.599863 46.1997L64.3197 9.35978C63.9597 8.99978 63.4797 8.63978 62.9997 8.27979L0.359863 44.6397Z" fill="url(#paint24_linear_67_6159)"/>
<path d="M1.7998 50.8801C1.9198 51.3601 2.1598 51.8401 2.2798 52.3201L68.8796 13.9202C68.5197 13.5602 68.1597 13.0802 67.7997 12.7202L1.7998 50.8801Z" fill="url(#paint25_linear_67_6159)"/>
</g>
<defs>
<linearGradient id="paint0_linear_67_6159" x1="30.4518" y1="46.9485" x2="50.804" y2="81.4134" gradientUnits="userSpaceOnUse">
<stop stop-color="#FF9100"/>
<stop offset="1" stop-color="#FF4D00"/>
</linearGradient>
<linearGradient id="paint1_linear_67_6159" x1="19.0366" y1="31.6154" x2="43.5447" y2="73.1308" gradientUnits="userSpaceOnUse">
<stop stop-color="#FF9100"/>
<stop offset="1" stop-color="#FF4D00"/>
</linearGradient>
<linearGradient id="paint2_linear_67_6159" x1="33.3179" y1="50.4359" x2="52.2085" y2="82.3416" gradientUnits="userSpaceOnUse">
<stop stop-color="#FF9100"/>
<stop offset="1" stop-color="#FF4D00"/>
</linearGradient>
<linearGradient id="paint3_linear_67_6159" x1="23.0379" y1="37.5909" x2="46.4234" y2="77.2349" gradientUnits="userSpaceOnUse">
<stop stop-color="#FF9100"/>
<stop offset="1" stop-color="#FF4D00"/>
</linearGradient>
<linearGradient id="paint4_linear_67_6159" x1="20.8833" y1="34.3896" x2="44.9636" y2="75.118" gradientUnits="userSpaceOnUse">
<stop stop-color="#FF9100"/>
<stop offset="1" stop-color="#FF4D00"/>
</linearGradient>
<linearGradient id="paint5_linear_67_6159" x1="25.2249" y1="40.6368" x2="47.8013" y2="78.8829" gradientUnits="userSpaceOnUse">
<stop stop-color="#FF9100"/>
<stop offset="1" stop-color="#FF4D00"/>
</linearGradient>
<linearGradient id="paint6_linear_67_6159" x1="27.6842" y1="43.7676" x2="49.337" y2="80.3019" gradientUnits="userSpaceOnUse">
<stop stop-color="#FF9100"/>
<stop offset="1" stop-color="#FF4D00"/>
</linearGradient>
<linearGradient id="paint7_linear_67_6159" x1="40.4304" y1="58.156" x2="54.8132" y2="82.865" gradientUnits="userSpaceOnUse">
<stop stop-color="#FF9100"/>
<stop offset="1" stop-color="#FF4D00"/>
</linearGradient>
<linearGradient id="paint8_linear_67_6159" x1="13.5687" y1="2.68365" x2="20.2454" y2="14.2761" gradientUnits="userSpaceOnUse">
<stop stop-color="#FF9100"/>
<stop offset="1" stop-color="#FF4D00"/>
</linearGradient>
<linearGradient id="paint9_linear_67_6159" x1="10.563" y1="16.1494" x2="34.6433" y2="56.8777" gradientUnits="userSpaceOnUse">
<stop stop-color="#FF9100"/>
<stop offset="1" stop-color="#FF4D00"/>
</linearGradient>
<linearGradient id="paint10_linear_67_6159" x1="44.9814" y1="62.4559" x2="56.1996" y2="81.9593" gradientUnits="userSpaceOnUse">
<stop stop-color="#FF9100"/>
<stop offset="1" stop-color="#FF4D00"/>
</linearGradient>
<linearGradient id="paint11_linear_67_6159" x1="51.1112" y1="67.6036" x2="57.8091" y2="79.1592" gradientUnits="userSpaceOnUse">
<stop stop-color="#FF9100"/>
<stop offset="1" stop-color="#FF4D00"/>
</linearGradient>
<linearGradient id="paint12_linear_67_6159" x1="36.697" y1="54.1779" x2="53.571" y2="82.9673" gradientUnits="userSpaceOnUse">
<stop stop-color="#FF9100"/>
<stop offset="1" stop-color="#FF4D00"/>
</linearGradient>
<linearGradient id="paint13_linear_67_6159" x1="8.25585" y1="6.25809" x2="27.0151" y2="38.1414" gradientUnits="userSpaceOnUse">
<stop stop-color="#FF9100"/>
<stop offset="1" stop-color="#FF4D00"/>
</linearGradient>
<linearGradient id="paint14_linear_67_6159" x1="8.25159" y1="7.94846" x2="28.6038" y2="42.4134" gradientUnits="userSpaceOnUse">
<stop stop-color="#FF9100"/>
<stop offset="1" stop-color="#FF4D00"/>
</linearGradient>
<linearGradient id="paint15_linear_67_6159" x1="8.35916" y1="4.61735" x2="25.2543" y2="33.3688" gradientUnits="userSpaceOnUse">
<stop stop-color="#FF9100"/>
<stop offset="1" stop-color="#FF4D00"/>
</linearGradient>
<linearGradient id="paint16_linear_67_6159" x1="10.5415" y1="2.69612" x2="21.7596" y2="22.1996" gradientUnits="userSpaceOnUse">
<stop stop-color="#FF9100"/>
<stop offset="1" stop-color="#FF4D00"/>
</linearGradient>
<linearGradient id="paint17_linear_67_6159" x1="9.00843" y1="3.45385" x2="23.4803" y2="28.2627" gradientUnits="userSpaceOnUse">
<stop stop-color="#FF9100"/>
<stop offset="1" stop-color="#FF4D00"/>
</linearGradient>
<linearGradient id="paint18_linear_67_6159" x1="17.2393" y1="28.8056" x2="42.0398" y2="70.8327" gradientUnits="userSpaceOnUse">
<stop stop-color="#FF9100"/>
<stop offset="1" stop-color="#FF4D00"/>
</linearGradient>
<linearGradient id="paint19_linear_67_6159" x1="8.60464" y1="9.79046" x2="30.1473" y2="46.2643" gradientUnits="userSpaceOnUse">
<stop stop-color="#FF9100"/>
<stop offset="1" stop-color="#FF4D00"/>
</linearGradient>
<linearGradient id="paint20_linear_67_6159" x1="14.0512" y1="23.4409" x2="39.0084" y2="65.7048" gradientUnits="userSpaceOnUse">
<stop stop-color="#FF9100"/>
<stop offset="1" stop-color="#FF4D00"/>
</linearGradient>
<linearGradient id="paint21_linear_67_6159" x1="15.6117" y1="26.2007" x2="40.5689" y2="68.4646" gradientUnits="userSpaceOnUse">
<stop stop-color="#FF9100"/>
<stop offset="1" stop-color="#FF4D00"/>
</linearGradient>
<linearGradient id="paint22_linear_67_6159" x1="9.12783" y1="11.7345" x2="31.8355" y2="50.0024" gradientUnits="userSpaceOnUse">
<stop stop-color="#FF9100"/>
<stop offset="1" stop-color="#FF4D00"/>
</linearGradient>
<linearGradient id="paint23_linear_67_6159" x1="12.7989" y1="21.0058" x2="37.5994" y2="63.0329" gradientUnits="userSpaceOnUse">
<stop stop-color="#FF9100"/>
<stop offset="1" stop-color="#FF4D00"/>
</linearGradient>
<linearGradient id="paint24_linear_67_6159" x1="9.70054" y1="13.8482" x2="33.2174" y2="53.5143" gradientUnits="userSpaceOnUse">
<stop stop-color="#FF9100"/>
<stop offset="1" stop-color="#FF4D00"/>
</linearGradient>
<linearGradient id="paint25_linear_67_6159" x1="11.5961" y1="18.5354" x2="36.1043" y2="60.0507" gradientUnits="userSpaceOnUse">
<stop stop-color="#FF9100"/>
<stop offset="1" stop-color="#FF4D00"/>
</linearGradient>
</defs>
</svg>
