<svg width="48" height="112" viewBox="0 0 48 112" fill="none" xmlns="http://www.w3.org/2000/svg">
<g opacity="0.5">
<path fill-rule="evenodd" clip-rule="evenodd" d="M-7.53638 17.6773C-6.97963 17.1206 -6.14451 17.1206 -5.86614 17.6773L-4.75263 18.7908C-4.19588 19.3476 -3.36076 19.3476 -2.80401 18.7908L-1.6905 17.6773C-1.13375 17.1206 -0.298628 17.1206 -0.0202522 17.6773C0.536499 18.2341 0.536499 19.0692 -0.0202522 19.3476C-0.577003 19.9043 -0.577008 19.9043 -1.13376 20.4611C-1.69051 21.0178 -1.69051 21.853 -1.13376 22.4097L-0.0202522 23.5232C0.536499 24.08 0.536499 24.9151 -0.0202522 25.1935C-0.577003 25.7502 -1.41213 25.7502 -1.6905 25.1935L-2.80401 24.08C-3.36076 23.5232 -4.19588 23.5232 -4.75263 24.08L-5.58776 25.4718C-6.14452 26.0286 -6.97964 26.0286 -7.25801 25.4718C-7.81476 24.9151 -7.81476 24.08 -7.25801 23.8016L-6.14451 22.6881C-5.58776 22.1313 -5.58776 21.2962 -6.14451 20.7395L-7.25801 19.626C-7.81476 19.0692 -7.81476 18.2341 -7.53638 17.6773Z" fill="url(#paint0_linear_67_7518)"/>
<path fill-rule="evenodd" clip-rule="evenodd" d="M11.3936 17.6773C11.9504 17.1206 12.7855 17.1206 13.0639 17.6773L14.1774 18.7908C14.7341 19.3476 15.5693 19.3476 16.126 18.7908L17.2395 17.6773C17.7963 17.1206 18.6314 17.1206 18.9098 17.6773C19.4665 18.2341 19.4665 19.0692 18.9098 19.3476C18.353 19.9043 18.353 19.9043 17.7963 20.4611C17.2395 21.0178 17.2395 21.853 17.7963 22.4097L18.9098 23.5232C19.4665 24.08 19.4665 24.9151 18.9098 25.1935C18.353 25.7502 17.5179 25.7502 17.2395 25.1935L16.126 24.08C15.5693 23.5232 14.7341 23.5232 14.1774 24.08L13.0639 25.1935C12.5071 25.7502 11.672 25.7502 11.3936 25.1935C10.8369 24.6367 10.8369 23.8016 11.3936 23.5232L12.5071 22.4097C13.0639 21.853 13.0639 21.0178 12.5071 20.4611L11.3936 19.3476C10.8369 19.0692 10.8369 18.2341 11.3936 17.6773Z" fill="url(#paint1_linear_67_7518)"/>
<path fill-rule="evenodd" clip-rule="evenodd" d="M30.3223 17.6773C30.8791 17.1206 31.7142 17.1206 31.9926 17.6773L33.1061 18.7908C33.6629 19.3476 34.498 19.3476 35.0547 18.7908L36.1682 17.6773C36.725 17.1206 37.5601 17.1206 37.8385 17.6773C38.3952 18.2341 38.3952 19.0692 37.8385 19.3476C37.2817 19.9043 37.2817 19.9043 36.725 20.4611C36.1682 21.0178 36.1682 21.853 36.725 22.4097L37.8385 23.5232C38.3952 24.08 38.3952 24.9151 37.8385 25.1935C37.2817 25.7502 36.4466 25.7502 36.1682 25.1935L35.0547 24.08C34.498 23.5232 33.6629 23.5232 33.1061 24.08L31.9926 25.1935C31.4358 25.7502 30.6007 25.7502 30.3223 25.1935C29.7656 24.6367 29.7656 23.8016 30.3223 23.5232L31.4359 22.4097C31.9926 21.853 31.9926 21.0178 31.4359 20.4611L30.3223 19.3476C29.7656 19.0692 29.7656 18.2341 30.3223 17.6773Z" fill="url(#paint2_linear_67_7518)"/>
<path fill-rule="evenodd" clip-rule="evenodd" d="M1.92796 0.417563C2.48471 -0.139188 3.31986 -0.139188 3.59823 0.417563L4.71172 1.53107C5.26847 2.08782 6.10361 2.08782 6.66036 1.53107L7.77387 0.417563C8.33062 -0.139188 9.16574 -0.139188 9.44412 0.417563C10.0009 0.974315 10.0009 1.80944 9.44412 2.08782C9.44412 2.92294 9.16573 2.92294 8.60898 3.4797C8.05223 4.03645 8.05223 4.87157 8.60898 5.42832L9.72249 6.54183C10.2792 7.09858 10.2792 7.93371 9.72249 8.21208C9.16574 8.76883 8.33061 8.76883 8.05224 8.21208L6.93873 7.09858C6.38198 6.54183 5.54686 6.54183 4.99011 7.09858L3.8766 8.49046C3.31985 9.04721 2.48473 9.04721 2.20636 8.49046C1.6496 7.93371 1.6496 7.09858 2.20636 6.8202L3.31984 5.7067C3.87659 5.14995 3.87659 4.31482 3.31984 3.75807L2.20636 2.64457C1.6496 1.80944 1.64959 0.974315 1.92796 0.417563Z" fill="url(#paint3_linear_67_7518)"/>
<path fill-rule="evenodd" clip-rule="evenodd" d="M20.858 0.417563C21.4147 0.139188 22.2499 0.139188 22.5282 0.417563L23.6417 1.53107C24.1985 2.08782 25.0336 2.08782 25.5904 1.53107L26.7039 0.417563C27.2606 -0.139188 28.0958 -0.139188 28.3741 0.417563C28.9309 0.974315 28.9309 1.80944 28.3741 2.08782C28.0958 2.92294 28.0958 2.92294 27.539 3.4797C26.9823 4.03645 26.9823 4.87157 27.539 5.42832L28.6525 6.54183C29.2093 7.09858 29.2093 7.93371 28.6525 8.21208C28.0958 8.76883 27.2606 8.76883 26.9822 8.21208L25.8688 7.09858C25.312 6.54183 24.4769 6.54183 23.9201 7.09858L22.5282 8.49046C21.9715 9.04721 21.1364 9.04721 20.858 8.49046C20.3012 7.93371 20.3012 7.09858 20.858 6.8202L21.9715 5.7067C22.5283 5.14995 22.5283 4.31482 21.9715 3.75807L20.858 2.64457C20.3012 1.80944 20.3012 0.974315 20.858 0.417563Z" fill="url(#paint4_linear_67_7518)"/>
<path fill-rule="evenodd" clip-rule="evenodd" d="M39.7882 0.417563C40.3449 -0.139188 41.18 -0.139188 41.4584 0.417563L42.5719 1.53107C43.1287 2.08782 43.9638 2.08782 44.5205 1.53107L45.6341 0.417563C46.1908 -0.139188 47.0259 -0.139188 47.3043 0.417563C47.8611 0.974315 47.8611 1.80944 47.3043 2.08782C47.0259 2.92294 47.0259 2.92294 46.4692 3.4797C45.9124 4.03645 45.9124 4.87157 46.4692 5.42832L47.5827 6.54183C48.1394 7.09858 48.1394 7.93371 47.5827 8.21208C47.0259 8.76883 46.1908 8.76883 45.9124 8.21208L44.5205 7.09858C43.9638 6.54183 43.1287 6.54183 42.5719 7.09858L41.4584 8.49046C40.9017 9.04721 40.0665 9.04721 39.7882 8.49046C39.2314 7.93371 39.2314 7.09858 39.7882 6.8202L40.9017 5.7067C41.4584 5.14995 41.4584 4.31482 40.9017 3.75807L39.7882 2.64457C39.2314 1.80944 39.2314 0.974315 39.7882 0.417563Z" fill="url(#paint5_linear_67_7518)"/>
<path fill-rule="evenodd" clip-rule="evenodd" d="M-7.53736 52.1949C-6.98061 51.6382 -6.14549 51.6382 -5.86711 52.1949L-4.75361 53.3084C-4.19685 53.8652 -3.36174 53.8652 -2.80498 53.3084L-1.69148 52.1949C-1.13473 51.6382 -0.299604 51.6382 -0.0212288 52.1949C0.535522 52.7517 0.535522 53.5868 -0.0212288 53.8652C-0.57798 54.4219 -0.577984 54.4219 -1.13474 54.9787C-1.69149 55.5354 -1.69149 56.3705 -1.13474 56.9273L-0.0212288 58.0408C0.535522 58.5975 0.535522 59.4327 -0.0212288 59.711C-0.57798 60.2678 -1.4131 60.2678 -1.69148 59.711L-2.80498 58.5975C-3.36174 58.0408 -4.19685 58.0408 -4.75361 58.5975L-5.58874 59.9894C-6.14549 60.5462 -6.98061 60.5462 -7.25899 59.9894C-7.81574 59.4327 -7.81574 58.5975 -7.25899 58.3192L-6.14548 57.2057C-5.58873 56.6489 -5.58873 55.8138 -6.14548 55.257L-7.25899 54.1435C-7.81574 53.3084 -7.81574 52.4733 -7.53736 52.1949Z" fill="url(#paint6_linear_67_7518)"/>
<path fill-rule="evenodd" clip-rule="evenodd" d="M11.3912 52.1949C11.9479 51.6382 12.7831 51.6382 13.0614 52.1949L14.175 53.3084C14.7317 53.8652 15.5668 53.8652 16.1236 53.3084L17.2371 52.1949C17.7938 51.6382 18.629 51.6382 18.9074 52.1949C19.4641 52.7517 19.4641 53.5868 18.9074 53.8652C18.3506 54.4219 18.3506 54.4219 17.7938 54.9787C17.2371 55.5354 17.2371 56.3705 17.7938 56.9273L18.9074 58.0408C19.4641 58.5975 19.4641 59.4327 18.9074 59.711C18.3506 60.2678 17.5155 60.2678 17.2371 59.711L16.1236 58.5975C15.5668 58.0408 14.7317 58.0408 14.175 58.5975L13.0614 59.711C12.5047 60.2678 11.6696 60.2678 11.3912 59.711C10.8344 59.1543 10.8344 58.3192 11.3912 58.0408L12.5047 56.9273C13.0615 56.3705 13.0615 55.5354 12.5047 54.9787L11.3912 53.8652C10.8344 53.3084 10.8344 52.4733 11.3912 52.1949Z" fill="url(#paint7_linear_67_7518)"/>
<path fill-rule="evenodd" clip-rule="evenodd" d="M30.3219 52.1949C30.8786 51.6382 31.7137 51.6382 31.9921 52.1949L33.1056 53.3084C33.6624 53.8652 34.4975 53.8652 35.0542 53.3084L36.1677 52.1949C36.7245 51.6382 37.5596 51.6382 37.838 52.1949C38.3947 52.7517 38.3947 53.5868 37.838 53.8652C37.2812 54.4219 37.2812 54.4219 36.7245 54.9787C36.1677 55.5354 36.1677 56.3705 36.7245 56.9273L37.838 58.0408C38.3947 58.5975 38.3947 59.4327 37.838 59.711C37.2812 60.2678 36.4461 60.2678 36.1677 59.711L35.0542 58.5975C34.4975 58.0408 33.6624 58.0408 33.1056 58.5975L31.9921 59.711C31.4354 60.2678 30.6002 60.2678 30.3219 59.711C29.7651 59.1543 29.7651 58.3192 30.3219 58.0408L31.4354 56.9273C31.9921 56.3705 31.9921 55.5354 31.4354 54.9787L30.3219 53.8652C29.7651 53.3084 29.7651 52.4733 30.3219 52.1949Z" fill="url(#paint8_linear_67_7518)"/>
<path fill-rule="evenodd" clip-rule="evenodd" d="M1.92733 34.9361C2.48408 34.3794 3.31922 34.3794 3.5976 34.9361L4.71109 36.0496C5.26784 36.6064 6.10298 36.6064 6.65973 36.0496L7.77323 34.9361C8.32999 34.3794 9.16511 34.3794 9.44348 34.9361C10.0002 35.4929 10.0002 36.328 9.44348 36.6064C8.88673 37.1631 8.88673 37.1631 8.32998 37.7199C7.77323 38.2766 7.77323 39.1118 8.32998 39.6685L9.44348 40.782C10.0002 41.3388 10.0002 42.1739 9.44348 42.4523C8.88673 43.009 8.05161 43.009 7.77323 42.4523L6.65973 41.3388C6.10298 40.782 5.26784 40.782 4.71109 41.3388L3.5976 42.4523C3.04085 43.009 2.2057 43.009 1.92733 42.4523C1.37058 41.8955 1.37058 41.0604 1.92733 40.782L3.04084 39.6685C3.59759 39.1118 3.59759 38.2766 3.04084 37.7199L1.92733 36.6064C1.64895 36.0496 1.64895 35.4929 1.92733 34.9361Z" fill="url(#paint9_linear_67_7518)"/>
<path fill-rule="evenodd" clip-rule="evenodd" d="M20.858 34.9361C21.4147 34.3794 22.2499 34.3794 22.5282 34.9361L23.6417 36.0496C24.1985 36.6064 25.0336 36.6064 25.5904 36.0496L26.7039 34.9361C27.2606 34.3794 28.0958 34.3794 28.3741 34.9361C28.9309 35.4929 28.9309 36.328 28.3741 36.6064C27.8174 37.1631 27.8174 37.1631 27.2606 37.7199C26.7039 38.2766 26.7039 39.1118 27.2606 39.6685L28.3741 40.782C28.9309 41.3388 28.9309 42.1739 28.3741 42.4523C27.8174 43.009 26.9823 43.009 26.7039 42.4523L25.5904 41.3388C25.0336 40.782 24.1985 40.782 23.6417 41.3388L22.5282 42.4523C21.9715 43.009 21.1364 43.009 20.858 42.4523C20.3012 41.8955 20.3012 41.0604 20.858 40.782L21.9715 39.6685C22.5283 39.1118 22.5283 38.2766 21.9715 37.7199L20.858 36.6064C20.3012 36.0496 20.3012 35.4929 20.858 34.9361Z" fill="url(#paint10_linear_67_7518)"/>
<path fill-rule="evenodd" clip-rule="evenodd" d="M39.7867 34.9361C40.3435 34.3794 41.1786 34.3794 41.457 34.9361L42.5705 36.0496C43.1272 36.6064 43.9623 36.6064 44.5191 36.0496L45.6326 34.9361C46.1893 34.3794 47.0245 34.3794 47.3028 34.9361C47.8596 35.4929 47.8596 36.328 47.3028 36.6064C46.7461 37.1631 46.7461 37.1631 46.1893 37.7199C45.6326 38.2766 45.6326 39.1118 46.1893 39.6685L47.3028 40.782C47.8596 41.3388 47.8596 42.1739 47.3028 42.4523C46.7461 43.009 45.911 43.009 45.6326 42.4523L44.5191 41.6171C43.9623 41.0604 43.1272 41.0604 42.5705 41.6171L41.457 42.7306C40.9002 43.2874 40.0651 43.2874 39.7867 42.7306C39.23 42.1739 39.23 41.3388 39.7867 41.0604L40.9002 39.9469C41.4569 39.3901 41.4569 38.555 40.9002 37.9983L39.7867 36.8847C39.23 36.0496 39.23 35.4929 39.7867 34.9361Z" fill="url(#paint11_linear_67_7518)"/>
<path fill-rule="evenodd" clip-rule="evenodd" d="M-7.53638 86.4351C-6.97963 85.8784 -6.14451 85.8784 -5.86614 86.4351L-4.75263 87.5486C-4.19588 88.1054 -3.36076 88.1054 -2.80401 87.5486L-1.6905 86.4351C-1.13375 85.8784 -0.298628 85.8784 -0.0202522 86.4351C0.536499 86.9919 0.536499 87.827 -0.0202522 88.1054C-0.577003 88.6621 -0.577008 88.6621 -1.13376 89.2189C-1.69051 89.7756 -1.69051 90.6108 -1.13376 91.1675L-0.0202522 92.281C0.536499 92.8378 0.536499 93.6729 -0.0202522 93.9513C-0.577003 94.508 -1.41213 94.508 -1.6905 93.9513L-2.80401 92.8378C-3.36076 92.281 -4.19588 92.281 -4.75263 92.8378L-5.58776 94.2297C-6.14452 94.7864 -6.97964 94.7864 -7.25801 94.2297C-7.81476 93.6729 -7.81476 92.8378 -7.25801 92.5594L-6.14451 91.4459C-5.58776 90.8891 -5.58776 90.054 -6.14451 89.4973L-7.25801 88.3838C-7.81476 87.827 -7.81476 86.9919 -7.53638 86.4351Z" fill="url(#paint12_linear_67_7518)"/>
<path fill-rule="evenodd" clip-rule="evenodd" d="M11.3936 86.4351C11.9504 85.8784 12.7855 85.8784 13.0639 86.4351L14.1774 87.5486C14.7341 88.1054 15.5693 88.1054 16.126 87.5486L17.2395 86.4351C17.7963 85.8784 18.6314 85.8784 18.9098 86.4351C19.4665 86.9919 19.4665 87.827 18.9098 88.1054C18.353 88.6621 18.353 88.6621 17.7963 89.2189C17.2395 89.7756 17.2395 90.6108 17.7963 91.1675L18.9098 92.281C19.4665 92.8378 19.4665 93.6729 18.9098 93.9513C18.353 94.508 17.5179 94.508 17.2395 93.9513L16.126 92.8378C15.5693 92.281 14.7341 92.281 14.1774 92.8378L13.0639 93.9513C12.5071 94.508 11.672 94.508 11.3936 93.9513C10.8369 93.3945 10.8369 92.5594 11.3936 92.281L12.5071 91.1675C13.0639 90.6108 13.0639 89.7756 12.5071 89.2189L11.3936 88.1054C10.8369 87.827 10.8369 86.9919 11.3936 86.4351Z" fill="url(#paint13_linear_67_7518)"/>
<path fill-rule="evenodd" clip-rule="evenodd" d="M30.3223 86.4351C30.8791 85.8784 31.7142 85.8784 31.9926 86.4351L33.1061 87.5486C33.6629 88.1054 34.498 88.1054 35.0547 87.5486L36.1682 86.4351C36.725 85.8784 37.5601 85.8784 37.8385 86.4351C38.3952 86.9919 38.3952 87.827 37.8385 88.1054C37.2817 88.6621 37.2817 88.6621 36.725 89.2189C36.1682 89.7756 36.1682 90.6108 36.725 91.1675L37.8385 92.281C38.3952 92.8378 38.3952 93.6729 37.8385 93.9513C37.2817 94.508 36.4466 94.508 36.1682 93.9513L35.0547 92.8378C34.498 92.281 33.6629 92.281 33.1061 92.8378L31.9926 93.9513C31.4358 94.508 30.6007 94.508 30.3223 93.9513C29.7656 93.3945 29.7656 92.5594 30.3223 92.281L31.4359 91.1675C31.9926 90.6108 31.9926 89.7756 31.4359 89.2189L30.3223 88.1054C29.7656 87.827 29.7656 86.9919 30.3223 86.4351Z" fill="url(#paint14_linear_67_7518)"/>
<path fill-rule="evenodd" clip-rule="evenodd" d="M1.92733 69.1764C2.48408 68.6196 3.31922 68.6196 3.5976 69.1764L4.71109 70.2899C5.26784 70.8466 6.10298 70.8466 6.65973 70.2899L7.77323 69.1764C8.32999 68.6196 9.16511 68.6196 9.44348 69.1764C10.0002 69.7331 10.0002 70.5682 9.44348 70.8466C8.88673 71.4034 8.88673 71.4034 8.32998 71.9601C7.77323 72.5169 7.77323 73.352 8.32998 73.9087L9.44348 75.0222C10.0002 75.579 10.0002 76.4141 9.44348 76.6925C8.88673 77.2492 8.05161 77.2492 7.77323 76.6925L6.65973 75.579C6.10298 75.0222 5.26784 75.0222 4.71109 75.579L3.5976 76.6925C3.04085 77.2492 2.2057 77.2492 1.92733 76.6925C1.37058 76.1357 1.37058 75.3006 1.92733 75.0222L3.04084 73.9087C3.59759 73.352 3.59759 72.5169 3.04084 71.9601L1.92733 70.8466C1.64895 70.5682 1.64895 69.7331 1.92733 69.1764Z" fill="url(#paint15_linear_67_7518)"/>
<path fill-rule="evenodd" clip-rule="evenodd" d="M20.858 69.1764C21.4147 68.6196 22.2499 68.6196 22.5282 69.1764L23.6417 70.2899C24.1985 70.8466 25.0336 70.8466 25.5904 70.2899L26.7039 69.1764C27.2606 68.6196 28.0958 68.6196 28.3741 69.1764C28.9309 69.7331 28.9309 70.5682 28.3741 70.8466C27.8174 71.4034 27.8174 71.4034 27.2606 71.9601C26.7039 72.5169 26.7039 73.352 27.2606 73.9087L28.3741 75.0222C28.9309 75.579 28.9309 76.4141 28.3741 76.6925C27.8174 77.2492 26.9823 77.2492 26.7039 76.6925L25.5904 75.579C25.0336 75.0222 24.1985 75.0222 23.6417 75.579L22.5282 76.6925C21.9715 77.2492 21.1364 77.2492 20.858 76.6925C20.3012 76.1357 20.3012 75.3006 20.858 75.0222L21.9715 73.9087C22.5283 73.352 22.5283 72.5169 21.9715 71.9601L20.858 70.8466C20.3012 70.5682 20.3012 69.7331 20.858 69.1764Z" fill="url(#paint16_linear_67_7518)"/>
<path fill-rule="evenodd" clip-rule="evenodd" d="M39.7867 69.1764C40.3435 68.6196 41.1786 68.6196 41.457 69.1764L42.5705 70.2899C43.1272 70.8466 43.9623 70.8466 44.5191 70.2899L45.6326 69.1764C46.1893 68.6196 47.0245 68.6196 47.3028 69.1764C47.8596 69.7331 47.8596 70.5682 47.3028 70.8466C46.7461 71.4034 46.7461 71.4034 46.1893 71.9601C45.6326 72.5169 45.6326 73.352 46.1893 73.9087L47.3028 75.0222C47.8596 75.579 47.8596 76.4141 47.3028 76.6925C46.7461 77.2492 45.911 77.2492 45.6326 76.6925L44.5191 75.8574C43.9623 75.3006 43.1272 75.3006 42.5705 75.8574L41.457 76.9709C40.9002 77.5276 40.0651 77.5276 39.7867 76.9709C39.23 76.4141 39.23 75.579 39.7867 75.3006L40.9002 74.1871C41.4569 73.6304 41.4569 72.7952 40.9002 72.2385L39.7867 71.125C39.23 70.5682 39.23 69.7331 39.7867 69.1764Z" fill="url(#paint17_linear_67_7518)"/>
<path fill-rule="evenodd" clip-rule="evenodd" d="M1.92796 103.695C2.48471 103.138 3.31986 103.138 3.59823 103.695L4.71172 104.808C5.26847 105.365 6.10361 105.365 6.66036 104.808L7.77387 103.695C8.33062 103.138 9.16574 103.138 9.44412 103.695C10.0009 104.252 10.0009 105.087 9.44412 105.365C8.88737 105.922 8.88736 105.922 8.33061 106.479C7.77386 107.035 7.77386 107.871 8.33061 108.427L9.44412 109.541C10.0009 110.098 10.0009 110.933 9.44412 111.211C8.88737 111.768 8.05224 111.768 7.77387 111.211L6.66036 110.098C6.10361 109.541 5.26847 109.541 4.71172 110.098L3.87661 111.489C3.31985 112.046 2.48473 112.046 2.20636 111.489C1.6496 110.933 1.6496 110.098 2.20636 109.819L3.31984 108.706C3.87659 108.149 3.87659 107.314 3.31984 106.757L2.20636 105.644C1.6496 104.808 1.64959 104.252 1.92796 103.695Z" fill="url(#paint18_linear_67_7518)"/>
<path fill-rule="evenodd" clip-rule="evenodd" d="M20.858 103.695C21.4147 103.138 22.2499 103.138 22.5282 103.695L23.6417 104.808C24.1985 105.365 25.0336 105.365 25.5904 104.808L26.7039 103.695C27.2606 103.138 28.0958 103.138 28.3741 103.695C28.9309 104.252 28.9309 105.087 28.3741 105.365C27.8174 105.922 27.8174 105.922 27.2606 106.479C26.7039 107.035 26.7039 107.871 27.2606 108.427L28.3741 109.541C28.9309 110.098 28.9309 110.933 28.3741 111.211C27.8174 111.768 26.9823 111.768 26.7039 111.211L25.5904 110.098C25.0336 109.541 24.1985 109.541 23.6417 110.098L22.5282 111.489C21.9715 112.046 21.1364 112.046 20.858 111.489C20.3012 110.933 20.3012 110.098 20.858 109.819L21.9715 108.706C22.5283 108.149 22.5283 107.314 21.9715 106.757L20.858 105.644C20.3012 104.808 20.3012 104.252 20.858 103.695Z" fill="url(#paint19_linear_67_7518)"/>
<path fill-rule="evenodd" clip-rule="evenodd" d="M39.7882 103.695C40.3449 103.138 41.18 103.138 41.4584 103.695L42.5719 104.808C43.1287 105.365 43.9638 105.365 44.5205 104.808L45.6341 103.695C46.1908 103.138 47.0259 103.138 47.3043 103.695C47.8611 104.252 47.8611 105.087 47.3043 105.365C46.7476 105.922 46.7475 105.922 46.1908 106.479C45.634 107.035 45.634 107.871 46.1908 108.427L47.3043 109.541C47.8611 110.098 47.8611 110.933 47.3043 111.211C46.7476 111.768 45.9124 111.768 45.6341 111.211L44.5205 110.376C43.9638 109.819 43.1287 109.819 42.5719 110.376L41.4584 111.489C40.9017 112.046 40.0665 112.046 39.7882 111.489C39.2314 110.933 39.2314 110.098 39.7882 109.819L40.9017 108.706C41.4584 108.149 41.4584 107.314 40.9017 106.757L39.7882 105.644C39.2314 104.808 39.2314 104.252 39.7882 103.695Z" fill="url(#paint20_linear_67_7518)"/>
</g>
<defs>
<linearGradient id="paint0_linear_67_7518" x1="-7.71924" y1="21.5746" x2="0.397311" y2="21.5746" gradientUnits="userSpaceOnUse">
<stop stop-color="#6A11CB"/>
<stop offset="1" stop-color="#2575FC"/>
</linearGradient>
<linearGradient id="paint1_linear_67_7518" x1="10.9761" y1="21.4354" x2="19.3274" y2="21.4354" gradientUnits="userSpaceOnUse">
<stop stop-color="#6A11CB"/>
<stop offset="1" stop-color="#2575FC"/>
</linearGradient>
<linearGradient id="paint2_linear_67_7518" x1="29.9048" y1="21.4354" x2="38.256" y2="21.4354" gradientUnits="userSpaceOnUse">
<stop stop-color="#6A11CB"/>
<stop offset="1" stop-color="#2575FC"/>
</linearGradient>
<linearGradient id="paint3_linear_67_7518" x1="1.74512" y1="4.45401" x2="10.1401" y2="4.45401" gradientUnits="userSpaceOnUse">
<stop stop-color="#6A11CB"/>
<stop offset="1" stop-color="#2575FC"/>
</linearGradient>
<linearGradient id="paint4_linear_67_7518" x1="20.4404" y1="4.45401" x2="29.0701" y2="4.45401" gradientUnits="userSpaceOnUse">
<stop stop-color="#6A11CB"/>
<stop offset="1" stop-color="#2575FC"/>
</linearGradient>
<linearGradient id="paint5_linear_67_7518" x1="39.3706" y1="4.45401" x2="48.0002" y2="4.45401" gradientUnits="userSpaceOnUse">
<stop stop-color="#6A11CB"/>
<stop offset="1" stop-color="#2575FC"/>
</linearGradient>
<linearGradient id="paint6_linear_67_7518" x1="-7.72021" y1="56.0922" x2="0.396335" y2="56.0922" gradientUnits="userSpaceOnUse">
<stop stop-color="#6A11CB"/>
<stop offset="1" stop-color="#2575FC"/>
</linearGradient>
<linearGradient id="paint7_linear_67_7518" x1="10.9736" y1="55.953" x2="19.3249" y2="55.953" gradientUnits="userSpaceOnUse">
<stop stop-color="#6A11CB"/>
<stop offset="1" stop-color="#2575FC"/>
</linearGradient>
<linearGradient id="paint8_linear_67_7518" x1="29.9043" y1="55.953" x2="38.2556" y2="55.953" gradientUnits="userSpaceOnUse">
<stop stop-color="#6A11CB"/>
<stop offset="1" stop-color="#2575FC"/>
</linearGradient>
<linearGradient id="paint9_linear_67_7518" x1="1.50977" y1="38.6942" x2="9.86105" y2="38.6942" gradientUnits="userSpaceOnUse">
<stop stop-color="#6A11CB"/>
<stop offset="1" stop-color="#2575FC"/>
</linearGradient>
<linearGradient id="paint10_linear_67_7518" x1="20.4404" y1="38.6942" x2="28.7917" y2="38.6942" gradientUnits="userSpaceOnUse">
<stop stop-color="#6A11CB"/>
<stop offset="1" stop-color="#2575FC"/>
</linearGradient>
<linearGradient id="paint11_linear_67_7518" x1="39.3691" y1="38.8334" x2="47.7204" y2="38.8334" gradientUnits="userSpaceOnUse">
<stop stop-color="#6A11CB"/>
<stop offset="1" stop-color="#2575FC"/>
</linearGradient>
<linearGradient id="paint12_linear_67_7518" x1="-7.71924" y1="90.3324" x2="0.397311" y2="90.3324" gradientUnits="userSpaceOnUse">
<stop stop-color="#6A11CB"/>
<stop offset="1" stop-color="#2575FC"/>
</linearGradient>
<linearGradient id="paint13_linear_67_7518" x1="10.9761" y1="90.1932" x2="19.3274" y2="90.1932" gradientUnits="userSpaceOnUse">
<stop stop-color="#6A11CB"/>
<stop offset="1" stop-color="#2575FC"/>
</linearGradient>
<linearGradient id="paint14_linear_67_7518" x1="29.9048" y1="90.1932" x2="38.256" y2="90.1932" gradientUnits="userSpaceOnUse">
<stop stop-color="#6A11CB"/>
<stop offset="1" stop-color="#2575FC"/>
</linearGradient>
<linearGradient id="paint15_linear_67_7518" x1="1.50977" y1="72.9344" x2="9.86105" y2="72.9344" gradientUnits="userSpaceOnUse">
<stop stop-color="#6A11CB"/>
<stop offset="1" stop-color="#2575FC"/>
</linearGradient>
<linearGradient id="paint16_linear_67_7518" x1="20.4404" y1="72.9344" x2="28.7917" y2="72.9344" gradientUnits="userSpaceOnUse">
<stop stop-color="#6A11CB"/>
<stop offset="1" stop-color="#2575FC"/>
</linearGradient>
<linearGradient id="paint17_linear_67_7518" x1="39.3691" y1="73.0736" x2="47.7204" y2="73.0736" gradientUnits="userSpaceOnUse">
<stop stop-color="#6A11CB"/>
<stop offset="1" stop-color="#2575FC"/>
</linearGradient>
<linearGradient id="paint18_linear_67_7518" x1="1.74512" y1="107.592" x2="9.86168" y2="107.592" gradientUnits="userSpaceOnUse">
<stop stop-color="#6A11CB"/>
<stop offset="1" stop-color="#2575FC"/>
</linearGradient>
<linearGradient id="paint19_linear_67_7518" x1="20.4404" y1="107.592" x2="28.7917" y2="107.592" gradientUnits="userSpaceOnUse">
<stop stop-color="#6A11CB"/>
<stop offset="1" stop-color="#2575FC"/>
</linearGradient>
<linearGradient id="paint20_linear_67_7518" x1="39.3706" y1="107.592" x2="47.7219" y2="107.592" gradientUnits="userSpaceOnUse">
<stop stop-color="#6A11CB"/>
<stop offset="1" stop-color="#2575FC"/>
</linearGradient>
</defs>
</svg>
