<svg width="63" height="27" viewBox="0 0 63 27" fill="none" xmlns="http://www.w3.org/2000/svg">
<g opacity="0.5">
<path d="M62.3738 14.7911L55.366 5.99939C54.9502 5.46467 54.1054 5.52064 53.4175 6.042L46.1438 11.7143L41.6311 6.13095C41.2153 5.59622 40.3705 5.6522 39.6826 6.17356L32.4089 11.8458L28.0256 6.29719C27.6098 5.76246 26.765 5.81844 26.0772 6.33979L18.8035 12.0121L14.4882 6.1994C14.0384 5.79668 13.0981 5.68597 12.5397 6.242L0.975318 15.1397C0.287444 15.6611 0.083416 16.4532 0.499252 16.9879L2.38752 19.3282C2.80335 19.8629 3.64814 19.8069 4.33601 19.2856L11.5757 13.7453L15.959 19.2939C16.1839 19.4953 16.5383 19.7313 16.8312 19.6687C17.2536 19.6407 17.5465 19.578 17.9075 19.2513L25.1471 13.7111L29.5304 19.2597C29.7553 19.4611 30.1097 19.6971 30.4026 19.6344C30.825 19.6065 31.118 19.5438 31.4789 19.2171L38.7186 13.6769L43.1019 19.2255C43.3268 19.4268 43.6812 19.6629 43.9741 19.6002C44.3965 19.5722 44.6894 19.5096 45.0504 19.1829L52.29 13.6426L56.8708 18.9619C57.2866 19.4966 58.1314 19.4407 58.8193 18.9193L61.8977 16.6392C62.4561 16.0832 62.6601 15.2911 62.3738 14.7911Z" fill="url(#paint0_linear_67_279)"/>
</g>
<defs>
<linearGradient id="paint0_linear_67_279" x1="2.98188" y1="5.7198" x2="61.1631" y2="20.7068" gradientUnits="userSpaceOnUse">
<stop stop-color="#C72A16"/>
<stop offset="0.998" stop-color="#BA2244"/>
</linearGradient>
</defs>
</svg>
