<svg width="25" height="138" viewBox="0 0 25 138" fill="none" xmlns="http://www.w3.org/2000/svg">
<g opacity="0.5">
<path fill-rule="evenodd" clip-rule="evenodd" d="M-1.89734 8.46887C-1.62634 8.19788 -1.21984 8.19788 -1.08434 8.46887L-0.542338 9.01087C-0.271338 9.28187 0.135163 9.28187 0.406162 9.01087L0.948161 8.46887C1.21916 8.19788 1.62566 8.19788 1.76116 8.46887C2.03216 8.73987 2.03216 9.14637 1.76116 9.28187C1.49016 9.55287 1.49016 9.55287 1.21916 9.82387C0.94816 10.0949 0.94816 10.5014 1.21916 10.7724L1.76116 11.3144C2.03216 11.5854 2.03216 11.9919 1.76116 12.1274C1.49016 12.3984 1.08366 12.3984 0.948161 12.1274L0.406162 11.5854C0.135163 11.3144 -0.271338 11.3144 -0.542338 11.5854L-1.08434 12.1274C-1.35534 12.3984 -1.76184 12.3984 -1.89734 12.1274C-2.16834 11.8564 -2.16834 11.4499 -1.89734 11.3144L-1.35534 10.7724C-1.08434 10.5014 -1.08434 10.0949 -1.35534 9.82387L-1.89734 9.41737C-2.03284 9.14637 -2.03284 8.73987 -1.89734 8.46887Z" fill="url(#paint0_linear_67_6188)"/>
<path fill-rule="evenodd" clip-rule="evenodd" d="M7.31702 8.46887C7.58802 8.19788 7.99452 8.19788 8.13002 8.46887L8.67202 9.01087C8.94302 9.28187 9.34952 9.28187 9.62052 9.01087L10.1625 8.46887C10.4335 8.19788 10.84 8.19788 10.9755 8.46887C11.2465 8.73987 11.2465 9.14637 10.9755 9.28187C10.7045 9.55287 10.7045 9.55287 10.4335 9.82387C10.1625 10.0949 10.1625 10.5014 10.4335 10.7724L10.9755 11.3144C11.2465 11.5854 11.2465 11.9919 10.9755 12.1274C10.7045 12.3984 10.298 12.3984 10.1625 12.1274L9.62052 11.5854C9.34952 11.3144 8.94302 11.3144 8.67202 11.5854L8.13002 12.1274C7.85902 12.3984 7.45252 12.3984 7.31702 12.1274C7.04602 11.8564 7.04602 11.4499 7.31702 11.3144L7.85902 10.7724C8.13002 10.5014 8.13002 10.0949 7.85902 9.82387L7.31702 9.28187C7.04602 9.14637 7.04602 8.73987 7.31702 8.46887Z" fill="url(#paint1_linear_67_6188)"/>
<path fill-rule="evenodd" clip-rule="evenodd" d="M16.5309 8.46887C16.8019 8.19788 17.2084 8.19788 17.3439 8.46887L17.8859 9.01087C18.1569 9.28187 18.5634 9.28187 18.8344 9.01087L19.3764 8.46887C19.6474 8.19788 20.0539 8.19788 20.1894 8.46887C20.4604 8.73987 20.4604 9.14637 20.1894 9.28187C19.9184 9.55287 19.9184 9.55287 19.6474 9.82387C19.3764 10.0949 19.3764 10.5014 19.6474 10.7724L20.1894 11.3144C20.4604 11.5854 20.4604 11.9919 20.1894 12.1274C19.9184 12.3984 19.5119 12.3984 19.3764 12.1274L18.8344 11.5854C18.5634 11.3144 18.1569 11.3144 17.8859 11.5854L17.3439 12.1274C17.0729 12.3984 16.6664 12.3984 16.5309 12.1274C16.2599 11.8564 16.2599 11.4499 16.5309 11.3144L17.0729 10.7724C17.3439 10.5014 17.3439 10.0949 17.0729 9.82387L16.5309 9.28187C16.2599 9.14637 16.2599 8.73987 16.5309 8.46887Z" fill="url(#paint2_linear_67_6188)"/>
<path fill-rule="evenodd" clip-rule="evenodd" d="M2.71057 0.20325C2.98157 -0.0677499 3.38807 -0.0677499 3.52357 0.20325L4.06557 0.745251C4.33657 1.01625 4.74307 1.01625 5.01407 0.745251L5.55607 0.20325C5.82707 -0.0677499 6.23357 -0.0677499 6.36907 0.20325C6.64007 0.474249 6.64007 0.880757 6.36907 1.01626C6.09807 1.28726 6.09807 1.28725 5.82707 1.55825C5.55607 1.82925 5.55607 2.23575 5.82707 2.50675L6.36907 3.04875C6.64007 3.31975 6.64007 3.72625 6.36907 3.86175C6.09807 4.13275 5.69157 4.13275 5.55607 3.86175L5.01407 3.31975C4.74307 3.04875 4.33657 3.04875 4.06557 3.31975L3.52357 3.86175C3.25257 4.13275 2.84607 4.13275 2.71057 3.86175C2.43957 3.59075 2.43957 3.18425 2.71057 3.04875L3.25257 2.50675C3.52357 2.23575 3.52357 1.82925 3.25257 1.55825L2.71057 1.01626C2.57507 0.745257 2.57507 0.33875 2.71057 0.20325Z" fill="url(#paint3_linear_67_6188)"/>
<path fill-rule="evenodd" clip-rule="evenodd" d="M11.9242 0.20325C12.1952 -0.0677499 12.6017 -0.0677499 12.7372 0.20325L13.2792 0.745251C13.5502 1.01625 13.9567 1.01625 14.2277 0.745251L14.7697 0.20325C15.0407 -0.0677499 15.4472 -0.0677499 15.5827 0.20325C15.8537 0.47425 15.8537 0.880757 15.5827 1.01626C15.3117 1.28726 15.3117 1.28725 15.0407 1.55825C14.7697 1.82925 14.7697 2.23575 15.0407 2.50675L15.5827 3.04876C15.8537 3.31975 15.8537 3.72625 15.5827 3.86175C15.3117 4.13275 14.9052 4.13275 14.7697 3.86175L14.3632 3.45525C14.0922 3.18425 13.6857 3.18425 13.4147 3.45525L12.8727 3.99725C12.6017 4.26825 12.1952 4.26825 12.0597 3.99725C11.7887 3.72625 11.7887 3.31975 12.0597 3.18425L12.6017 2.64225C12.8727 2.37125 12.8727 1.96476 12.6017 1.69376L12.0597 1.15175C11.6532 0.745255 11.6532 0.33875 11.9242 0.20325Z" fill="url(#paint4_linear_67_6188)"/>
<path fill-rule="evenodd" clip-rule="evenodd" d="M21.1383 0.20325C21.4093 -0.0677499 21.8158 -0.0677499 21.9513 0.20325L22.4933 0.745251C22.7643 1.01625 23.1708 1.01625 23.4418 0.745251L23.9838 0.20325C24.2548 -0.0677499 24.6613 -0.0677499 24.7968 0.20325C25.0678 0.474249 25.0678 0.880757 24.7968 1.01626C24.5258 1.28726 24.5258 1.28725 24.2548 1.55825C23.9838 1.82925 23.9838 2.23575 24.2548 2.50675L24.7968 3.04875C25.0678 3.31975 25.0678 3.72625 24.7968 3.86175C24.5258 4.13275 24.1193 4.13275 23.9838 3.86175L23.4418 3.31975C23.1708 3.04875 22.7643 3.04875 22.4933 3.31975L21.9513 3.86175C21.6803 4.13275 21.2738 4.13275 21.1383 3.86175C20.8673 3.59075 20.8673 3.18425 21.1383 3.04875L21.6803 2.50675C21.9513 2.23575 21.9513 1.82925 21.6803 1.55825L21.1383 1.01626C20.8673 0.745257 20.8673 0.33875 21.1383 0.20325Z" fill="url(#paint5_linear_67_6188)"/>
<path fill-rule="evenodd" clip-rule="evenodd" d="M-1.89734 25.2706C-1.62634 24.9996 -1.21984 24.9996 -1.08434 25.2706L-0.542338 25.8126C-0.271338 26.0836 0.135163 26.0836 0.406162 25.8126L0.948161 25.2706C1.21916 24.9996 1.62566 24.9996 1.76116 25.2706C2.03216 25.5416 2.03216 25.9481 1.76116 26.0836C1.49016 26.3546 1.49016 26.3546 1.21916 26.6256C0.94816 26.8966 0.94816 27.3031 1.21916 27.5741L1.76116 28.1161C2.03216 28.3871 2.03216 28.7936 1.76116 28.9291C1.49016 29.2001 1.08366 29.2001 0.948161 28.9291L0.406162 28.3871C0.135163 28.1161 -0.271338 28.1161 -0.542338 28.3871L-1.08434 28.9291C-1.35534 29.2001 -1.76184 29.2001 -1.89734 28.9291C-2.16834 28.6581 -2.16834 28.2516 -1.89734 28.1161L-1.35534 27.5741C-1.08434 27.3031 -1.08434 26.8966 -1.35534 26.6256L-1.89734 26.0836C-2.03284 25.8126 -2.03284 25.5416 -1.89734 25.2706Z" fill="url(#paint6_linear_67_6188)"/>
<path fill-rule="evenodd" clip-rule="evenodd" d="M7.31653 25.2706C7.58753 24.9996 7.99403 24.9996 8.12953 25.2706L8.67153 25.8126C8.94253 26.0836 9.34903 26.0836 9.62003 25.8126L10.162 25.2706C10.433 24.9996 10.8395 24.9996 10.975 25.2706C11.246 25.5416 11.246 25.9481 10.975 26.0836C10.704 26.3546 10.704 26.3546 10.433 26.6256C10.162 26.8966 10.162 27.3031 10.433 27.5741L10.975 28.1161C11.246 28.3871 11.246 28.7936 10.975 28.9291C10.704 29.2001 10.2975 29.2001 10.162 28.9291L9.62003 28.3871C9.34903 28.1161 8.94253 28.1161 8.67153 28.3871L8.12953 28.9291C7.85853 29.2001 7.45203 29.2001 7.31653 28.9291C7.04553 28.6581 7.04553 28.2516 7.31653 28.1161L7.85853 27.5741C8.12953 27.3031 8.12953 26.8966 7.85853 26.6256L7.31653 26.0836C7.04553 25.8126 7.04553 25.5416 7.31653 25.2706Z" fill="url(#paint7_linear_67_6188)"/>
<path fill-rule="evenodd" clip-rule="evenodd" d="M16.5309 25.2706C16.8019 24.9996 17.2084 24.9996 17.3439 25.2706L17.8859 25.8126C18.1569 26.0836 18.5634 26.0836 18.8344 25.8126L19.3764 25.2706C19.6474 24.9996 20.0539 24.9996 20.1894 25.2706C20.4604 25.5416 20.4604 25.9481 20.1894 26.0836C19.9184 26.3546 19.9184 26.3546 19.6474 26.6256C19.3764 26.8966 19.3764 27.3031 19.6474 27.5741L20.1894 28.1161C20.4604 28.3871 20.4604 28.7936 20.1894 28.9291C19.9184 29.2001 19.5119 29.2001 19.3764 28.9291L18.8344 28.3871C18.5634 28.1161 18.1569 28.1161 17.8859 28.3871L17.3439 28.9291C17.0729 29.2001 16.6664 29.2001 16.5309 28.9291C16.2599 28.6581 16.2599 28.2516 16.5309 28.1161L17.0729 27.7096C17.3439 27.4386 17.3439 27.0321 17.0729 26.7611L16.5309 26.2191C16.2599 25.8126 16.2599 25.5416 16.5309 25.2706Z" fill="url(#paint8_linear_67_6188)"/>
<path fill-rule="evenodd" clip-rule="evenodd" d="M2.71009 16.8698C2.98109 16.5988 3.38759 16.5988 3.52309 16.8698L4.06508 17.4118C4.33608 17.6828 4.74258 17.6828 5.01358 17.4118L5.55558 16.8698C5.82658 16.5988 6.23308 16.5988 6.36858 16.8698C6.63958 17.1408 6.63958 17.5473 6.36858 17.6828C6.09758 17.9538 6.09758 17.9538 5.82658 18.2248C5.55558 18.4958 5.55558 18.9022 5.82658 19.1732L6.36858 19.7152C6.63958 19.9862 6.63958 20.3927 6.36858 20.5282C6.09758 20.7992 5.69108 20.7992 5.55558 20.5282L5.01358 19.9863C4.74258 19.7153 4.33608 19.7153 4.06508 19.9863L3.52309 20.5282C3.25209 20.7992 2.84559 20.7992 2.71009 20.5282C2.43909 20.2572 2.43909 19.8507 2.71009 19.7152L3.25208 19.1732C3.52308 18.9022 3.52308 18.4958 3.25208 18.2248L2.71009 17.6828C2.57459 17.5473 2.57459 17.1408 2.71009 16.8698Z" fill="url(#paint9_linear_67_6188)"/>
<path fill-rule="evenodd" clip-rule="evenodd" d="M11.9242 16.8698C12.1952 16.5988 12.6017 16.5988 12.7372 16.8698L13.2792 17.4118C13.5502 17.6828 13.9567 17.6828 14.2277 17.4118L14.7697 16.8698C15.0407 16.5988 15.4472 16.5988 15.5827 16.8698C15.8537 17.1408 15.8537 17.5473 15.5827 17.6828C15.3117 17.9538 15.3117 17.9538 15.0407 18.2248C14.7697 18.4958 14.7697 18.9022 15.0407 19.1732L15.5827 19.7152C15.8537 19.9862 15.8537 20.3927 15.5827 20.5282C15.3117 20.7992 14.9052 20.7992 14.7697 20.5282L14.3632 20.1218C14.0922 19.8508 13.6857 19.8508 13.4147 20.1218L12.8727 20.6638C12.6017 20.9348 12.1952 20.9348 12.0597 20.6638C11.7887 20.3928 11.7887 19.9862 12.0597 19.8507L12.6017 19.3088C12.8727 19.0378 12.8727 18.6312 12.6017 18.3602L12.0597 17.8182C11.6532 17.5472 11.6532 17.1408 11.9242 16.8698Z" fill="url(#paint10_linear_67_6188)"/>
<path fill-rule="evenodd" clip-rule="evenodd" d="M21.1378 16.8698C21.4088 16.5988 21.8153 16.5988 21.9508 16.8698L22.4928 17.4118C22.7638 17.6828 23.1703 17.6828 23.4413 17.4118L23.9833 16.8698C24.2543 16.5988 24.6608 16.5988 24.7963 16.8698C25.0673 17.1408 25.0673 17.5473 24.7963 17.6828C24.5253 17.9538 24.5253 17.9538 24.2543 18.2248C23.9833 18.4958 23.9833 18.9022 24.2543 19.1732L24.7963 19.7152C25.0673 19.9862 25.0673 20.3927 24.7963 20.5282C24.5253 20.7992 24.1188 20.7992 23.9833 20.5282L23.4413 19.9863C23.1703 19.7153 22.7638 19.7153 22.4928 19.9863L21.9508 20.5282C21.6798 20.7992 21.2733 20.7992 21.1378 20.5282C20.8668 20.2572 20.8668 19.8507 21.1378 19.7152L21.6798 19.1732C21.9508 18.9022 21.9508 18.4958 21.6798 18.2248L21.1378 17.6828C20.8668 17.5473 20.8668 17.1408 21.1378 16.8698Z" fill="url(#paint11_linear_67_6188)"/>
<path fill-rule="evenodd" clip-rule="evenodd" d="M-1.89734 41.9371C-1.62634 41.6661 -1.21984 41.6661 -1.08434 41.9371L-0.542338 42.4791C-0.271338 42.7501 0.135163 42.7501 0.406162 42.4791L0.948161 41.9371C1.21916 41.6661 1.62566 41.6661 1.76116 41.9371C2.03216 42.2081 2.03216 42.6146 1.76116 42.7501C1.49016 43.0211 1.49016 43.0211 1.21916 43.2921C0.94816 43.5631 0.94816 43.9696 1.21916 44.2406L1.76116 44.7826C2.03216 45.0536 2.03216 45.4601 1.76116 45.5956C1.49016 45.8666 1.08366 45.8666 0.948161 45.5956L0.406162 45.0536C0.135163 44.7826 -0.271338 44.7826 -0.542338 45.0536L-1.08434 45.5956C-1.35534 45.8666 -1.76184 45.8666 -1.89734 45.5956C-2.16834 45.3246 -2.16834 44.9181 -1.89734 44.7826L-1.35534 44.2406C-1.08434 43.9696 -1.08434 43.5631 -1.35534 43.2921L-1.89734 42.7501C-2.03284 42.6146 -2.03284 42.2081 -1.89734 41.9371Z" fill="url(#paint12_linear_67_6188)"/>
<path fill-rule="evenodd" clip-rule="evenodd" d="M7.31702 41.9371C7.58802 41.6661 7.99452 41.6661 8.13002 41.9371L8.67202 42.4791C8.94302 42.7501 9.34952 42.7501 9.62052 42.4791L10.1625 41.9371C10.4335 41.6661 10.84 41.6661 10.9755 41.9371C11.2465 42.2081 11.2465 42.6146 10.9755 42.7501C10.7045 43.0211 10.7045 43.0211 10.4335 43.2921C10.1625 43.5631 10.1625 43.9696 10.4335 44.2406L10.9755 44.7826C11.2465 45.0536 11.2465 45.4601 10.9755 45.5956C10.7045 45.8666 10.298 45.8666 10.1625 45.5956L9.62052 45.0536C9.34952 44.7826 8.94302 44.7826 8.67202 45.0536L8.13002 45.5956C7.85902 45.8666 7.45252 45.8666 7.31702 45.5956C7.04602 45.3246 7.04602 44.9181 7.31702 44.7826L7.85902 44.2406C8.13002 43.9696 8.13002 43.5631 7.85902 43.2921L7.31702 42.7501C7.04602 42.6146 7.04602 42.2081 7.31702 41.9371Z" fill="url(#paint13_linear_67_6188)"/>
<path fill-rule="evenodd" clip-rule="evenodd" d="M16.5309 41.9371C16.8019 41.6661 17.2084 41.6661 17.3439 41.9371L17.8859 42.4791C18.1569 42.7501 18.5634 42.7501 18.8344 42.4791L19.3764 41.9371C19.6474 41.6661 20.0539 41.6661 20.1894 41.9371C20.4604 42.2081 20.4604 42.6146 20.1894 42.7501C19.9184 43.0211 19.9184 43.0211 19.6474 43.2921C19.3764 43.5631 19.3764 43.9696 19.6474 44.2406L20.1894 44.7826C20.4604 45.0536 20.4604 45.4601 20.1894 45.5956C19.9184 45.8666 19.5119 45.8666 19.3764 45.5956L18.8344 45.0536C18.5634 44.7826 18.1569 44.7826 17.8859 45.0536L17.3439 45.5956C17.0729 45.8666 16.6664 45.8666 16.5309 45.5956C16.2599 45.3246 16.2599 44.9181 16.5309 44.7826L17.0729 44.2406C17.3439 43.9696 17.3439 43.5631 17.0729 43.2921L16.5309 42.7501C16.2599 42.6146 16.2599 42.2081 16.5309 41.9371Z" fill="url(#paint14_linear_67_6188)"/>
<path fill-rule="evenodd" clip-rule="evenodd" d="M2.7096 33.6715C2.9806 33.4005 3.3871 33.4005 3.5226 33.6715L4.0646 34.2135C4.3356 34.4845 4.7421 34.4845 5.0131 34.2135L5.55509 33.6715C5.82609 33.4005 6.23259 33.4005 6.36809 33.6715C6.63909 33.9425 6.63909 34.349 6.36809 34.4845C6.09709 34.7555 6.0971 34.7555 5.8261 35.0265C5.5551 35.2975 5.5551 35.704 5.8261 35.975L6.36809 36.517C6.63909 36.788 6.63909 37.1945 6.36809 37.33C6.09709 37.601 5.69059 37.601 5.55509 37.33L5.0131 36.788C4.7421 36.517 4.3356 36.517 4.0646 36.788L3.5226 37.33C3.2516 37.601 2.8451 37.601 2.7096 37.33C2.4386 37.059 2.4386 36.6525 2.7096 36.517L3.2516 35.975C3.5226 35.704 3.5226 35.2975 3.2516 35.0265L2.7096 34.4845C2.5741 34.2135 2.5741 33.807 2.7096 33.6715Z" fill="url(#paint15_linear_67_6188)"/>
<path fill-rule="evenodd" clip-rule="evenodd" d="M11.924 33.6715C12.195 33.4005 12.6015 33.4005 12.7369 33.6715L13.279 34.2135C13.55 34.4845 13.9564 34.4845 14.2274 34.2135L14.7694 33.6715C15.0404 33.4005 15.4469 33.4005 15.5824 33.6715C15.8534 33.9425 15.8534 34.349 15.5824 34.4845C15.3114 34.7555 15.3114 34.7555 15.0404 35.0265C14.7694 35.2975 14.7694 35.704 15.0404 35.975L15.5824 36.517C15.8534 36.788 15.8534 37.1945 15.5824 37.33C15.3114 37.601 14.9049 37.601 14.7694 37.33L14.2274 36.788C13.9564 36.517 13.55 36.517 13.279 36.788L12.7369 37.33C12.466 37.601 12.0595 37.601 11.924 37.33C11.653 37.059 11.653 36.6525 11.924 36.517L12.466 35.975C12.737 35.704 12.737 35.2975 12.466 35.0265L11.924 34.4845C11.653 34.2135 11.653 33.807 11.924 33.6715Z" fill="url(#paint16_linear_67_6188)"/>
<path fill-rule="evenodd" clip-rule="evenodd" d="M21.1378 33.6715C21.4088 33.4005 21.8153 33.4005 21.9508 33.6715L22.4928 34.2135C22.7638 34.4845 23.1703 34.4845 23.4413 34.2135L23.9833 33.6715C24.2543 33.4005 24.6608 33.4005 24.7963 33.6715C25.0673 33.9425 25.0673 34.349 24.7963 34.4845C24.5253 34.7555 24.5253 34.7555 24.2543 35.0265C23.9833 35.2975 23.9833 35.704 24.2543 35.975L24.7963 36.517C25.0673 36.788 25.0673 37.1945 24.7963 37.33C24.5253 37.601 24.1188 37.601 23.9833 37.33L23.4413 36.788C23.1703 36.517 22.7638 36.517 22.4928 36.788L21.9508 37.33C21.6798 37.601 21.2733 37.601 21.1378 37.33C20.8668 37.059 20.8668 36.6525 21.1378 36.517L21.6798 35.975C21.9508 35.704 21.9508 35.2975 21.6798 35.0265L21.1378 34.4845C20.8668 34.2135 20.8668 33.807 21.1378 33.6715Z" fill="url(#paint17_linear_67_6188)"/>
<path fill-rule="evenodd" clip-rule="evenodd" d="M-1.89734 58.7389C-1.62634 58.4679 -1.21984 58.4679 -1.08434 58.7389L-0.542338 59.2809C-0.271338 59.5519 0.135163 59.5519 0.406162 59.2809L0.948161 58.7389C1.21916 58.4679 1.62566 58.4679 1.76116 58.7389C2.03216 59.0099 2.03216 59.4164 1.76116 59.5519C1.49016 59.8229 1.49016 59.8229 1.21916 60.0939C0.94816 60.3649 0.94816 60.7714 1.21916 61.0424L1.76116 61.5844C2.03216 61.8554 2.03216 62.2619 1.76116 62.3974C1.49016 62.6684 1.08366 62.6684 0.948161 62.3974L0.406162 61.8554C0.135163 61.5844 -0.271338 61.5844 -0.542338 61.8554L-1.08434 62.3974C-1.35534 62.6684 -1.76184 62.6684 -1.89734 62.3974C-2.16834 62.1264 -2.16834 61.7199 -1.89734 61.5844L-1.35534 61.0424C-1.08434 60.7714 -1.08434 60.3649 -1.35534 60.0939L-1.89734 59.5519C-2.03284 59.4164 -2.03284 59.0099 -1.89734 58.7389Z" fill="url(#paint18_linear_67_6188)"/>
<path fill-rule="evenodd" clip-rule="evenodd" d="M7.31653 58.7389C7.58753 58.4679 7.99403 58.4679 8.12953 58.7389L8.67153 59.2809C8.94253 59.5519 9.34903 59.5519 9.62003 59.2809L10.162 58.7389C10.433 58.4679 10.8395 58.4679 10.975 58.7389C11.246 59.0099 11.246 59.4164 10.975 59.5519C10.704 59.8229 10.704 59.8229 10.433 60.0939C10.162 60.3649 10.162 60.7714 10.433 61.0424L10.975 61.5844C11.246 61.8554 11.246 62.2619 10.975 62.3974C10.704 62.6684 10.2975 62.6684 10.162 62.3974L9.62003 61.8554C9.34903 61.5844 8.94253 61.5844 8.67153 61.8554L8.12953 62.3974C7.85853 62.6684 7.45203 62.6684 7.31653 62.3974C7.04553 62.1264 7.04553 61.7199 7.31653 61.5844L7.85853 61.0424C8.12953 60.7714 8.12953 60.3649 7.85853 60.0939L7.31653 59.5519C7.04553 59.4164 7.04553 59.0099 7.31653 58.7389Z" fill="url(#paint19_linear_67_6188)"/>
<path fill-rule="evenodd" clip-rule="evenodd" d="M16.5309 58.7389C16.8019 58.4679 17.2084 58.4679 17.3439 58.7389L17.8859 59.2809C18.1569 59.5519 18.5634 59.5519 18.8344 59.2809L19.3764 58.7389C19.6474 58.4679 20.0539 58.4679 20.1894 58.7389C20.4604 59.0099 20.4604 59.4164 20.1894 59.5519C19.9184 59.8229 19.9184 59.8229 19.6474 60.0939C19.3764 60.3649 19.3764 60.7714 19.6474 61.0424L20.1894 61.5844C20.4604 61.8554 20.4604 62.2619 20.1894 62.3974C19.9184 62.6684 19.5119 62.6684 19.3764 62.3974L18.8344 61.8554C18.5634 61.5844 18.1569 61.5844 17.8859 61.8554L17.3439 62.3974C17.0729 62.6684 16.6664 62.6684 16.5309 62.3974C16.2599 62.1264 16.2599 61.7199 16.5309 61.5844L17.0729 61.0424C17.3439 60.7714 17.3439 60.3649 17.0729 60.0939L16.5309 59.5519C16.2599 59.4164 16.2599 59.0099 16.5309 58.7389Z" fill="url(#paint20_linear_67_6188)"/>
<path fill-rule="evenodd" clip-rule="evenodd" d="M2.7096 50.338C2.9806 50.067 3.3871 50.067 3.5226 50.338L4.0646 50.88C4.3356 51.151 4.7421 51.151 5.0131 50.88L5.55509 50.338C5.82609 50.067 6.23259 50.067 6.36809 50.338C6.63909 50.609 6.63909 51.0155 6.36809 51.151C6.09709 51.422 6.0971 51.422 5.8261 51.693C5.5551 51.964 5.5551 52.3705 5.8261 52.6415L6.36809 53.1835C6.63909 53.4545 6.63909 53.861 6.36809 53.9965C6.09709 54.2675 5.69059 54.2675 5.55509 53.9965L5.0131 53.4545C4.7421 53.1835 4.3356 53.1835 4.0646 53.4545L3.5226 53.9965C3.2516 54.2675 2.8451 54.2675 2.7096 53.9965C2.4386 53.7255 2.4386 53.319 2.7096 53.1835L3.2516 52.6415C3.5226 52.3705 3.5226 51.964 3.2516 51.693L2.7096 51.151C2.5741 51.0155 2.5741 50.609 2.7096 50.338Z" fill="url(#paint21_linear_67_6188)"/>
<path fill-rule="evenodd" clip-rule="evenodd" d="M11.924 50.338C12.195 50.067 12.6015 50.067 12.7369 50.338L13.279 50.88C13.55 51.151 13.9564 51.151 14.2274 50.88L14.7694 50.338C15.0404 50.067 15.4469 50.067 15.5824 50.338C15.8534 50.609 15.8534 51.0155 15.5824 51.151C15.3114 51.422 15.3114 51.422 15.0404 51.693C14.7694 51.964 14.7694 52.3705 15.0404 52.6415L15.5824 53.1835C15.8534 53.4545 15.8534 53.861 15.5824 53.9965C15.3114 54.2675 14.9049 54.2675 14.7694 53.9965L14.2274 53.4545C13.9564 53.1835 13.55 53.1835 13.279 53.4545L12.7369 53.9965C12.466 54.2675 12.0595 54.2675 11.924 53.9965C11.653 53.7255 11.653 53.319 11.924 53.1835L12.466 52.6415C12.737 52.3705 12.737 51.964 12.466 51.693L11.924 51.151C11.653 51.0155 11.653 50.609 11.924 50.338Z" fill="url(#paint22_linear_67_6188)"/>
<path fill-rule="evenodd" clip-rule="evenodd" d="M21.1378 50.338C21.4088 50.067 21.8153 50.067 21.9508 50.338L22.4928 50.88C22.7638 51.151 23.1703 51.151 23.4413 50.88L23.9833 50.338C24.2543 50.067 24.6608 50.067 24.7963 50.338C25.0673 50.609 25.0673 51.0155 24.7963 51.151C24.5253 51.422 24.5253 51.422 24.2543 51.693C23.9833 51.964 23.9833 52.3705 24.2543 52.6415L24.7963 53.1835C25.0673 53.4545 25.0673 53.861 24.7963 53.9965C24.5253 54.2675 24.1188 54.2675 23.9833 53.9965L23.4413 53.4545C23.1703 53.1835 22.7638 53.1835 22.4928 53.4545L21.9508 53.9965C21.6798 54.2675 21.2733 54.2675 21.1378 53.9965C20.8668 53.7255 20.8668 53.319 21.1378 53.1835L21.6798 52.6415C21.9508 52.3705 21.9508 51.964 21.6798 51.693L21.1378 51.151C20.8668 51.0155 20.8668 50.609 21.1378 50.338Z" fill="url(#paint23_linear_67_6188)"/>
<path fill-rule="evenodd" clip-rule="evenodd" d="M-1.89734 75.5411C-1.62634 75.2701 -1.21984 75.2701 -1.08434 75.5411L-0.542338 76.0831C-0.271338 76.3541 0.135163 76.3541 0.406162 76.0831L0.948161 75.5411C1.21916 75.2701 1.62566 75.2701 1.76116 75.5411C2.03216 75.8121 2.03216 76.2186 1.76116 76.3541C1.49016 76.6251 1.49016 76.6251 1.21916 76.8961C0.94816 77.1671 0.94816 77.5736 1.21916 77.8446L1.76116 78.3866C2.03216 78.6576 2.03216 79.0641 1.76116 79.1996C1.49016 79.4706 1.08366 79.4706 0.948161 79.1996L0.406162 78.6576C0.135163 78.3866 -0.271338 78.3866 -0.542338 78.6576L-1.08434 79.1996C-1.35534 79.4706 -1.76184 79.4706 -1.89734 79.1996C-2.16834 78.9286 -2.16834 78.5221 -1.89734 78.3866L-1.35534 77.8446C-1.08434 77.5736 -1.08434 77.1671 -1.35534 76.8961L-1.89734 76.3541C-2.03284 76.0831 -2.03284 75.6766 -1.89734 75.5411Z" fill="url(#paint24_linear_67_6188)"/>
<path fill-rule="evenodd" clip-rule="evenodd" d="M7.31653 75.5411C7.58753 75.2701 7.99403 75.2701 8.12953 75.5411L8.67153 76.0831C8.94253 76.3541 9.34903 76.3541 9.62003 76.0831L10.162 75.5411C10.433 75.2701 10.8395 75.2701 10.975 75.5411C11.246 75.8121 11.246 76.2186 10.975 76.3541C10.704 76.6251 10.704 76.6251 10.433 76.8961C10.162 77.1671 10.162 77.5736 10.433 77.8446L10.975 78.3866C11.246 78.6576 11.246 79.0641 10.975 79.1996C10.704 79.4706 10.2975 79.4706 10.162 79.1996L9.62003 78.6576C9.34903 78.3866 8.94253 78.3866 8.67153 78.6576L8.12953 79.1996C7.85853 79.4706 7.45203 79.4706 7.31653 79.1996C7.04553 78.9286 7.04553 78.5221 7.31653 78.3866L7.85853 77.8446C8.12953 77.5736 8.12953 77.1671 7.85853 76.8961L7.31653 76.3541C7.04553 76.0831 7.04553 75.6766 7.31653 75.5411Z" fill="url(#paint25_linear_67_6188)"/>
<path fill-rule="evenodd" clip-rule="evenodd" d="M16.5309 75.5411C16.8019 75.2701 17.2084 75.2701 17.3439 75.5411L17.8859 76.0831C18.1569 76.3541 18.5634 76.3541 18.8344 76.0831L19.3764 75.5411C19.6474 75.2701 20.0539 75.2701 20.1894 75.5411C20.4604 75.8121 20.4604 76.2186 20.1894 76.3541C19.9184 76.6251 19.9184 76.6251 19.6474 76.8961C19.3764 77.1671 19.3764 77.5736 19.6474 77.8446L20.1894 78.3866C20.4604 78.6576 20.4604 79.0641 20.1894 79.1996C19.9184 79.4706 19.5119 79.4706 19.3764 79.1996L18.8344 78.6576C18.5634 78.3866 18.1569 78.3866 17.8859 78.6576L17.3439 79.1996C17.0729 79.4706 16.6664 79.4706 16.5309 79.1996C16.2599 78.9286 16.2599 78.5221 16.5309 78.3866L17.0729 77.8446C17.3439 77.5736 17.3439 77.1671 17.0729 76.8961L16.5309 76.3541C16.2599 76.0831 16.2599 75.6766 16.5309 75.5411Z" fill="url(#paint26_linear_67_6188)"/>
<path fill-rule="evenodd" clip-rule="evenodd" d="M2.7096 67.1403C2.9806 66.8693 3.3871 66.8693 3.5226 67.1403L4.0646 67.6823C4.3356 67.9533 4.7421 67.9533 5.0131 67.6823L5.55509 67.1403C5.82609 66.8693 6.23259 66.8693 6.36809 67.1403C6.63909 67.4113 6.63909 67.8177 6.36809 67.9532C6.09709 68.2242 6.0971 68.2243 5.8261 68.4953C5.5551 68.7663 5.5551 69.1728 5.8261 69.4438L6.36809 69.9857C6.63909 70.2567 6.63909 70.6633 6.36809 70.7988C6.09709 71.0698 5.69059 71.0698 5.55509 70.7988L5.0131 70.2567C4.7421 69.9857 4.3356 69.9857 4.0646 70.2567L3.5226 70.7988C3.2516 71.0698 2.8451 71.0698 2.7096 70.7988C2.4386 70.5278 2.4386 70.1212 2.7096 69.9857L3.2516 69.4438C3.5226 69.1728 3.5226 68.7663 3.2516 68.4953L2.7096 67.9532C2.5741 67.6822 2.5741 67.4113 2.7096 67.1403Z" fill="url(#paint27_linear_67_6188)"/>
<path fill-rule="evenodd" clip-rule="evenodd" d="M11.924 67.1403C12.195 66.8693 12.6015 66.8693 12.7369 67.1403L13.279 67.6823C13.55 67.9533 13.9564 67.9533 14.2274 67.6823L14.7694 67.1403C15.0404 66.8693 15.4469 66.8693 15.5824 67.1403C15.8534 67.4113 15.8534 67.8177 15.5824 67.9532C15.3114 68.2242 15.3114 68.2243 15.0404 68.4953C14.7694 68.7663 14.7694 69.1728 15.0404 69.4438L15.5824 69.9857C15.8534 70.2567 15.8534 70.6633 15.5824 70.7988C15.3114 71.0698 14.9049 71.0698 14.7694 70.7988L14.2274 70.2567C13.9564 69.9857 13.55 69.9857 13.279 70.2567L12.7369 70.7988C12.466 71.0698 12.0595 71.0698 11.924 70.7988C11.653 70.5278 11.653 70.1212 11.924 69.9857L12.466 69.4438C12.737 69.1728 12.737 68.7663 12.466 68.4953L11.924 67.9532C11.653 67.6822 11.653 67.4113 11.924 67.1403Z" fill="url(#paint28_linear_67_6188)"/>
<path fill-rule="evenodd" clip-rule="evenodd" d="M21.1378 67.1403C21.4088 66.8693 21.8153 66.8693 21.9508 67.1403L22.4928 67.6823C22.7638 67.9533 23.1703 67.9533 23.4413 67.6823L23.9833 67.1403C24.2543 66.8693 24.6608 66.8693 24.7963 67.1403C25.0673 67.4113 25.0673 67.8177 24.7963 67.9532C24.5253 68.2242 24.5253 68.2243 24.2543 68.4953C23.9833 68.7663 23.9833 69.1728 24.2543 69.4438L24.7963 69.9857C25.0673 70.2567 25.0673 70.6633 24.7963 70.7988C24.5253 71.0698 24.1188 71.0698 23.9833 70.7988L23.4413 70.2567C23.1703 69.9857 22.7638 69.9857 22.4928 70.2567L21.9508 70.7988C21.6798 71.0698 21.2733 71.0698 21.1378 70.7988C20.8668 70.5278 20.8668 70.1212 21.1378 69.9857L21.6798 69.4438C21.9508 69.1728 21.9508 68.7663 21.6798 68.4953L21.1378 67.9532C20.8668 67.6822 20.8668 67.4113 21.1378 67.1403Z" fill="url(#paint29_linear_67_6188)"/>
<path fill-rule="evenodd" clip-rule="evenodd" d="M-1.89734 92.2076C-1.62634 91.9366 -1.21984 91.9366 -1.08434 92.2076L-0.542338 92.7496C-0.271338 93.0206 0.135163 93.0206 0.406162 92.7496L0.948161 92.2076C1.21916 91.9366 1.62566 91.9366 1.76116 92.2076C2.03216 92.4786 2.03216 92.8851 1.76116 93.0206C1.49016 93.2916 1.49016 93.2916 1.21916 93.5626C0.94816 93.8336 0.94816 94.2401 1.21916 94.5111L1.76116 95.0531C2.03216 95.3241 2.03216 95.7306 1.76116 95.8661C1.49016 96.1371 1.08366 96.1371 0.948161 95.8661L0.406162 95.3241C0.135163 95.0531 -0.271338 95.0531 -0.542338 95.3241L-1.08434 95.8661C-1.35534 96.1371 -1.76184 96.1371 -1.89734 95.8661C-2.16834 95.5951 -2.16834 95.1886 -1.89734 95.0531L-1.35534 94.5111C-1.08434 94.2401 -1.08434 93.8336 -1.35534 93.5626L-1.89734 93.0206C-2.03284 92.8851 -2.03284 92.4786 -1.89734 92.2076Z" fill="url(#paint30_linear_67_6188)"/>
<path fill-rule="evenodd" clip-rule="evenodd" d="M7.31702 92.2076C7.58802 91.9366 7.99452 91.9366 8.13002 92.2076L8.67202 92.7496C8.94302 93.0206 9.34952 93.0206 9.62052 92.7496L10.1625 92.2076C10.4335 91.9366 10.84 91.9366 10.9755 92.2076C11.2465 92.4786 11.2465 92.8851 10.9755 93.0206C10.7045 93.2916 10.7045 93.2916 10.4335 93.5626C10.1625 93.8336 10.1625 94.2401 10.4335 94.5111L10.9755 95.0531C11.2465 95.3241 11.2465 95.7306 10.9755 95.8661C10.7045 96.1371 10.298 96.1371 10.1625 95.8661L9.62052 95.3241C9.34952 95.0531 8.94302 95.0531 8.67202 95.3241L8.13002 95.8661C7.85902 96.1371 7.45252 96.1371 7.31702 95.8661C7.04602 95.5951 7.04602 95.1886 7.31702 95.0531L7.85902 94.5111C8.13002 94.2401 8.13002 93.8336 7.85902 93.5626L7.31702 93.0206C7.04602 92.8851 7.04602 92.4786 7.31702 92.2076Z" fill="url(#paint31_linear_67_6188)"/>
<path fill-rule="evenodd" clip-rule="evenodd" d="M16.5309 92.2076C16.8019 91.9366 17.2084 91.9366 17.3439 92.2076L17.8859 92.7496C18.1569 93.0206 18.5634 93.0206 18.8344 92.7496L19.3764 92.2076C19.6474 91.9366 20.0539 91.9366 20.1894 92.2076C20.4604 92.4786 20.4604 92.8851 20.1894 93.0206C19.9184 93.2916 19.9184 93.2916 19.6474 93.5626C19.3764 93.8336 19.3764 94.2401 19.6474 94.5111L20.1894 95.0531C20.4604 95.3241 20.4604 95.7306 20.1894 95.8661C19.9184 96.1371 19.5119 96.1371 19.3764 95.8661L18.8344 95.3241C18.5634 95.0531 18.1569 95.0531 17.8859 95.3241L17.3439 95.8661C17.0729 96.1371 16.6664 96.1371 16.5309 95.8661C16.2599 95.5951 16.2599 95.1886 16.5309 95.0531L17.0729 94.5111C17.3439 94.2401 17.3439 93.8336 17.0729 93.5626L16.5309 93.0206C16.2599 92.8851 16.2599 92.4786 16.5309 92.2076Z" fill="url(#paint32_linear_67_6188)"/>
<path fill-rule="evenodd" clip-rule="evenodd" d="M2.7096 83.8068C2.9806 83.5358 3.3871 83.5358 3.5226 83.8068L4.0646 84.3488C4.3356 84.6198 4.7421 84.6198 5.0131 84.3488L5.55509 83.8068C5.82609 83.5358 6.23259 83.5358 6.36809 83.8068C6.63909 84.0778 6.63909 84.4843 6.36809 84.6198C6.09709 84.8908 6.0971 84.8908 5.8261 85.1618C5.5551 85.4328 5.5551 85.8393 5.8261 86.1103L6.36809 86.6523C6.63909 86.9233 6.63909 87.3298 6.36809 87.4653C6.09709 87.7363 5.69059 87.7363 5.55509 87.4653L5.0131 86.9233C4.7421 86.6523 4.3356 86.6523 4.0646 86.9233L3.5226 87.4653C3.2516 87.7363 2.8451 87.7363 2.7096 87.4653C2.4386 87.1943 2.4386 86.7878 2.7096 86.6523L3.2516 86.1103C3.5226 85.8393 3.5226 85.4328 3.2516 85.1618L2.7096 84.6198C2.5741 84.4843 2.5741 84.0778 2.7096 83.8068Z" fill="url(#paint33_linear_67_6188)"/>
<path fill-rule="evenodd" clip-rule="evenodd" d="M11.924 83.8068C12.195 83.5358 12.6015 83.5358 12.7369 83.8068L13.279 84.3488C13.55 84.6198 13.9564 84.6198 14.2274 84.3488L14.7694 83.8068C15.0404 83.5358 15.4469 83.5358 15.5824 83.8068C15.8534 84.0778 15.8534 84.4843 15.5824 84.6198C15.3114 84.8908 15.3114 84.8908 15.0404 85.1618C14.7694 85.4328 14.7694 85.8393 15.0404 86.1103L15.5824 86.6523C15.8534 86.9233 15.8534 87.3298 15.5824 87.4653C15.3114 87.7363 14.9049 87.7363 14.7694 87.4653L14.2274 86.9233C13.9564 86.6523 13.55 86.6523 13.279 86.9233L12.7369 87.4653C12.466 87.7363 12.0595 87.7363 11.924 87.4653C11.653 87.1943 11.653 86.7878 11.924 86.6523L12.466 86.1103C12.737 85.8393 12.737 85.4328 12.466 85.1618L11.924 84.6198C11.653 84.4843 11.653 84.0778 11.924 83.8068Z" fill="url(#paint34_linear_67_6188)"/>
<path fill-rule="evenodd" clip-rule="evenodd" d="M21.1378 83.8068C21.4088 83.5358 21.8153 83.5358 21.9508 83.8068L22.4928 84.3488C22.7638 84.6198 23.1703 84.6198 23.4413 84.3488L23.9833 83.8068C24.2543 83.5358 24.6608 83.5358 24.7963 83.8068C25.0673 84.0778 25.0673 84.4843 24.7963 84.6198C24.5253 84.8908 24.5253 84.8908 24.2543 85.1618C23.9833 85.4328 23.9833 85.8393 24.2543 86.1103L24.7963 86.6523C25.0673 86.9233 25.0673 87.3298 24.7963 87.4653C24.5253 87.7363 24.1188 87.7363 23.9833 87.4653L23.4413 86.9233C23.1703 86.6523 22.7638 86.6523 22.4928 86.9233L21.9508 87.4653C21.6798 87.7363 21.2733 87.7363 21.1378 87.4653C20.8668 87.1943 20.8668 86.7878 21.1378 86.6523L21.6798 86.1103C21.9508 85.8393 21.9508 85.4328 21.6798 85.1618L21.1378 84.6198C20.8668 84.4843 20.8668 84.0778 21.1378 83.8068Z" fill="url(#paint35_linear_67_6188)"/>
<path fill-rule="evenodd" clip-rule="evenodd" d="M-1.89734 109.01C-1.62634 108.739 -1.21984 108.739 -1.08434 109.01L-0.542338 109.552C-0.271338 109.823 0.135163 109.823 0.406162 109.552L0.948161 109.01C1.21916 108.739 1.62566 108.739 1.76116 109.01C2.03216 109.281 2.03216 109.687 1.76116 109.823C1.49016 110.094 1.49016 110.094 1.21916 110.365C0.94816 110.636 0.94816 111.042 1.21916 111.313L1.76116 111.855C2.03216 112.126 2.03216 112.533 1.76116 112.668C1.49016 112.939 1.08366 112.939 0.948161 112.668L0.406162 112.126C0.135163 111.855 -0.271338 111.855 -0.542338 112.126L-1.08434 112.668C-1.35534 112.939 -1.76184 112.939 -1.89734 112.668C-2.16834 112.397 -2.16834 111.991 -1.89734 111.855L-1.35534 111.313C-1.08434 111.042 -1.08434 110.636 -1.35534 110.365L-1.89734 109.823C-2.03284 109.552 -2.03284 109.145 -1.89734 109.01Z" fill="url(#paint36_linear_67_6188)"/>
<path fill-rule="evenodd" clip-rule="evenodd" d="M7.3168 109.01C7.5878 108.739 7.9943 108.739 8.1298 109.01L8.6718 109.552C8.9428 109.823 9.3493 109.823 9.6203 109.552L10.2978 109.01C10.5688 108.739 10.9753 108.739 11.1108 109.01C11.3818 109.281 11.3818 109.687 11.1108 109.823C10.8398 110.094 10.8398 110.094 10.5688 110.365C10.2978 110.636 10.2978 111.042 10.5688 111.313L11.1108 111.855C11.3818 112.126 11.3818 112.533 11.1108 112.668C10.8398 112.939 10.4333 112.939 10.2978 112.668L9.7558 112.126C9.4848 111.855 9.0783 111.855 8.8073 112.126L8.2653 112.668C7.9943 112.939 7.5878 112.939 7.4523 112.668C7.1813 112.397 7.1813 111.991 7.4523 111.855L7.9943 111.313C8.2653 111.042 8.2653 110.636 7.9943 110.365L7.4523 109.823C7.0458 109.552 7.0458 109.145 7.3168 109.01Z" fill="url(#paint37_linear_67_6188)"/>
<path fill-rule="evenodd" clip-rule="evenodd" d="M16.5309 109.01C16.8019 108.739 17.2084 108.739 17.3439 109.01L17.8859 109.552C18.1569 109.823 18.5634 109.823 18.8344 109.552L19.3764 109.01C19.6474 108.739 20.0539 108.739 20.1894 109.01C20.4604 109.281 20.4604 109.687 20.1894 109.823C19.9184 110.094 19.9184 110.094 19.6474 110.365C19.3764 110.636 19.3764 111.042 19.6474 111.313L20.1894 111.855C20.4604 112.126 20.4604 112.533 20.1894 112.668C19.9184 112.939 19.5119 112.939 19.3764 112.668L18.8344 112.126C18.5634 111.855 18.1569 111.855 17.8859 112.126L17.3439 112.668C17.0729 112.939 16.6664 112.939 16.5309 112.668C16.2599 112.397 16.2599 111.991 16.5309 111.855L17.0729 111.313C17.3439 111.042 17.3439 110.636 17.0729 110.365L16.5309 109.823C16.2599 109.552 16.2599 109.145 16.5309 109.01Z" fill="url(#paint38_linear_67_6188)"/>
<path fill-rule="evenodd" clip-rule="evenodd" d="M2.71009 100.609C2.98109 100.338 3.38759 100.338 3.52309 100.609L4.06508 101.151C4.33608 101.422 4.74258 101.422 5.01358 101.151L5.55558 100.609C5.82658 100.338 6.23308 100.338 6.36858 100.609C6.63958 100.88 6.63958 101.286 6.36858 101.422C6.09758 101.693 6.09758 101.693 5.82658 101.964C5.55558 102.235 5.55558 102.641 5.82658 102.912L6.36858 103.454C6.63958 103.725 6.63958 104.132 6.36858 104.267C6.09758 104.538 5.69108 104.538 5.55558 104.267L5.01358 103.725C4.74258 103.454 4.33608 103.454 4.06508 103.725L3.52309 104.267C3.25209 104.538 2.84559 104.538 2.71009 104.267C2.43909 103.996 2.43909 103.59 2.71009 103.454L3.25208 102.912C3.52308 102.641 3.52308 102.235 3.25208 101.964L2.71009 101.422C2.57459 101.151 2.57459 100.88 2.71009 100.609Z" fill="url(#paint39_linear_67_6188)"/>
<path fill-rule="evenodd" clip-rule="evenodd" d="M11.9242 100.609C12.1952 100.338 12.6017 100.338 12.7372 100.609L13.2792 101.151C13.5502 101.422 13.9567 101.422 14.2277 101.151L14.7697 100.609C15.0407 100.338 15.4472 100.338 15.5827 100.609C15.8537 100.88 15.8537 101.286 15.5827 101.422C15.3117 101.693 15.3117 101.693 15.0407 101.964C14.7697 102.235 14.7697 102.641 15.0407 102.912L15.7182 103.59C15.9892 103.861 15.9892 104.267 15.7182 104.403C15.4472 104.674 15.0407 104.674 14.9052 104.403L14.3632 103.861C14.0922 103.59 13.6857 103.59 13.4147 103.861L12.8727 104.403C12.6017 104.674 12.1952 104.674 12.0597 104.403C11.7887 104.132 11.7887 103.725 12.0597 103.59L12.6017 103.048C12.8727 102.777 12.8727 102.37 12.6017 102.099L12.0597 101.557C11.6532 101.151 11.6532 100.88 11.9242 100.609Z" fill="url(#paint40_linear_67_6188)"/>
<path fill-rule="evenodd" clip-rule="evenodd" d="M21.1378 100.609C21.4088 100.338 21.8153 100.338 21.9508 100.609L22.4928 101.151C22.7638 101.422 23.1703 101.422 23.4413 101.151L23.9833 100.609C24.2543 100.338 24.6608 100.338 24.7963 100.609C25.0673 100.88 25.0673 101.286 24.7963 101.422C24.5253 101.693 24.5253 101.693 24.2543 101.964C23.9833 102.235 23.9833 102.641 24.2543 102.912L24.7963 103.454C25.0673 103.725 25.0673 104.132 24.7963 104.267C24.5253 104.538 24.1188 104.538 23.9833 104.267L23.4413 103.725C23.1703 103.454 22.7638 103.454 22.4928 103.725L21.9508 104.267C21.6798 104.538 21.2733 104.538 21.1378 104.267C20.8668 103.996 20.8668 103.59 21.1378 103.454L21.6798 102.912C21.9508 102.641 21.9508 102.235 21.6798 101.964L21.1378 101.422C20.8668 101.151 20.8668 100.88 21.1378 100.609Z" fill="url(#paint41_linear_67_6188)"/>
<path fill-rule="evenodd" clip-rule="evenodd" d="M-1.89734 125.676C-1.62634 125.405 -1.21984 125.405 -1.08434 125.676L-0.542338 126.218C-0.271338 126.489 0.135163 126.489 0.406162 126.218L0.948161 125.676C1.21916 125.405 1.62566 125.405 1.76116 125.676C2.03216 125.947 2.03216 126.353 1.76116 126.489C1.49016 126.76 1.49016 126.76 1.21916 127.031C0.94816 127.302 0.94816 127.708 1.21916 127.979L1.76116 128.521C2.03216 128.792 2.03216 129.199 1.76116 129.334C1.49016 129.605 1.08366 129.605 0.948161 129.334L0.406162 128.792C0.135163 128.521 -0.271338 128.521 -0.542338 128.792L-1.08434 129.334C-1.35534 129.605 -1.76184 129.605 -1.89734 129.334C-2.16834 129.063 -2.16834 128.657 -1.89734 128.521L-1.35534 127.979C-1.08434 127.708 -1.08434 127.302 -1.35534 127.031L-1.89734 126.624C-2.03284 126.353 -2.03284 125.947 -1.89734 125.676Z" fill="url(#paint42_linear_67_6188)"/>
<path fill-rule="evenodd" clip-rule="evenodd" d="M7.31653 125.676C7.58753 125.405 7.99403 125.405 8.12953 125.676L8.67153 126.218C8.94253 126.489 9.34903 126.489 9.62003 126.218L10.162 125.676C10.433 125.405 10.8395 125.405 10.975 125.676C11.246 125.947 11.246 126.353 10.975 126.489C10.704 126.76 10.704 126.76 10.433 127.031C10.162 127.302 10.162 127.708 10.433 127.979L10.975 128.521C11.246 128.792 11.246 129.199 10.975 129.334C10.704 129.605 10.2975 129.605 10.162 129.334L9.62003 128.792C9.34903 128.521 8.94253 128.521 8.67153 128.792L8.12953 129.334C7.85853 129.605 7.45203 129.605 7.31653 129.334C7.04553 129.063 7.04553 128.657 7.31653 128.521L7.85853 127.979C8.12953 127.708 8.12953 127.302 7.85853 127.031L7.31653 126.489C7.04553 126.353 7.04553 125.947 7.31653 125.676Z" fill="url(#paint43_linear_67_6188)"/>
<path fill-rule="evenodd" clip-rule="evenodd" d="M16.5309 125.676C16.8019 125.405 17.2084 125.405 17.3439 125.676L17.8859 126.218C18.1569 126.489 18.5634 126.489 18.8344 126.218L19.3764 125.676C19.6474 125.405 20.0539 125.405 20.1894 125.676C20.4604 125.947 20.4604 126.353 20.1894 126.489C19.9184 126.76 19.9184 126.76 19.6474 127.031C19.3764 127.302 19.3764 127.708 19.6474 127.979L20.1894 128.521C20.4604 128.792 20.4604 129.199 20.1894 129.334C19.9184 129.605 19.5119 129.605 19.3764 129.334L18.8344 128.792C18.5634 128.521 18.1569 128.521 17.8859 128.792L17.3439 129.334C17.0729 129.605 16.6664 129.605 16.5309 129.334C16.2599 129.063 16.2599 128.657 16.5309 128.521L17.0729 127.979C17.3439 127.708 17.3439 127.302 17.0729 127.031L16.5309 126.489C16.2599 126.353 16.2599 125.947 16.5309 125.676Z" fill="url(#paint44_linear_67_6188)"/>
<path fill-rule="evenodd" clip-rule="evenodd" d="M2.71009 117.275C2.98109 117.004 3.38759 117.004 3.52309 117.275L4.06508 117.817C4.33608 118.088 4.74258 118.088 5.01358 117.817L5.55558 117.275C5.82658 117.004 6.23308 117.004 6.36858 117.275C6.63958 117.546 6.63958 117.953 6.36858 118.088C6.09758 118.359 6.09758 118.359 5.82658 118.63C5.55558 118.901 5.55558 119.308 5.82658 119.579L6.36858 120.121C6.63958 120.392 6.63958 120.798 6.36858 120.934C6.09758 121.205 5.69108 121.205 5.55558 120.934L5.01358 120.392C4.74258 120.121 4.33608 120.121 4.06508 120.392L3.52309 120.934C3.25209 121.205 2.84559 121.205 2.71009 120.934C2.43909 120.663 2.43909 120.256 2.71009 120.121L3.25208 119.579C3.52308 119.308 3.52308 118.901 3.25208 118.63L2.71009 118.088C2.57459 117.953 2.57459 117.546 2.71009 117.275Z" fill="url(#paint45_linear_67_6188)"/>
<path fill-rule="evenodd" clip-rule="evenodd" d="M11.9235 117.275C12.1945 117.004 12.601 117.004 12.7365 117.275L13.2785 117.817C13.5495 118.088 13.956 118.088 14.227 117.817L14.769 117.275C15.04 117.004 15.4465 117.004 15.582 117.275C15.853 117.546 15.853 117.953 15.582 118.088C15.311 118.359 15.311 118.359 15.04 118.63C14.769 118.901 14.769 119.308 15.04 119.579L15.582 120.121C15.853 120.392 15.853 120.798 15.582 120.934C15.311 121.205 14.9045 121.205 14.769 120.934L14.227 120.392C13.956 120.121 13.5495 120.121 13.2785 120.392L12.7365 120.934C12.4655 121.205 12.059 121.205 11.9235 120.934C11.6525 120.663 11.6525 120.256 11.9235 120.121L12.4655 119.579C12.7365 119.308 12.7365 118.901 12.4655 118.63L11.9235 118.088C11.6525 117.953 11.6525 117.546 11.9235 117.275Z" fill="url(#paint46_linear_67_6188)"/>
<path fill-rule="evenodd" clip-rule="evenodd" d="M21.1378 117.275C21.4088 117.004 21.8153 117.004 21.9508 117.275L22.4928 117.817C22.7638 118.088 23.1703 118.088 23.4413 117.817L23.9833 117.275C24.2543 117.004 24.6608 117.004 24.7963 117.275C25.0673 117.546 25.0673 117.953 24.7963 118.088C24.5253 118.359 24.5253 118.359 24.2543 118.63C23.9833 118.901 23.9833 119.308 24.2543 119.579L24.7963 120.121C25.0673 120.392 25.0673 120.798 24.7963 120.934C24.5253 121.205 24.1188 121.205 23.9833 120.934L23.4413 120.392C23.1703 120.121 22.7638 120.121 22.4928 120.392L21.9508 120.934C21.6798 121.205 21.2733 121.205 21.1378 120.934C20.8668 120.663 20.8668 120.256 21.1378 120.121L21.6798 119.579C21.9508 119.308 21.9508 118.901 21.6798 118.63L21.1378 118.088C20.8668 117.953 20.8668 117.546 21.1378 117.275Z" fill="url(#paint47_linear_67_6188)"/>
<path fill-rule="evenodd" clip-rule="evenodd" d="M2.7096 134.077C2.9806 133.806 3.3871 133.806 3.5226 134.077L4.0646 134.619C4.3356 134.89 4.7421 134.89 5.0131 134.619L5.55509 134.077C5.82609 133.806 6.23259 133.806 6.36809 134.077C6.63909 134.348 6.63909 134.754 6.36809 134.89C6.09709 135.161 6.0971 135.161 5.8261 135.432C5.5551 135.703 5.5551 136.109 5.8261 136.38L6.36809 136.922C6.63909 137.193 6.63909 137.6 6.36809 137.735C6.09709 138.006 5.69059 138.006 5.55509 137.735L5.0131 137.193C4.7421 136.922 4.3356 136.922 4.0646 137.193L3.5226 137.735C3.2516 138.006 2.8451 138.006 2.7096 137.735C2.4386 137.464 2.4386 137.058 2.7096 136.922L3.2516 136.38C3.5226 136.109 3.5226 135.703 3.2516 135.432L2.7096 134.89C2.5741 134.754 2.5741 134.348 2.7096 134.077Z" fill="url(#paint48_linear_67_6188)"/>
<path fill-rule="evenodd" clip-rule="evenodd" d="M11.924 134.077C12.195 133.806 12.6015 133.806 12.7369 134.077L13.279 134.619C13.55 134.89 13.9564 134.89 14.2274 134.619L14.7694 134.077C15.0404 133.806 15.4469 133.806 15.5824 134.077C15.8534 134.348 15.8534 134.754 15.5824 134.89C15.3114 135.161 15.3114 135.161 15.0404 135.432C14.7694 135.703 14.7694 136.109 15.0404 136.38L15.5824 136.922C15.8534 137.193 15.8534 137.6 15.5824 137.735C15.3114 138.006 14.9049 138.006 14.7694 137.735L14.2274 137.193C13.9564 136.922 13.55 136.922 13.279 137.193L12.7369 137.735C12.466 138.006 12.0595 138.006 11.924 137.735C11.653 137.464 11.653 137.058 11.924 136.922L12.466 136.38C12.737 136.109 12.737 135.703 12.466 135.432L11.924 134.89C11.653 134.754 11.653 134.348 11.924 134.077Z" fill="url(#paint49_linear_67_6188)"/>
<path fill-rule="evenodd" clip-rule="evenodd" d="M21.1378 134.077C21.4088 133.806 21.8153 133.806 21.9508 134.077L22.4928 134.619C22.7638 134.89 23.1703 134.89 23.4413 134.619L23.9833 134.077C24.2543 133.806 24.6608 133.806 24.7963 134.077C25.0673 134.348 25.0673 134.754 24.7963 134.89C24.5253 135.161 24.5253 135.161 24.2543 135.432C23.9833 135.703 23.9833 136.109 24.2543 136.38L24.7963 136.922C25.0673 137.193 25.0673 137.6 24.7963 137.735C24.5253 138.006 24.1188 138.006 23.9833 137.735L23.4413 137.193C23.1703 136.922 22.7638 136.922 22.4928 137.193L21.9508 137.735C21.6798 138.006 21.2733 138.006 21.1378 137.735C20.8668 137.464 20.8668 137.058 21.1378 136.922L21.6798 136.38C21.9508 136.109 21.9508 135.703 21.6798 135.432L21.1378 134.89C20.8668 134.754 20.8668 134.348 21.1378 134.077Z" fill="url(#paint50_linear_67_6188)"/>
</g>
<defs>
<linearGradient id="paint0_linear_67_6188" x1="-1.50693" y1="8.86256" x2="1.36646" y2="11.736" gradientUnits="userSpaceOnUse">
<stop stop-color="#FF9100"/>
<stop offset="1" stop-color="#FF4D00"/>
</linearGradient>
<linearGradient id="paint1_linear_67_6188" x1="7.70742" y1="8.86256" x2="10.5808" y2="11.736" gradientUnits="userSpaceOnUse">
<stop stop-color="#FF9100"/>
<stop offset="1" stop-color="#FF4D00"/>
</linearGradient>
<linearGradient id="paint2_linear_67_6188" x1="16.9213" y1="8.86256" x2="19.7947" y2="11.736" gradientUnits="userSpaceOnUse">
<stop stop-color="#FF9100"/>
<stop offset="1" stop-color="#FF4D00"/>
</linearGradient>
<linearGradient id="paint3_linear_67_6188" x1="3.10098" y1="0.596936" x2="5.97438" y2="3.47034" gradientUnits="userSpaceOnUse">
<stop stop-color="#FF9100"/>
<stop offset="1" stop-color="#FF4D00"/>
</linearGradient>
<linearGradient id="paint4_linear_67_6188" x1="12.3269" y1="0.616834" x2="15.2941" y2="3.47818" gradientUnits="userSpaceOnUse">
<stop stop-color="#FF9100"/>
<stop offset="1" stop-color="#FF4D00"/>
</linearGradient>
<linearGradient id="paint5_linear_67_6188" x1="21.5287" y1="0.596936" x2="24.4021" y2="3.47034" gradientUnits="userSpaceOnUse">
<stop stop-color="#FF9100"/>
<stop offset="1" stop-color="#FF4D00"/>
</linearGradient>
<linearGradient id="paint6_linear_67_6188" x1="-1.50693" y1="25.6643" x2="1.36647" y2="28.5377" gradientUnits="userSpaceOnUse">
<stop stop-color="#FF9100"/>
<stop offset="1" stop-color="#FF4D00"/>
</linearGradient>
<linearGradient id="paint7_linear_67_6188" x1="7.70693" y1="25.6643" x2="10.5803" y2="28.5377" gradientUnits="userSpaceOnUse">
<stop stop-color="#FF9100"/>
<stop offset="1" stop-color="#FF4D00"/>
</linearGradient>
<linearGradient id="paint8_linear_67_6188" x1="16.9213" y1="25.6643" x2="19.7947" y2="28.5377" gradientUnits="userSpaceOnUse">
<stop stop-color="#FF9100"/>
<stop offset="1" stop-color="#FF4D00"/>
</linearGradient>
<linearGradient id="paint9_linear_67_6188" x1="3.10049" y1="17.2634" x2="5.97388" y2="20.1368" gradientUnits="userSpaceOnUse">
<stop stop-color="#FF9100"/>
<stop offset="1" stop-color="#FF4D00"/>
</linearGradient>
<linearGradient id="paint10_linear_67_6188" x1="12.3269" y1="17.2833" x2="15.2941" y2="20.1447" gradientUnits="userSpaceOnUse">
<stop stop-color="#FF9100"/>
<stop offset="1" stop-color="#FF4D00"/>
</linearGradient>
<linearGradient id="paint11_linear_67_6188" x1="21.5282" y1="17.2634" x2="24.4016" y2="20.1368" gradientUnits="userSpaceOnUse">
<stop stop-color="#FF9100"/>
<stop offset="1" stop-color="#FF4D00"/>
</linearGradient>
<linearGradient id="paint12_linear_67_6188" x1="-1.50693" y1="42.3308" x2="1.36646" y2="45.2042" gradientUnits="userSpaceOnUse">
<stop stop-color="#FF9100"/>
<stop offset="1" stop-color="#FF4D00"/>
</linearGradient>
<linearGradient id="paint13_linear_67_6188" x1="7.70742" y1="42.3308" x2="10.5808" y2="45.2042" gradientUnits="userSpaceOnUse">
<stop stop-color="#FF9100"/>
<stop offset="1" stop-color="#FF4D00"/>
</linearGradient>
<linearGradient id="paint14_linear_67_6188" x1="16.9213" y1="42.3308" x2="19.7947" y2="45.2042" gradientUnits="userSpaceOnUse">
<stop stop-color="#FF9100"/>
<stop offset="1" stop-color="#FF4D00"/>
</linearGradient>
<linearGradient id="paint15_linear_67_6188" x1="3.1" y1="34.0652" x2="5.9734" y2="36.9386" gradientUnits="userSpaceOnUse">
<stop stop-color="#FF9100"/>
<stop offset="1" stop-color="#FF4D00"/>
</linearGradient>
<linearGradient id="paint16_linear_67_6188" x1="12.3144" y1="34.0652" x2="15.1878" y2="36.9386" gradientUnits="userSpaceOnUse">
<stop stop-color="#FF9100"/>
<stop offset="1" stop-color="#FF4D00"/>
</linearGradient>
<linearGradient id="paint17_linear_67_6188" x1="21.5282" y1="34.0652" x2="24.4016" y2="36.9386" gradientUnits="userSpaceOnUse">
<stop stop-color="#FF9100"/>
<stop offset="1" stop-color="#FF4D00"/>
</linearGradient>
<linearGradient id="paint18_linear_67_6188" x1="-1.50693" y1="59.1326" x2="1.36646" y2="62.006" gradientUnits="userSpaceOnUse">
<stop stop-color="#FF9100"/>
<stop offset="1" stop-color="#FF4D00"/>
</linearGradient>
<linearGradient id="paint19_linear_67_6188" x1="7.70693" y1="59.1326" x2="10.5803" y2="62.006" gradientUnits="userSpaceOnUse">
<stop stop-color="#FF9100"/>
<stop offset="1" stop-color="#FF4D00"/>
</linearGradient>
<linearGradient id="paint20_linear_67_6188" x1="16.9213" y1="59.1326" x2="19.7947" y2="62.006" gradientUnits="userSpaceOnUse">
<stop stop-color="#FF9100"/>
<stop offset="1" stop-color="#FF4D00"/>
</linearGradient>
<linearGradient id="paint21_linear_67_6188" x1="3.1" y1="50.7317" x2="5.9734" y2="53.6051" gradientUnits="userSpaceOnUse">
<stop stop-color="#FF9100"/>
<stop offset="1" stop-color="#FF4D00"/>
</linearGradient>
<linearGradient id="paint22_linear_67_6188" x1="12.3144" y1="50.7317" x2="15.1878" y2="53.6051" gradientUnits="userSpaceOnUse">
<stop stop-color="#FF9100"/>
<stop offset="1" stop-color="#FF4D00"/>
</linearGradient>
<linearGradient id="paint23_linear_67_6188" x1="21.5282" y1="50.7317" x2="24.4016" y2="53.6051" gradientUnits="userSpaceOnUse">
<stop stop-color="#FF9100"/>
<stop offset="1" stop-color="#FF4D00"/>
</linearGradient>
<linearGradient id="paint24_linear_67_6188" x1="-1.50693" y1="75.9348" x2="1.36646" y2="78.8082" gradientUnits="userSpaceOnUse">
<stop stop-color="#FF9100"/>
<stop offset="1" stop-color="#FF4D00"/>
</linearGradient>
<linearGradient id="paint25_linear_67_6188" x1="7.70693" y1="75.9348" x2="10.5803" y2="78.8082" gradientUnits="userSpaceOnUse">
<stop stop-color="#FF9100"/>
<stop offset="1" stop-color="#FF4D00"/>
</linearGradient>
<linearGradient id="paint26_linear_67_6188" x1="16.9213" y1="75.9348" x2="19.7947" y2="78.8082" gradientUnits="userSpaceOnUse">
<stop stop-color="#FF9100"/>
<stop offset="1" stop-color="#FF4D00"/>
</linearGradient>
<linearGradient id="paint27_linear_67_6188" x1="3.1" y1="67.5339" x2="5.9734" y2="70.4073" gradientUnits="userSpaceOnUse">
<stop stop-color="#FF9100"/>
<stop offset="1" stop-color="#FF4D00"/>
</linearGradient>
<linearGradient id="paint28_linear_67_6188" x1="12.3144" y1="67.5339" x2="15.1878" y2="70.4073" gradientUnits="userSpaceOnUse">
<stop stop-color="#FF9100"/>
<stop offset="1" stop-color="#FF4D00"/>
</linearGradient>
<linearGradient id="paint29_linear_67_6188" x1="21.5282" y1="67.5339" x2="24.4016" y2="70.4073" gradientUnits="userSpaceOnUse">
<stop stop-color="#FF9100"/>
<stop offset="1" stop-color="#FF4D00"/>
</linearGradient>
<linearGradient id="paint30_linear_67_6188" x1="-1.50693" y1="92.6013" x2="1.36646" y2="95.4747" gradientUnits="userSpaceOnUse">
<stop stop-color="#FF9100"/>
<stop offset="1" stop-color="#FF4D00"/>
</linearGradient>
<linearGradient id="paint31_linear_67_6188" x1="7.70742" y1="92.6013" x2="10.5808" y2="95.4747" gradientUnits="userSpaceOnUse">
<stop stop-color="#FF9100"/>
<stop offset="1" stop-color="#FF4D00"/>
</linearGradient>
<linearGradient id="paint32_linear_67_6188" x1="16.9213" y1="92.6013" x2="19.7947" y2="95.4747" gradientUnits="userSpaceOnUse">
<stop stop-color="#FF9100"/>
<stop offset="1" stop-color="#FF4D00"/>
</linearGradient>
<linearGradient id="paint33_linear_67_6188" x1="3.1" y1="84.2005" x2="5.97341" y2="87.0739" gradientUnits="userSpaceOnUse">
<stop stop-color="#FF9100"/>
<stop offset="1" stop-color="#FF4D00"/>
</linearGradient>
<linearGradient id="paint34_linear_67_6188" x1="12.3144" y1="84.2005" x2="15.1878" y2="87.0739" gradientUnits="userSpaceOnUse">
<stop stop-color="#FF9100"/>
<stop offset="1" stop-color="#FF4D00"/>
</linearGradient>
<linearGradient id="paint35_linear_67_6188" x1="21.5282" y1="84.2005" x2="24.4016" y2="87.0739" gradientUnits="userSpaceOnUse">
<stop stop-color="#FF9100"/>
<stop offset="1" stop-color="#FF4D00"/>
</linearGradient>
<linearGradient id="paint36_linear_67_6188" x1="-1.50693" y1="109.404" x2="1.36646" y2="112.277" gradientUnits="userSpaceOnUse">
<stop stop-color="#FF9100"/>
<stop offset="1" stop-color="#FF4D00"/>
</linearGradient>
<linearGradient id="paint37_linear_67_6188" x1="7.73927" y1="109.404" x2="10.6114" y2="112.361" gradientUnits="userSpaceOnUse">
<stop stop-color="#FF9100"/>
<stop offset="1" stop-color="#FF4D00"/>
</linearGradient>
<linearGradient id="paint38_linear_67_6188" x1="16.9213" y1="109.404" x2="19.7947" y2="112.277" gradientUnits="userSpaceOnUse">
<stop stop-color="#FF9100"/>
<stop offset="1" stop-color="#FF4D00"/>
</linearGradient>
<linearGradient id="paint39_linear_67_6188" x1="3.10049" y1="101.002" x2="5.97388" y2="103.876" gradientUnits="userSpaceOnUse">
<stop stop-color="#FF9100"/>
<stop offset="1" stop-color="#FF4D00"/>
</linearGradient>
<linearGradient id="paint40_linear_67_6188" x1="12.3467" y1="101.022" x2="15.3159" y2="103.981" gradientUnits="userSpaceOnUse">
<stop stop-color="#FF9100"/>
<stop offset="1" stop-color="#FF4D00"/>
</linearGradient>
<linearGradient id="paint41_linear_67_6188" x1="21.5282" y1="101.002" x2="24.4016" y2="103.876" gradientUnits="userSpaceOnUse">
<stop stop-color="#FF9100"/>
<stop offset="1" stop-color="#FF4D00"/>
</linearGradient>
<linearGradient id="paint42_linear_67_6188" x1="-1.50693" y1="126.07" x2="1.36646" y2="128.943" gradientUnits="userSpaceOnUse">
<stop stop-color="#FF9100"/>
<stop offset="1" stop-color="#FF4D00"/>
</linearGradient>
<linearGradient id="paint43_linear_67_6188" x1="7.70693" y1="126.07" x2="10.5803" y2="128.943" gradientUnits="userSpaceOnUse">
<stop stop-color="#FF9100"/>
<stop offset="1" stop-color="#FF4D00"/>
</linearGradient>
<linearGradient id="paint44_linear_67_6188" x1="16.9213" y1="126.07" x2="19.7947" y2="128.943" gradientUnits="userSpaceOnUse">
<stop stop-color="#FF9100"/>
<stop offset="1" stop-color="#FF4D00"/>
</linearGradient>
<linearGradient id="paint45_linear_67_6188" x1="3.10049" y1="117.669" x2="5.97388" y2="120.542" gradientUnits="userSpaceOnUse">
<stop stop-color="#FF9100"/>
<stop offset="1" stop-color="#FF4D00"/>
</linearGradient>
<linearGradient id="paint46_linear_67_6188" x1="12.3139" y1="117.669" x2="15.1873" y2="120.542" gradientUnits="userSpaceOnUse">
<stop stop-color="#FF9100"/>
<stop offset="1" stop-color="#FF4D00"/>
</linearGradient>
<linearGradient id="paint47_linear_67_6188" x1="21.5282" y1="117.669" x2="24.4016" y2="120.542" gradientUnits="userSpaceOnUse">
<stop stop-color="#FF9100"/>
<stop offset="1" stop-color="#FF4D00"/>
</linearGradient>
<linearGradient id="paint48_linear_67_6188" x1="3.1" y1="134.47" x2="5.9734" y2="137.344" gradientUnits="userSpaceOnUse">
<stop stop-color="#FF9100"/>
<stop offset="1" stop-color="#FF4D00"/>
</linearGradient>
<linearGradient id="paint49_linear_67_6188" x1="12.3144" y1="134.47" x2="15.1878" y2="137.344" gradientUnits="userSpaceOnUse">
<stop stop-color="#FF9100"/>
<stop offset="1" stop-color="#FF4D00"/>
</linearGradient>
<linearGradient id="paint50_linear_67_6188" x1="21.5282" y1="134.47" x2="24.4016" y2="137.344" gradientUnits="userSpaceOnUse">
<stop stop-color="#FF9100"/>
<stop offset="1" stop-color="#FF4D00"/>
</linearGradient>
</defs>
</svg>
