<svg width="111" height="120" viewBox="0 0 111 120" fill="none" xmlns="http://www.w3.org/2000/svg">
<g opacity="0.5">
<path fill-rule="evenodd" clip-rule="evenodd" d="M10.597 18.9553C11.194 18.3583 12.0895 18.3583 12.388 18.9553L13.5821 20.1493C14.1791 20.7463 15.0746 20.7463 15.6716 20.1493L17.1642 18.9553C17.7612 18.3583 18.6567 18.3583 18.9552 18.9553C19.5522 19.5523 19.5522 20.4478 18.9552 20.7463C18.3582 21.3433 18.3582 21.3433 17.7612 21.9403C17.1642 22.5374 17.1642 23.4329 17.7612 24.0299L18.9552 25.2239C19.5522 25.8209 19.5522 26.7165 18.9552 27.015C18.3582 27.612 17.4627 27.612 17.1642 27.015L15.9701 25.8209C15.3731 25.2239 14.4776 25.2239 13.8806 25.8209L12.6865 27.015C12.0895 27.612 11.194 27.612 10.8955 27.015C10.2985 26.418 10.2985 25.5224 10.8955 25.2239L12.0895 24.0299C12.6865 23.4329 12.6865 22.5374 12.0895 21.9403L10.8955 20.7463C9.99998 20.4478 9.99997 19.5523 10.597 18.9553Z" fill="url(#paint0_linear_30_17765)"/>
<path fill-rule="evenodd" clip-rule="evenodd" d="M30.896 18.9553C31.493 18.3583 32.3885 18.3583 32.6871 18.9553L33.8811 20.1493C34.4781 20.7463 35.3736 20.7463 35.9706 20.1493L37.1647 18.9553C37.7617 18.3583 38.6572 18.3583 38.9557 18.9553C39.5527 19.5523 39.5527 20.4478 38.9557 20.7463C38.3587 21.3433 38.3587 21.3433 37.7617 21.9403C37.1647 22.5374 37.1647 23.4329 37.7617 24.0299L38.9557 25.2239C39.5527 25.8209 39.5527 26.7165 38.9557 27.015C38.3587 27.612 37.4632 27.612 37.1647 27.015L35.9706 25.8209C35.3736 25.2239 34.4781 25.2239 33.8811 25.8209L32.6871 27.015C32.09 27.612 31.1945 27.612 30.896 27.015C30.299 26.418 30.299 25.5224 30.896 25.2239L32.09 24.3284C32.6871 23.7314 32.6871 22.8359 32.09 22.2389L30.896 21.0448C30.299 20.4478 30.299 19.5523 30.896 18.9553Z" fill="url(#paint1_linear_30_17765)"/>
<path fill-rule="evenodd" clip-rule="evenodd" d="M50.8958 18.9553C51.4928 18.3583 52.3883 18.3583 52.6868 18.9553L53.8809 20.1493C54.4779 20.7463 55.3734 20.7463 55.9704 20.1493L57.1644 18.9553C57.7615 18.3583 58.657 18.3583 58.9555 18.9553C59.5525 19.5523 59.5525 20.4478 58.9555 20.7463C58.3585 21.3433 58.3585 21.3433 57.7614 21.9403C57.1644 22.5374 57.1644 23.4329 57.7614 24.0299L58.9555 25.2239C59.5525 25.8209 59.5525 26.7165 58.9555 27.015C58.3585 27.612 57.4629 27.612 57.1644 27.015L55.9704 25.8209C55.3734 25.2239 54.4779 25.2239 53.8809 25.8209L52.9853 27.3135C52.3883 27.9105 51.4928 27.9105 51.1943 27.3135C50.5973 26.7165 50.5973 25.8209 51.1943 25.5224L52.3883 24.3284C52.9853 23.7314 52.9853 22.8359 52.3883 22.2389L51.1943 21.0448C50.5973 20.4478 50.5973 19.5523 50.8958 18.9553Z" fill="url(#paint2_linear_30_17765)"/>
<path fill-rule="evenodd" clip-rule="evenodd" d="M71.1946 18.9553C71.7916 18.3583 72.6871 18.3583 72.9856 18.9553L74.1797 20.1493C74.7767 20.7463 75.6722 20.7463 76.2692 20.1493L77.4632 18.9553C78.0603 18.3583 78.9558 18.3583 79.2543 18.9553C79.8513 19.5523 79.8513 20.4478 79.2543 20.7463C78.6573 21.3433 78.6573 21.3433 78.0603 21.9403C77.4633 22.5374 77.4633 23.4329 78.0603 24.0299L79.2543 25.2239C79.8513 25.8209 79.8513 26.7165 79.2543 27.015C78.6573 27.612 77.7617 27.612 77.4632 27.015L76.2692 25.8209C75.6722 25.2239 74.7767 25.2239 74.1797 25.8209L72.9856 27.015C72.3886 27.612 71.4931 27.612 71.1946 27.015C70.5976 26.418 70.5976 25.5224 71.1946 25.2239L72.3886 24.0299C72.9856 23.4329 72.9856 22.5374 72.3886 21.9403L71.1946 20.7463C70.5976 20.4478 70.5976 19.5523 71.1946 18.9553Z" fill="url(#paint3_linear_30_17765)"/>
<path fill-rule="evenodd" clip-rule="evenodd" d="M91.4924 18.9553C92.0895 18.3583 92.985 18.3583 93.2835 18.9553L94.4775 20.1493C95.0745 20.7463 95.97 20.7463 96.5671 20.1493L97.7611 18.9553C98.3581 18.3583 99.2536 18.3583 99.5521 18.9553C100.149 19.5523 100.149 20.4478 99.5521 20.7463C98.9551 21.3433 98.9551 21.3433 98.3581 21.9403C97.7611 22.5374 97.7611 23.4329 98.3581 24.0299L99.5521 25.2239C100.149 25.8209 100.149 26.7165 99.5521 27.015C98.9551 27.612 98.0596 27.612 97.7611 27.015L96.5671 25.8209C95.97 25.2239 95.0745 25.2239 94.4775 25.8209L93.2835 27.015C92.6865 27.612 91.7909 27.612 91.4924 27.015C90.8954 26.418 90.8954 25.5224 91.4924 25.2239L92.6865 24.0299C93.2835 23.4329 93.2835 22.5374 92.6865 21.9403L91.4924 20.7463C90.8954 20.4478 90.8954 19.5523 91.4924 18.9553Z" fill="url(#paint4_linear_30_17765)"/>
<path fill-rule="evenodd" clip-rule="evenodd" d="M0.448275 0.447761C1.04529 -0.149254 1.94081 -0.149254 2.23932 0.447761L3.43335 1.64179C4.03036 2.23881 4.92588 2.23881 5.52289 1.64179L6.71693 0.447761C7.31394 -0.149254 8.20946 -0.149254 8.50797 0.447761C9.10498 1.04478 9.10498 1.9403 8.50797 2.23881C8.50797 3.13433 8.20946 3.13433 7.61245 3.73134C7.01543 4.32836 7.01543 5.22388 7.61245 5.8209L8.80648 7.01493C9.4035 7.61194 9.4035 8.50746 8.80648 8.80597C8.20947 9.40299 7.31394 9.40299 7.01543 8.80597L5.82141 7.61194C5.22439 7.01493 4.32887 7.01493 3.73185 7.61194L2.53782 9.10448C1.9408 9.70149 1.04529 9.70149 0.746778 9.10448C0.149763 8.50746 0.149763 7.61194 0.746778 7.31343L1.94081 6.1194C2.53783 5.52239 2.53783 4.62687 1.94081 4.02985L0.746778 2.83582C0.149763 1.9403 0.149767 1.04478 0.448275 0.447761Z" fill="url(#paint5_linear_30_17765)"/>
<path fill-rule="evenodd" clip-rule="evenodd" d="M20.7471 0.447761C21.3441 -0.149254 22.2396 -0.149254 22.5381 0.447761L23.7322 1.64179C24.3292 2.23881 25.2247 2.23881 25.8217 1.64179L27.0157 0.447761C27.9113 0.149254 28.5083 0.149254 29.1053 0.447761C29.7023 1.04478 29.7023 1.9403 29.1053 2.23881C28.5083 3.13433 28.5083 3.13433 27.9113 3.73134C27.3142 4.32836 27.3142 5.22388 27.9113 5.8209L29.1053 7.01493C29.7023 7.61194 29.7023 8.50746 29.1053 8.80597C28.5083 9.40299 27.6128 9.40299 27.3142 8.80597L26.1202 7.61194C25.5232 7.01493 24.6277 7.01493 24.0307 7.61194L22.5381 9.10448C21.9411 9.70149 21.0456 9.70149 20.7471 9.10448C20.1501 8.50746 20.1501 7.61194 20.7471 7.31343L21.9411 6.1194C22.5381 5.52239 22.5381 4.62687 21.9411 4.02985L20.7471 2.83582C20.1501 1.9403 20.1501 1.04478 20.7471 0.447761Z" fill="url(#paint6_linear_30_17765)"/>
<path fill-rule="evenodd" clip-rule="evenodd" d="M41.0452 0.447761C41.6422 -0.149254 42.5377 -0.149254 42.8362 0.447761L44.0302 1.64179C44.6273 2.23881 45.5228 2.23881 46.1198 1.64179L47.3138 0.447761C47.9108 -0.149254 48.8064 -0.149254 49.1049 0.447761C49.7019 1.04478 49.7019 1.9403 49.1049 2.23881C48.8064 3.13433 48.8064 3.13433 48.2094 3.73134C47.6123 4.32836 47.6123 5.22388 48.2094 5.8209L49.4034 7.01493C50.0004 7.61194 50.0004 8.50746 49.4034 9.10448C48.8064 9.70149 47.9108 9.70149 47.6123 9.10448L46.4183 7.91045C45.8213 7.31343 44.9258 7.31343 44.3288 7.91045L42.8362 9.10448C42.2392 9.70149 41.3437 9.70149 41.0452 9.10448C40.4482 8.50746 40.4482 7.61194 41.0452 7.31343L42.2392 6.1194C42.8362 5.52239 42.8362 4.62687 42.2392 4.02985L41.0452 2.53731C40.4482 1.9403 40.4482 1.04478 41.0452 0.447761Z" fill="url(#paint7_linear_30_17765)"/>
<path fill-rule="evenodd" clip-rule="evenodd" d="M61.0447 0.447761C61.6417 -0.149254 62.5373 -0.149254 62.8358 0.447761L64.0298 1.64179C64.6268 2.23881 65.5223 2.23881 66.1193 1.64179L67.3134 0.447761C67.9104 -0.149254 68.8059 -0.149254 69.1044 0.447761C69.7014 1.04478 69.7014 1.9403 69.1044 2.23881C69.1044 3.13433 68.8059 3.13433 68.2089 3.73134C67.6119 4.32836 67.6119 5.22388 68.2089 5.8209L69.4029 7.01493C69.9999 7.61194 69.9999 8.50746 69.4029 8.80597C68.8059 9.40299 67.9104 9.40299 67.6119 8.80597L66.4178 7.61194C65.8208 7.01493 64.9253 7.01493 64.3283 7.61194L63.1343 9.10448C62.5373 9.70149 61.6417 9.70149 61.3432 9.10448C60.7462 8.50746 60.7462 7.61194 61.3432 7.31343L62.5372 6.1194C63.1343 5.52239 63.1343 4.62687 62.5372 4.02985L61.3432 2.83582C60.7462 1.9403 60.7462 1.04478 61.0447 0.447761Z" fill="url(#paint8_linear_30_17765)"/>
<path fill-rule="evenodd" clip-rule="evenodd" d="M81.3435 0.447761C81.9405 0.149254 82.836 0.149254 83.1346 0.447761L84.3286 1.64179C84.9256 2.23881 85.8211 2.23881 86.4181 1.64179L87.6122 0.447761C88.2092 -0.149254 89.1047 -0.149254 89.4032 0.447761C90.0002 1.04478 90.0002 1.9403 89.4032 2.23881C89.1047 3.13433 89.1047 3.13433 88.5077 3.73134C87.9107 4.32836 87.9107 5.22388 88.5077 5.8209L89.7017 7.01493C90.2987 7.61194 90.2987 8.50746 89.7017 8.80597C89.1047 9.40299 88.2092 9.40299 87.9107 8.80597L86.7167 7.61194C86.1196 7.01493 85.2241 7.01493 84.6271 7.61194L83.1346 9.10448C82.5375 9.70149 81.642 9.70149 81.3435 9.10448C80.7465 8.50746 80.7465 7.61194 81.3435 7.31343L82.5375 6.1194C83.1346 5.52239 83.1346 4.62687 82.5375 4.02985L81.3435 2.83582C80.7465 1.9403 80.7465 1.04478 81.3435 0.447761Z" fill="url(#paint9_linear_30_17765)"/>
<path fill-rule="evenodd" clip-rule="evenodd" d="M101.643 0.447761C102.24 -0.149254 103.136 -0.149254 103.434 0.447761L104.628 1.64179C105.225 2.23881 106.121 2.23881 106.718 1.64179L107.912 0.447761C108.509 -0.149254 109.404 -0.149254 109.703 0.447761C110.3 1.04478 110.3 1.9403 109.703 2.23881C109.404 3.13433 109.404 3.13433 108.807 3.73134C108.21 4.32836 108.21 5.22388 108.807 5.8209L110.001 7.01493C110.598 7.61194 110.598 8.50746 110.001 8.80597C109.404 9.40299 108.509 9.40299 108.21 8.80597L106.718 7.61194C106.121 7.01493 105.225 7.01493 104.628 7.61194L103.434 9.10448C102.837 9.70149 101.942 9.70149 101.643 9.10448C101.046 8.50746 101.046 7.61194 101.643 7.31343L102.837 6.1194C103.434 5.52239 103.434 4.62687 102.837 4.02985L101.643 2.83582C101.046 1.9403 101.046 1.04478 101.643 0.447761Z" fill="url(#paint10_linear_30_17765)"/>
<path fill-rule="evenodd" clip-rule="evenodd" d="M10.5967 55.9701C11.1937 55.3731 12.0892 55.3731 12.3877 55.9701L13.5818 57.1641C14.1788 57.7611 15.0743 57.7611 15.6713 57.1641L16.8654 55.9701C17.4624 55.3731 18.3579 55.3731 18.6564 55.9701C19.2534 56.5671 19.2534 57.4626 18.6564 57.7611C18.0594 58.3582 18.0594 58.3582 17.4624 58.9552C16.8653 59.5522 16.8653 60.4477 17.4624 61.0447L18.6564 62.2388C19.2534 62.8358 19.2534 63.7313 18.6564 64.0298C18.0594 64.6268 17.1639 64.6268 16.8654 64.0298L15.6713 62.8358C15.0743 62.2388 14.1788 62.2388 13.5818 62.8358L12.3877 64.0298C11.7907 64.6268 10.8952 64.6268 10.5967 64.0298C9.99967 63.4328 9.99967 62.5373 10.5967 62.2388L11.7907 61.0447C12.3877 60.4477 12.3877 59.5522 11.7907 58.9552L10.5967 57.7611C9.99967 57.1641 9.99967 56.2686 10.5967 55.9701Z" fill="url(#paint11_linear_30_17765)"/>
<path fill-rule="evenodd" clip-rule="evenodd" d="M30.8943 55.9701C31.4913 55.3731 32.3868 55.3731 32.6853 55.9701L33.8794 57.1641C34.4764 57.7611 35.3719 57.7611 35.9689 57.1641L37.1629 55.9701C37.76 55.3731 38.6555 55.3731 38.954 55.9701C39.551 56.5671 39.551 57.4626 38.954 57.7611C38.357 58.3582 38.357 58.3582 37.76 58.9552C37.163 59.5522 37.163 60.4477 37.76 61.0447L38.954 62.2388C39.551 62.8358 39.551 63.7313 38.954 64.0298C38.357 64.6268 37.4615 64.6268 37.1629 64.0298L35.9689 62.8358C35.3719 62.2388 34.4764 62.2388 33.8794 62.8358L32.6853 64.0298C32.0883 64.6268 31.1928 64.6268 30.8943 64.0298C30.2973 63.4328 30.2973 62.5373 30.8943 62.2388L32.0883 61.0447C32.6853 60.4477 32.6853 59.5522 32.0883 58.9552L30.8943 57.7611C30.2973 57.1641 30.2973 56.2686 30.8943 55.9701Z" fill="url(#paint12_linear_30_17765)"/>
<path fill-rule="evenodd" clip-rule="evenodd" d="M50.8955 55.9701C51.4926 55.3731 52.3881 55.3731 52.6866 55.9701L53.8806 57.1641C54.4776 57.7611 55.3731 57.7611 55.9702 57.1641L57.1642 55.9701C57.7612 55.3731 58.6567 55.3731 58.9552 55.9701C59.5522 56.5671 59.5522 57.4626 58.9552 57.7611C58.3582 58.3582 58.3582 58.3582 57.7612 58.9552C57.1642 59.5522 57.1642 60.4477 57.7612 61.0447L58.9552 62.2388C59.5522 62.8358 59.5522 63.7313 58.9552 64.0298C58.3582 64.6268 57.4627 64.6268 57.1642 64.0298L55.9702 62.8358C55.3731 62.2388 54.4776 62.2388 53.8806 62.8358L52.9851 64.3283C52.3881 64.9253 51.4926 64.9253 51.194 64.3283C50.597 63.7313 50.597 62.8358 51.194 62.5373L52.3881 61.3432C52.9851 60.7462 52.9851 59.8507 52.3881 59.2537L51.194 58.0596C50.597 57.1641 50.597 56.2686 50.8955 55.9701Z" fill="url(#paint13_linear_30_17765)"/>
<path fill-rule="evenodd" clip-rule="evenodd" d="M71.1929 55.9701C71.7899 55.3731 72.6854 55.3731 72.9839 55.9701L74.178 57.1641C74.775 57.7611 75.6705 57.7611 76.2675 57.1641L77.4615 55.9701C78.0585 55.3731 78.9541 55.3731 79.2526 55.9701C79.8496 56.5671 79.8496 57.4626 79.2526 57.7611C78.6556 58.3582 78.6556 58.3582 78.0586 58.9552C77.4615 59.5522 77.4615 60.4477 78.0586 61.0447L79.2526 62.2388C79.8496 62.8358 79.8496 63.7313 79.2526 64.0298C78.6556 64.6268 77.76 64.6268 77.4615 64.0298L76.2675 62.8358C75.6705 62.2388 74.775 62.2388 74.178 62.8358L72.9839 64.0298C72.3869 64.6268 71.4914 64.6268 71.1929 64.0298C70.5959 63.4328 70.5959 62.5373 71.1929 62.2388L72.3869 61.0447C72.9839 60.4477 72.9839 59.5522 72.3869 58.9552L71.1929 57.7611C70.5959 57.1641 70.5959 56.2686 71.1929 55.9701Z" fill="url(#paint14_linear_30_17765)"/>
<path fill-rule="evenodd" clip-rule="evenodd" d="M91.4922 55.9701C92.0892 55.3731 92.9847 55.3731 93.2832 55.9701L94.4773 57.1641C95.0743 57.7611 95.9698 57.7611 96.5668 57.1641L97.7608 55.9701C98.3579 55.3731 99.2534 55.3731 99.5519 55.9701C100.149 56.5671 100.149 57.4626 99.5519 57.7611C98.9549 58.3582 98.9549 58.3582 98.3579 58.9552C97.7608 59.5522 97.7608 60.4477 98.3579 61.0447L99.5519 62.2388C100.149 62.8358 100.149 63.7313 99.5519 64.0298C98.9549 64.6268 98.0594 64.6268 97.7608 64.0298L96.5668 62.8358C95.9698 62.2388 95.0743 62.2388 94.4773 62.8358L93.2832 64.0298C92.6862 64.6268 91.7907 64.6268 91.4922 64.0298C90.8952 63.4328 90.8952 62.5373 91.4922 62.2388L92.6862 61.0447C93.2832 60.4477 93.2832 59.5522 92.6862 58.9552L91.4922 57.7611C90.8952 57.1641 90.8952 56.2686 91.4922 55.9701Z" fill="url(#paint15_linear_30_17765)"/>
<path fill-rule="evenodd" clip-rule="evenodd" d="M0.447761 37.4628C1.04478 36.8658 1.94029 36.8658 2.2388 37.4628L3.43284 38.6568C4.02985 39.2538 4.92536 39.2538 5.52238 38.6568L6.71641 37.4628C7.31343 36.8658 8.20895 36.8658 8.50745 37.4628C9.10447 38.0598 9.10447 38.9553 8.50745 39.2538C7.91044 39.8508 7.91045 39.8508 7.31343 40.4479C6.71642 41.0449 6.71642 41.9404 7.31343 42.5374L8.50745 43.7314C9.10447 44.3284 9.10447 45.224 8.50745 45.5225C7.91044 46.1195 7.01492 46.1195 6.71641 45.5225L5.52238 44.3284C4.92536 43.7314 4.02985 43.7314 3.43284 44.3284L2.2388 45.5225C1.64179 46.1195 0.746269 46.1195 0.447761 45.5225C-0.149254 44.9255 -0.149254 44.0299 0.447761 43.7314L1.64178 42.5374C2.2388 41.9404 2.2388 41.0449 1.64178 40.4479L0.447761 39.2538C0.149254 38.6568 0.149254 38.0598 0.447761 37.4628Z" fill="url(#paint16_linear_30_17765)"/>
<path fill-rule="evenodd" clip-rule="evenodd" d="M20.7464 37.4628C21.3434 36.8658 22.2389 36.8658 22.5374 37.4628L23.7315 38.6568C24.3285 39.2538 25.224 39.2538 25.821 38.6568L27.0151 37.4628C27.6121 36.8658 28.5076 36.8658 28.8061 37.4628C29.4031 38.0598 29.4031 38.9553 28.8061 39.2538C28.2091 39.8508 28.2091 39.8508 27.6121 40.4479C27.0151 41.0449 27.0151 41.9404 27.6121 42.5374L28.8061 43.7314C29.4031 44.3284 29.4031 45.224 28.8061 45.5225C28.2091 46.1195 27.3136 46.1195 27.0151 45.5225L26.1195 44.627C25.5225 44.0299 24.627 44.0299 24.03 44.627L22.836 45.821C22.2389 46.418 21.3434 46.418 21.0449 45.821C20.4479 45.224 20.4479 44.3284 21.0449 44.0299L22.2389 42.8359C22.836 42.2389 22.836 41.3434 22.2389 40.7464L21.0449 39.5523C20.1494 38.6568 20.1494 38.0598 20.7464 37.4628Z" fill="url(#paint17_linear_30_17765)"/>
<path fill-rule="evenodd" clip-rule="evenodd" d="M41.0454 37.4628C41.6424 36.8658 42.538 36.8658 42.8365 37.4628L44.0305 38.6568C44.6275 39.2538 45.523 39.2538 46.12 38.6568L47.3141 37.4628C47.9111 36.8658 48.8066 36.8658 49.1051 37.4628C49.7021 38.0598 49.7021 38.9553 49.1051 39.2538C48.5081 39.8508 48.5081 39.8508 47.9111 40.4479C47.3141 41.0449 47.3141 41.9404 47.9111 42.5374L49.1051 43.7314C49.7021 44.3284 49.7021 45.224 49.1051 45.5225C48.5081 46.1195 47.6126 46.1195 47.3141 45.5225L46.12 44.3284C45.523 43.7314 44.6275 43.7314 44.0305 44.3284L42.8365 45.5225C42.2394 46.1195 41.3439 46.1195 41.0454 45.5225C40.4484 44.9255 40.4484 44.0299 41.0454 43.7314L42.2395 42.5374C42.8365 41.9404 42.8365 41.0449 42.2395 40.4479L41.0454 39.2538C40.4484 38.6568 40.4484 38.0598 41.0454 37.4628Z" fill="url(#paint18_linear_30_17765)"/>
<path fill-rule="evenodd" clip-rule="evenodd" d="M61.0444 37.4628C61.6415 36.8658 62.537 36.8658 62.8355 37.4628L64.0295 38.6568C64.6265 39.2538 65.5221 39.2538 66.1191 38.6568L67.3131 37.4628C67.9101 36.8658 68.8056 36.8658 69.1042 37.4628C69.7012 38.0598 69.7012 38.9553 69.1042 39.2538C68.5071 39.8508 68.5071 39.8508 67.9101 40.4479C67.3131 41.0449 67.3131 41.9404 67.9101 42.5374L69.1042 43.7314C69.7012 44.3284 69.7012 45.224 69.1042 45.5225C68.5071 46.1195 67.6116 46.1195 67.3131 45.5225L66.1191 44.3284C65.5221 43.7314 64.6265 43.7314 64.0295 44.3284L62.8355 45.5225C62.2385 46.1195 61.3429 46.1195 61.0444 45.5225C60.4474 44.9255 60.4474 44.0299 61.0444 43.7314L62.2385 42.5374C62.8355 41.9404 62.8355 41.0449 62.2385 40.4479L61.0444 39.2538C60.7459 38.6568 60.7459 38.0598 61.0444 37.4628Z" fill="url(#paint19_linear_30_17765)"/>
<path fill-rule="evenodd" clip-rule="evenodd" d="M81.3438 37.4628C81.9408 36.8658 82.8363 36.8658 83.1348 37.4628L84.3288 38.6568C84.9258 39.2538 85.8214 39.2538 86.4184 38.6568L87.6124 37.4628C88.2094 36.8658 89.1049 36.8658 89.4035 37.4628C90.0005 38.0598 90.0005 38.9553 89.4035 39.2538C88.8064 39.8508 88.8065 39.8508 88.2094 40.4479C87.6124 41.0449 87.6124 41.9404 88.2094 42.5374L89.4035 43.7314C90.0005 44.3284 90.0005 45.224 89.4035 45.5225C88.8064 46.1195 87.9109 46.1195 87.6124 45.5225L86.4184 44.3284C85.8214 43.7314 84.9258 43.7314 84.3288 44.3284L83.1348 45.5225C82.5378 46.1195 81.6423 46.1195 81.3438 45.5225C80.7467 44.9255 80.7467 44.0299 81.3438 43.7314L82.5378 42.5374C83.1348 41.9404 83.1348 41.0449 82.5378 40.4479L81.3438 39.2538C80.7467 38.6568 80.7467 38.0598 81.3438 37.4628Z" fill="url(#paint20_linear_30_17765)"/>
<path fill-rule="evenodd" clip-rule="evenodd" d="M101.642 37.4628C102.239 36.8658 103.134 36.8658 103.433 37.4628L104.627 38.6568C105.224 39.2538 106.119 39.2538 106.716 38.6568L107.911 37.4628C108.508 36.8658 109.403 36.8658 109.702 37.4628C110.299 38.0598 110.299 38.9553 109.702 39.2538C109.105 39.8508 109.105 39.8508 108.508 40.4479C107.91 41.0449 107.91 41.9404 108.508 42.5374L109.702 43.7314C110.299 44.3284 110.299 45.224 109.702 45.5225C109.105 46.1195 108.209 46.1195 107.911 45.5225L106.716 44.627C106.119 44.0299 105.224 44.0299 104.627 44.627L103.433 45.821C102.836 46.418 101.94 46.418 101.642 45.821C101.045 45.224 101.045 44.3284 101.642 44.0299L102.836 42.8359C103.433 42.2389 103.433 41.3434 102.836 40.7464L101.642 39.5523C101.045 38.6568 101.045 38.0598 101.642 37.4628Z" fill="url(#paint21_linear_30_17765)"/>
<path fill-rule="evenodd" clip-rule="evenodd" d="M10.597 92.6867C11.194 92.0896 12.0895 92.0896 12.388 92.6867L13.5821 93.8807C14.1791 94.4777 15.0746 94.4777 15.6716 93.8807L17.1642 92.6867C17.7612 92.0896 18.6567 92.0896 18.9552 92.6867C19.5522 93.2837 19.5522 94.1792 18.9552 94.4777C18.3582 95.0747 18.3582 95.0747 17.7612 95.6717C17.1642 96.2687 17.1642 97.1643 17.7612 97.7613L18.9552 98.9553C19.5522 99.5523 19.5522 100.448 18.9552 100.746C18.3582 101.343 17.4627 101.343 17.1642 100.746L15.9701 99.5523C15.3731 98.9553 14.4776 98.9553 13.8806 99.5523L12.6865 100.746C12.0895 101.343 11.194 101.343 10.8955 100.746C10.2985 100.149 10.2985 99.2538 10.8955 98.9553L12.0895 97.7613C12.6865 97.1643 12.6865 96.2687 12.0895 95.6717L10.8955 94.4777C9.99998 94.1792 9.99997 93.2837 10.597 92.6867Z" fill="url(#paint22_linear_30_17765)"/>
<path fill-rule="evenodd" clip-rule="evenodd" d="M30.896 92.6867C31.493 92.0896 32.3885 92.0896 32.6871 92.6867L33.8811 93.8807C34.4781 94.4777 35.3736 94.4777 35.9706 93.8807L37.1647 92.6867C37.7617 92.0896 38.6572 92.0896 38.9557 92.6867C39.5527 93.2837 39.5527 94.1792 38.9557 94.4777C38.3587 95.0747 38.3587 95.0747 37.7617 95.6717C37.1647 96.2687 37.1647 97.1643 37.7617 97.7613L38.9557 98.9553C39.5527 99.5523 39.5527 100.448 38.9557 100.746C38.3587 101.343 37.4632 101.343 37.1647 100.746L35.9706 99.5523C35.3736 98.9553 34.4781 98.9553 33.8811 99.5523L32.6871 100.746C32.09 101.343 31.1945 101.343 30.896 100.746C30.299 100.149 30.299 99.2538 30.896 98.9553L32.09 97.7613C32.6871 97.1643 32.6871 96.2687 32.09 95.6717L30.896 94.4777C30.299 94.1792 30.299 93.2837 30.896 92.6867Z" fill="url(#paint23_linear_30_17765)"/>
<path fill-rule="evenodd" clip-rule="evenodd" d="M50.8958 92.6867C51.4928 92.0896 52.3883 92.0896 52.6868 92.6867L53.8809 93.8807C54.4779 94.4777 55.3734 94.4777 55.9704 93.8807L57.1644 92.6867C57.7615 92.0896 58.657 92.0896 58.9555 92.6867C59.5525 93.2837 59.5525 94.1792 58.9555 94.4777C58.3585 95.0747 58.3585 95.0747 57.7614 95.6717C57.1644 96.2687 57.1644 97.1643 57.7614 97.7613L58.9555 98.9553C59.5525 99.5523 59.5525 100.448 58.9555 100.746C58.3585 101.343 57.4629 101.343 57.1644 100.746L55.9704 99.5523C55.3734 98.9553 54.4779 98.9553 53.8809 99.5523L52.9853 101.045C52.3883 101.642 51.4928 101.642 51.1943 101.045C50.5973 100.448 50.5973 99.5523 51.1943 99.2538L52.3883 98.0598C52.9853 97.4628 52.9853 96.5672 52.3883 95.9702L51.1943 94.7762C50.5973 94.1792 50.5973 93.2837 50.8958 92.6867Z" fill="url(#paint24_linear_30_17765)"/>
<path fill-rule="evenodd" clip-rule="evenodd" d="M71.1946 92.6867C71.7916 92.0896 72.6871 92.0896 72.9856 92.6867L74.1797 93.8807C74.7767 94.4777 75.6722 94.4777 76.2692 93.8807L77.4632 92.6867C78.0603 92.0896 78.9558 92.0896 79.2543 92.6867C79.8513 93.2837 79.8513 94.1792 79.2543 94.4777C78.6573 95.0747 78.6573 95.0747 78.0603 95.6717C77.4633 96.2687 77.4633 97.1643 78.0603 97.7613L79.2543 98.9553C79.8513 99.5523 79.8513 100.448 79.2543 100.746C78.6573 101.343 77.7617 101.343 77.4632 100.746L76.2692 99.5523C75.6722 98.9553 74.7767 98.9553 74.1797 99.5523L72.9856 100.746C72.3886 101.343 71.4931 101.343 71.1946 100.746C70.5976 100.149 70.5976 99.2538 71.1946 98.9553L72.3886 97.7613C72.9856 97.1643 72.9856 96.2687 72.3886 95.6717L71.1946 94.4777C70.5976 94.1792 70.5976 93.2837 71.1946 92.6867Z" fill="url(#paint25_linear_30_17765)"/>
<path fill-rule="evenodd" clip-rule="evenodd" d="M91.4924 92.6867C92.0895 92.0896 92.985 92.0896 93.2835 92.6867L94.4775 93.8807C95.0745 94.4777 95.97 94.4777 96.5671 93.8807L97.7611 92.6867C98.3581 92.0896 99.2536 92.0896 99.5521 92.6867C100.149 93.2837 100.149 94.1792 99.5521 94.4777C98.9551 95.0747 98.9551 95.0747 98.3581 95.6717C97.7611 96.2687 97.7611 97.1643 98.3581 97.7613L99.5521 98.9553C100.149 99.5523 100.149 100.448 99.5521 100.746C98.9551 101.343 98.0596 101.343 97.7611 100.746L96.5671 99.5523C95.97 98.9553 95.0745 98.9553 94.4775 99.5523L93.2835 100.746C92.6865 101.343 91.7909 101.343 91.4924 100.746C90.8954 100.149 90.8954 99.2538 91.4924 98.9553L92.6865 97.7613C93.2835 97.1643 93.2835 96.2687 92.6865 95.6717L91.4924 94.4777C90.8954 94.1792 90.8954 93.2837 91.4924 92.6867Z" fill="url(#paint26_linear_30_17765)"/>
<path fill-rule="evenodd" clip-rule="evenodd" d="M0.447761 74.1791C1.04478 73.5821 1.94029 73.5821 2.2388 74.1791L3.43284 75.3732C4.02985 75.9702 4.92536 75.9702 5.52238 75.3732L6.71641 74.1791C7.31343 73.5821 8.20895 73.5821 8.50745 74.1791C9.10447 74.7762 9.10447 75.6717 8.50745 75.9702C7.91044 76.5672 7.91045 76.5672 7.31343 77.1642C6.71642 77.7612 6.71642 78.6568 7.31343 79.2538L8.50745 80.4478C9.10447 81.0448 9.10447 81.9403 8.50745 82.2389C7.91044 82.8359 7.01492 82.8359 6.71641 82.2389L5.52238 81.0448C4.92536 80.4478 4.02985 80.4478 3.43284 81.0448L2.2388 82.2389C1.64179 82.8359 0.746269 82.8359 0.447761 82.2389C-0.149254 81.6418 -0.149254 80.7463 0.447761 80.4478L1.64178 79.2538C2.2388 78.6568 2.2388 77.7612 1.64178 77.1642L0.447761 75.9702C0.149254 75.6717 0.149254 74.7762 0.447761 74.1791Z" fill="url(#paint27_linear_30_17765)"/>
<path fill-rule="evenodd" clip-rule="evenodd" d="M20.7464 74.1791C21.3434 73.5821 22.2389 73.5821 22.5374 74.1791L23.7315 75.3732C24.3285 75.9702 25.224 75.9702 25.821 75.3732L27.0151 74.1791C27.6121 73.5821 28.5076 73.5821 28.8061 74.1791C29.4031 74.7762 29.4031 75.6717 28.8061 75.9702C28.2091 76.5672 28.2091 76.5672 27.6121 77.1642C27.0151 77.7612 27.0151 78.6568 27.6121 79.2538L29.1046 80.7463C29.7016 81.3433 29.7016 82.2389 29.1046 82.5374C28.5076 83.1344 27.6121 83.1344 27.3136 82.5374L26.1195 81.3433C25.5225 80.7463 24.627 80.7463 24.03 81.3433L22.836 82.5374C22.2389 83.1344 21.3434 83.1344 21.0449 82.5374C20.4479 81.9403 20.4479 81.0448 21.0449 80.7463L22.2389 79.5523C22.836 78.9553 22.836 78.0597 22.2389 77.4627L21.0449 76.2687C20.1494 75.6717 20.1494 74.7762 20.7464 74.1791Z" fill="url(#paint28_linear_30_17765)"/>
<path fill-rule="evenodd" clip-rule="evenodd" d="M41.0454 74.1791C41.6424 73.5821 42.538 73.5821 42.8365 74.1791L44.0305 75.3732C44.6275 75.9702 45.523 75.9702 46.12 75.3732L47.3141 74.1791C47.9111 73.5821 48.8066 73.5821 49.1051 74.1791C49.7021 74.7762 49.7021 75.6717 49.1051 75.9702C48.5081 76.5672 48.5081 76.5672 47.9111 77.1642C47.3141 77.7612 47.3141 78.6568 47.9111 79.2538L49.1051 80.4478C49.7021 81.0448 49.7021 81.9403 49.1051 82.2389C48.5081 82.8359 47.6126 82.8359 47.3141 82.2389L46.12 81.0448C45.523 80.4478 44.6275 80.4478 44.0305 81.0448L42.8365 82.2389C42.2394 82.8359 41.3439 82.8359 41.0454 82.2389C40.4484 81.6418 40.4484 80.7463 41.0454 80.4478L42.2395 79.2538C42.8365 78.6568 42.8365 77.7612 42.2395 77.1642L41.0454 76.2687C40.4484 75.6717 40.4484 74.7762 41.0454 74.1791Z" fill="url(#paint29_linear_30_17765)"/>
<path fill-rule="evenodd" clip-rule="evenodd" d="M61.0444 74.1791C61.6415 73.5821 62.537 73.5821 62.8355 74.1791L64.0295 75.3732C64.6265 75.9702 65.5221 75.9702 66.1191 75.3732L67.3131 74.1791C67.9101 73.5821 68.8056 73.5821 69.1042 74.1791C69.7012 74.7762 69.7012 75.6717 69.1042 75.9702C68.5071 76.5672 68.5071 76.5672 67.9101 77.1642C67.3131 77.7612 67.3131 78.6568 67.9101 79.2538L69.1042 80.4478C69.7012 81.0448 69.7012 81.9403 69.1042 82.2389C68.5071 82.8359 67.6116 82.8359 67.3131 82.2389L66.1191 81.0448C65.5221 80.4478 64.6265 80.4478 64.0295 81.0448L62.8355 82.2389C62.2385 82.8359 61.3429 82.8359 61.0444 82.2389C60.4474 81.6418 60.4474 80.7463 61.0444 80.4478L62.2385 79.2538C62.8355 78.6568 62.8355 77.7612 62.2385 77.1642L61.0444 75.9702C60.7459 75.6717 60.7459 74.7762 61.0444 74.1791Z" fill="url(#paint30_linear_30_17765)"/>
<path fill-rule="evenodd" clip-rule="evenodd" d="M81.3438 74.1791C81.9408 73.5821 82.8363 73.5821 83.1348 74.1791L84.3288 75.3732C84.9258 75.9702 85.8214 75.9702 86.4184 75.3732L87.6124 74.1791C88.2094 73.5821 89.1049 73.5821 89.4035 74.1791C90.0005 74.7762 90.0005 75.6717 89.4035 75.9702C88.8064 76.5672 88.8065 76.5672 88.2094 77.1642C87.6124 77.7612 87.6124 78.6568 88.2094 79.2538L89.4035 80.4478C90.0005 81.0448 90.0005 81.9403 89.4035 82.2389C88.8064 82.8359 87.9109 82.8359 87.6124 82.2389L86.4184 81.0448C85.8214 80.4478 84.9258 80.4478 84.3288 81.0448L83.1348 82.2389C82.5378 82.8359 81.6423 82.8359 81.3438 82.2389C80.7467 81.6418 80.7467 80.7463 81.3438 80.4478L82.5378 79.2538C83.1348 78.6568 83.1348 77.7612 82.5378 77.1642L81.3438 75.9702C80.7467 75.6717 80.7467 74.7762 81.3438 74.1791Z" fill="url(#paint31_linear_30_17765)"/>
<path fill-rule="evenodd" clip-rule="evenodd" d="M101.642 74.1791C102.239 73.5821 103.134 73.5821 103.433 74.1791L104.627 75.3732C105.224 75.9702 106.119 75.9702 106.716 75.3732L107.911 74.1791C108.508 73.5821 109.403 73.5821 109.702 74.1791C110.299 74.7762 110.299 75.6717 109.702 75.9702C109.105 76.5672 109.105 76.5672 108.508 77.1642C107.91 77.7612 107.91 78.6568 108.508 79.2538L109.702 80.4478C110.299 81.0448 110.299 81.9403 109.702 82.2389C109.105 82.8359 108.209 82.8359 107.911 82.2389L106.716 81.3433C106.119 80.7463 105.224 80.7463 104.627 81.3433L103.433 82.5374C102.836 83.1344 101.94 83.1344 101.642 82.5374C101.045 81.9403 101.045 81.0448 101.642 80.7463L102.836 79.5523C103.433 78.9553 103.433 78.0597 102.836 77.4627L101.642 76.2687C101.045 75.6717 101.045 74.7762 101.642 74.1791Z" fill="url(#paint32_linear_30_17765)"/>
<path fill-rule="evenodd" clip-rule="evenodd" d="M0.448275 111.194C1.04529 110.597 1.94081 110.597 2.23932 111.194L3.43335 112.388C4.03036 112.985 4.92588 112.985 5.52289 112.388L6.71693 111.194C7.31394 110.597 8.20946 110.597 8.50797 111.194C9.10498 111.791 9.10498 112.687 8.50797 112.985C8.50797 113.582 8.20946 113.582 7.61245 114.179C7.01543 114.776 7.01543 115.672 7.61245 116.269L8.80648 117.463C9.4035 118.06 9.4035 118.955 8.80648 119.254C8.20947 119.851 7.31394 119.851 7.01543 119.254L5.82141 118.06C5.22439 117.463 4.32887 117.463 3.73185 118.06L2.53782 119.552C1.9408 120.149 1.04529 120.149 0.746778 119.552C0.149763 118.955 0.149763 118.06 0.746778 117.761L1.94081 116.567C2.53783 115.97 2.53783 115.075 1.94081 114.478L0.746778 113.284C0.149763 112.388 0.149767 111.791 0.448275 111.194Z" fill="url(#paint33_linear_30_17765)"/>
<path fill-rule="evenodd" clip-rule="evenodd" d="M20.7471 111.194C21.3441 110.597 22.2396 110.597 22.5381 111.194L23.7322 112.388C24.3292 112.985 25.2247 112.985 25.8217 112.388L27.0157 111.194C27.6127 110.597 28.5083 110.597 28.8068 111.194C29.4038 111.791 29.4038 112.687 28.8068 112.985C28.2098 113.582 28.2098 113.582 27.6127 114.179C27.0157 114.776 27.0157 115.672 27.6127 116.269L28.8068 117.463C29.4038 118.06 29.4038 118.955 28.8068 119.254C28.2098 119.851 27.3142 119.851 27.0157 119.254L26.1202 118.358C25.5232 117.761 24.6277 117.761 24.0307 118.358L22.5381 119.552C21.9411 120.149 21.0456 120.149 20.7471 119.552C20.1501 118.955 20.1501 118.06 20.7471 117.761L21.9411 116.567C22.5381 115.97 22.5381 115.075 21.9411 114.478L20.7471 113.284C20.1501 112.388 20.1501 111.791 20.7471 111.194Z" fill="url(#paint34_linear_30_17765)"/>
<path fill-rule="evenodd" clip-rule="evenodd" d="M41.0452 111.194C41.6422 110.597 42.5377 110.597 42.8362 111.194L44.0302 112.388C44.6273 112.985 45.5228 112.985 46.1198 112.388L47.3138 111.194C47.9108 110.597 48.8064 110.597 49.1049 111.194C49.7019 111.791 49.7019 112.687 49.1049 112.985C48.5079 113.582 48.5079 113.582 47.9109 114.179C47.3138 114.776 47.3138 115.672 47.9109 116.269L49.1049 117.463C49.7019 118.06 49.7019 118.955 49.1049 119.254C48.5079 119.851 47.6123 119.851 47.3138 119.254L46.1198 118.06C45.5228 117.463 44.6273 117.463 44.0302 118.06L42.8362 119.552C42.2392 120.149 41.3437 120.149 41.0452 119.552C40.4482 118.955 40.4482 118.06 41.0452 117.761L42.2392 116.567C42.8362 115.97 42.8362 115.075 42.2392 114.478L41.0452 112.985C40.4482 112.388 40.4482 111.791 41.0452 111.194Z" fill="url(#paint35_linear_30_17765)"/>
<path fill-rule="evenodd" clip-rule="evenodd" d="M61.0447 111.194C61.6417 110.597 62.5373 110.597 62.8358 111.194L64.0298 112.388C64.6268 112.985 65.5223 112.985 66.1193 112.388L67.3134 111.194C67.9104 110.597 68.8059 110.597 69.1044 111.194C69.7014 111.791 69.7014 112.687 69.1044 112.985C68.5074 113.582 68.5074 113.582 67.9104 114.179C67.3134 114.776 67.3134 115.672 67.9104 116.269L69.1044 117.463C69.7014 118.06 69.7014 118.955 69.1044 119.254C68.5074 119.851 67.6119 119.851 67.3134 119.254L66.1193 118.06C65.5223 117.463 64.6268 117.463 64.0298 118.06L63.1343 119.552C62.5373 120.149 61.6417 120.149 61.3432 119.552C60.7462 118.955 60.7462 118.06 61.3432 117.761L62.5372 116.567C63.1343 115.97 63.1343 115.075 62.5372 114.478L61.3432 113.284C60.7462 112.388 60.7462 111.791 61.0447 111.194Z" fill="url(#paint36_linear_30_17765)"/>
<path fill-rule="evenodd" clip-rule="evenodd" d="M81.3435 111.194C81.9405 110.597 82.836 110.597 83.1346 111.194L84.3286 112.388C84.9256 112.985 85.8211 112.985 86.4181 112.388L87.6122 111.194C88.2092 110.597 89.1047 110.597 89.4032 111.194C90.0002 111.791 90.0002 112.687 89.4032 112.985C88.8062 113.582 88.8062 113.582 88.2092 114.179C87.6122 114.776 87.6122 115.672 88.2092 116.269L89.4032 117.463C90.0002 118.06 90.0002 118.955 89.4032 119.254C88.8062 119.851 87.9107 119.851 87.6122 119.254L86.4181 118.06C85.8211 117.463 84.9256 117.463 84.3286 118.06L83.1346 119.552C82.5375 120.149 81.642 120.149 81.3435 119.552C80.7465 118.955 80.7465 118.06 81.3435 117.761L82.5375 116.567C83.1346 115.97 83.1346 115.075 82.5375 114.478L81.3435 113.284C80.7465 112.388 80.7465 111.791 81.3435 111.194Z" fill="url(#paint37_linear_30_17765)"/>
<path fill-rule="evenodd" clip-rule="evenodd" d="M101.643 111.194C102.24 110.597 103.136 110.597 103.434 111.194L104.628 112.388C105.225 112.985 106.121 112.985 106.718 112.388L107.912 111.194C108.509 110.597 109.404 110.597 109.703 111.194C110.3 111.791 110.3 112.687 109.703 112.985C109.106 113.582 109.106 113.582 108.509 114.179C107.912 114.776 107.912 115.672 108.509 116.269L109.703 117.463C110.3 118.06 110.3 118.955 109.703 119.254C109.106 119.851 108.21 119.851 107.912 119.254L106.718 118.358C106.121 117.761 105.225 117.761 104.628 118.358L103.434 119.552C102.837 120.149 101.942 120.149 101.643 119.552C101.046 118.955 101.046 118.06 101.643 117.761L102.837 116.567C103.434 115.97 103.434 115.075 102.837 114.478L101.643 113.284C101.046 112.388 101.046 111.791 101.643 111.194Z" fill="url(#paint38_linear_30_17765)"/>
</g>
<defs>
<linearGradient id="paint0_linear_30_17765" x1="11.5277" y1="19.8226" x2="17.8551" y2="26.3385" gradientUnits="userSpaceOnUse">
<stop stop-color="#FF9100"/>
<stop offset="1" stop-color="#FF4D00"/>
</linearGradient>
<linearGradient id="paint1_linear_30_17765" x1="31.7561" y1="19.8226" x2="38.0862" y2="26.1527" gradientUnits="userSpaceOnUse">
<stop stop-color="#FF9100"/>
<stop offset="1" stop-color="#FF4D00"/>
</linearGradient>
<linearGradient id="paint2_linear_30_17765" x1="51.9708" y1="19.8664" x2="58.4996" y2="26.0071" gradientUnits="userSpaceOnUse">
<stop stop-color="#FF9100"/>
<stop offset="1" stop-color="#FF4D00"/>
</linearGradient>
<linearGradient id="paint3_linear_30_17765" x1="72.0546" y1="19.8226" x2="78.3848" y2="26.1527" gradientUnits="userSpaceOnUse">
<stop stop-color="#FF9100"/>
<stop offset="1" stop-color="#FF4D00"/>
</linearGradient>
<linearGradient id="paint4_linear_30_17765" x1="92.3525" y1="19.8226" x2="98.6826" y2="26.1527" gradientUnits="userSpaceOnUse">
<stop stop-color="#FF9100"/>
<stop offset="1" stop-color="#FF4D00"/>
</linearGradient>
<linearGradient id="paint5_linear_30_17765" x1="1.56685" y1="1.40272" x2="8.30713" y2="7.75477" gradientUnits="userSpaceOnUse">
<stop stop-color="#FF9100"/>
<stop offset="1" stop-color="#FF4D00"/>
</linearGradient>
<linearGradient id="paint6_linear_30_17765" x1="21.6507" y1="1.40272" x2="28.3995" y2="7.94056" gradientUnits="userSpaceOnUse">
<stop stop-color="#FF9100"/>
<stop offset="1" stop-color="#FF4D00"/>
</linearGradient>
<linearGradient id="paint7_linear_30_17765" x1="41.9488" y1="1.40272" x2="48.6976" y2="7.94057" gradientUnits="userSpaceOnUse">
<stop stop-color="#FF9100"/>
<stop offset="1" stop-color="#FF4D00"/>
</linearGradient>
<linearGradient id="paint8_linear_30_17765" x1="62.1633" y1="1.40272" x2="68.9036" y2="7.75477" gradientUnits="userSpaceOnUse">
<stop stop-color="#FF9100"/>
<stop offset="1" stop-color="#FF4D00"/>
</linearGradient>
<linearGradient id="paint9_linear_30_17765" x1="82.2472" y1="1.40272" x2="88.9959" y2="7.94057" gradientUnits="userSpaceOnUse">
<stop stop-color="#FF9100"/>
<stop offset="1" stop-color="#FF4D00"/>
</linearGradient>
<linearGradient id="paint10_linear_30_17765" x1="102.547" y1="1.40272" x2="109.295" y2="7.94055" gradientUnits="userSpaceOnUse">
<stop stop-color="#FF9100"/>
<stop offset="1" stop-color="#FF4D00"/>
</linearGradient>
<linearGradient id="paint11_linear_30_17765" x1="11.4567" y1="56.8374" x2="17.7869" y2="63.1675" gradientUnits="userSpaceOnUse">
<stop stop-color="#FF9100"/>
<stop offset="1" stop-color="#FF4D00"/>
</linearGradient>
<linearGradient id="paint12_linear_30_17765" x1="31.7544" y1="56.8374" x2="38.0845" y2="63.1675" gradientUnits="userSpaceOnUse">
<stop stop-color="#FF9100"/>
<stop offset="1" stop-color="#FF4D00"/>
</linearGradient>
<linearGradient id="paint13_linear_30_17765" x1="51.9705" y1="56.8812" x2="58.4994" y2="63.0219" gradientUnits="userSpaceOnUse">
<stop stop-color="#FF9100"/>
<stop offset="1" stop-color="#FF4D00"/>
</linearGradient>
<linearGradient id="paint14_linear_30_17765" x1="72.0529" y1="56.8374" x2="78.3831" y2="63.1675" gradientUnits="userSpaceOnUse">
<stop stop-color="#FF9100"/>
<stop offset="1" stop-color="#FF4D00"/>
</linearGradient>
<linearGradient id="paint15_linear_30_17765" x1="92.3523" y1="56.8374" x2="98.6824" y2="63.1675" gradientUnits="userSpaceOnUse">
<stop stop-color="#FF9100"/>
<stop offset="1" stop-color="#FF4D00"/>
</linearGradient>
<linearGradient id="paint16_linear_30_17765" x1="1.30782" y1="38.3301" x2="7.63794" y2="44.6602" gradientUnits="userSpaceOnUse">
<stop stop-color="#FF9100"/>
<stop offset="1" stop-color="#FF4D00"/>
</linearGradient>
<linearGradient id="paint17_linear_30_17765" x1="21.6335" y1="38.3739" x2="28.1703" y2="44.6775" gradientUnits="userSpaceOnUse">
<stop stop-color="#FF9100"/>
<stop offset="1" stop-color="#FF4D00"/>
</linearGradient>
<linearGradient id="paint18_linear_30_17765" x1="41.9055" y1="38.3301" x2="48.2356" y2="44.6602" gradientUnits="userSpaceOnUse">
<stop stop-color="#FF9100"/>
<stop offset="1" stop-color="#FF4D00"/>
</linearGradient>
<linearGradient id="paint19_linear_30_17765" x1="61.9045" y1="38.3301" x2="68.2346" y2="44.6602" gradientUnits="userSpaceOnUse">
<stop stop-color="#FF9100"/>
<stop offset="1" stop-color="#FF4D00"/>
</linearGradient>
<linearGradient id="paint20_linear_30_17765" x1="82.2038" y1="38.3301" x2="88.5339" y2="44.6602" gradientUnits="userSpaceOnUse">
<stop stop-color="#FF9100"/>
<stop offset="1" stop-color="#FF4D00"/>
</linearGradient>
<linearGradient id="paint21_linear_30_17765" x1="102.502" y1="38.3739" x2="109.04" y2="44.7006" gradientUnits="userSpaceOnUse">
<stop stop-color="#FF9100"/>
<stop offset="1" stop-color="#FF4D00"/>
</linearGradient>
<linearGradient id="paint22_linear_30_17765" x1="11.5277" y1="93.5539" x2="17.8551" y2="100.07" gradientUnits="userSpaceOnUse">
<stop stop-color="#FF9100"/>
<stop offset="1" stop-color="#FF4D00"/>
</linearGradient>
<linearGradient id="paint23_linear_30_17765" x1="31.7561" y1="93.5539" x2="38.0862" y2="99.8841" gradientUnits="userSpaceOnUse">
<stop stop-color="#FF9100"/>
<stop offset="1" stop-color="#FF4D00"/>
</linearGradient>
<linearGradient id="paint24_linear_30_17765" x1="51.9708" y1="93.5978" x2="58.4996" y2="99.7385" gradientUnits="userSpaceOnUse">
<stop stop-color="#FF9100"/>
<stop offset="1" stop-color="#FF4D00"/>
</linearGradient>
<linearGradient id="paint25_linear_30_17765" x1="72.0546" y1="93.5539" x2="78.3848" y2="99.8841" gradientUnits="userSpaceOnUse">
<stop stop-color="#FF9100"/>
<stop offset="1" stop-color="#FF4D00"/>
</linearGradient>
<linearGradient id="paint26_linear_30_17765" x1="92.3525" y1="93.5539" x2="98.6826" y2="99.8841" gradientUnits="userSpaceOnUse">
<stop stop-color="#FF9100"/>
<stop offset="1" stop-color="#FF4D00"/>
</linearGradient>
<linearGradient id="paint27_linear_30_17765" x1="1.30782" y1="75.0464" x2="7.63795" y2="81.3766" gradientUnits="userSpaceOnUse">
<stop stop-color="#FF9100"/>
<stop offset="1" stop-color="#FF4D00"/>
</linearGradient>
<linearGradient id="paint28_linear_30_17765" x1="21.6771" y1="75.0903" x2="28.2182" y2="81.609" gradientUnits="userSpaceOnUse">
<stop stop-color="#FF9100"/>
<stop offset="1" stop-color="#FF4D00"/>
</linearGradient>
<linearGradient id="paint29_linear_30_17765" x1="41.9055" y1="75.0464" x2="48.2356" y2="81.3766" gradientUnits="userSpaceOnUse">
<stop stop-color="#FF9100"/>
<stop offset="1" stop-color="#FF4D00"/>
</linearGradient>
<linearGradient id="paint30_linear_30_17765" x1="61.9045" y1="75.0464" x2="68.2346" y2="81.3766" gradientUnits="userSpaceOnUse">
<stop stop-color="#FF9100"/>
<stop offset="1" stop-color="#FF4D00"/>
</linearGradient>
<linearGradient id="paint31_linear_30_17765" x1="82.2038" y1="75.0464" x2="88.5339" y2="81.3766" gradientUnits="userSpaceOnUse">
<stop stop-color="#FF9100"/>
<stop offset="1" stop-color="#FF4D00"/>
</linearGradient>
<linearGradient id="paint32_linear_30_17765" x1="102.502" y1="75.0903" x2="109.04" y2="81.417" gradientUnits="userSpaceOnUse">
<stop stop-color="#FF9100"/>
<stop offset="1" stop-color="#FF4D00"/>
</linearGradient>
<linearGradient id="paint33_linear_30_17765" x1="1.56685" y1="112.105" x2="8.1055" y2="118.466" gradientUnits="userSpaceOnUse">
<stop stop-color="#FF9100"/>
<stop offset="1" stop-color="#FF4D00"/>
</linearGradient>
<linearGradient id="paint34_linear_30_17765" x1="21.6071" y1="112.105" x2="28.1448" y2="118.432" gradientUnits="userSpaceOnUse">
<stop stop-color="#FF9100"/>
<stop offset="1" stop-color="#FF4D00"/>
</linearGradient>
<linearGradient id="paint35_linear_30_17765" x1="41.9052" y1="112.105" x2="48.4428" y2="118.432" gradientUnits="userSpaceOnUse">
<stop stop-color="#FF9100"/>
<stop offset="1" stop-color="#FF4D00"/>
</linearGradient>
<linearGradient id="paint36_linear_30_17765" x1="62.1197" y1="112.105" x2="68.6486" y2="118.246" gradientUnits="userSpaceOnUse">
<stop stop-color="#FF9100"/>
<stop offset="1" stop-color="#FF4D00"/>
</linearGradient>
<linearGradient id="paint37_linear_30_17765" x1="82.2036" y1="112.105" x2="88.7412" y2="118.432" gradientUnits="userSpaceOnUse">
<stop stop-color="#FF9100"/>
<stop offset="1" stop-color="#FF4D00"/>
</linearGradient>
<linearGradient id="paint38_linear_30_17765" x1="102.503" y1="112.105" x2="109.041" y2="118.432" gradientUnits="userSpaceOnUse">
<stop stop-color="#FF9100"/>
<stop offset="1" stop-color="#FF4D00"/>
</linearGradient>
</defs>
</svg>
