<svg width="77" height="19" viewBox="0 0 77 19" fill="none" xmlns="http://www.w3.org/2000/svg">
<path d="M76.4547 12.0775L67.9286 1.33216C67.4226 0.678602 66.3948 0.747018 65.5579 1.38423L56.7082 8.317L51.2177 1.49295C50.7118 0.839396 49.684 0.907813 48.8471 1.54503L39.9974 8.47779L34.6644 1.69613C34.1585 1.04257 33.1307 1.11099 32.2938 1.7482L23.4441 8.68097L18.1939 1.57661C17.6466 1.0844 16.5026 0.94909 15.8232 1.62868L1.75321 12.5037C0.916293 13.1409 0.668059 14.109 1.17399 14.7625L3.47138 17.6229C3.97731 18.2764 5.00513 18.208 5.84205 17.5708L14.6503 10.7994L19.9833 17.5811C20.257 17.8272 20.6881 18.1156 21.0445 18.0391C21.5584 18.0048 21.9148 17.9283 22.354 17.529L31.1622 10.7576L36.4952 17.5392C36.7689 17.7853 37.2001 18.0738 37.5565 17.9972C38.0704 17.963 38.4268 17.8864 38.8659 17.4871L47.6742 10.7157L53.0072 17.4974C53.2808 17.7435 53.712 18.032 54.0684 17.9554C54.5823 17.9212 54.9387 17.8446 55.3778 17.4453L64.1861 10.6739L69.7594 17.1753C70.2653 17.8288 71.2931 17.7604 72.13 17.1232L75.8754 14.3364C76.5548 13.6568 76.8031 12.6887 76.4547 12.0775Z" fill="url(#paint0_radial_67_6049)"/>
<defs>
<radialGradient id="paint0_radial_67_6049" cx="0" cy="0" r="1" gradientUnits="userSpaceOnUse" gradientTransform="translate(40.3499 1.98594) rotate(15.059) scale(28.9354 25.9028)">
<stop stop-color="#5B2AA4"/>
<stop offset="0.9944" stop-color="#481A72"/>
</radialGradient>
</defs>
</svg>
