<svg width="305" height="156" viewBox="0 0 305 156" fill="none" xmlns="http://www.w3.org/2000/svg">
<g clip-path="url(#clip0_67_5438)">
<path opacity="0.4" d="M152.778 145.058C192.118 145.058 224.009 113.179 224.009 73.855C224.009 34.5306 192.118 2.65186 152.778 2.65186C113.439 2.65186 81.5479 34.5306 81.5479 73.855C81.5479 113.179 113.439 145.058 152.778 145.058Z" fill="url(#paint0_linear_67_5438)"/>
<path opacity="0.3" d="M99.3266 24.7332C103.315 20.7468 103.315 14.2835 99.3266 10.2971C95.3386 6.31066 88.8729 6.31066 84.8849 10.2971C80.8969 14.2835 80.8969 20.7468 84.8849 24.7332C88.8729 28.7196 95.3386 28.7196 99.3266 24.7332Z" fill="url(#paint1_linear_67_5438)"/>
<path opacity="0.3" d="M247.945 57.3396C256.034 52.7652 258.882 42.502 254.306 34.416C249.729 26.33 239.462 23.4833 231.373 28.0577C223.284 32.6321 220.436 42.8953 225.012 50.9813C229.589 59.0672 239.856 61.914 247.945 57.3396Z" fill="url(#paint2_linear_67_5438)"/>
<path opacity="0.3" d="M35.1174 34.0495C36.8845 32.283 36.8845 29.4191 35.1174 27.6527C33.3503 25.8863 30.4853 25.8863 28.7182 27.6527C26.9511 29.4191 26.9511 32.283 28.7182 34.0495C30.4853 35.8159 33.3503 35.8159 35.1174 34.0495Z" fill="url(#paint3_linear_67_5438)"/>
<path fill-rule="evenodd" clip-rule="evenodd" d="M120.104 86.4301C120.104 86.4301 124.147 87.4916 127.987 91.5335L131.254 88.0632C131.254 88.0632 129.294 83.613 123.453 81.3267L120.104 86.4301Z" fill="url(#paint4_linear_67_5438)"/>
<path fill-rule="evenodd" clip-rule="evenodd" d="M31.27 71.4461C31.27 71.4461 34.7417 64.4646 41.8484 61.6475L47.8115 70.8745C47.8115 70.8745 42.6244 72.9158 39.3978 78.1418L31.27 71.4461Z" fill="url(#paint5_linear_67_5438)"/>
<path fill-rule="evenodd" clip-rule="evenodd" d="M195.5 21.9632C195.5 21.9632 198.972 14.9816 206.079 12.1646L212.042 21.3916C212.042 21.3916 206.855 23.4329 203.628 28.6589L195.5 21.9632Z" fill="url(#paint6_linear_67_5438)"/>
<path fill-rule="evenodd" clip-rule="evenodd" d="M10.0723 151.346L11.6652 155.51L296.097 155.592L297.159 151.346H10.0723Z" fill="#603F80"/>
<path fill-rule="evenodd" clip-rule="evenodd" d="M0.351562 144.936L305.205 142.854L262.606 96.3921L44.7073 98.6784L0.351562 144.936Z" fill="url(#paint7_radial_67_5438)"/>
<path fill-rule="evenodd" clip-rule="evenodd" d="M0.351562 144.936L2.23035 151.346H303.653L305.205 142.854L0.351562 144.936Z" fill="url(#paint8_radial_67_5438)"/>
<path opacity="0.4" fill-rule="evenodd" clip-rule="evenodd" d="M10.6849 134.158L294.3 130.932L305.205 142.854L0.351562 144.936L10.6849 134.158Z" fill="url(#paint9_radial_67_5438)"/>
<path opacity="0.4" fill-rule="evenodd" clip-rule="evenodd" d="M286.377 122.277L13.9116 130.769L15.8313 128.768L285.152 120.97L286.377 122.277Z" fill="url(#paint10_linear_67_5438)"/>
<path opacity="0.4" fill-rule="evenodd" clip-rule="evenodd" d="M282.578 118.194H26.001L27.1446 116.969L282.047 117.582L282.578 118.194Z" fill="url(#paint11_linear_67_5438)"/>
<path fill-rule="evenodd" clip-rule="evenodd" d="M271.959 106.599L137.667 108.477L135.298 112.274L274.247 109.049L271.959 106.599Z" fill="#B9CCCC"/>
<path opacity="0.2" fill-rule="evenodd" clip-rule="evenodd" d="M20.1606 151.346L21.7944 144.773L44.5032 142.609L107.565 133.055H116.755L73.747 139.71L37.4782 144.936V151.346H20.1606Z" fill="#9A7EB3"/>
<path opacity="0.2" fill-rule="evenodd" clip-rule="evenodd" d="M55.0815 151.346L56.2252 144.528L60.7588 142.854L90.4926 140.2L121.003 133.055L137.422 132.729H146.325L131.336 133.055L121.003 133.504L90.5743 140.69L75.5032 142.405L63.0051 144.487L61.4122 151.346H55.0815Z" fill="#9A7EB3"/>
<path opacity="0.2" fill-rule="evenodd" clip-rule="evenodd" d="M39.1118 104.476L68.7639 103.782H76.9734L144.855 102.516L170.341 98.1884L184.269 97.2085H187.781L168.83 99.7398L144.855 103.21L142.527 104.19L67.702 104.312L37.478 105.946L39.1118 104.476Z" fill="#9A8EC5"/>
<path opacity="0.2" fill-rule="evenodd" clip-rule="evenodd" d="M189.129 151.346L193.213 143.629L199.176 142.037L226.909 135.709L270.284 131.218H282.047L264.771 132.933L226.909 136.321L196.726 143.548L192.886 151.346H189.129Z" fill="#9A7EB3"/>
<path opacity="0.2" fill-rule="evenodd" clip-rule="evenodd" d="M181.655 151.346L180.756 143.711L184.759 140.853L220.129 135.26L242.471 132.198L260.605 131.422L250.68 131.218L233.975 133.096L206.569 136.852L182.472 140.445L167.932 143.793L175.447 151.346H181.655Z" fill="#9A7EB3"/>
<path opacity="0.2" fill-rule="evenodd" clip-rule="evenodd" d="M200.197 151.346L203.22 143.548L231.932 136.852H235.69L237.936 136.648L294.3 130.932L294.545 131.218L237.201 137.383L234.587 137.587L232.055 137.342L205.589 143.548L200.932 151.346H200.197Z" fill="#9A7EB3"/>
<path opacity="0.2" fill-rule="evenodd" clip-rule="evenodd" d="M118.47 125.829L133.746 124.604L157.353 122.318L167.155 118.725L172.833 118.194L178.346 118.031L167.441 119.705L164.909 119.909L157.067 122.685L128.232 125.298L118.47 125.829Z" fill="#9A7EB3"/>
<path opacity="0.8" fill-rule="evenodd" clip-rule="evenodd" d="M68.1103 136.362L30.7388 136.607L59.0431 105.701L91.0642 103.986L68.1103 136.362Z" fill="#9C84B8"/>
<path fill-rule="evenodd" clip-rule="evenodd" d="M68.2736 135.954L30.9429 136.199L59.2472 105.252L91.2683 103.578L68.2736 135.954Z" fill="url(#paint12_linear_67_5438)"/>
<path opacity="0.8" fill-rule="evenodd" clip-rule="evenodd" d="M57.7363 112.315L61.5348 108.559L81.7113 107.905L78.6072 111.621L57.7363 112.315Z" fill="#C6B8D6"/>
<path opacity="0.8" fill-rule="evenodd" clip-rule="evenodd" d="M253.743 138.566L291.074 138.771L262.769 107.864L230.789 106.149L253.743 138.566Z" fill="#9C84B8"/>
<path fill-rule="evenodd" clip-rule="evenodd" d="M253.539 138.118L290.91 138.362L261.993 105.333L230.585 105.741L253.539 138.118Z" fill="url(#paint13_linear_67_5438)"/>
<path opacity="0.8" fill-rule="evenodd" clip-rule="evenodd" d="M278.616 131.544L260.605 109.579L240.142 110.11L255.54 130.932L278.616 131.544Z" fill="#C6B8D6"/>
<path opacity="0.8" fill-rule="evenodd" clip-rule="evenodd" d="M255.54 127.298L272.408 143.017L273.96 152.121L263.75 151.55L255.54 127.298Z" fill="#9C84B8"/>
<path opacity="0.8" d="M108.014 129.911C107.933 129.829 107.565 129.666 106.953 129.503C105.115 129.013 101.234 128.441 98.0079 128.809C96.9868 128.931 95.8432 129.911 94.7404 130.238C94.7404 130.238 93.801 130.401 92.8208 130.483C92.0856 130.524 91.4729 130.483 91.4729 130.483C91.4729 130.483 91.5955 130.156 91.7997 129.666C91.9631 129.217 92.2081 128.605 92.5349 127.951V127.911C92.5757 127.788 92.6165 127.706 92.6982 127.584C92.6982 127.543 92.7391 127.502 92.7391 127.461C92.7799 127.339 92.8616 127.257 92.9025 127.135C92.9433 127.094 92.9433 127.012 92.9841 126.972C93.025 126.89 93.0658 126.808 93.1067 126.727C93.1475 126.686 93.1475 126.604 93.1884 126.563C93.2292 126.482 93.27 126.4 93.3517 126.318C93.3926 126.277 93.3926 126.237 93.4334 126.196C93.5151 126.073 93.5968 125.951 93.6376 125.828C93.6785 125.788 93.6785 125.747 93.7193 125.706C93.801 125.583 93.8418 125.502 93.9235 125.379C93.9644 125.338 93.9644 125.298 94.0052 125.298C94.0869 125.175 94.1686 125.012 94.2911 124.889C94.2911 124.889 94.2911 124.848 94.332 124.848C94.4137 124.726 94.4953 124.604 94.6179 124.481L94.6587 124.44C94.8629 124.154 95.0671 123.869 95.3122 123.624C95.4347 123.501 95.5573 123.338 95.6798 123.215C95.7615 123.134 95.884 123.011 95.9657 122.93C95.9657 122.93 97.1501 123.215 97.8036 123.215C98.4571 123.256 101.929 122.276 102.991 121.256C102.991 121.256 102.991 120.929 102.787 120.643C102.787 120.643 102.664 120.235 101.97 120.153L101.561 120.194C101.112 120.235 100.336 120.357 99.7233 120.439C99.3148 120.48 98.8656 120.521 98.498 120.562C97.1502 120.643 94.5362 120.562 94.2911 120.602C94.0461 120.643 92.2898 121.705 92.2898 121.705C92.2898 121.705 89.1857 121.256 87.5928 121.541L86.776 121.868C86.776 121.868 83.917 121.827 82.0382 122.031C81.9565 122.031 81.8748 122.031 81.8339 122.072C81.3438 122.154 80.4861 122.236 79.5876 122.44C79.5467 122.44 79.4242 122.48 79.3425 122.48C79.3425 122.48 75.1765 122.685 72.5625 123.297C72.5625 123.297 72.6442 123.297 72.8484 123.256C72.1133 123.42 71.5823 123.583 71.4598 123.828C71.4598 123.869 71.4189 123.869 71.4189 123.909C71.4189 123.95 71.4189 123.95 71.3781 123.991C71.0105 125.134 70.0711 129.748 69.2542 131.871C69.0909 132.279 68.9683 132.565 68.8049 132.769C68.6416 133.014 68.3148 133.3 67.9472 133.586C67.5797 133.545 67.3346 133.545 67.3346 133.545C66.191 134.443 63.7812 135.709 63.7812 135.709C63.7812 135.709 59.8194 135.627 59.6561 135.709C59.5335 135.749 59.0434 136.239 58.4308 136.77L57.9406 137.219C57.7364 137.383 57.5322 137.587 57.328 137.709C56.6337 138.24 53.8972 139.669 52.2634 140.526L52.0184 140.649L51.0381 141.139C51.0381 141.139 49.1593 141.343 48.3016 141.506C48.1791 141.506 48.0974 141.547 48.0566 141.547C47.9749 141.547 47.8932 141.588 47.8932 141.588C47.7707 141.669 47.8932 142.649 47.8932 142.649C47.4439 142.853 46.9947 143.058 46.5454 143.262L46.4229 143.303C34.9459 148.447 26.4097 155.51 26.4097 155.51H54.5507H70.9288L72.7259 151.346H66.191L67.2529 144.487H70.1119L69.9077 143.629C69.9077 143.384 71.3372 142.241 72.1133 141.547C72.3992 141.302 72.5625 141.098 72.6034 141.057C72.6442 140.812 72.1541 139.791 72.1541 139.791C74.0737 137.628 76.8919 136.28 76.8919 136.28C76.8511 136.158 76.7694 136.076 76.6877 135.954L78.444 135.749C81.9156 135.464 88.2872 135.26 89.3083 135.178C90.3702 135.055 94.3728 133.055 96.9459 132.157C97.4769 131.993 97.9262 131.83 98.2938 131.789C100.091 131.463 104.788 131.585 106.626 131.626C106.83 131.626 106.912 131.626 106.912 131.626C106.912 131.626 106.83 131.626 106.748 131.626C106.953 131.626 107.116 131.626 107.198 131.626C107.279 131.626 107.32 131.626 107.361 131.626C107.688 131.585 108.26 130.319 108.014 129.911Z" fill="#9C84B8"/>
<path opacity="0.8" fill-rule="evenodd" clip-rule="evenodd" d="M78.2394 141.384L77.4634 142.609H123.167L132.683 110.6L98.8244 111.907L78.2394 141.384Z" fill="#9C84B8"/>
<path fill-rule="evenodd" clip-rule="evenodd" d="M78.2393 141.384V139.914L97.1497 109.947L132.683 109.375L132.397 111.008L122.636 141.384H78.2393Z" fill="url(#paint14_linear_67_5438)"/>
<path fill-rule="evenodd" clip-rule="evenodd" d="M132.683 109.375L132.397 111.008L122.636 141.384H78.2393V139.914L122.636 140.322L132.683 109.375Z" fill="url(#paint15_linear_67_5438)"/>
<path fill-rule="evenodd" clip-rule="evenodd" d="M131.09 107.783L120.471 138.158H79.342L78.2393 135.545L84.8967 126.033L95.2709 111.212L97.1497 108.558L131.09 107.783Z" fill="url(#paint16_linear_67_5438)"/>
<path fill-rule="evenodd" clip-rule="evenodd" d="M131.09 107.783L120.757 136.893L78.2393 135.545L79.342 138.158H120.471L131.09 109.375V107.783Z" fill="url(#paint17_radial_67_5438)"/>
<path opacity="0.8" fill-rule="evenodd" clip-rule="evenodd" d="M122.35 107.987L120.839 110.151L102.418 110.926L104.093 108.722L122.35 107.987Z" fill="#9C84B8"/>
<path opacity="0.8" fill-rule="evenodd" clip-rule="evenodd" d="M120.757 136.893L120.471 138.158H79.342L78.2393 135.545L120.757 136.893Z" fill="#9C84B8"/>
<path fill-rule="evenodd" clip-rule="evenodd" d="M122.268 107.293V107.987H121.615L121.37 108.191L121.533 108.844L120.839 109.988L102.541 110.559V110.151L113.038 109.008L122.268 107.293Z" fill="url(#paint18_radial_67_5438)"/>
<path fill-rule="evenodd" clip-rule="evenodd" d="M104.297 107.783L122.268 107.293L121.288 108.069V108.844L120.675 109.661L102.541 110.151L103.562 108.967L103.358 108.559L104.297 107.783Z" fill="url(#paint19_radial_67_5438)"/>
<path opacity="0.8" fill-rule="evenodd" clip-rule="evenodd" d="M103.358 108.559L121.288 108.069L122.268 107.293L104.297 107.783L103.358 108.559Z" fill="url(#paint20_linear_67_5438)"/>
<path opacity="0.8" fill-rule="evenodd" clip-rule="evenodd" d="M103.358 108.559L121.288 108.069V108.845L103.562 108.967L103.358 108.559Z" fill="#9C84B8"/>
<path opacity="0.8" d="M115.938 117.908L101.479 131.749L122.391 132.116L122.187 133.627L124.8 133.708L124.637 135.137L141.791 134.607L146.325 119.745L115.938 117.908Z" fill="#9C84B8"/>
<path fill-rule="evenodd" clip-rule="evenodd" d="M145.835 116.275L145.631 118.398L141.056 133.708L93.6781 129.299L93.0654 127.87L145.835 116.275Z" fill="url(#paint21_linear_67_5438)"/>
<path fill-rule="evenodd" clip-rule="evenodd" d="M93.0654 127.87L106.054 112.601L145.835 116.275L140.852 131.912L93.0654 127.87Z" fill="url(#paint22_radial_67_5438)"/>
<path opacity="0.5" d="M96.4146 126.931L106.952 113.54L144.079 116.683L139.463 130.483L96.4146 126.931Z" fill="#79FFFF"/>
<path fill-rule="evenodd" clip-rule="evenodd" d="M135.91 119.174C135.828 119.868 134.358 120.276 132.602 120.113C130.845 119.95 129.457 119.256 129.497 118.602C129.579 117.908 131.049 117.5 132.806 117.663C134.562 117.827 135.951 118.521 135.91 119.174Z" fill="#26F1FF"/>
<path d="M96.4146 126.931L100.05 122.277C100.05 122.277 112.956 116.398 114.386 116.479C115.815 116.561 123.739 129.177 123.739 129.177L96.4146 126.931Z" fill="url(#paint23_linear_67_5438)"/>
<path d="M144.079 116.683C142.976 116.438 127.333 129.421 127.333 129.421L139.463 130.483L144.079 116.683Z" fill="url(#paint24_linear_67_5438)"/>
<path d="M115.08 128.483C115.08 128.483 127.619 122.563 129.62 122.848C131.662 123.134 134.93 130.116 134.93 130.116L115.08 128.483Z" fill="#8379E3"/>
<path d="M237.651 94.718L229.074 104.108L226.95 98.1475L226.378 96.5144C221.313 98.0658 215.269 96.6777 214.37 96.1061C213.594 95.6162 212.818 93.8606 212.573 93.3706C212.532 93.289 212.532 93.2073 212.532 93.2073L212.205 93.044C212.205 93.044 211.511 94.1055 210.776 94.3913C210.041 94.718 203.751 94.473 203.547 94.3913C203.302 94.3097 203.097 94.228 202.812 93.2482C202.485 92.2683 202.812 90.5535 202.812 90.5535C202.812 90.5535 201.219 90.2269 200.974 89.9003C200.728 89.5737 199.993 85.9809 199.993 85.9809C199.993 85.9809 199.422 85.7767 199.176 85.5726C198.931 85.3685 198.319 82.7963 198.36 82.0206C198.4 81.2857 198.686 80.8774 198.686 80.8774C198.36 80.5508 197.829 78.142 197.829 78.142C197.829 78.142 194.847 77.9378 193.989 77.2438C193.132 76.5497 193.785 74.0184 193.989 73.7734C194.153 73.5693 196.032 72.8752 196.685 72.5894L196.93 72.5078C196.889 71.283 202.035 65.8529 204.364 65.4446C206.692 65.0364 220.088 67.1594 221.763 68.0576C223.397 68.9966 233.403 87.2873 233.403 87.2873L237.651 94.718Z" fill="url(#paint25_linear_67_5438)"/>
<path opacity="0.5" d="M197.829 78.1826C197.829 78.1826 198.196 80.224 198.686 80.9181C198.686 80.9181 203.751 82.0204 207.917 81.9388L209.673 79.4483L205.548 78.1826H197.829Z" fill="url(#paint26_linear_67_5438)"/>
<path opacity="0.6" d="M228.094 90.8799L226.991 98.1472L226.419 96.5141C221.355 98.0655 215.31 96.6774 214.411 96.1058C213.635 95.6159 212.859 93.8603 212.614 93.3704L213.472 88.2669L210.735 79.1216C210.735 79.1216 216.086 87.2054 219.435 88.6344C222.784 90.1042 227.113 89.6143 227.113 89.6143L228.094 90.8799Z" fill="url(#paint27_linear_67_5438)"/>
<path d="M218.659 70.5482C218.659 70.5482 216.208 72.8754 215.636 72.8754C215.065 72.8754 203.833 70.5482 203.833 70.5482L203.302 70.589L205.548 69.4459L204.731 67.4453C204.731 67.4453 205.997 68.7518 206.365 69.4867L208.285 69.7316L209.102 68.221L208.816 70.0174L216.249 71.4464C216.249 71.4464 218.005 71.079 218.659 70.5482Z" fill="url(#paint28_linear_67_5438)"/>
<path d="M197.829 78.1827C197.829 78.1827 201.913 78.3868 204.2 77.4478C204.2 77.4478 208.53 77.7335 210.694 79.0809C210.694 79.0809 214.37 87.6955 216.167 89.3286C216.698 89.8185 220.292 90.5942 222.375 89.8593C222.375 89.8593 220.17 90.88 217.638 90.5126L216.371 90.2676L213.512 95.0036L212.532 93.1255L212.205 92.9622C212.205 92.9622 211.47 94.0645 210.939 94.2279C210.939 94.2279 211.552 92.0232 211.062 90.8392C211.062 90.8392 205.303 91.3291 202.771 90.7575L202.812 90.4309C202.812 90.4309 208.039 90.9208 210.572 90.2676C210.572 90.2676 211.307 88.9203 210.449 86.5523C210.449 86.5523 203.342 86.9197 199.993 85.899C199.993 85.899 205.425 86.6748 209.306 86.1848C209.306 86.1848 209.632 84.5517 209.02 82.4287C209.02 82.4287 201.014 82.0204 198.645 80.9589L198.727 80.8364C198.727 80.8364 202.485 81.6938 207.386 81.6122C207.386 81.6122 207.876 83.5719 207.386 81.6122C207.386 81.6122 203.792 79.7749 197.951 78.3868L197.829 78.1827Z" fill="url(#paint29_linear_67_5438)"/>
<path opacity="0.6" d="M210.694 79.081C208.734 78.0195 204.2 77.4479 204.2 77.4479C202.036 78.5094 197.829 78.1828 197.829 78.1828C197.829 78.1828 194.847 77.9787 193.989 77.2846C193.132 76.5905 193.785 74.0592 193.989 73.8142C194.153 73.6101 196.032 72.916 196.685 72.6302L196.93 72.5486L203.179 70.6297L203.506 70.5889C201.831 72.2628 203.179 76.5905 203.179 76.5905C209.346 77.897 210.613 79.0402 210.694 79.081Z" fill="url(#paint30_linear_67_5438)"/>
<path opacity="0.76" d="M212.205 93.044C212.205 93.044 212.818 91.4925 212.94 90.6351C213.063 89.7778 212.818 88.6346 212.818 88.6346L210.572 90.3902C210.572 90.3902 212.777 88.6346 212.859 87.7364C212.981 86.6749 213.185 85.4909 212.409 84.756L210.49 86.6749L208.611 86.3482L209.305 86.2666C209.305 86.2666 210.939 86.0216 212.328 84.3477C212.328 84.3477 212.287 82.3063 211.429 81.1631L209.019 82.5513L204.037 82.143C204.037 82.143 207.713 82.4696 208.938 81.9797C209.714 81.6939 210.408 81.2448 210.694 80.9998C210.939 80.7957 210.694 79.1626 210.694 79.1626C210.694 79.1626 213.512 82.143 213.349 82.143C214.452 84.4293 215.228 88.5529 216.126 89.4511L216.33 90.3902L213.471 95.1262L212.491 93.2481L212.205 93.044Z" fill="url(#paint31_linear_67_5438)"/>
<path opacity="0.76" d="M224.826 96.882C224.826 96.882 227.195 90.3088 229.523 88.2266C229.523 88.2266 227.808 89.778 226.542 96.9228L226.378 96.5145L224.826 96.882Z" fill="url(#paint32_linear_67_5438)"/>
<path fill-rule="evenodd" clip-rule="evenodd" d="M274.9 155.51H237.12C237.12 155.51 235.731 150.448 235.568 149.754C235.405 149.06 237.038 146.569 237.038 142.935C237.038 139.465 231.565 118.398 230.912 116.153L230.871 116.071L230.83 115.989C230.667 115.622 231.116 114.56 231.116 114.56C231.116 114.56 227.522 107.62 227.522 107.211C227.522 106.803 228.747 104.476 228.747 104.476L226.46 98.7193C226.337 96.3513 227.154 93.1259 228.094 90.7987C228.666 89.3698 229.319 88.3083 229.85 87.9816C229.932 87.9408 229.972 87.9 230.054 87.9C231.443 87.4917 234.629 88.2674 234.629 88.2674L238.223 94.1466L238.835 95.1673C238.835 95.1673 244.308 96.8004 244.513 97.1678C244.758 97.5761 248.229 106.721 248.229 106.721H252.028L251.17 109.702C259.012 122.808 271.959 148.733 271.959 148.733L273.348 150.284L274.9 155.51Z" fill="url(#paint33_linear_67_5438)"/>
<path fill-rule="evenodd" clip-rule="evenodd" d="M274.9 155.51H237.12C237.12 155.51 235.731 150.448 235.568 149.754C235.405 149.06 237.038 146.569 237.038 142.935C237.038 139.465 231.565 118.398 230.912 116.153L230.871 116.071L230.83 115.989C230.667 115.622 231.116 114.56 231.116 114.56C231.116 114.56 227.522 107.62 227.522 107.211C227.522 106.803 228.747 104.476 228.747 104.476L226.46 98.7193C226.337 96.3513 227.154 93.1259 228.094 90.7987C228.666 89.3698 229.319 88.3083 229.85 87.9816C229.932 87.9408 229.972 87.9 230.054 87.9C231.443 87.4917 234.629 88.2674 234.629 88.2674L238.223 94.1466L238.835 95.1673C238.835 95.1673 244.308 96.8004 244.513 97.1678C244.758 97.5761 248.229 106.721 248.229 106.721H252.028L251.17 109.702C259.012 122.808 271.959 148.733 271.959 148.733L273.348 150.284L274.9 155.51Z" fill="url(#paint34_radial_67_5438)"/>
<path d="M215.636 72.8753L219.394 72.5078C219.394 72.5078 222.049 71.528 222.13 68.3434C222.13 68.3434 213.267 65.4855 205.017 65.6488L206.528 69.2825L208.325 69.7724L209.101 68.0168L208.856 70.0582L216.29 71.4872C216.29 71.4872 217.638 71.1605 218.7 70.589C218.659 70.5481 216.535 72.5487 215.636 72.8753Z" fill="#FFAC90"/>
<path d="M203.587 70.5889C203.587 70.5889 201.668 72.5486 203.261 76.5905C203.261 76.5905 210.49 78.0195 213.553 79.7751C213.553 79.7751 216.576 78.2644 217.147 74.8758C217.188 74.8349 214.574 72.4669 203.587 70.5889Z" fill="#FFAC90"/>
<path d="M194.275 73.6099C194.275 73.6099 197.012 72.6709 198.033 72.7117C198.646 72.7526 198.809 75.4472 198.36 76.3862C197.91 77.3253 194.275 77.4069 194.275 77.4069C194.275 77.4069 193.622 76.7537 193.744 75.4064C193.908 74.0591 194.275 73.6099 194.275 73.6099Z" fill="#FF9884"/>
<path d="M194.644 73.5283C194.644 73.5283 193.378 74.8348 194.522 77.4478H194.317C194.317 77.4478 193.01 76.1004 194.236 73.61L194.644 73.5283Z" fill="#FFC9BF"/>
<path d="M196.849 72.8755C196.849 72.8755 197.788 72.6305 198.278 72.9979C198.768 73.3654 198.564 75.5293 198.237 76.2642C197.91 76.999 196.604 77.2032 196.604 77.2032C196.604 77.2032 198.115 77.1215 198.605 76.2233C199.095 75.3251 198.687 72.8755 198.319 72.7122C197.911 72.5897 196.849 72.8755 196.849 72.8755Z" fill="#D95879"/>
<path d="M209.02 82.5107C209.02 82.5107 208.243 83.2865 208.407 84.4296C208.529 85.5728 209.305 86.2669 209.305 86.2669C209.305 86.2669 209.755 85.1645 209.02 82.5107Z" fill="#FFAC90"/>
<path d="M210.49 87.083C210.49 87.083 209.959 88.7161 210.735 90.0226C210.694 90.0226 211.144 88.3895 210.49 87.083Z" fill="#FFAC90"/>
<path d="M211.144 91.207C211.144 91.207 209.918 92.7177 210.776 94.3916L210.939 94.3099C210.939 94.3099 211.879 93.1259 211.144 91.207Z" fill="#FFAC90"/>
<path opacity="0.5" d="M273.388 150.243L266.854 155.592C266.854 155.592 270.284 152.04 272 148.692L273.388 150.243Z" fill="#8B8695"/>
<path opacity="0.5" d="M231.116 114.56C231.116 114.56 227.521 107.62 227.521 107.211L229.523 109.212C229.523 109.212 230.871 104.884 232.954 101.373C234.996 97.9434 237.732 96.7186 237.896 96.6777C234.669 98.8824 232.504 106.354 232.504 106.354L232.423 109.334L231.116 114.56Z" fill="#8B8695"/>
<path opacity="0.5" d="M253.171 135.056C253.008 135.178 250.312 137.015 248.433 138.526C246.473 140.077 241.245 148.039 241.081 149.1C240.918 150.08 242.184 154.898 242.307 155.551H237.12C237.12 155.551 235.731 150.488 235.568 149.794C235.404 149.1 237.038 146.61 237.038 142.976C237.038 139.465 231.361 117.786 230.871 116.071L238.508 139.261C238.508 139.261 240.06 138.608 241.49 135.954C242.879 133.422 244.553 129.789 244.676 129.503C244.594 129.87 243.042 135.627 242.593 136.77C242.143 137.914 235.649 149.59 235.568 149.753C235.649 149.672 236.589 153.55 237.12 153.142C239.774 150.203 245.166 139.383 247.902 138.118C250.108 137.179 253.008 135.096 253.171 135.056Z" fill="#8B8695"/>
<path opacity="0.5" d="M238.263 94.0646C238.1 94.1462 235.486 95.5752 234.669 96.3509C233.811 97.1675 228.788 104.435 228.788 104.435L226.501 98.6781C226.378 96.3101 227.195 93.0847 228.134 90.7575L228.298 90.5942L232.055 98.5148C232.055 98.5148 233.771 96.4734 234.71 95.6977C235.69 94.9628 238.1 94.1054 238.263 94.0646Z" fill="url(#paint35_linear_67_5438)"/>
<path opacity="0.5" d="M248.27 106.681C248.27 106.681 243.941 107.742 241.572 109.008C239.203 110.233 237.12 112.396 236.916 112.356C236.712 112.315 238.631 107.171 240.714 104.884C242.797 102.598 246.024 100.842 246.024 100.842L248.27 106.681Z" fill="#8B8695"/>
<path opacity="0.5" d="M251.211 109.661C251.211 109.661 249.373 109.457 248.27 109.661C247.167 109.865 242.348 114.887 240.959 117.459C239.571 120.031 238.264 127.87 238.264 127.87C238.264 127.87 240.51 119.868 242.307 117.418C244.104 114.969 249.21 111.417 249.904 111.172C250.598 110.927 252.191 111.212 252.191 111.212L251.211 109.661Z" fill="#8B8695"/>
<path opacity="0.5" d="M251.211 109.661C251.211 109.661 248.964 109.293 248.27 109.661C247.576 110.028 242.144 115.009 241.245 116.969C240.347 118.929 239.04 125.339 239.04 125.339C239.04 125.339 240.551 119.5 242.634 117.01C244.717 114.519 248.924 111.294 249.904 111.212C250.884 111.131 252.191 111.253 252.191 111.253L251.211 109.661Z" fill="#8B8695"/>
<path opacity="0.8" d="M252.109 106.68H248.311L242.389 109.579L239.08 121.623L238.794 125.338C238.794 125.338 240.51 118.847 241.327 116.969C242.103 115.091 247.086 109.824 248.352 109.661C249.618 109.497 251.292 109.661 251.292 109.661L252.109 106.68Z" fill="#B5ABCA"/>
<path opacity="0.8" d="M244.554 97.0859L240.061 101.822L238.264 108.885C238.264 108.885 239.326 104.639 246.065 100.842L244.554 97.0859Z" fill="#B5ABCA"/>
<path opacity="0.5" d="M246.882 103.006C246.882 103.006 243.369 103.782 241.531 105.007C239.693 106.231 237.324 111.09 237.324 111.09C237.324 111.09 239.08 106.476 241.163 104.435C243.287 102.394 246.065 100.801 246.065 100.801L246.882 103.006Z" fill="#8B8695"/>
<path opacity="0.5" d="M231.116 114.56L229.523 111.09V109.211C229.523 109.211 231.565 103.455 234.547 101.168L232.341 107.007L232.464 109.252L231.116 114.56Z" fill="url(#paint36_linear_67_5438)"/>
<path opacity="0.5" d="M235.69 135.341L237.651 140.731L238.549 139.302C238.549 139.302 241.899 137.056 243.655 133.545C243.655 133.545 242.879 136.444 242.184 137.791C241.449 139.179 236.058 148.243 236.058 148.243C236.058 148.243 237.079 144.977 237.12 142.976C237.079 140.976 235.69 135.341 235.69 135.341Z" fill="url(#paint37_linear_67_5438)"/>
<path opacity="0.8" d="M242.593 138.811L244.104 140.853L246.881 138.811L254.315 134.075L252.109 125.338L248.474 123.542L242.593 138.811Z" fill="#B5ABCA"/>
<path opacity="0.8" d="M109.934 123.011C109.893 123.011 109.853 123.011 109.771 123.011C109.689 123.011 109.567 123.011 109.403 123.011H109.444C109.403 123.011 109.362 123.011 109.281 123.011C109.24 123.011 109.199 123.011 109.158 123.011C107.279 122.97 102.623 122.848 100.826 123.175C100.459 123.256 100.009 123.379 99.4783 123.542C96.9052 124.44 92.9434 126.441 91.8407 126.563C91.1055 126.645 87.5113 126.767 84.2847 126.931L94.1279 112.886C94.5772 112.927 94.8631 112.968 94.8631 112.968C94.8631 112.968 96.6193 111.947 96.8644 111.906C97.1094 111.865 99.7234 111.988 101.071 111.865C101.439 111.824 101.888 111.784 102.297 111.743C102.95 111.661 103.685 111.58 104.134 111.498L104.543 111.457C105.237 111.58 105.36 111.947 105.36 111.947C105.564 112.274 105.564 112.559 105.564 112.559C104.543 113.58 101.03 114.56 100.377 114.519C99.7234 114.478 98.539 114.233 98.539 114.233C98.4573 114.315 98.3347 114.437 98.253 114.519C98.1305 114.642 98.008 114.764 97.8855 114.927C97.6812 115.213 97.4362 115.458 97.232 115.744L97.1911 115.785C97.1094 115.907 97.0278 116.03 96.9052 116.152C96.9052 116.152 96.9052 116.193 96.8644 116.193C96.7827 116.316 96.701 116.479 96.6193 116.601C96.6193 116.642 96.5785 116.683 96.5376 116.683C96.4968 116.805 96.4151 116.887 96.3334 117.01C96.2926 117.05 96.2926 117.091 96.2517 117.132C96.17 117.255 96.0884 117.377 96.0475 117.5C96.0067 117.54 96.0067 117.581 95.9658 117.622C95.925 117.704 95.8841 117.785 95.8025 117.867C95.7616 117.908 95.7616 117.989 95.7208 118.03C95.6799 118.112 95.6391 118.194 95.5982 118.275C95.5574 118.316 95.5574 118.398 95.5165 118.439C95.4757 118.561 95.394 118.643 95.3532 118.765C95.3123 118.806 95.3123 118.847 95.3123 118.888C95.2715 119.01 95.1898 119.092 95.149 119.214V119.255C94.8222 119.949 94.5772 120.521 94.4138 120.97C94.2096 121.46 94.087 121.786 94.087 121.786C94.087 121.786 94.6997 121.827 95.4349 121.786C96.3743 121.705 97.3137 121.541 97.3137 121.541C98.4164 121.215 99.56 120.235 100.581 120.112C103.767 119.745 107.647 120.317 109.526 120.807C110.138 120.97 110.547 121.133 110.588 121.215C110.914 121.705 110.343 122.97 109.934 123.011Z" fill="#9C84B8"/>
<path d="M115.57 100.066C115.162 100.148 108.096 99.5353 105.727 100.434C105.319 100.597 104.829 100.883 104.298 101.291C101.52 103.332 97.1909 107.987 96.0473 108.272C94.6586 108.599 83.6718 109.252 82.0789 110.191C81.8338 110.314 81.5888 110.6 81.3029 110.967C79.7508 113.008 77.9129 117.949 77.9129 117.949C76.9735 116.234 68.0288 110.885 68.0288 110.885C68.0288 110.885 68.5189 110.355 69.2133 109.497C70.7245 107.66 73.2159 104.435 73.9102 102.434C74.0736 101.985 74.237 101.291 74.4004 100.393C75.2989 95.4525 76.2791 84.7966 76.6876 82.1019C76.6876 82.0203 76.7284 81.9795 76.7284 81.8978C76.7284 81.8162 76.7693 81.7753 76.7693 81.6937C76.7693 81.6528 76.7693 81.6528 76.7693 81.6528C77.1777 79.6523 84.5703 78.8766 85.5506 78.4275C86.5308 78.0192 87.4293 77.8151 88.0012 77.6109C88.4504 77.4068 92.208 77.2435 93.3516 77.1618L94.2502 76.4269C95.9656 75.8145 99.3147 76.7944 99.3147 76.7944C99.3147 76.7944 101.194 74.3855 101.479 74.3039C101.765 74.1814 104.584 74.4672 106.054 74.2222C107.524 73.9773 109.811 73.2832 109.811 73.2832C110.955 73.814 110.955 75.8962 110.955 75.8962C109.811 78.2233 106.054 80.5097 105.36 80.428C104.665 80.3464 103.358 79.7339 103.358 79.7339C103.236 79.9789 103.154 80.1831 103.031 80.428C100.948 85.2865 99.519 92.3088 98.9063 95.6975C98.7021 96.8815 98.5796 97.6164 98.5796 97.6164C98.5796 97.6164 100.908 97.7797 102.092 97.004C103.277 96.2283 104.543 93.9419 105.605 93.697C109.076 92.8396 113.283 94.1461 115.284 95.2484C115.938 95.6159 116.387 95.9833 116.428 96.1874C116.632 97.0448 116.02 99.9844 115.57 100.066Z" fill="url(#paint38_linear_67_5438)"/>
<path d="M110.873 75.8555C109.73 78.1826 105.972 80.469 105.278 80.3873C104.583 80.3057 103.276 79.6933 103.276 79.6933C103.276 79.6933 103.889 78.8359 104.216 77.6519C104.216 77.6519 104.502 78.5093 104.379 79.0809L106.993 78.9175C106.952 78.9175 109.321 77.9785 110.873 75.8555Z" fill="url(#paint39_linear_67_5438)"/>
<path d="M98.4977 97.5758L97.7217 99.7396L102.01 96.9634C102.01 96.9634 99.6005 97.8616 98.4977 97.5758Z" fill="url(#paint40_linear_67_5438)"/>
<path opacity="0.6" d="M76.7286 81.6528C76.7286 81.6937 76.7286 81.7345 76.6875 81.857C76.7286 81.7753 76.7286 81.6937 76.7286 81.6528Z" fill="url(#paint41_linear_67_5438)"/>
<path opacity="0.6" d="M115.203 95.2076C114.876 95.1259 108.586 93.9419 106.707 95.575C104.829 97.2081 104.339 101.128 104.298 101.291C101.52 103.332 97.191 107.987 96.0474 108.272C94.6587 108.599 83.6719 109.252 82.079 110.191C81.8339 110.314 81.5889 110.6 81.303 110.967L69.2134 109.497C70.7246 107.66 73.216 104.435 73.9103 102.434C74.0737 101.985 74.2371 101.291 74.4005 100.393C77.9538 101.454 88.859 102.107 91.4729 101.168C94.577 100.025 99.6416 84.4699 99.6416 84.4699C99.6416 84.4699 103.93 78.8766 104.665 76.7535C104.665 76.7535 104.012 74.4672 101.48 74.3039C101.765 74.1814 104.584 74.4672 106.054 74.2222C107.524 73.9773 109.812 73.2832 109.812 73.2832C110.955 73.814 110.955 75.8962 110.955 75.8962C109.812 78.2233 106.054 80.5097 105.36 80.428C104.665 80.3464 103.358 79.7339 103.358 79.7339C100.377 86.2255 98.5796 97.6164 98.5796 97.6164C98.5796 97.6164 100.908 97.7797 102.092 97.004L97.3543 100.107C97.5177 100.066 96.0882 102.352 98.2121 101.373C100.458 100.393 102.092 96.9632 102.092 96.9632C103.277 96.1874 104.543 93.9011 105.605 93.6561C108.995 92.7579 113.202 94.0644 115.203 95.2076Z" fill="url(#paint42_linear_67_5438)"/>
<path opacity="0.6" d="M81.752 83.4085L81.997 81.7754C81.997 81.7754 81.9562 80.4689 81.997 80.1831C82.0379 79.8973 83.6308 79.7748 83.6308 79.7748L85.5095 78.3867L83.3857 79.5299C83.3857 79.5299 81.4661 79.979 81.2619 80.2239C81.0168 80.4689 81.7111 81.7346 81.7111 81.7346L81.752 83.4085Z" fill="url(#paint43_linear_67_5438)"/>
<path opacity="0.6" d="M87.0619 84.3477L87.7562 82.5105C87.7562 82.5105 87.6745 81.4898 87.7562 81.0815C87.8379 80.7141 89.8392 80.0609 89.8392 80.0609C89.8392 80.0609 91.9631 78.0603 93.3109 77.1621C93.3109 77.1621 90.6969 78.3869 88.5731 80.1833C88.5731 80.1833 86.9393 80.8366 86.8577 81.1224C86.776 81.4082 87.4295 82.5513 87.4295 82.5513L87.0619 84.3477Z" fill="url(#paint44_linear_67_5438)"/>
<path opacity="0.6" d="M99.2736 76.7537C99.2736 76.7537 96.8639 80.1424 96.1696 80.7548C95.5161 81.3672 94.1683 81.5714 93.6781 82.2246C93.188 82.8778 93.4331 83.9394 93.4331 83.9394L92.6162 86.0216C92.6162 86.0216 93.0655 84.266 93.0655 83.9394C93.0655 83.6127 92.8613 82.6737 92.9838 82.1021C93.1063 81.5305 94.8217 81.2856 95.7203 80.4282C96.578 79.5708 98.8244 76.7129 98.8244 76.7129L99.2736 76.7537Z" fill="url(#paint45_linear_67_5438)"/>
<path d="M89.7983 80.0197C89.7983 80.0197 91.4321 80.7546 93.3517 80.7546C95.2713 80.7546 98.8247 76.6718 98.8247 76.6718C98.8247 76.6718 96.0882 75.8145 94.1686 76.3452L89.7983 80.0197Z" fill="#FFAC90"/>
<path d="M83.6309 79.7747C83.6309 79.7747 84.2844 80.5912 86.4082 80.3463C88.5321 80.1013 93.2699 77.1209 93.2699 77.1209C93.2699 77.1209 89.9616 76.9984 87.9194 77.57C87.9602 77.57 84.6928 78.7948 83.6309 79.7747Z" fill="#FFAC90"/>
<path d="M77.9126 80.3463C77.9126 80.3463 79.9956 79.8156 82.1195 79.8564L83.3856 79.5298L85.2236 78.4683C85.2236 78.4683 80.7716 78.9582 77.9126 80.3463Z" fill="#FFAC90"/>
<path opacity="0.5" d="M96.1699 80.7548C96.1699 80.7548 97.722 81.6938 99.9275 81.3263C102.133 80.9589 104.665 76.7128 104.665 76.7128C104.665 76.7128 104.379 74.7939 101.48 74.2632L96.1699 80.7548Z" fill="#FFAC90"/>
<path d="M115.979 96.4327C115.979 96.4327 112.589 96.1469 111.568 96.4327C110.547 96.7185 110.628 99.1273 111.037 99.5356C111.486 99.9438 115.407 100.066 115.407 100.066C115.407 100.066 116.551 98.4332 115.979 96.4327Z" fill="#FFAC90"/>
<path d="M115.652 96.3916C115.652 96.3916 116.183 97.9839 115.162 100.066H115.571C115.571 100.066 116.551 98.2697 115.938 96.4324L115.652 96.3916Z" fill="#FFD4CC"/>
<path d="M115.325 96.3915C115.325 96.3915 112.303 96.2281 111.364 96.6773C110.179 97.2488 110.914 99.1269 111.323 99.5352C111.731 99.9435 115.08 100.066 115.08 100.066C115.08 100.066 111.364 99.9026 110.914 99.6168C110.465 99.3311 110.302 97.0039 111.078 96.5548C111.976 96.024 115.325 96.3915 115.325 96.3915Z" fill="#F57F7F"/>
<path d="M107.279 73.8957C107.279 73.8957 106.544 74.2224 106.707 74.3448C107.238 74.8348 108.872 75.2022 110.628 74.3857C110.628 74.3857 110.342 73.5283 109.73 73.2017C109.73 73.2425 108.341 73.6099 107.279 73.8957Z" fill="#FF9884"/>
<path d="M109.321 73.3652C109.321 73.3652 110.016 73.4876 110.424 74.5083L110.628 74.4267C110.628 74.4267 110.465 73.4876 109.73 73.2427L109.321 73.3652Z" fill="#FFD4CC"/>
<path d="M107.279 73.8955C107.279 73.8955 106.789 74.1405 106.83 74.3446C106.912 74.5079 107.238 75.0387 109.526 74.7937C109.526 74.7937 108.79 74.9978 107.769 74.8754C106.748 74.7529 106.585 74.3446 106.626 74.2629C106.667 74.1813 107.279 73.8955 107.279 73.8955Z" fill="#D95879"/>
<path opacity="0.6" d="M102.95 80.3872C100.867 85.2457 99.4374 92.268 98.8248 95.6567L97.722 99.7394L94.332 102.271C94.332 102.271 98.3755 86.0622 99.6008 84.4291C100.826 82.7552 102.95 80.3872 102.95 80.3872Z" fill="url(#paint46_linear_67_5438)"/>
<path d="M98.8656 76.6719L96.1699 80.7546L99.274 76.7535L98.8656 76.6719Z" fill="url(#paint47_linear_67_5438)"/>
<path d="M93.3108 77.1211L88.7363 79.979L89.7983 80.0199L93.3108 77.1211Z" fill="url(#paint48_linear_67_5438)"/>
<path opacity="0.76" d="M84.2842 109.579C84.2842 109.579 80.1182 104.884 74.1143 104.435C74.1143 104.435 80.8534 106.231 82.3646 110.028L84.2842 109.579Z" fill="url(#paint49_linear_67_5438)"/>
<path fill-rule="evenodd" clip-rule="evenodd" d="M77.4636 118.928C77.4636 118.928 77.9946 121.337 77.9537 121.909C77.9537 122.072 77.7495 122.48 77.4228 123.052C76.5651 124.644 75.013 127.298 75.013 127.911C75.013 128.727 75.2581 131.993 75.3398 132.524C75.3806 132.891 73.2568 133.749 71.7047 134.525C70.9287 134.892 70.316 135.259 70.1118 135.464C69.54 136.199 62.6375 155.551 62.6375 155.551H28.0024C28.0024 155.551 37.233 139.138 49.6494 126.89C50.1803 126.359 50.7113 125.869 51.2014 125.379C51.2014 125.379 51.0789 123.134 51.2014 122.889C51.3239 122.644 54.6322 121.827 54.6322 121.827L55.2449 121.133C55.3674 121.011 55.4899 120.847 55.6533 120.684L55.9392 120.357C57.6955 118.439 60.677 115.05 61.4122 113.866C62.515 112.11 63.7811 109.375 63.9445 109.212C64.1487 109.048 68.4373 109.212 68.4373 109.212C68.4373 109.212 71.0512 106.231 72.3174 104.149C72.3174 104.149 78.403 104.557 81.262 108.15C81.8338 108.885 82.324 109.742 82.569 110.763C82.569 110.804 79.5466 113.907 77.4636 118.928Z" fill="url(#paint50_radial_67_5438)"/>
<path opacity="0.2" fill-rule="evenodd" clip-rule="evenodd" d="M81.3438 80.918C81.3438 80.918 78.6482 98.7596 79.1791 98.7188C79.7509 98.6779 81.9565 81.3671 81.9565 81.3671L81.3438 80.918Z" fill="url(#paint51_linear_67_5438)"/>
<path opacity="0.2" fill-rule="evenodd" clip-rule="evenodd" d="M87.2659 82.2246C87.2659 82.2246 83.059 98.3923 83.3858 98.6781C83.7125 98.9639 87.756 82.4696 87.756 82.4696L87.2659 82.2246Z" fill="url(#paint52_linear_67_5438)"/>
<path opacity="0.2" fill-rule="evenodd" clip-rule="evenodd" d="M93.0657 83.4087C93.0657 83.4087 86.0816 98.8415 86.3266 99.2906C86.6125 99.7397 93.4333 83.9395 93.4333 83.9395L93.0657 83.4087Z" fill="url(#paint53_linear_67_5438)"/>
<path opacity="0.5" d="M71.7045 134.484C70.9285 134.851 70.3159 135.219 70.1117 135.423C69.5398 136.158 62.6373 155.51 62.6373 155.51C62.6373 155.51 62.0247 151.305 61.0036 150.448C59.9825 149.59 55.8982 146.038 53.0392 145.507C53.0392 145.507 55.5714 145.956 57.1643 146.201C58.7981 146.446 65.0471 148.733 65.0471 148.733L69.1314 134.933V133.994C69.1314 133.994 67.1709 132.198 66.3949 131.871C65.6189 131.544 57.8995 132.443 52.4265 133.463C47.1169 134.443 42.0115 138.403 41.7256 138.648C42.0115 138.363 46.1775 134.198 49.3224 132.565C52.6307 130.85 66.3949 129.095 67.947 129.789C69.5807 130.564 71.7045 134.484 71.7045 134.484Z" fill="#8B8695"/>
<path opacity="0.5" d="M49.6084 126.849C49.6084 126.849 52.8759 126.563 56.9602 126.849C61.0445 127.135 65.4556 127.38 65.6598 127.257C65.864 127.094 63.8627 124.971 59.7784 124.318C55.694 123.665 51.1604 125.338 51.1604 125.338L49.6084 126.849Z" fill="#8B8695"/>
<path opacity="0.5" d="M54.6323 121.827C54.6323 121.827 57.9406 121.093 60.7997 121.827C60.7997 121.827 58.7575 120.398 55.9393 120.398L54.6323 121.827Z" fill="#8B8695"/>
<path opacity="0.5" d="M75.0536 127.91C75.0536 128.727 75.2987 131.993 75.3804 132.524C75.3804 132.524 74.0326 126.604 72.1946 122.154C70.3975 117.704 69.2948 116.601 69.1722 115.948C69.0497 115.336 75.1762 118.888 77.4634 123.052C76.6057 124.644 75.0536 127.298 75.0536 127.91Z" fill="#8B8695"/>
<path opacity="0.5" d="M82.5693 110.804C82.5693 110.804 79.5469 113.907 77.4639 118.928C77.4639 118.928 73.8697 112.314 73.2978 111.824C72.726 111.375 68.4375 109.252 68.4375 109.252L69.1727 108.926C69.1727 108.926 74.3598 111.457 76.5245 114.437L81.2623 108.15C81.8749 108.885 82.3242 109.783 82.5693 110.804Z" fill="#8B8695"/>
<path opacity="0.5" d="M75.0537 127.91C75.0537 127.91 72.1538 120.562 70.0708 117.704C70.0708 117.704 74.0734 124.767 75.3396 132.524L75.0537 127.91Z" fill="#8B8695"/>
<path opacity="0.5" d="M70.1116 135.463L69.1722 134.035C69.1722 134.035 67.7019 132.32 66.4357 131.912C65.2104 131.503 51.3237 131.912 51.3237 131.912C51.3237 131.912 65.6597 129.176 67.9469 129.87C70.275 130.564 71.6636 134.524 71.6636 134.524L70.1116 135.463Z" fill="#8B8695"/>
<path opacity="0.5" d="M77.4637 118.928C77.4637 118.928 73.9512 112.233 73.2977 111.824C72.6442 111.416 70.6021 110.354 70.6021 110.354C70.6021 110.354 72.1949 110.844 74.4005 112.314C76.606 113.784 78.1581 117.214 78.1581 117.214L77.4637 118.928Z" fill="#8B8695"/>
<path opacity="0.8" d="M51.2017 122.848C51.2017 122.848 51.6918 122.317 54.6325 122.276C57.5732 122.235 62.066 123.215 62.066 123.215L63.2096 125.093C63.2096 125.093 58.0633 122.889 51.2017 125.338V122.848Z" fill="#B5ABCA"/>
<path opacity="0.8" d="M63.9852 109.252C63.9852 109.252 67.0893 110.355 70.6427 112.478C74.196 114.601 75.5439 118.929 75.5439 118.929L74.9312 119.827C74.9312 119.827 67.2935 111.865 62.1064 112.723L63.9852 109.252Z" fill="#B5ABCA"/>
<path opacity="0.8" d="M42.9102 135.994C42.9102 135.994 47.5254 132.81 49.6084 132.116C51.814 131.381 59.6967 129.829 59.6967 129.829C59.6967 129.829 58.9615 128.237 57.9405 127.829C56.9194 127.461 49.6084 127.829 49.6084 127.829C49.6084 127.829 44.5439 133.381 42.9102 135.994Z" fill="#B5ABCA"/>
<path opacity="0.8" d="M53.0396 145.548C53.0396 145.548 56.8788 149.508 57.6957 151.345C58.5125 153.183 58.4309 155.551 58.4309 155.551H62.5969C62.5969 155.551 62.1884 152.121 60.9631 150.488C59.8195 148.855 54.9592 145.834 53.0396 145.548Z" fill="#B5ABCA"/>
<path opacity="0.8" fill-rule="evenodd" clip-rule="evenodd" d="M192.601 114.724L198.319 125.42L231.933 124.645L220.211 116.52L192.601 114.724Z" fill="#9C84B8"/>
<path fill-rule="evenodd" clip-rule="evenodd" d="M192.601 114.723L192.927 109.498L222.416 114.968L230.136 117.867L228.42 123.583L198.319 124.155L192.601 114.723Z" fill="url(#paint54_linear_67_5438)"/>
<path fill-rule="evenodd" clip-rule="evenodd" d="M192.927 109.498L198.604 117.99L230.135 117.868L218.985 108.926L192.927 109.498Z" fill="url(#paint55_radial_67_5438)"/>
<path fill-rule="evenodd" clip-rule="evenodd" d="M198.318 124.155L198.604 117.99L230.135 117.867L228.42 123.583L198.318 124.155Z" fill="url(#paint56_radial_67_5438)"/>
<path fill-rule="evenodd" clip-rule="evenodd" d="M195.296 110.396L200.565 108.477L223.437 114.152L222.212 116.847L200.361 117.092L195.296 110.396Z" fill="#70134A"/>
<path fill-rule="evenodd" clip-rule="evenodd" d="M194.153 107.946L193.989 101.904H217.188L225.561 108.926L224.826 115.377L200.688 115.581L194.153 107.946Z" fill="url(#paint57_linear_67_5438)"/>
<path fill-rule="evenodd" clip-rule="evenodd" d="M193.989 101.904L200.973 109.049L225.561 108.926L217.188 101.904H193.989Z" fill="url(#paint58_radial_67_5438)"/>
<path fill-rule="evenodd" clip-rule="evenodd" d="M200.688 115.581L200.973 109.049L225.561 108.926L224.826 115.377L200.688 115.581Z" fill="url(#paint59_radial_67_5438)"/>
<path fill-rule="evenodd" clip-rule="evenodd" d="M193.989 101.904C193.989 101.904 199.544 107.946 202.24 108.477C204.935 109.049 224.132 108.64 224.458 108.477C224.785 108.314 217.188 101.904 217.188 101.904L225.602 108.926L200.973 109.049L193.989 101.904Z" fill="#FF8934"/>
<path fill-rule="evenodd" clip-rule="evenodd" d="M217.351 121.95C217.351 122.93 216.575 123.706 215.595 123.706C214.615 123.706 213.839 122.93 213.839 121.95C213.839 120.97 214.615 120.194 215.595 120.194C216.535 120.194 217.351 120.97 217.351 121.95Z" fill="#1A0040"/>
<path fill-rule="evenodd" clip-rule="evenodd" d="M214.451 122.399C214.451 122.399 214.288 120.685 215.595 120.562C216.902 120.44 217.351 121.624 217.351 121.624L218.699 124.686C218.699 124.686 217.923 125.461 216.943 125.339L214.451 122.399Z" fill="url(#paint60_linear_67_5438)"/>
<path fill-rule="evenodd" clip-rule="evenodd" d="M216.943 125.339C216.943 125.339 216.861 123.828 217.719 123.828C218.577 123.828 218.699 124.686 218.699 124.686C218.699 124.686 218.25 125.829 216.943 125.339Z" fill="#1A0040"/>
<g opacity="0.8">
<path opacity="0.8" d="M157.761 155.714L156.985 155.469C157.108 155.02 160.171 144.609 165.644 143.507C186.27 139.424 189.333 137.219 190.804 136.199C192.151 135.219 192.519 135.137 200.238 135.382C226.786 136.24 230.176 133.014 230.585 132.034C230.748 131.626 230.585 131.136 230.054 130.646C228.624 129.34 226.582 129.421 224.418 129.462C222.498 129.503 220.537 129.585 218.904 128.646C217.964 128.115 216.78 125.339 216.576 124.767L217.311 124.44C217.842 125.706 218.781 127.625 219.312 127.911C220.742 128.727 222.58 128.646 224.377 128.605C226.623 128.523 228.91 128.482 230.585 129.993C231.361 130.728 231.647 131.544 231.32 132.32C230.054 135.423 218.985 136.811 200.157 136.199C192.478 135.954 192.356 136.035 191.212 136.852C189.701 137.954 186.556 140.2 165.726 144.323C160.825 145.303 157.761 155.592 157.761 155.714Z" fill="#9C84B8"/>
</g>
<path d="M157.353 156H157.312C157.108 155.959 156.944 155.755 156.944 155.551C156.985 155.143 158.333 145.63 163.438 143.466C164.582 142.976 166.706 142.568 169.442 142.078C177.08 140.649 188.884 138.444 193.703 131.422C186.147 128.564 185.208 125.992 185.494 124.481C185.943 122.154 189.741 120.807 192.723 121.215C195.378 121.583 196.848 123.175 196.644 125.543C196.481 127.625 195.868 129.421 194.969 131.014C196.93 131.708 199.34 132.443 202.321 133.137C220.741 137.669 229.768 134.933 231.361 131.953C231.728 131.299 231.647 130.687 231.116 130.197C229.686 128.891 227.644 128.972 225.479 129.013C223.56 129.054 221.599 129.136 219.965 128.197C219.026 127.666 217.637 125.094 217.474 124.808C217.352 124.604 217.433 124.359 217.637 124.236C217.842 124.114 218.087 124.195 218.209 124.4C218.74 125.42 219.843 127.135 220.374 127.462C221.803 128.278 223.641 128.197 225.438 128.156C227.685 128.074 229.972 128.033 231.647 129.544C232.423 130.279 232.586 131.299 232.055 132.279C230.585 135.015 222.457 138.853 202.117 133.872C199.095 133.137 196.603 132.402 194.52 131.667C189.619 139.057 177.488 141.343 169.606 142.813C166.951 143.303 164.868 143.711 163.765 144.16C159.068 146.161 157.761 155.51 157.761 155.592C157.72 155.837 157.557 156 157.353 156ZM191.498 121.909C188.965 121.909 186.515 123.093 186.229 124.604C186.066 125.42 186.392 127.829 194.112 130.687C195.01 129.176 195.623 127.421 195.786 125.42C195.99 122.848 193.867 122.154 192.56 121.991C192.192 121.95 191.865 121.909 191.498 121.909Z" fill="url(#paint61_linear_67_5438)"/>
<path fill-rule="evenodd" clip-rule="evenodd" d="M199.871 107.293L200.973 109.089H205.67C205.67 109.049 201.259 108.354 199.871 107.293Z" fill="#FFB25B"/>
<path opacity="0.8" d="M152.697 108.518C166.885 108.518 178.387 106.58 178.387 104.19C178.387 101.8 166.885 99.8623 152.697 99.8623C138.508 99.8623 127.006 101.8 127.006 104.19C127.006 106.58 138.508 108.518 152.697 108.518Z" fill="#9C84B8"/>
<path fill-rule="evenodd" clip-rule="evenodd" d="M132.234 100.842L132.888 103.128C132.888 103.128 140.403 106.598 154.412 106.598C168.421 106.598 174.303 102.597 174.303 102.597L174.752 99.7803C174.752 99.7803 155.76 105.292 132.234 100.842Z" fill="url(#paint62_linear_67_5438)"/>
<path fill-rule="evenodd" clip-rule="evenodd" d="M132.234 100.842C132.234 100.842 140.117 104.312 153.473 104.312C166.829 104.312 174.793 99.7802 174.793 99.7802C163.52 96.269 142.486 96.6773 132.234 100.842Z" fill="url(#paint63_radial_67_5438)"/>
<path opacity="0.3" fill-rule="evenodd" clip-rule="evenodd" d="M140.73 100.352L140.771 103.21L143.181 103.577V100.719L140.73 100.352Z" fill="#9A6FBB"/>
<path opacity="0.6" fill-rule="evenodd" clip-rule="evenodd" d="M144.038 98.1471L144.487 103.781C144.487 103.781 154.045 105.088 160.906 103.863L161.396 97.6163C161.356 97.6163 152.819 96.8406 144.038 98.1471Z" fill="#9A6FBB"/>
<path opacity="0.3" fill-rule="evenodd" clip-rule="evenodd" d="M161.355 100.719V103.781L163.316 103.577L163.193 100.923L161.355 100.719Z" fill="#9A6FBB"/>
<path fill-rule="evenodd" clip-rule="evenodd" d="M152.329 24.5352C152.329 24.5352 152.207 26.699 152.819 27.1481C153.432 27.5972 155.597 27.5156 155.597 27.5156C155.597 27.5156 153.963 25.3925 152.329 24.5352Z" fill="#F7F2FF"/>
<path fill-rule="evenodd" clip-rule="evenodd" d="M147.755 69.9355L149.144 72.0993C149.144 72.0993 152.329 73.5283 155.311 72.7934L157.23 69.813L147.755 69.9355Z" fill="url(#paint64_radial_67_5438)"/>
<path fill-rule="evenodd" clip-rule="evenodd" d="M165.562 34.2114H152.329H139.096C136.89 62.015 146.652 69.6497 146.652 69.6497C149.593 70.5887 152.329 70.3846 152.329 70.3846C152.329 70.3846 155.066 70.5887 158.006 69.6497C158.006 69.6497 167.768 62.015 165.562 34.2114Z" fill="url(#paint65_radial_67_5438)"/>
<path fill-rule="evenodd" clip-rule="evenodd" d="M139.096 34.2115C139.096 34.2115 151.267 31.6394 165.563 34.2115C165.563 34.2115 155.883 36.8653 139.096 34.2115Z" fill="url(#paint66_linear_67_5438)"/>
<path fill-rule="evenodd" clip-rule="evenodd" d="M141.383 31.8433V33.8438C141.383 33.8438 144.324 34.8237 152.329 34.8237C160.335 34.8237 163.112 33.8438 163.112 33.8438V31.8841H141.383V31.8433Z" fill="url(#paint67_radial_67_5438)"/>
<path opacity="0.8" fill-rule="evenodd" clip-rule="evenodd" d="M141.383 32.4148C141.383 32.4148 144.814 33.7213 152.983 34.2113C161.192 34.7012 163.112 33.313 163.112 33.313V31.8433H141.342V32.4148H141.383Z" fill="#9A63B3"/>
<path fill-rule="evenodd" clip-rule="evenodd" d="M165.073 31.3128C159.64 33.3542 152.33 33.0684 152.33 33.0684C152.33 33.0684 144.447 33.0684 139.586 31.3128C139.586 31.3128 140.036 22.5757 140.812 19.6362C141.588 16.6966 152.33 10.0825 152.33 10.0825C152.33 10.0825 163.071 16.6966 163.847 19.6362C164.664 22.5349 165.073 31.3128 165.073 31.3128Z" fill="url(#paint68_radial_67_5438)"/>
<path fill-rule="evenodd" clip-rule="evenodd" d="M163.847 19.5951C152.084 22.3306 140.771 19.5951 140.771 19.5951C141.547 16.6556 152.288 10.0415 152.288 10.0415C152.288 10.0415 163.071 16.6556 163.847 19.5951Z" fill="url(#paint69_radial_67_5438)"/>
<path fill-rule="evenodd" clip-rule="evenodd" d="M142.445 63.2397L143.18 64.7912C143.18 64.7912 140.77 75.6513 143.18 86.2256L142.853 86.3889C142.853 86.4298 138.402 79.5707 142.445 63.2397Z" fill="#AE193B"/>
<path fill-rule="evenodd" clip-rule="evenodd" d="M139.382 51.6855C139.382 51.6855 136.891 55.5642 130.846 58.1363C130.846 58.1363 129.253 76.182 141.383 86.4706H142.854C142.854 86.4706 139.382 75.488 142.445 63.3214C142.445 63.2397 140.281 58.1771 139.382 51.6855Z" fill="url(#paint70_linear_67_5438)"/>
<path fill-rule="evenodd" clip-rule="evenodd" d="M162.091 63.2397L161.355 64.7912C161.355 64.7912 163.765 75.6513 161.355 86.2256L161.682 86.3889C161.723 86.4298 166.175 79.5707 162.091 63.2397Z" fill="#AE193B"/>
<path fill-rule="evenodd" clip-rule="evenodd" d="M165.154 51.6855C165.154 51.6855 167.645 55.5642 173.69 58.1363C173.69 58.1363 175.283 76.182 163.152 86.4706H161.682C161.682 86.4706 165.154 75.488 162.091 63.3214C162.091 63.2397 164.255 58.1771 165.154 51.6855Z" fill="url(#paint71_linear_67_5438)"/>
<path fill-rule="evenodd" clip-rule="evenodd" d="M152.493 53.3188H154.412L155.27 61.4027H151.676L152.493 53.3188Z" fill="url(#paint72_linear_67_5438)"/>
<path fill-rule="evenodd" clip-rule="evenodd" d="M151.676 61.4023L153.473 88.471H154.412L155.27 61.4023H151.676Z" fill="#AE193B"/>
<path opacity="0.8" d="M155.316 50.9857C158.493 49.4217 159.8 45.5793 158.236 42.4034C156.671 39.2276 152.827 37.921 149.65 39.485C146.473 41.049 145.166 44.8914 146.73 48.0672C148.295 51.2431 152.139 52.5497 155.316 50.9857Z" fill="#BD63B3"/>
<path d="M152.492 50.7876C156.034 50.7876 158.905 47.9178 158.905 44.3777C158.905 40.8376 156.034 37.9678 152.492 37.9678C148.951 37.9678 146.08 40.8376 146.08 44.3777C146.08 47.9178 148.951 50.7876 152.492 50.7876Z" fill="url(#paint73_radial_67_5438)"/>
<path d="M152.493 49.1542C155.132 49.1542 157.271 47.0156 157.271 44.3774C157.271 41.7392 155.132 39.6006 152.493 39.6006C149.853 39.6006 147.714 41.7392 147.714 44.3774C147.714 47.0156 149.853 49.1542 152.493 49.1542Z" fill="url(#paint74_radial_67_5438)"/>
<path d="M152.493 48.6641C154.861 48.6641 156.781 46.7448 156.781 44.3772C156.781 42.0096 154.861 40.0903 152.493 40.0903C150.124 40.0903 148.204 42.0096 148.204 44.3772C148.204 46.7448 150.124 48.6641 152.493 48.6641Z" fill="url(#paint75_radial_67_5438)"/>
<path fill-rule="evenodd" clip-rule="evenodd" d="M138.892 37.6411C138.892 37.6411 137.503 38.0902 137.217 39.1109C136.931 40.1316 138.769 41.3564 138.769 41.3564L138.892 37.6411Z" fill="url(#paint76_radial_67_5438)"/>
<path fill-rule="evenodd" clip-rule="evenodd" d="M165.767 37.2734C165.767 37.2734 166.951 37.6409 167.36 38.4574C167.768 39.274 165.889 40.8254 165.889 40.8254L165.767 37.2734Z" fill="url(#paint77_radial_67_5438)"/>
<path fill-rule="evenodd" clip-rule="evenodd" d="M152.33 10.0415C152.33 10.0415 159.763 16.2065 161.07 20.1667C161.07 20.1667 157.68 20.9833 153.146 20.82L152.33 10.0415Z" fill="white"/>
<path opacity="0.5" fill-rule="evenodd" clip-rule="evenodd" d="M158.21 20.6157V32.7823C158.21 32.7823 161.6 32.2923 163.888 31.6799L163.152 19.7583C163.112 19.7583 161.069 20.1666 158.21 20.6157Z" fill="white"/>
<path opacity="0.5" fill-rule="evenodd" clip-rule="evenodd" d="M140.117 31.4758L141.383 19.7583L142.772 20.0033L142.119 32.0066L140.117 31.4758Z" fill="#79FFFF"/>
<path fill-rule="evenodd" clip-rule="evenodd" d="M151.635 20.82C151.635 20.82 158.741 20.8609 163.888 19.5952C163.847 19.5952 160.539 21.5549 151.635 20.82Z" fill="#F7F2FF"/>
<path fill-rule="evenodd" clip-rule="evenodd" d="M156.087 39.0293L155.474 40.6624C155.474 40.6624 156.536 41.4789 156.822 42.4588L158.374 41.8872C158.456 41.8872 157.925 40.2949 156.087 39.0293Z" fill="white"/>
<path fill-rule="evenodd" clip-rule="evenodd" d="M154.412 40.0495L155.311 38.5797L154.616 38.2939L153.759 39.7637L154.412 40.0495Z" fill="white"/>
<path d="M154.657 42.7034C154.905 42.7034 155.107 42.5023 155.107 42.2543C155.107 42.0062 154.905 41.8052 154.657 41.8052C154.409 41.8052 154.208 42.0062 154.208 42.2543C154.208 42.5023 154.409 42.7034 154.657 42.7034Z" fill="white"/>
<path fill-rule="evenodd" clip-rule="evenodd" d="M148.286 45.2349C148.286 45.2349 149.388 44.0101 151.104 44.5817C152.819 45.1533 153.023 48.6236 153.023 48.6236C153.023 48.6236 149.307 49.1952 148.286 45.2349Z" fill="#86B0FF"/>
<path opacity="0.8" fill-rule="evenodd" clip-rule="evenodd" d="M151.268 35.3954C151.268 35.3954 152.86 35.6404 157.68 35.967C162.499 36.2936 163.112 46.5822 161.356 57.0748C159.845 66.2202 157.108 68.0983 157.721 68.3841C158.333 68.6699 162.459 61.8108 163.806 53.3187C165.113 44.8266 164.337 35.967 164.501 35.3954C164.664 34.783 165.563 34.2114 165.563 34.2114C165.563 34.2114 161.233 35.4363 151.268 35.3954Z" fill="url(#paint78_linear_67_5438)"/>
<path opacity="0.5" fill-rule="evenodd" clip-rule="evenodd" d="M139.586 50.1748C139.586 50.1748 140.853 64.4236 147.142 69.4454L150.451 69.8945C150.451 69.8537 142.445 64.0153 139.586 50.1748Z" fill="url(#paint79_linear_67_5438)"/>
<path opacity="0.8" fill-rule="evenodd" clip-rule="evenodd" d="M154.412 53.3188L157.271 69.854L154.984 70.3031L155.27 61.4027L154.412 53.3188Z" fill="#BD63B3"/>
<path opacity="0.8" fill-rule="evenodd" clip-rule="evenodd" d="M173.69 58.0953L163.234 77.3659H162.417C162.417 77.3659 162.744 70.1394 161.355 64.791C161.355 64.791 164.01 59.7284 165.154 51.6445C165.154 51.6854 167.727 55.3598 173.69 58.0953Z" fill="#9A63B3"/>
<path fill-rule="evenodd" clip-rule="evenodd" d="M140.28 22.6982C140.28 22.6982 153.473 26.2911 164.378 22.6982L164.786 26.9443C164.786 26.9443 155.842 29.6797 139.831 26.9443L140.28 22.6982Z" fill="url(#paint80_radial_67_5438)"/>
<path opacity="0.8" fill-rule="evenodd" clip-rule="evenodd" d="M137.993 53.3186C137.993 53.3186 141.792 61.1575 141.792 66.016L142.69 67.6491L143.18 64.832C143.18 64.832 140.444 59.1161 139.382 51.6855L137.993 53.3186Z" fill="#BD63B3"/>
<path fill-rule="evenodd" clip-rule="evenodd" d="M163.52 42.7036C163.52 42.7036 162.05 46.1331 163.52 47.8071C163.52 47.8071 165.031 45.8882 163.52 42.7036Z" fill="white"/>
<path fill-rule="evenodd" clip-rule="evenodd" d="M163.52 105.945L163.316 103.577L167.155 103.006V105.251C167.155 105.292 164.296 105.864 163.52 105.945Z" fill="white"/>
<path opacity="0.8" d="M168.462 139.669C176.696 139.669 183.37 137.622 183.37 135.097C183.37 132.571 176.696 130.524 168.462 130.524C160.229 130.524 153.555 132.571 153.555 135.097C153.555 137.622 160.229 139.669 168.462 139.669Z" fill="#9C84B8"/>
<path fill-rule="evenodd" clip-rule="evenodd" d="M178.346 122.685C178.346 122.685 180.184 122.358 180.674 122.317C181.614 122.236 183.615 123.42 184.268 124.44L179.163 125.665L178.346 122.685Z" fill="white"/>
<path fill-rule="evenodd" clip-rule="evenodd" d="M177.897 129.462C177.897 129.462 179.694 129.911 181.124 128.605C182.553 127.298 182.104 125.665 182.104 125.665H182.88L182.635 127.747L180.716 130.891L177.897 131.544L176.59 131.299L177.897 129.462Z" fill="white"/>
<path fill-rule="evenodd" clip-rule="evenodd" d="M179.408 124.073C179.408 124.073 180.96 123.338 181.614 123.175C182.267 123.011 183.983 123.583 184.432 124.644C184.881 125.706 183.656 129.054 181.94 130.605C180.184 132.157 177.734 132.483 177.734 132.483V133.177C177.734 133.177 176.222 134.198 175.12 133.953L176.917 130.319C176.917 130.319 178.918 130.728 179.939 130.279C182.104 129.339 182.431 127.257 182.512 126.441C182.594 125.624 181.491 125.379 181.491 125.379L179.817 125.91C179.817 125.91 179.98 127.257 179.612 127.706C179.286 128.155 178.224 128.727 178.224 128.727C178.224 128.727 179.408 125.379 179.408 124.073Z" fill="url(#paint81_radial_67_5438)"/>
<path fill-rule="evenodd" clip-rule="evenodd" d="M179.408 122.807L165.807 123.215L152.207 122.807C152.207 122.807 151.798 129.544 158.006 135.627C158.006 135.627 160.294 137.056 165.807 137.056C171.321 137.056 173.609 135.627 173.609 135.627C179.817 129.544 179.408 122.807 179.408 122.807Z" fill="url(#paint82_radial_67_5438)"/>
<path fill-rule="evenodd" clip-rule="evenodd" d="M179.41 122.807C179.41 124.195 173.324 126.441 165.809 126.441C158.294 126.441 152.208 124.195 152.208 122.807C152.208 121.419 158.294 118.929 165.809 118.929C173.324 118.929 179.41 121.419 179.41 122.807Z" fill="white"/>
<path fill-rule="evenodd" clip-rule="evenodd" d="M176.59 122.767C176.59 123.175 175.937 123.665 174.793 124.155C174.589 124.236 174.344 124.318 174.099 124.4C172.097 125.094 169.116 125.665 165.726 125.665C164.051 125.665 162.458 125.543 161.029 125.298C159.273 125.012 157.761 124.604 156.699 124.155C155.556 123.706 154.902 123.175 154.902 122.767C154.902 121.664 159.763 119.705 165.726 119.705C171.771 119.705 176.59 121.664 176.59 122.767Z" fill="url(#paint83_radial_67_5438)"/>
<path fill-rule="evenodd" clip-rule="evenodd" d="M174.834 124.155C174.63 124.236 174.384 124.318 174.139 124.4C172.138 125.094 169.157 125.665 165.767 125.665C164.092 125.665 162.499 125.543 161.07 125.298C159.313 125.012 157.802 124.604 156.74 124.155C158.66 123.297 162.009 122.521 165.767 122.521C169.565 122.521 172.914 123.297 174.834 124.155Z" fill="url(#paint84_radial_67_5438)"/>
<path opacity="0.5" fill-rule="evenodd" clip-rule="evenodd" d="M153.146 124.686C153.146 124.686 153.636 131.095 158.17 134.811L159.722 135.137C159.722 135.137 157.149 131.626 156.74 126.155L153.146 124.686Z" fill="#79FFFF"/>
<path fill-rule="evenodd" clip-rule="evenodd" d="M172.833 125.747C172.833 125.747 176.304 127.788 177.775 124.236L172.833 125.747Z" fill="white"/>
<path fill-rule="evenodd" clip-rule="evenodd" d="M174.834 128.972C174.058 129.544 171.73 134.402 172.506 135.015C173.282 135.627 175.161 133.667 175.324 131.503C175.487 129.34 175.242 128.646 174.834 128.972Z" fill="white"/>
<path opacity="0.8" fill-rule="evenodd" clip-rule="evenodd" d="M176.59 122.766C176.59 123.175 175.937 123.665 174.793 124.155C174.589 124.236 174.344 124.318 174.099 124.4C173.976 124.359 169.81 122.195 163.847 123.134C161.437 123.501 161.029 125.257 161.029 125.257C159.273 124.971 157.761 124.563 156.699 124.114C155.556 123.665 154.902 123.134 154.902 122.726C154.902 121.623 159.763 119.664 165.726 119.664C171.771 119.704 176.59 121.664 176.59 122.766Z" fill="#B584B8"/>
<path fill-rule="evenodd" clip-rule="evenodd" d="M169.238 131.34C169.238 133.382 166.502 135.545 163.153 135.545C159.803 135.545 157.067 132.565 157.067 130.483C157.067 128.441 159.803 128.891 163.153 128.891C166.502 128.931 169.238 129.299 169.238 131.34Z" fill="url(#paint85_radial_67_5438)"/>
<path fill-rule="evenodd" clip-rule="evenodd" d="M178.632 67.8535C178.632 67.8535 182.022 70.9564 185.167 72.3854L183.493 77.4888C183.493 77.4888 177.57 75.774 175.528 71.9363L178.632 67.8535Z" fill="url(#paint86_linear_67_5438)"/>
<path fill-rule="evenodd" clip-rule="evenodd" d="M92.5755 52.6656C92.5755 52.6656 86.2448 50.1343 80.976 53.3597L79.2197 49.0728C79.2197 49.0728 88.8587 44.3368 93.3106 48.9503L92.5755 52.6656Z" fill="url(#paint87_linear_67_5438)"/>
<path opacity="0.8" fill-rule="evenodd" clip-rule="evenodd" d="M186.76 113.907C186.76 114.356 176.263 114.682 163.316 114.682C150.369 114.682 139.872 114.315 139.872 113.907C139.872 113.458 150.369 113.131 163.316 113.131C176.223 113.09 186.76 113.458 186.76 113.907Z" fill="#9C84B8"/>
<path fill-rule="evenodd" clip-rule="evenodd" d="M141.751 112.314L141.302 112.437L141.383 112.763L142.241 112.968V112.192L141.751 112.314Z" fill="url(#paint88_radial_67_5438)"/>
<path fill-rule="evenodd" clip-rule="evenodd" d="M179.654 109.538L182.84 109.498C182.84 109.498 183.616 110.518 183.085 111.335L179.776 111.784L179.654 109.538Z" fill="url(#paint89_linear_67_5438)"/>
<path fill-rule="evenodd" clip-rule="evenodd" d="M145.264 111.13L145.386 113.702L142.241 113.049V112.029L145.264 111.13Z" fill="url(#paint90_linear_67_5438)"/>
<path fill-rule="evenodd" clip-rule="evenodd" d="M145.264 111.131C145.264 111.131 149.062 109.742 155.801 110.437L156.005 113.417C156.005 113.417 149.103 114.887 145.386 113.662L145.264 111.131Z" fill="url(#paint91_linear_67_5438)"/>
<path fill-rule="evenodd" clip-rule="evenodd" d="M155.801 110.477L179.409 109.048C179.409 109.048 180.348 110.436 179.695 112.437L156.046 113.458L155.801 110.477Z" fill="url(#paint92_linear_67_5438)"/>
<path fill-rule="evenodd" clip-rule="evenodd" d="M178.428 112.478V113.458C178.428 113.458 176.345 114.479 172.792 114.438C169.239 114.356 167.197 113.825 164.746 113.907L164.256 113.58C164.256 113.58 164.746 113.58 166.829 113.376C166.829 113.376 175.365 113.621 177.734 112.805L177.693 112.478H178.428Z" fill="url(#paint93_linear_67_5438)"/>
<path fill-rule="evenodd" clip-rule="evenodd" d="M175.61 109.252C175.61 109.252 176.223 110.845 175.651 112.559L173.854 112.641C173.854 112.641 174.099 110.845 173.813 109.334L175.61 109.252Z" fill="url(#paint94_radial_67_5438)"/>
<path opacity="0.4" fill-rule="evenodd" clip-rule="evenodd" d="M156.741 112.641L179.654 111.375C179.654 111.375 179.735 111.947 179.49 112.274L156.7 113.09L156.741 112.641Z" fill="url(#paint95_radial_67_5438)"/>
<path fill-rule="evenodd" clip-rule="evenodd" d="M257.541 66.0164C257.541 66.833 256.888 67.4862 256.071 67.4862C255.254 67.4862 254.601 66.833 254.601 66.0164C254.601 65.1999 255.254 64.5466 256.071 64.5466C256.888 64.5058 257.541 65.1999 257.541 66.0164Z" fill="url(#paint96_linear_67_5438)"/>
<path fill-rule="evenodd" clip-rule="evenodd" d="M80.6087 28.169C80.6087 28.9856 79.9552 29.6388 79.1383 29.6388C78.3215 29.6388 77.668 28.9856 77.668 28.169C77.668 27.3525 78.3215 26.6992 79.1383 26.6992C79.9552 26.6992 80.6087 27.3525 80.6087 28.169Z" fill="url(#paint97_linear_67_5438)"/>
<path d="M44.544 56.7077C45.1756 56.7077 45.6876 56.1959 45.6876 55.5646C45.6876 54.9332 45.1756 54.4214 44.544 54.4214C43.9124 54.4214 43.4004 54.9332 43.4004 55.5646C43.4004 56.1959 43.9124 56.7077 44.544 56.7077Z" fill="url(#paint98_linear_67_5438)"/>
<path d="M227.808 22.698C228.439 22.698 228.951 22.1861 228.951 21.5548C228.951 20.9234 228.439 20.4116 227.808 20.4116C227.176 20.4116 226.664 20.9234 226.664 21.5548C226.664 22.1861 227.176 22.698 227.808 22.698Z" fill="#26F1FF"/>
<path fill-rule="evenodd" clip-rule="evenodd" d="M68.3966 61.6476C68.3966 62.3008 67.8656 62.7907 67.253 62.7907C66.6403 62.7907 66.1094 62.26 66.1094 61.6476C66.1094 60.9943 66.6403 60.5044 67.253 60.5044C67.8656 60.5044 68.3966 60.9943 68.3966 61.6476Z" fill="url(#paint99_linear_67_5438)"/>
<path fill-rule="evenodd" clip-rule="evenodd" d="M252.64 67.4859C252.64 67.7717 252.395 68.0166 252.109 68.0166C251.823 68.0166 251.578 67.7717 251.578 67.4859C251.578 67.2001 251.823 66.9551 252.109 66.9551C252.395 66.9143 252.64 67.1593 252.64 67.4859Z" fill="url(#paint100_linear_67_5438)"/>
<path d="M204.731 106.395C204.895 106.558 205.017 106.721 205.099 106.844C205.181 106.966 205.221 107.089 205.221 107.17C205.221 107.252 205.221 107.334 205.181 107.415C205.14 107.456 205.099 107.538 205.058 107.579C205.017 107.62 204.936 107.66 204.895 107.66C204.813 107.66 204.772 107.701 204.731 107.701C204.69 107.701 204.65 107.701 204.609 107.701C204.568 107.701 204.486 107.701 204.445 107.66C204.364 107.66 204.323 107.62 204.241 107.62C204.16 107.579 204.078 107.579 203.955 107.538C203.629 107.17 203.465 107.007 203.138 106.681C203.343 106.803 203.506 106.885 203.669 106.926C203.792 106.966 203.914 106.966 203.996 106.966C204.119 106.966 204.2 106.926 204.2 106.803C204.2 106.721 204.078 106.558 203.955 106.436C203.833 106.313 203.71 106.231 203.506 106.068C203.302 105.946 203.057 105.782 202.812 105.66C202.607 105.537 202.403 105.456 202.24 105.333C202.036 105.211 201.872 105.088 201.668 105.007C201.505 104.884 201.301 104.762 201.137 104.639C200.974 104.517 200.81 104.353 200.647 104.19C200.443 103.986 200.32 103.823 200.239 103.7C200.157 103.578 200.075 103.455 200.075 103.333C200.075 103.251 200.116 103.169 200.198 103.129C200.279 103.088 200.402 103.047 200.565 103.047C200.688 103.047 200.851 103.047 201.055 103.088C201.26 103.129 201.464 103.169 201.709 103.21C201.954 103.496 202.077 103.618 202.322 103.945C202.199 103.863 202.036 103.823 201.913 103.782C201.791 103.741 201.709 103.7 201.586 103.7C201.505 103.7 201.423 103.659 201.341 103.659C201.26 103.659 201.219 103.659 201.178 103.659C201.096 103.659 201.055 103.659 201.015 103.7C200.974 103.741 200.974 103.782 200.974 103.823C200.974 103.863 201.015 103.945 201.055 103.986C201.096 104.068 201.137 104.108 201.219 104.19C201.341 104.313 201.464 104.394 201.586 104.517C201.75 104.598 201.872 104.721 202.077 104.802C202.24 104.884 202.444 105.007 202.648 105.088C202.853 105.17 203.098 105.292 203.302 105.415C203.506 105.537 203.751 105.701 203.996 105.864C204.282 105.946 204.486 106.15 204.731 106.395Z" fill="white"/>
<path d="M205.18 103.619C205.058 103.619 204.894 103.619 204.731 103.619C204.568 103.619 204.404 103.619 204.241 103.619C204.404 103.782 204.568 103.986 204.772 104.19C204.976 104.394 205.18 104.599 205.385 104.803C205.589 105.007 205.834 105.252 206.038 105.456C206.283 105.66 206.487 105.905 206.732 106.109C206.977 106.354 207.263 106.599 207.508 106.844C207.753 107.089 207.999 107.293 208.244 107.497C207.753 107.497 207.508 107.497 207.059 107.497C206.732 107.13 206.365 106.722 205.956 106.313C205.548 105.905 205.139 105.456 204.69 105.048C204.404 104.762 204.159 104.517 203.873 104.272C203.628 104.027 203.383 103.782 203.138 103.578C202.975 103.578 202.811 103.578 202.689 103.578C202.566 103.578 202.444 103.578 202.321 103.578C202.076 103.333 201.954 103.21 201.75 103.006C201.872 103.006 201.995 103.006 202.158 103.006C202.321 103.006 202.444 103.006 202.648 103.006C202.811 103.006 202.975 103.006 203.179 103.006C203.383 103.006 203.547 103.006 203.751 103.006C203.914 103.006 204.118 103.006 204.282 103.006C204.445 103.006 204.609 103.006 204.731 103.006C204.854 103.292 204.935 103.415 205.18 103.619Z" fill="white"/>
<path d="M212.45 107.538C212.287 107.415 212.124 107.252 211.919 107.13C211.756 106.966 211.552 106.844 211.348 106.681C211.143 106.681 210.98 106.681 210.776 106.64C210.572 106.64 210.408 106.64 210.245 106.64C210.204 106.64 210.204 106.64 210.163 106.64C210.327 106.803 210.449 106.966 210.572 107.089C210.694 107.252 210.858 107.375 210.98 107.538C210.327 107.538 210 107.538 209.387 107.538C208.897 106.803 208.284 105.986 207.672 105.211C207.059 104.435 206.406 103.7 205.916 103.047C206.651 103.047 207.018 103.047 207.753 103.047C208.529 103.659 209.551 104.394 210.653 105.17C211.756 105.946 212.941 106.762 214.003 107.456C213.39 107.497 213.063 107.538 212.45 107.538ZM207.59 103.741C207.876 104.108 208.244 104.476 208.57 104.884C208.938 105.292 209.306 105.701 209.673 106.109C209.755 106.109 209.877 106.109 209.959 106.109C210.041 106.109 210.163 106.109 210.245 106.109C210.408 106.109 210.49 106.109 210.653 106.109C210.122 105.701 209.591 105.292 209.06 104.884C208.57 104.517 208.08 104.108 207.59 103.741Z" fill="white"/>
<path d="M213.921 104.231C214.084 104.353 214.248 104.517 214.37 104.68C214.493 104.843 214.615 104.966 214.697 105.129C214.779 105.252 214.82 105.415 214.82 105.537C214.82 105.66 214.738 105.782 214.615 105.864C215.187 106.191 215.759 106.476 216.331 106.762C216.903 107.048 217.434 107.293 217.964 107.497C217.515 107.497 217.27 107.538 216.739 107.538C215.759 107.007 215.187 106.681 214.044 106.027C214.37 106.313 214.697 106.558 215.024 106.803C215.351 107.048 215.636 107.293 215.922 107.497C215.35 107.497 215.065 107.497 214.452 107.497C214.044 107.048 213.553 106.599 213.022 106.068C212.491 105.578 211.92 105.048 211.348 104.558C211.021 104.272 210.694 103.986 210.408 103.741C210.123 103.496 209.837 103.251 209.551 103.006C209.714 102.965 209.918 102.965 210.123 102.965C210.327 102.965 210.49 102.965 210.613 102.965C210.694 102.965 210.817 102.965 210.98 102.965C211.144 102.965 211.307 103.006 211.47 103.006C211.634 103.047 211.838 103.088 212.042 103.129C212.246 103.169 212.451 103.251 212.655 103.333C212.859 103.414 213.063 103.537 213.308 103.659C213.553 103.782 213.676 104.027 213.921 104.231ZM213.39 105.497C213.513 105.456 213.594 105.456 213.635 105.415C213.676 105.374 213.717 105.333 213.717 105.252C213.717 105.211 213.717 105.129 213.676 105.088C213.635 105.007 213.635 104.966 213.594 104.884C213.513 104.721 213.349 104.598 213.186 104.435C213.186 104.435 213.145 104.394 213.104 104.353C213.063 104.313 212.982 104.231 212.859 104.19C212.777 104.108 212.655 104.027 212.532 103.945C212.41 103.864 212.287 103.782 212.124 103.7C211.961 103.619 211.838 103.578 211.675 103.496C211.511 103.455 211.348 103.414 211.185 103.374C211.47 103.659 211.797 103.986 212.124 104.313C212.491 104.639 212.859 105.007 213.267 105.333C213.267 105.415 213.308 105.456 213.39 105.497Z" fill="white"/>
<path d="M215.269 103.578C215.228 103.578 215.147 103.578 215.065 103.578C214.983 103.578 214.902 103.578 214.82 103.578C215.024 103.741 215.228 103.945 215.473 104.15C215.718 104.354 215.963 104.599 216.249 104.803C216.535 105.048 216.821 105.293 217.107 105.497C217.393 105.742 217.679 105.987 217.924 106.191C218.251 106.436 218.537 106.681 218.782 106.885C219.027 107.089 219.272 107.293 219.476 107.457C219.19 107.457 219.068 107.457 218.7 107.457C218.373 107.171 217.965 106.803 217.475 106.395C216.985 105.987 216.454 105.538 215.923 105.089C215.596 104.803 215.228 104.517 214.901 104.272C214.575 104.027 214.289 103.782 214.044 103.537C213.921 103.537 213.799 103.537 213.676 103.537C213.554 103.537 213.431 103.537 213.349 103.537C213.064 103.292 212.941 103.17 212.737 103.006C212.859 103.006 212.982 103.006 213.104 103.006C213.227 103.006 213.349 103.006 213.472 103.006C213.595 103.006 213.717 103.006 213.84 103.006C213.962 103.006 214.085 103.006 214.166 103.006C214.248 103.006 214.371 103.006 214.411 103.006C214.493 103.006 214.534 103.006 214.616 103.006C214.902 103.251 215.024 103.333 215.269 103.578Z" fill="white"/>
</g>
<defs>
<linearGradient id="paint0_linear_67_5438" x1="81.5479" y1="73.855" x2="224.009" y2="73.855" gradientUnits="userSpaceOnUse">
<stop stop-color="#6A11CB"/>
<stop offset="1" stop-color="#2575FC"/>
</linearGradient>
<linearGradient id="paint1_linear_67_5438" x1="84.8849" y1="24.7332" x2="99.321" y2="10.2915" gradientUnits="userSpaceOnUse">
<stop stop-color="#6A11CB"/>
<stop offset="1" stop-color="#2575FC"/>
</linearGradient>
<linearGradient id="paint2_linear_67_5438" x1="225.012" y1="50.9813" x2="254.3" y2="34.4063" gradientUnits="userSpaceOnUse">
<stop stop-color="#6A11CB"/>
<stop offset="1" stop-color="#2575FC"/>
</linearGradient>
<linearGradient id="paint3_linear_67_5438" x1="28.7182" y1="34.0495" x2="35.1149" y2="27.6502" gradientUnits="userSpaceOnUse">
<stop stop-color="#6A11CB"/>
<stop offset="1" stop-color="#2575FC"/>
</linearGradient>
<linearGradient id="paint4_linear_67_5438" x1="125.69" y1="91.5311" x2="125.69" y2="81.3251" gradientUnits="userSpaceOnUse">
<stop stop-color="#FF3434"/>
<stop offset="0.998" stop-color="#E00047"/>
</linearGradient>
<linearGradient id="paint5_linear_67_5438" x1="39.5278" y1="78.0945" x2="39.5278" y2="61.6346" gradientUnits="userSpaceOnUse">
<stop stop-color="#FFD328"/>
<stop offset="1" stop-color="#FFA700"/>
</linearGradient>
<linearGradient id="paint6_linear_67_5438" x1="203.781" y1="28.6319" x2="203.781" y2="12.172" gradientUnits="userSpaceOnUse">
<stop stop-color="#FF3434"/>
<stop offset="0.998" stop-color="#E00047"/>
</linearGradient>
<radialGradient id="paint7_radial_67_5438" cx="0" cy="0" r="1" gradientUnits="userSpaceOnUse" gradientTransform="translate(152.778 120.666) scale(109.959 86.6921)">
<stop stop-color="#EBD7E3"/>
<stop offset="0.9829" stop-color="#BDAFD2"/>
</radialGradient>
<radialGradient id="paint8_radial_67_5438" cx="0" cy="0" r="1" gradientUnits="userSpaceOnUse" gradientTransform="translate(152.779 147.098) scale(107.852 85.031)">
<stop stop-color="#8177A1"/>
<stop offset="0.9829" stop-color="#775BA3"/>
</radialGradient>
<radialGradient id="paint9_radial_67_5438" cx="0" cy="0" r="1" gradientUnits="userSpaceOnUse" gradientTransform="translate(152.779 137.928) scale(107.899 107.857)">
<stop offset="0.0111732" stop-color="white"/>
<stop offset="0.9829" stop-color="#BDAFD2"/>
</radialGradient>
<linearGradient id="paint10_linear_67_5438" x1="13.9221" y1="125.876" x2="286.359" y2="125.876" gradientUnits="userSpaceOnUse">
<stop offset="0.0111732" stop-color="white"/>
<stop offset="0.9829" stop-color="#BDAFD2"/>
</linearGradient>
<linearGradient id="paint11_linear_67_5438" x1="26.0015" y1="117.578" x2="282.587" y2="117.578" gradientUnits="userSpaceOnUse">
<stop offset="0.0171145" stop-color="#BDAFD2"/>
<stop offset="0.9888" stop-color="white"/>
</linearGradient>
<linearGradient id="paint12_linear_67_5438" x1="61.0975" y1="136.18" x2="61.0975" y2="103.559" gradientUnits="userSpaceOnUse">
<stop offset="0.0171145" stop-color="#E2DCEB"/>
<stop offset="1" stop-color="white"/>
</linearGradient>
<linearGradient id="paint13_linear_67_5438" x1="260.738" y1="138.356" x2="260.738" y2="105.319" gradientUnits="userSpaceOnUse">
<stop offset="0.0171145" stop-color="#E2DCEB"/>
<stop offset="1" stop-color="white"/>
</linearGradient>
<linearGradient id="paint14_linear_67_5438" x1="105.468" y1="141.404" x2="105.468" y2="109.374" gradientUnits="userSpaceOnUse">
<stop stop-color="#FF8647"/>
<stop offset="1" stop-color="#FFB934"/>
</linearGradient>
<linearGradient id="paint15_linear_67_5438" x1="78.2576" y1="125.389" x2="132.678" y2="125.389" gradientUnits="userSpaceOnUse">
<stop stop-color="#C72A16"/>
<stop offset="0.998" stop-color="#BA2244"/>
</linearGradient>
<linearGradient id="paint16_linear_67_5438" x1="104.667" y1="138.165" x2="104.667" y2="107.77" gradientUnits="userSpaceOnUse">
<stop offset="0.0171145" stop-color="#E2DCEB"/>
<stop offset="1" stop-color="white"/>
</linearGradient>
<radialGradient id="paint17_radial_67_5438" cx="0" cy="0" r="1" gradientUnits="userSpaceOnUse" gradientTransform="translate(81.4595 124.714) scale(24.7538 24.7443)">
<stop stop-color="#EBD7E3"/>
<stop offset="0.9829" stop-color="#BDAFD2"/>
</radialGradient>
<radialGradient id="paint18_radial_67_5438" cx="0" cy="0" r="1" gradientUnits="userSpaceOnUse" gradientTransform="translate(112.411 108.922) scale(7.06138 7.05871)">
<stop stop-color="#AEA8C2"/>
<stop offset="0.9829" stop-color="#8C74B1"/>
</radialGradient>
<radialGradient id="paint19_radial_67_5438" cx="0" cy="0" r="1" gradientUnits="userSpaceOnUse" gradientTransform="translate(112.411 108.711) scale(7.03838 7.03572)">
<stop stop-color="#DDBCD0"/>
<stop offset="0.9829" stop-color="#A794C3"/>
</radialGradient>
<linearGradient id="paint20_linear_67_5438" x1="103.375" y1="107.91" x2="122.26" y2="107.91" gradientUnits="userSpaceOnUse">
<stop/>
<stop offset="0.08447" stop-color="#1C1104"/>
<stop offset="0.3434" stop-color="#6B4310"/>
<stop offset="0.5735" stop-color="#AB6A1A"/>
<stop offset="0.7663" stop-color="#D88721"/>
<stop offset="0.9144" stop-color="#F59825"/>
<stop offset="1" stop-color="#FF9F27"/>
</linearGradient>
<linearGradient id="paint21_linear_67_5438" x1="93.7718" y1="120.405" x2="145.018" y2="125.142" gradientUnits="userSpaceOnUse">
<stop stop-color="#603082"/>
<stop offset="0.9944" stop-color="#2A0E51"/>
</linearGradient>
<radialGradient id="paint22_radial_67_5438" cx="0" cy="0" r="1" gradientUnits="userSpaceOnUse" gradientTransform="translate(122.729 114.603) rotate(5.27645) scale(21.3999 18.6356)">
<stop stop-color="#5178FE"/>
<stop offset="0.9944" stop-color="#713592"/>
</radialGradient>
<linearGradient id="paint23_linear_67_5438" x1="110.069" y1="128.203" x2="111.177" y2="116.206" gradientUnits="userSpaceOnUse">
<stop offset="0.00558661" stop-color="#9059B0"/>
<stop offset="1" stop-color="#778DFB"/>
</linearGradient>
<linearGradient id="paint24_linear_67_5438" x1="135.044" y1="130.127" x2="136.351" y2="115.968" gradientUnits="userSpaceOnUse">
<stop offset="0.00558661" stop-color="#9059B0"/>
<stop offset="1" stop-color="#778DFB"/>
</linearGradient>
<linearGradient id="paint25_linear_67_5438" x1="193.602" y1="84.7484" x2="237.651" y2="84.7484" gradientUnits="userSpaceOnUse">
<stop stop-color="#FF7C7C"/>
<stop offset="0.984" stop-color="#FFB88E"/>
</linearGradient>
<linearGradient id="paint26_linear_67_5438" x1="197.848" y1="80.0582" x2="209.714" y2="80.0582" gradientUnits="userSpaceOnUse">
<stop stop-color="#FFEADB"/>
<stop offset="0.9944" stop-color="#EA90B6"/>
</linearGradient>
<linearGradient id="paint27_linear_67_5438" x1="210.703" y1="88.6163" x2="228.09" y2="88.6163" gradientUnits="userSpaceOnUse">
<stop offset="0.00558659" stop-color="#C27CB6"/>
<stop offset="1" stop-color="#FFEADB"/>
</linearGradient>
<linearGradient id="paint28_linear_67_5438" x1="210.952" y1="72.8877" x2="210.952" y2="67.4727" gradientUnits="userSpaceOnUse">
<stop stop-color="#CF6074"/>
<stop offset="1" stop-color="#F36059"/>
</linearGradient>
<linearGradient id="paint29_linear_67_5438" x1="210.101" y1="95.061" x2="210.101" y2="77.4515" gradientUnits="userSpaceOnUse">
<stop stop-color="#DD575C"/>
<stop offset="1" stop-color="#CF4F74"/>
</linearGradient>
<linearGradient id="paint30_linear_67_5438" x1="193.602" y1="74.8393" x2="210.702" y2="74.8393" gradientUnits="userSpaceOnUse">
<stop stop-color="#FFEADB"/>
<stop offset="0.9944" stop-color="#C27CB6"/>
</linearGradient>
<linearGradient id="paint31_linear_67_5438" x1="210.202" y1="95.0611" x2="210.202" y2="79.0935" gradientUnits="userSpaceOnUse">
<stop stop-color="#F0CCD3"/>
<stop offset="1" stop-color="#A45CBB"/>
</linearGradient>
<linearGradient id="paint32_linear_67_5438" x1="227.195" y1="96.9286" x2="227.195" y2="88.2512" gradientUnits="userSpaceOnUse">
<stop stop-color="#A45CBB"/>
<stop offset="1" stop-color="#F0CCD3"/>
</linearGradient>
<linearGradient id="paint33_linear_67_5438" x1="250.691" y1="155.519" x2="250.691" y2="87.7283" gradientUnits="userSpaceOnUse">
<stop stop-color="#5F2C95"/>
<stop offset="1" stop-color="#6456C0"/>
</linearGradient>
<radialGradient id="paint34_radial_67_5438" cx="0" cy="0" r="1" gradientUnits="userSpaceOnUse" gradientTransform="translate(249.818 104.291) scale(19.1748 53.2474)">
<stop stop-color="#5B2AA4"/>
<stop offset="0.9944" stop-color="#481A72"/>
</radialGradient>
<linearGradient id="paint35_linear_67_5438" x1="226.481" y1="97.525" x2="238.247" y2="97.525" gradientUnits="userSpaceOnUse">
<stop stop-color="#755CBB"/>
<stop offset="1" stop-color="#CCCCFF"/>
</linearGradient>
<linearGradient id="paint36_linear_67_5438" x1="229.547" y1="107.864" x2="234.574" y2="107.864" gradientUnits="userSpaceOnUse">
<stop stop-color="#755CBB"/>
<stop offset="1" stop-color="#CCCCFF"/>
</linearGradient>
<linearGradient id="paint37_linear_67_5438" x1="235.688" y1="140.867" x2="243.627" y2="140.867" gradientUnits="userSpaceOnUse">
<stop stop-color="#755CBB"/>
<stop offset="1" stop-color="#CCCCFF"/>
</linearGradient>
<linearGradient id="paint38_linear_67_5438" x1="92.2201" y1="117.908" x2="92.2201" y2="73.2345" gradientUnits="userSpaceOnUse">
<stop offset="0.0159875" stop-color="#FFB88E"/>
<stop offset="1" stop-color="#FF7C7C"/>
</linearGradient>
<linearGradient id="paint39_linear_67_5438" x1="107.06" y1="80.3937" x2="107.06" y2="75.8639" gradientUnits="userSpaceOnUse">
<stop stop-color="#DD575C"/>
<stop offset="1" stop-color="#CF4F74"/>
</linearGradient>
<linearGradient id="paint40_linear_67_5438" x1="99.8554" y1="99.7305" x2="99.8554" y2="96.9474" gradientUnits="userSpaceOnUse">
<stop stop-color="#DD575C"/>
<stop offset="1" stop-color="#CF4F74"/>
</linearGradient>
<linearGradient id="paint41_linear_67_5438" x1="76.6998" y1="81.7348" x2="76.7327" y2="81.7348" gradientUnits="userSpaceOnUse">
<stop offset="0.00558659" stop-color="#C27CB6"/>
<stop offset="1" stop-color="#FFEADB"/>
</linearGradient>
<linearGradient id="paint42_linear_67_5438" x1="92.1897" y1="110.935" x2="92.1897" y2="73.2345" gradientUnits="userSpaceOnUse">
<stop offset="0.00558659" stop-color="#DB95B6"/>
<stop offset="1" stop-color="#FFEADB"/>
</linearGradient>
<linearGradient id="paint43_linear_67_5438" x1="81.2155" y1="80.8988" x2="85.5171" y2="80.8988" gradientUnits="userSpaceOnUse">
<stop offset="0.00558659" stop-color="#C27CB6"/>
<stop offset="1" stop-color="#FFEADB"/>
</linearGradient>
<linearGradient id="paint44_linear_67_5438" x1="86.8168" y1="80.727" x2="93.2963" y2="80.727" gradientUnits="userSpaceOnUse">
<stop offset="0.00558659" stop-color="#C27CB6"/>
<stop offset="1" stop-color="#FFEADB"/>
</linearGradient>
<linearGradient id="paint45_linear_67_5438" x1="92.6528" y1="81.3316" x2="99.2573" y2="81.3316" gradientUnits="userSpaceOnUse">
<stop offset="0.00558659" stop-color="#C27CB6"/>
<stop offset="1" stop-color="#FFEADB"/>
</linearGradient>
<linearGradient id="paint46_linear_67_5438" x1="98.6389" y1="102.275" x2="98.6389" y2="80.3998" gradientUnits="userSpaceOnUse">
<stop stop-color="#FFEADB"/>
<stop offset="0.9944" stop-color="#C27CB6"/>
</linearGradient>
<linearGradient id="paint47_linear_67_5438" x1="97.7095" y1="80.7683" x2="97.7095" y2="76.6763" gradientUnits="userSpaceOnUse">
<stop stop-color="#DD575C"/>
<stop offset="1" stop-color="#CF4F74"/>
</linearGradient>
<linearGradient id="paint48_linear_67_5438" x1="91.0211" y1="80.0301" x2="91.0211" y2="77.1173" gradientUnits="userSpaceOnUse">
<stop stop-color="#DD575C"/>
<stop offset="1" stop-color="#CF4F74"/>
</linearGradient>
<linearGradient id="paint49_linear_67_5438" x1="79.1925" y1="110.04" x2="79.1925" y2="104.435" gradientUnits="userSpaceOnUse">
<stop stop-color="#A45CBB"/>
<stop offset="1" stop-color="#F0CCD3"/>
</linearGradient>
<radialGradient id="paint50_radial_67_5438" cx="0" cy="0" r="1" gradientUnits="userSpaceOnUse" gradientTransform="translate(54.3219 116.679) scale(21.5945 40.4111)">
<stop stop-color="#5B2AA4"/>
<stop offset="0.9944" stop-color="#481A72"/>
</radialGradient>
<linearGradient id="paint51_linear_67_5438" x1="79.116" y1="89.7924" x2="81.9853" y2="89.7924" gradientUnits="userSpaceOnUse">
<stop offset="0.00558659" stop-color="#DB95B6"/>
<stop offset="1" stop-color="#FFEADB"/>
</linearGradient>
<linearGradient id="paint52_linear_67_5438" x1="83.3474" y1="90.4601" x2="87.7517" y2="90.4601" gradientUnits="userSpaceOnUse">
<stop offset="0.00558659" stop-color="#DB95B6"/>
<stop offset="1" stop-color="#FFEADB"/>
</linearGradient>
<linearGradient id="paint53_linear_67_5438" x1="86.3254" y1="91.3551" x2="93.4527" y2="91.3551" gradientUnits="userSpaceOnUse">
<stop offset="0.00558659" stop-color="#DB95B6"/>
<stop offset="1" stop-color="#FFEADB"/>
</linearGradient>
<linearGradient id="paint54_linear_67_5438" x1="192.587" y1="116.814" x2="230.141" y2="116.814" gradientUnits="userSpaceOnUse">
<stop stop-color="#603082"/>
<stop offset="0.9944" stop-color="#2A0E51"/>
</linearGradient>
<radialGradient id="paint55_radial_67_5438" cx="0" cy="0" r="1" gradientUnits="userSpaceOnUse" gradientTransform="translate(213.802 116.054) scale(13.6077 13.6025)">
<stop stop-color="#FF477E"/>
<stop offset="0.9944" stop-color="#9162AA"/>
</radialGradient>
<radialGradient id="paint56_radial_67_5438" cx="0" cy="0" r="1" gradientUnits="userSpaceOnUse" gradientTransform="translate(215.827 118.038) scale(11.277 11.2727)">
<stop stop-color="#471371"/>
<stop offset="0.9944" stop-color="#20003B"/>
</radialGradient>
<linearGradient id="paint57_linear_67_5438" x1="193.999" y1="108.754" x2="225.578" y2="108.754" gradientUnits="userSpaceOnUse">
<stop stop-color="#FF3434"/>
<stop offset="0.998" stop-color="#E00047"/>
</linearGradient>
<radialGradient id="paint58_radial_67_5438" cx="0" cy="0" r="1" gradientUnits="userSpaceOnUse" gradientTransform="translate(209.788 105.491) scale(11.4478 11.4434)">
<stop stop-color="#FF8427"/>
<stop offset="0.998" stop-color="#FF3347"/>
</radialGradient>
<radialGradient id="paint59_radial_67_5438" cx="0" cy="0" r="1" gradientUnits="userSpaceOnUse" gradientTransform="translate(213.124 112.265) scale(9.11552 9.11199)">
<stop stop-color="#FF3434"/>
<stop offset="0.998" stop-color="#E00047"/>
</radialGradient>
<linearGradient id="paint60_linear_67_5438" x1="214.428" y1="122.953" x2="218.69" y2="122.953" gradientUnits="userSpaceOnUse">
<stop offset="0.00558659" stop-color="#2A0E51"/>
<stop offset="1" stop-color="#603082"/>
</linearGradient>
<linearGradient id="paint61_linear_67_5438" x1="156.94" y1="138.55" x2="232.325" y2="138.55" gradientUnits="userSpaceOnUse">
<stop offset="0.00558659" stop-color="#2A0E51"/>
<stop offset="1" stop-color="#603082"/>
</linearGradient>
<linearGradient id="paint62_linear_67_5438" x1="132.242" y1="103.198" x2="174.771" y2="103.198" gradientUnits="userSpaceOnUse">
<stop stop-color="#603082"/>
<stop offset="0.9944" stop-color="#2A0E51"/>
</linearGradient>
<radialGradient id="paint63_radial_67_5438" cx="0" cy="0" r="1" gradientUnits="userSpaceOnUse" gradientTransform="translate(153.506 100.865) scale(15.2333 15.2275)">
<stop stop-color="#8363DA"/>
<stop offset="0.9944" stop-color="#9162AA"/>
</radialGradient>
<radialGradient id="paint64_radial_67_5438" cx="0" cy="0" r="1" gradientUnits="userSpaceOnUse" gradientTransform="translate(153.929 71.6033) scale(2.92645 3.88191)">
<stop stop-color="#AEA8C2"/>
<stop offset="0.9829" stop-color="#8C74B1"/>
</radialGradient>
<radialGradient id="paint65_radial_67_5438" cx="0" cy="0" r="1" gradientUnits="userSpaceOnUse" gradientTransform="translate(157.415 44.1121) scale(15.9949 26.1527)">
<stop stop-color="#FFB934"/>
<stop offset="0.8436" stop-color="#FF8647"/>
<stop offset="0.986" stop-color="#FF86A4"/>
</radialGradient>
<linearGradient id="paint66_linear_67_5438" x1="139.101" y1="34.2222" x2="165.566" y2="34.2222" gradientUnits="userSpaceOnUse">
<stop stop-color="#FF7527"/>
<stop offset="0.998" stop-color="#E03347"/>
</linearGradient>
<radialGradient id="paint67_radial_67_5438" cx="0" cy="0" r="1" gradientUnits="userSpaceOnUse" gradientTransform="translate(155.504 33.4528) scale(6.2424 8.28046)">
<stop stop-color="#AEA8C2"/>
<stop offset="0.9829" stop-color="#8C74B1"/>
</radialGradient>
<radialGradient id="paint68_radial_67_5438" cx="0" cy="0" r="1" gradientUnits="userSpaceOnUse" gradientTransform="translate(156.149 22.6841) scale(11.0485 14.6557)">
<stop stop-color="#DDBCD0"/>
<stop offset="0.9829" stop-color="#A794C3"/>
</radialGradient>
<radialGradient id="paint69_radial_67_5438" cx="0" cy="0" r="1" gradientUnits="userSpaceOnUse" gradientTransform="translate(155.781 15.9605) scale(7.60668 10.0902)">
<stop stop-color="#EBD7E3"/>
<stop offset="0.9829" stop-color="#BDAFD2"/>
</radialGradient>
<linearGradient id="paint70_linear_67_5438" x1="136.813" y1="86.4277" x2="136.813" y2="51.6682" gradientUnits="userSpaceOnUse">
<stop stop-color="#FF3434"/>
<stop offset="0.998" stop-color="#E00047"/>
</linearGradient>
<linearGradient id="paint71_linear_67_5438" x1="167.74" y1="86.4277" x2="167.74" y2="51.6682" gradientUnits="userSpaceOnUse">
<stop stop-color="#FF3434"/>
<stop offset="0.998" stop-color="#E00047"/>
</linearGradient>
<linearGradient id="paint72_linear_67_5438" x1="153.46" y1="61.4111" x2="153.46" y2="53.3283" gradientUnits="userSpaceOnUse">
<stop offset="0.00198414" stop-color="#FF3347"/>
<stop offset="1" stop-color="#FF8427"/>
</linearGradient>
<radialGradient id="paint73_radial_67_5438" cx="0" cy="0" r="1" gradientUnits="userSpaceOnUse" gradientTransform="translate(156.535 40.1512) scale(5.91125 7.8412)">
<stop stop-color="#DDBCD0"/>
<stop offset="0.9829" stop-color="#A794C3"/>
</radialGradient>
<radialGradient id="paint74_radial_67_5438" cx="0" cy="0" r="1" gradientUnits="userSpaceOnUse" gradientTransform="translate(152.706 48.8174) scale(4.38285 5.81379)">
<stop stop-color="#AEA8C2"/>
<stop offset="0.9829" stop-color="#8C74B1"/>
</radialGradient>
<radialGradient id="paint75_radial_67_5438" cx="0" cy="0" r="1" gradientUnits="userSpaceOnUse" gradientTransform="translate(152.068 47.4666) scale(3.96674 5.26183)">
<stop stop-color="#5178FE"/>
<stop offset="0.9944" stop-color="#713592"/>
</radialGradient>
<radialGradient id="paint76_radial_67_5438" cx="0" cy="0" r="1" gradientUnits="userSpaceOnUse" gradientTransform="translate(138.285 39.7109) scale(1.44209 1.91292)">
<stop stop-color="#5178FE"/>
<stop offset="0.9944" stop-color="#713592"/>
</radialGradient>
<radialGradient id="paint77_radial_67_5438" cx="0" cy="0" r="1" gradientUnits="userSpaceOnUse" gradientTransform="translate(166.822 39.2202) scale(1.37033 1.81767)">
<stop stop-color="#5178FE"/>
<stop offset="0.9944" stop-color="#713592"/>
</radialGradient>
<linearGradient id="paint78_linear_67_5438" x1="158.41" y1="68.3854" x2="158.41" y2="34.2062" gradientUnits="userSpaceOnUse">
<stop/>
<stop offset="0.08447" stop-color="#1C1104"/>
<stop offset="0.3434" stop-color="#6B4310"/>
<stop offset="0.5735" stop-color="#AB6A1A"/>
<stop offset="0.7663" stop-color="#D88721"/>
<stop offset="0.9144" stop-color="#F59825"/>
<stop offset="1" stop-color="#FF9F27"/>
</linearGradient>
<linearGradient id="paint79_linear_67_5438" x1="145.011" y1="69.8644" x2="145.011" y2="50.165" gradientUnits="userSpaceOnUse">
<stop offset="0.0167598" stop-color="#599FDC"/>
<stop offset="0.111" stop-color="#5597D2"/>
<stop offset="0.2741" stop-color="#4983B5"/>
<stop offset="0.4864" stop-color="#376288"/>
<stop offset="0.7397" stop-color="#1D3448"/>
<stop offset="1"/>
</linearGradient>
<radialGradient id="paint80_radial_67_5438" cx="0" cy="0" r="1" gradientUnits="userSpaceOnUse" gradientTransform="translate(152.334 25.431) scale(9.02641 9.02292)">
<stop stop-color="#8363DA"/>
<stop offset="0.9944" stop-color="#9162AA"/>
</radialGradient>
<radialGradient id="paint81_radial_67_5438" cx="0" cy="0" r="1" gradientUnits="userSpaceOnUse" gradientTransform="translate(179.807 128.604) scale(5.08381 5.08184)">
<stop stop-color="#EBD7E3"/>
<stop offset="0.9829" stop-color="#BDAFD2"/>
</radialGradient>
<radialGradient id="paint82_radial_67_5438" cx="0" cy="0" r="1" gradientUnits="userSpaceOnUse" gradientTransform="translate(165.795 129.934) scale(10.8591 10.8549)">
<stop stop-color="#EBD7E3"/>
<stop offset="0.9829" stop-color="#BDAFD2"/>
</radialGradient>
<radialGradient id="paint83_radial_67_5438" cx="0" cy="0" r="1" gradientUnits="userSpaceOnUse" gradientTransform="translate(165.794 122.69) scale(7.93224 7.9292)">
<stop stop-color="#EBD7E3"/>
<stop offset="0.9829" stop-color="#BDAFD2"/>
</radialGradient>
<radialGradient id="paint84_radial_67_5438" cx="0" cy="0" r="1" gradientUnits="userSpaceOnUse" gradientTransform="translate(165.796 124.087) scale(6.48512 6.48261)">
<stop stop-color="#C75929"/>
<stop offset="0.9944" stop-color="#743568"/>
</radialGradient>
<radialGradient id="paint85_radial_67_5438" cx="0" cy="0" r="1" gradientUnits="userSpaceOnUse" gradientTransform="translate(162.47 130.252) scale(4.91189 4.91002)">
<stop stop-color="#00FFFF"/>
<stop offset="0.9944" stop-color="#26A9FF"/>
</radialGradient>
<linearGradient id="paint86_linear_67_5438" x1="180.33" y1="77.5193" x2="180.33" y2="67.8709" gradientUnits="userSpaceOnUse">
<stop stop-color="#FFD328"/>
<stop offset="1" stop-color="#FFA700"/>
</linearGradient>
<linearGradient id="paint87_linear_67_5438" x1="79.1962" y1="50.1654" x2="93.2961" y2="50.1652" gradientUnits="userSpaceOnUse">
<stop stop-color="#00FFFF"/>
<stop offset="0.9944" stop-color="#26A9FF"/>
</linearGradient>
<radialGradient id="paint88_radial_67_5438" cx="0" cy="0" r="1" gradientUnits="userSpaceOnUse" gradientTransform="translate(142.069 112.749) rotate(89.4842) scale(0.382909 0.383055)">
<stop stop-color="#AEA8C2"/>
<stop offset="0.9829" stop-color="#8C74B1"/>
</radialGradient>
<linearGradient id="paint89_linear_67_5438" x1="181.449" y1="109.509" x2="181.47" y2="111.754" gradientUnits="userSpaceOnUse">
<stop stop-color="#FF3434"/>
<stop offset="0.998" stop-color="#E00047"/>
</linearGradient>
<linearGradient id="paint90_linear_67_5438" x1="143.799" y1="111.163" x2="143.822" y2="113.699" gradientUnits="userSpaceOnUse">
<stop stop-color="#603082"/>
<stop offset="0.9944" stop-color="#2A0E51"/>
</linearGradient>
<linearGradient id="paint91_linear_67_5438" x1="150.637" y1="110.283" x2="150.672" y2="114.166" gradientUnits="userSpaceOnUse">
<stop stop-color="#FF3434"/>
<stop offset="0.998" stop-color="#E00047"/>
</linearGradient>
<linearGradient id="paint92_linear_67_5438" x1="167.849" y1="109.135" x2="167.887" y2="113.337" gradientUnits="userSpaceOnUse">
<stop stop-color="#603082"/>
<stop offset="0.9944" stop-color="#2A0E51"/>
</linearGradient>
<linearGradient id="paint93_linear_67_5438" x1="171.341" y1="112.529" x2="171.358" y2="114.448" gradientUnits="userSpaceOnUse">
<stop stop-color="#603082"/>
<stop offset="0.9944" stop-color="#2A0E51"/>
</linearGradient>
<radialGradient id="paint94_radial_67_5438" cx="0" cy="0" r="1" gradientUnits="userSpaceOnUse" gradientTransform="translate(175.482 111.158) rotate(89.4842) scale(1.73781 1.43946)">
<stop stop-color="#EBD7E3"/>
<stop offset="0.9829" stop-color="#BDAFD2"/>
</radialGradient>
<radialGradient id="paint95_radial_67_5438" cx="0" cy="0" r="1" gradientUnits="userSpaceOnUse" gradientTransform="translate(168.177 112.248) rotate(89.4842) scale(8.14825 8.1513)">
<stop stop-color="#C0A9B1"/>
<stop offset="0.1064" stop-color="#B6A0A7"/>
<stop offset="0.2905" stop-color="#99878D"/>
<stop offset="0.53" stop-color="#6C5F63"/>
<stop offset="0.8126" stop-color="#2D282A"/>
<stop offset="1"/>
</radialGradient>
<linearGradient id="paint96_linear_67_5438" x1="256.074" y1="67.4728" x2="256.074" y2="64.5235" gradientUnits="userSpaceOnUse">
<stop stop-color="#FF3434"/>
<stop offset="0.998" stop-color="#E00047"/>
</linearGradient>
<linearGradient id="paint97_linear_67_5438" x1="77.6408" y1="28.1605" x2="80.5912" y2="28.1605" gradientUnits="userSpaceOnUse">
<stop stop-color="#FFB934"/>
<stop offset="1" stop-color="#FF8647"/>
</linearGradient>
<linearGradient id="paint98_linear_67_5438" x1="44.5324" y1="56.7158" x2="44.5324" y2="54.4236" gradientUnits="userSpaceOnUse">
<stop stop-color="#FF3434"/>
<stop offset="0.998" stop-color="#E00047"/>
</linearGradient>
<linearGradient id="paint99_linear_67_5438" x1="66.1017" y1="61.6347" x2="68.3949" y2="61.6347" gradientUnits="userSpaceOnUse">
<stop stop-color="#5F2C95"/>
<stop offset="1" stop-color="#6456C0"/>
</linearGradient>
<linearGradient id="paint100_linear_67_5438" x1="251.556" y1="67.4725" x2="252.638" y2="67.4725" gradientUnits="userSpaceOnUse">
<stop stop-color="#5F2C95"/>
<stop offset="1" stop-color="#6456C0"/>
</linearGradient>
<clipPath id="clip0_67_5438">
<rect width="305" height="156" fill="white"/>
</clipPath>
</defs>
</svg>
