<svg width="253" height="245" viewBox="0 0 253 245" fill="none" xmlns="http://www.w3.org/2000/svg">
<path opacity="0.4" d="M107.316 1.05177C73.0179 1.60392 19.9378 13.4837 4.66537 44.0069C-0.677383 54.6616 -0.312513 70.3374 0.408542 101.68C0.61704 110.894 0.973223 124.318 3.44913 140.977C8.58339 175.59 12.0844 199.151 25.3153 212.868C58.4751 247.24 178.266 246.247 229.417 184.364C257.321 150.605 261.613 102.577 236.098 62.892C208.003 19.1863 153.246 0.309826 107.316 1.05177Z" fill="url(#paint0_linear_67_5677)"/>
<path d="M223.163 228.036L14.3174 226.241V231.547C14.3174 232.988 15.2296 234.213 16.4632 234.428L75.5201 244.876C76.2238 244.997 76.9275 245.031 77.6399 244.971L220.895 233.065C222.172 232.962 223.163 231.728 223.163 230.253V228.036Z" fill="#BFC8D6"/>
<path d="M146.305 219.538L13.5614 229.243C11.1897 229.416 9.25244 227.57 9.25244 225.119V126.958C9.25244 124.508 11.181 122.524 13.5614 122.524H146.296C148.251 122.524 149.832 124.318 149.832 126.536V215.276C149.841 217.484 148.26 219.4 146.305 219.538Z" fill="#BFC8D6"/>
<path d="M148.416 219.538L15.681 229.243C13.3094 229.416 11.3721 227.57 11.3721 225.119V126.958C11.3721 124.508 13.3007 122.524 15.681 122.524H148.416C150.371 122.524 151.952 124.318 151.952 126.536V215.276C151.96 217.484 150.379 219.4 148.416 219.538Z" fill="white"/>
<path d="M144.289 213.283L20.6587 221.712C18.7301 221.841 17.1577 220.332 17.1577 218.33V132.385C17.1577 130.384 18.7301 128.753 20.6587 128.745L144.289 128.218C145.905 128.21 147.208 129.685 147.208 131.505V209.78C147.208 211.609 145.896 213.171 144.289 213.283Z" fill="#D8DEE8"/>
<path d="M86.7352 125.207C86.7352 126.121 86.0489 126.863 85.2062 126.863C84.3635 126.863 83.6772 126.13 83.6772 125.216C83.6772 124.301 84.3635 123.559 85.2062 123.559C86.0576 123.559 86.7352 124.292 86.7352 125.207Z" fill="white"/>
<path opacity="0.48" d="M15.6814 229.243L147.747 219.59L148.416 219.538C149.311 219.469 150.128 219.029 150.753 218.364C141.249 217.847 135.35 214.499 131.537 211.04C123.892 204.086 125.212 197.236 116.968 192.664C106.682 186.961 98.594 194.182 90.7927 187.065C86.0581 182.742 88.3863 179.524 82.5657 173.071C76.1197 165.919 71.915 168.326 65.4342 161.89C57.242 153.755 61.3337 147.422 54.2795 141.582C45.7138 134.499 36.4791 141.055 28.3303 134.257C24.8119 131.324 22.8833 127.062 21.8755 122.533H15.6727C13.3011 122.533 11.3638 124.517 11.3638 126.967V225.128C11.3725 227.57 13.3097 229.416 15.6814 229.243Z" fill="white"/>
<path d="M154.671 219.003L14.3174 229.217L75.5201 240.045C76.2238 240.165 76.9275 240.2 77.6399 240.14L223.171 228.044L156.921 219.072C156.165 218.968 155.418 218.942 154.671 219.003Z" fill="url(#paint1_linear_67_5677)"/>
<path d="M34.7935 229.303L151.648 220.667L187.813 225.525L71.9669 234.756L34.7935 229.303Z" fill="#D8DEE8"/>
<path d="M84.1115 111.23L89.4542 111.205C89.4542 111.205 95.214 94.459 110.886 94.3813L111.685 49.4678C78.5776 49.5799 49.3618 67.9474 36.0527 95.106L84.1115 111.23Z" fill="url(#paint2_linear_67_5677)"/>
<path d="M147.982 131.133C145.271 145.886 131.623 157.49 114.9 158.007C110.782 158.137 105.987 155.704 105.987 155.704C105.987 155.704 101.582 155.945 100.835 155.652L74.7383 195.45C86.8659 200.842 100.575 203.49 114.909 202.671C156.591 200.315 189.369 169.404 193.009 132.194L147.982 131.133Z" fill="url(#paint3_linear_67_5677)"/>
<path d="M66.5718 191.265L71.7929 191.446L92.912 151.347C85.0325 145.601 79.9677 136.663 79.9677 126.518C79.9677 124.067 80.2631 121.678 80.8278 119.383L37.8165 103.396L32.5866 103.457C29.9978 110.937 28.5991 118.9 28.5991 127.147C28.5904 154.444 43.8021 177.953 66.5718 191.265Z" fill="url(#paint4_linear_67_5677)"/>
<path d="M120.017 94.5797C135.246 96.8141 146.948 108.435 148.338 122.799L221.955 124.905C221.955 124.887 221.955 124.87 221.955 124.861C221.955 124.861 221.955 124.835 221.955 124.818C221.955 124.766 233.048 123.058 233.048 123.05C233.048 122.549 132.492 18.4268 132.492 18.4268L121.337 20.2299C121.337 20.2212 120.451 69.7935 120.017 94.5797Z" fill="url(#paint5_linear_67_5677)"/>
<path d="M89.3854 111.23C94.7195 102.042 104.632 95.5546 116.16 94.3813L116.959 49.4678C83.8515 49.5799 54.6358 67.9474 41.3267 95.106L89.3854 111.23Z" fill="url(#paint6_linear_67_5677)"/>
<path d="M153.246 131.133C150.536 145.886 136.888 157.49 120.165 158.007C115.178 158.163 110.417 157.308 106.091 155.652L79.9941 195.45C92.1218 200.842 105.83 203.49 120.165 202.671C161.847 200.315 194.624 169.404 198.264 132.194L153.246 131.133Z" fill="url(#paint7_linear_67_5677)"/>
<path d="M71.8369 191.265L98.1771 151.347C90.2977 145.601 85.2329 136.663 85.2329 126.518C85.2329 124.068 85.5283 121.678 86.093 119.383L37.8518 103.457C35.2629 110.937 33.8643 118.9 33.8643 127.148C33.8643 154.444 49.0759 177.954 71.8369 191.265Z" fill="url(#paint8_radial_67_5677)"/>
<path d="M131.111 92.6819C146.34 94.9163 158.042 106.537 159.432 120.902L233.049 123.007C233.049 122.972 233.049 122.946 233.049 122.912C233.049 69.7161 190.02 24.1899 132.431 18.332L131.111 92.6819Z" fill="url(#paint9_linear_67_5677)"/>
<g opacity="0.3">
<path opacity="0.3" d="M110.105 156.921C108.732 156.575 107.394 156.153 106.1 155.652L80.0029 195.45C92.1305 200.842 105.839 203.491 120.173 202.671C131.754 202.015 142.648 199.151 152.421 194.57C142.561 193.095 133.752 189.411 126.715 183.277C118.705 176.28 113.51 166.549 110.105 156.921Z" fill="url(#paint10_linear_67_5677)"/>
</g>
<g opacity="0.3">
<path opacity="0.3" d="M101.348 67.2918C98.2465 61.6582 93.816 57.3964 88.8468 54.1353C67.9188 61.2528 50.683 76.0054 41.3267 95.1148L89.3854 111.239C92.7214 105.493 97.8556 100.8 104.05 97.8065C105.301 85.8491 106.725 77.0665 101.348 67.2918Z" fill="url(#paint11_linear_67_5677)"/>
</g>
<path d="M132.542 180.222C133.943 180.252 135.094 179.124 135.094 177.723V170.254C135.094 168.909 134.03 167.805 132.686 167.756L128.902 167.617C127.486 167.565 126.311 168.699 126.311 170.116V177.643C126.311 179.003 127.398 180.114 128.758 180.143L132.542 180.222Z" fill="white" stroke="white" stroke-linejoin="round"/>
<path d="M143.244 180.447C144.645 180.476 145.797 179.348 145.797 177.947V165.101C145.797 163.762 144.741 162.66 143.402 162.604L139.618 162.444C138.198 162.384 137.013 163.52 137.013 164.942V177.867C137.013 179.228 138.101 180.338 139.461 180.367L143.244 180.447Z" fill="white" stroke="white" stroke-linejoin="round"/>
<path d="M153.624 180.669C155.026 180.7 156.179 179.572 156.179 178.17V160.771C156.179 159.44 155.135 158.342 153.806 158.274L150.343 158.098C148.915 158.026 147.716 159.164 147.716 160.595V178.094C147.716 179.453 148.802 180.563 150.161 180.593L153.624 180.669Z" fill="white" stroke="white" stroke-linejoin="round"/>
<path d="M155.699 185.476C156.675 185.49 157.473 184.703 157.473 183.727C157.473 182.774 156.709 181.996 155.756 181.979L126.519 181.455C125.512 181.437 124.686 182.248 124.686 183.255C124.686 184.239 125.476 185.041 126.46 185.055L155.699 185.476Z" fill="white" stroke="white" stroke-linejoin="round"/>
<path d="M101.599 79.3094L100.209 79.3871C100.044 78.093 99.6882 76.8593 99.1669 75.7119L100.366 74.9354C101.052 74.4868 101.287 73.5809 100.878 72.908L100.705 72.6147C100.296 71.9331 99.4102 71.752 98.7239 72.2092L97.5163 73.0029C96.7171 71.9935 95.7614 71.1049 94.6929 70.3716L95.3618 69.0689C95.7441 68.3269 95.4835 67.4211 94.7798 67.0501L94.467 66.8862C93.7633 66.5152 92.8772 66.8344 92.5037 67.585L91.8434 68.8963C90.6446 68.4563 89.3762 68.1889 88.047 68.1285L87.9775 66.6705C87.9428 65.8337 87.2652 65.2039 86.4746 65.2643L86.1271 65.2901C85.3366 65.3505 84.7284 66.0752 84.7806 66.9034L84.8587 68.3614C83.5643 68.6203 82.3481 69.0603 81.2361 69.6642L80.4716 68.4736C80.0372 67.792 79.1598 67.6109 78.5169 68.0681L78.2389 68.2665C77.6047 68.7238 77.4484 69.6383 77.8827 70.3112L78.6472 71.4931C77.709 72.3472 76.8924 73.3308 76.2321 74.4178L75.0246 73.8053C74.3383 73.4515 73.5303 73.7449 73.2176 74.4437L73.0786 74.7543C72.7659 75.4531 73.0699 76.2985 73.7475 76.6436L74.9464 77.2475C74.5728 78.4122 74.3643 79.6459 74.3296 80.9055L73.0352 80.9831C72.3054 81.0263 71.7755 81.6647 71.845 82.4066L71.8797 82.7345C71.9492 83.4764 72.6008 84.0372 73.3219 84.0027L74.6076 83.9337C74.8595 85.1501 75.2765 86.2889 75.8325 87.3414L74.79 88.0316C74.1993 88.4198 74.0603 89.2222 74.4773 89.8175L74.6597 90.0763C75.068 90.6716 75.876 90.8441 76.4667 90.4645L77.5092 89.7916C78.2911 90.6888 79.1945 91.4825 80.1936 92.1296L79.6463 93.2252C79.3335 93.8464 79.6029 94.597 80.2457 94.9248L80.5237 95.0628C81.1666 95.3821 81.9398 95.1491 82.2525 94.5366L82.8172 93.4495C83.9118 93.8464 85.0759 94.1052 86.2922 94.1915L86.3617 95.4166C86.3964 96.1067 87.0132 96.6416 87.7343 96.6158L88.047 96.6071C88.7681 96.5812 89.3241 96.0032 89.298 95.3044L89.2459 94.0707C90.4534 93.8809 91.6089 93.5272 92.6774 93.0354L93.3637 94.088C93.746 94.6832 94.5713 94.8558 95.1968 94.4848L95.4748 94.3209C96.1089 93.9413 96.3088 93.1476 95.9265 92.5437L95.2402 91.4739C96.2045 90.7233 97.0646 89.8347 97.7856 88.8426L98.9497 89.4379C99.61 89.7743 100.444 89.5155 100.826 88.8685L100.991 88.5838C101.374 87.9281 101.139 87.1171 100.47 86.7807L99.2972 86.1768C99.775 85.038 100.096 83.8215 100.235 82.5447L101.608 82.467C102.39 82.4239 103.024 81.7682 103.024 81.0004V80.6639C103.024 79.8616 102.39 79.2663 101.599 79.3094ZM87.6127 90.9821C82.5392 91.2065 78.1521 87.3501 77.7437 82.2255C77.3181 76.9283 81.2795 72.2178 86.657 71.8555C92.1127 71.4845 96.6823 75.7291 96.7866 81.1729C96.8908 86.4269 92.7556 90.7578 87.6127 90.9821Z" fill="white"/>
<path d="M174.895 56.939C175.512 56.9993 176.007 57.5515 176.007 58.1726V60.295C177.241 60.433 178.475 60.64 179.708 60.9334C180.62 61.1491 181.524 61.3992 182.427 61.6926C182.966 61.8651 183.331 62.4086 183.279 62.9694L183.018 65.6266C182.949 66.334 182.245 66.7482 181.585 66.4548C180.994 66.196 180.386 65.9717 179.76 65.7819C178.674 65.4541 177.528 65.247 176.329 65.1435L176.016 65.1176V71.1912C179.23 72.0884 181.593 73.2876 183.114 74.7974C184.634 76.2985 185.39 78.1793 185.39 80.4224C185.39 82.8553 184.556 84.805 182.87 86.2717C181.185 87.7469 178.813 88.5838 175.755 88.7563V91.0943C175.755 91.7155 175.26 92.1986 174.643 92.1727H174.626C174.009 92.1468 173.505 91.6206 173.505 90.9994V88.6873L173.01 88.6614C171.577 88.601 170.204 88.4544 168.884 88.2214C167.911 88.0575 166.964 87.8332 166.034 87.5744C165.47 87.4105 165.087 86.8842 165.139 86.3148L165.452 82.8984C165.522 82.1565 166.269 81.7251 166.972 82.0098C167.798 82.329 168.632 82.6051 169.474 82.8294C170.795 83.1745 172.124 83.3988 173.479 83.4937L173.497 76.7385C170.413 75.9793 168.102 74.8578 166.582 73.3653C165.053 71.8728 164.288 69.9575 164.288 67.6281C164.288 65.2211 165.122 63.3663 166.773 62.0635C168.415 60.7695 170.752 60.1224 173.775 60.1224V57.957C173.775 57.3358 174.279 56.8786 174.895 56.939ZM173.775 65.0486C172.819 65.1176 172.081 65.3764 171.542 65.825C171.012 66.2737 170.743 66.8862 170.743 67.6454C170.743 68.3701 170.986 68.974 171.481 69.4571C171.976 69.9402 172.741 70.3285 173.775 70.6132V65.0486ZM175.755 77.282V83.4764C176.789 83.4764 177.588 83.2349 178.144 82.7431C178.7 82.2513 178.978 81.5525 178.978 80.6553C178.978 79.8357 178.718 79.1542 178.205 78.6193C177.684 78.0758 176.876 77.6271 175.755 77.282Z" fill="white"/>
<path d="M174.843 98.7121C161.43 98.7121 150.519 87.8763 150.519 74.5558C150.519 61.2353 161.43 50.3994 174.843 50.3994C188.257 50.3994 199.168 61.2353 199.168 74.5558C199.168 87.8763 188.257 98.7121 174.843 98.7121ZM174.843 52.3319C162.507 52.3319 152.465 62.3051 152.465 74.5558C152.465 86.8065 162.507 96.7796 174.843 96.7796C187.179 96.7796 197.222 86.8065 197.222 74.5558C197.222 62.3051 187.179 52.3319 174.843 52.3319Z" fill="white"/>
<path d="M65.1036 161.139C55.7213 161.139 47.3813 153.616 47.3813 143.919C47.3813 133.67 56.5466 126.466 66.789 128.218C76.0411 129.805 82.2526 138.2 81.4446 146.697C80.6802 154.798 73.6521 161.139 65.1036 161.139ZM66.7108 129.65C57.3719 128.123 49.032 134.714 48.9885 144.049C48.9451 152.926 56.5292 159.88 65.1558 159.932C73.0787 159.983 79.6029 154.125 80.2892 146.594C81.0103 138.734 75.2245 131.039 66.7108 129.65Z" fill="white"/>
<path d="M70.0804 139.565C69.899 142.351 67.5092 144.413 64.662 144.201C61.7201 143.98 59.3461 141.43 59.4407 138.455C59.5433 135.433 62.1618 133.277 65.1904 133.686C68.1165 134.08 70.2697 136.724 70.0804 139.565Z" fill="white"/>
<path d="M64.7376 153.626C69.2997 153.655 72.4316 148.935 68.2277 147.163C67.3026 146.773 66.2839 146.526 65.1937 146.461C63.9514 146.386 62.7402 146.551 61.6071 146.911C56.9345 148.396 59.8348 153.595 64.7376 153.626Z" fill="white"/>
<path d="M25.0026 172.907C27.6783 174.184 30.3714 175.349 33.0645 176.401C29.4332 168.309 26.6792 159.983 24.8201 151.572C18.2438 159.276 12.2234 167.653 6.86328 176.651C9.70406 175.245 12.5362 173.83 15.3682 172.398C15.7505 188.307 23.5692 202.412 33.8203 212.135C44.1236 222.013 56.868 227.509 68.2919 229.735C91.9477 234.23 108.167 225.956 108.045 226.155C89.4805 228.976 73.1482 225.188 60.8381 219.356C48.4151 213.455 39.997 205.501 34.6543 198.306C24.0991 183.441 25.0981 172.786 25.0026 172.907Z" fill="url(#paint12_linear_67_5677)"/>
<path d="M230.147 62.633C227.462 61.3647 224.769 60.2087 222.076 59.1648C225.734 67.2485 228.505 75.5652 230.399 83.9682C236.949 76.2554 242.935 67.8525 248.277 58.837C245.437 60.2518 242.613 61.6753 239.79 63.1161C239.355 47.2074 231.502 33.1277 221.216 23.4306C210.878 13.5869 198.116 8.12587 186.684 5.93454C163.011 1.50875 146.817 9.83406 146.948 9.63564C165.504 6.76276 181.845 10.4984 194.181 16.2873C206.63 22.1538 215.065 30.0823 220.434 37.2602C231.016 52.1077 230.051 62.7624 230.147 62.633Z" fill="url(#paint13_radial_67_5677)"/>
<path d="M125.316 41.0305L38.1817 41.0132L36.7917 40.9787C34.4548 40.9183 32.5522 39.2791 32.5522 37.3208V3.33794C32.5522 1.37093 34.4548 -0.121591 36.7917 0.00781833L38.1122 0.0768365L123.24 5.77946C125.299 5.89162 127.228 6.2971 127.228 8.12608V36.2165L125.316 41.0305Z" fill="url(#paint14_linear_67_5677)"/>
<path opacity="0.67" d="M113.692 16.1751L47.7461 13.2591V9.21289L113.692 12.3187V16.1751Z" fill="url(#paint15_linear_67_5677)"/>
<path opacity="0.67" d="M113.692 23.8969L47.7461 21.3605V17.3057L113.692 20.0405V23.8969Z" fill="url(#paint16_linear_67_5677)"/>
<path opacity="0.67" d="M113.692 31.6184L47.7461 29.4529V25.4067L113.692 27.762V31.6184Z" fill="url(#paint17_linear_67_5677)"/>
<path d="M137.861 43.4116L38.7727 40.9787C36.4357 40.9183 34.5332 39.2791 34.5332 37.3208V3.33794C34.5332 1.37093 36.4357 -0.121591 38.7727 0.00781833L125.482 4.61478C127.541 4.72693 129.2 6.2971 129.2 8.13471V36.2251L137.861 43.4116Z" fill="url(#paint18_linear_67_5677)"/>
<path opacity="0.67" d="M115.674 16.1751L49.7275 13.2591V9.21289L115.674 12.3187V16.1751Z" fill="white"/>
<path opacity="0.67" d="M115.674 23.8969L49.7275 21.3605V17.3057L115.674 20.0405V23.8969Z" fill="white"/>
<path opacity="0.67" d="M115.674 31.6184L49.7275 29.4529V25.4067L115.674 27.762V31.6184Z" fill="white"/>
<defs>
<linearGradient id="paint0_linear_67_5677" x1="0" y1="118.301" x2="253" y2="118.301" gradientUnits="userSpaceOnUse">
<stop stop-color="#6A11CB"/>
<stop offset="1" stop-color="#2575FC"/>
</linearGradient>
<linearGradient id="paint1_linear_67_5677" x1="14.3133" y1="229.569" x2="223.16" y2="229.569" gradientUnits="userSpaceOnUse">
<stop offset="0.494" stop-color="#EBEFF2"/>
<stop offset="1" stop-color="white"/>
</linearGradient>
<linearGradient id="paint2_linear_67_5677" x1="70.553" y1="42.4676" x2="86.6242" y2="188.762" gradientUnits="userSpaceOnUse">
<stop stop-color="#311944"/>
<stop offset="1" stop-color="#893976"/>
</linearGradient>
<linearGradient id="paint3_linear_67_5677" x1="130.935" y1="157.942" x2="193.809" y2="285.821" gradientUnits="userSpaceOnUse">
<stop stop-color="#311944"/>
<stop offset="1" stop-color="#893976"/>
</linearGradient>
<linearGradient id="paint4_linear_67_5677" x1="30.1193" y1="104.274" x2="122.709" y2="224.148" gradientUnits="userSpaceOnUse">
<stop stop-color="#311944"/>
<stop offset="1" stop-color="#893976"/>
</linearGradient>
<linearGradient id="paint5_linear_67_5677" x1="120.008" y1="71.6331" x2="233.052" y2="71.6331" gradientUnits="userSpaceOnUse">
<stop stop-color="#7E0F01"/>
<stop offset="0.998" stop-color="#BA2244"/>
</linearGradient>
<linearGradient id="paint6_linear_67_5677" x1="79.0836" y1="111.053" x2="79.0836" y2="49.4195" gradientUnits="userSpaceOnUse">
<stop stop-color="#FFD328"/>
<stop offset="1" stop-color="#FFA700"/>
</linearGradient>
<linearGradient id="paint7_linear_67_5677" x1="121.96" y1="167.045" x2="233.234" y2="183.692" gradientUnits="userSpaceOnUse">
<stop offset="0.00359712" stop-color="#EF70E6"/>
<stop offset="1" stop-color="#5B25ED"/>
</linearGradient>
<radialGradient id="paint8_radial_67_5677" cx="0" cy="0" r="1" gradientUnits="userSpaceOnUse" gradientTransform="translate(64.8847 124.861) scale(25.4516 69.0333)">
<stop stop-color="#5B2AA4"/>
<stop offset="0.9944" stop-color="#481A72"/>
</radialGradient>
<linearGradient id="paint9_linear_67_5677" x1="131.103" y1="70.6374" x2="233.052" y2="70.6374" gradientUnits="userSpaceOnUse">
<stop stop-color="#C72A16"/>
<stop offset="0.998" stop-color="#BA2244"/>
</linearGradient>
<linearGradient id="paint10_linear_67_5677" x1="105.653" y1="173.839" x2="167.37" y2="299.363" gradientUnits="userSpaceOnUse">
<stop offset="0.00359712" stop-color="#E38DDD"/>
<stop offset="1" stop-color="#9571F6"/>
</linearGradient>
<linearGradient id="paint11_linear_67_5677" x1="73.2174" y1="111.075" x2="73.2174" y2="54.0906" gradientUnits="userSpaceOnUse">
<stop stop-color="#FFD328"/>
<stop offset="1" stop-color="#FFA700"/>
</linearGradient>
<linearGradient id="paint12_linear_67_5677" x1="6.85553" y1="191.299" x2="108.049" y2="191.299" gradientUnits="userSpaceOnUse">
<stop stop-color="#C72A16"/>
<stop offset="0.998" stop-color="#BA2244"/>
</linearGradient>
<radialGradient id="paint13_radial_67_5677" cx="0" cy="0" r="1" gradientUnits="userSpaceOnUse" gradientTransform="translate(195.822 23.9744) scale(40.1013 62.3693)">
<stop stop-color="#5B2AA4"/>
<stop offset="0.9944" stop-color="#481A72"/>
</radialGradient>
<linearGradient id="paint14_linear_67_5677" x1="69.9168" y1="60.7706" x2="74.2993" y2="42.4288" gradientUnits="userSpaceOnUse">
<stop stop-color="#311944"/>
<stop offset="1" stop-color="#893976"/>
</linearGradient>
<linearGradient id="paint15_linear_67_5677" x1="69.0653" y1="60.7954" x2="73.5329" y2="42.0972" gradientUnits="userSpaceOnUse">
<stop stop-color="#311944"/>
<stop offset="1" stop-color="#893976"/>
</linearGradient>
<linearGradient id="paint16_linear_67_5677" x1="70.8766" y1="61.2287" x2="75.3442" y2="42.5306" gradientUnits="userSpaceOnUse">
<stop stop-color="#311944"/>
<stop offset="1" stop-color="#893976"/>
</linearGradient>
<linearGradient id="paint17_linear_67_5677" x1="72.688" y1="61.6617" x2="77.1556" y2="42.9636" gradientUnits="userSpaceOnUse">
<stop stop-color="#311944"/>
<stop offset="1" stop-color="#893976"/>
</linearGradient>
<linearGradient id="paint18_linear_67_5677" x1="106.874" y1="52.277" x2="-43.024" y2="-127.394" gradientUnits="userSpaceOnUse">
<stop stop-color="#FAB82A"/>
<stop offset="0.9964" stop-color="#F74726"/>
</linearGradient>
</defs>
</svg>
