<svg width="24" height="25" viewBox="0 0 24 25" fill="none" xmlns="http://www.w3.org/2000/svg">
<path d="M7.07803 20.4843C7.07803 18.9332 5.81669 17.6719 4.26557 17.6719C2.71445 17.6719 1.45311 18.9332 1.45311 20.4843V21.8906C1.45311 22.6658 0.775208 23.3437 0 23.3437V24.7499H2.85934C5.18566 24.7499 7.07803 22.8107 7.07803 20.4843Z" fill="url(#paint0_linear_67_6542)"/>
<path d="M11.7685 6.6379C11.3933 6.73882 11.1703 7.1231 11.2714 7.49895C11.3683 7.86054 11.7394 8.09838 12.1325 7.99606C12.5103 7.89443 12.7296 7.50828 12.6296 7.13501C12.528 6.75781 12.1397 6.53782 11.7685 6.6379Z" fill="url(#paint1_linear_67_6542)"/>
<path d="M7.79077 11.9737C8.16389 12.0726 8.54996 11.8555 8.65182 11.4766C8.75335 11.0977 8.52736 10.7155 8.15536 10.6155H8.15466C7.95521 10.5617 7.9013 10.6022 7.76025 10.6482C7.76822 11.072 7.7738 11.5116 7.77675 11.9668C7.78191 11.9683 7.78552 11.9723 7.79077 11.9737Z" fill="url(#paint2_linear_67_6542)"/>
<path d="M15.541 18.0012C15.4393 17.6231 15.0512 17.4046 14.6799 17.5047C14.2982 17.6074 14.0836 17.9969 14.1828 18.3658C14.2831 18.74 14.6649 18.9611 15.0439 18.8629C15.4191 18.762 15.6421 18.3777 15.541 18.0019V18.0012Z" fill="url(#paint3_linear_67_6542)"/>
<path d="M17.8805 9.27032C18.1545 8.99568 18.1545 8.54934 17.8805 8.27535C17.6064 8.00123 17.1609 8.0001 16.8856 8.27535C16.6116 8.54934 16.6116 8.99634 16.8863 9.27032C17.1596 9.5436 17.6059 9.5436 17.8805 9.27032Z" fill="url(#paint4_linear_67_6542)"/>
<path d="M13.4472 2.16631C11.1374 2.24956 9.01716 3.16262 7.32715 4.32183C7.51657 5.61125 7.65039 7.21618 7.72164 9.20107C7.98489 9.16967 8.25414 9.18631 8.5178 9.25723C9.64457 9.55849 10.3125 10.7136 10.0099 11.8403C9.75477 12.7934 8.89383 13.4045 7.97603 13.4045C7.90848 13.4045 7.84117 13.3842 7.77363 13.3777C7.76514 14.5023 7.73964 15.615 7.69113 16.6776C8.41131 16.9768 8.97417 17.3754 9.34171 17.8917C10.086 18.9374 9.88761 20.1638 9.80933 20.5153C9.54857 21.6831 10.2371 22.8719 11.4167 23.0991C12.0835 23.2269 12.7537 23.29 13.419 23.29C19.2018 23.29 24.0467 18.5927 23.9996 12.6657C23.9503 6.65439 18.7483 1.96658 13.4472 2.16631ZM15.8909 7.28105C16.7149 6.45845 18.0524 6.45845 18.875 7.28105C19.6976 8.10365 19.6976 9.44191 18.875 10.2645V10.2652C18.0525 11.0863 16.7142 11.0864 15.8916 10.2652C15.0697 9.44186 15.0697 8.10365 15.8909 7.28105ZM9.91302 7.86192C9.61373 6.75034 10.2665 5.58364 11.4044 5.27947C12.5229 4.97943 13.6854 5.64682 13.9875 6.77082C14.2895 7.89529 13.6231 9.05225 12.4961 9.35393C11.372 9.65519 10.2151 8.99164 9.91302 7.86192ZM15.4075 20.2207C14.2836 20.5218 13.1258 19.8524 12.8244 18.7294C12.5224 17.6049 13.1887 16.4479 14.3157 16.1463C15.4475 15.8452 16.5982 16.5138 16.8988 17.6383C17.2017 18.7645 16.5321 19.92 15.4075 20.2207ZM20.8765 14.7517C20.5753 15.8784 19.4175 16.5453 18.2934 16.243C17.1696 15.9422 16.4988 14.7888 16.802 13.6599C17.1064 12.5228 18.2711 11.87 19.3852 12.1685C20.5092 12.4699 21.178 13.629 20.8765 14.7517Z" fill="url(#paint5_linear_67_6542)"/>
<path d="M19.0211 13.5271C18.6528 13.4278 18.2628 13.6424 18.1601 14.0242C18.0585 14.4031 18.2845 14.7853 18.6565 14.8853C19.0416 14.9847 19.4185 14.7591 19.5183 14.3882C19.6185 14.014 19.3953 13.6274 19.0211 13.5271Z" fill="url(#paint6_linear_67_6542)"/>
<path d="M6.36646 13.4534C6.36842 13.2182 6.37494 12.9866 6.37494 12.7503C6.37494 7.29776 6.00895 0.750488 4.26559 0.750488C2.52224 0.750488 2.15625 7.29776 2.15625 12.7503C2.15625 12.9866 2.16277 13.2182 2.16473 13.4534H6.36646Z" fill="url(#paint7_linear_67_6542)"/>
<path d="M4.26578 16.2661C4.99843 16.2661 5.67769 16.4706 6.27866 16.8004C6.30904 16.1693 6.33224 15.5194 6.34846 14.8599H2.18311C2.19932 15.5194 2.22248 16.1693 2.2529 16.8004C2.85388 16.4705 3.53313 16.2661 4.26578 16.2661Z" fill="url(#paint8_linear_67_6542)"/>
<defs>
<linearGradient id="paint0_linear_67_6542" x1="0" y1="21.2109" x2="7.07803" y2="21.2109" gradientUnits="userSpaceOnUse">
<stop stop-color="#6A11CB"/>
<stop offset="1" stop-color="#2575FC"/>
</linearGradient>
<linearGradient id="paint1_linear_67_6542" x1="11.2471" y1="7.31685" x2="12.6537" y2="7.31685" gradientUnits="userSpaceOnUse">
<stop stop-color="#6A11CB"/>
<stop offset="1" stop-color="#2575FC"/>
</linearGradient>
<linearGradient id="paint2_linear_67_6542" x1="7.76025" y1="11.2937" x2="8.67615" y2="11.2937" gradientUnits="userSpaceOnUse">
<stop stop-color="#6A11CB"/>
<stop offset="1" stop-color="#2575FC"/>
</linearGradient>
<linearGradient id="paint3_linear_67_6542" x1="14.1587" y1="18.1833" x2="15.5654" y2="18.1833" gradientUnits="userSpaceOnUse">
<stop stop-color="#6A11CB"/>
<stop offset="1" stop-color="#2575FC"/>
</linearGradient>
<linearGradient id="paint4_linear_67_6542" x1="16.6802" y1="8.77231" x2="18.086" y2="8.77231" gradientUnits="userSpaceOnUse">
<stop stop-color="#6A11CB"/>
<stop offset="1" stop-color="#2575FC"/>
</linearGradient>
<linearGradient id="paint5_linear_67_6542" x1="7.32715" y1="12.7251" x2="23.9999" y2="12.7251" gradientUnits="userSpaceOnUse">
<stop stop-color="#6A11CB"/>
<stop offset="1" stop-color="#2575FC"/>
</linearGradient>
<linearGradient id="paint6_linear_67_6542" x1="18.1357" y1="14.2059" x2="19.5422" y2="14.2059" gradientUnits="userSpaceOnUse">
<stop stop-color="#6A11CB"/>
<stop offset="1" stop-color="#2575FC"/>
</linearGradient>
<linearGradient id="paint7_linear_67_6542" x1="2.15625" y1="7.10196" x2="6.37494" y2="7.10196" gradientUnits="userSpaceOnUse">
<stop stop-color="#6A11CB"/>
<stop offset="1" stop-color="#2575FC"/>
</linearGradient>
<linearGradient id="paint8_linear_67_6542" x1="2.18311" y1="15.8301" x2="6.34846" y2="15.8301" gradientUnits="userSpaceOnUse">
<stop stop-color="#6A11CB"/>
<stop offset="1" stop-color="#2575FC"/>
</linearGradient>
</defs>
</svg>
