<svg width="90" height="90" viewBox="0 0 90 90" fill="none" xmlns="http://www.w3.org/2000/svg">
<g filter="url(#filter0_d_30_18673)">
<g clip-path="url(#clip0_30_18673)">
<g filter="url(#filter1_d_30_18673)">
<path d="M75 10H15V70H75V10Z" fill="url(#paint0_linear_30_18673)"/>
</g>
<g clip-path="url(#clip1_30_18673)">
<path d="M59.9646 27.2397C59.8996 26.048 58.9519 25.1004 57.7602 25.0353C55.3556 24.904 50.6503 25.0318 46.151 27.3589C43.8574 28.5453 41.4316 30.5568 39.4957 32.8776C39.4719 32.9062 39.4487 32.9349 39.425 32.9636L35.0316 33.303C34.3085 33.3589 33.6643 33.7379 33.2644 34.3428L30.2671 38.8763C29.9637 39.3351 29.9155 39.9093 30.138 40.4122C30.3605 40.9152 30.8178 41.2657 31.3613 41.3499L35.0627 41.9232C35.0496 41.9951 35.0365 42.067 35.0245 42.139C34.9013 42.8761 35.1455 43.6339 35.6779 44.1662L40.8336 49.3221C41.275 49.7635 41.8714 50.0068 42.4826 50.0068C42.6084 50.0068 42.735 49.9964 42.861 49.9754C42.9329 49.9634 43.0048 49.9503 43.0768 49.9372L43.6501 53.6387C43.7343 54.1821 44.0848 54.6395 44.5876 54.8619C44.7969 54.9545 45.0183 55.0002 45.2387 55.0002C45.5483 55.0002 45.8556 54.9101 46.1235 54.7329L50.6571 51.7356C51.262 51.3355 51.641 50.6914 51.6968 49.9683L52.0362 45.575C52.0648 45.5513 52.0937 45.5281 52.1222 45.5043C54.4431 43.5684 56.4546 41.1426 57.641 38.8489C59.9682 34.3495 60.0958 29.6441 59.9646 27.2397ZM49.6876 50.2692L45.351 53.1364L44.7923 49.529C46.6251 48.9902 48.4382 48.1271 50.1655 46.9708L49.9444 49.8328C49.9306 50.0114 49.837 50.1705 49.6876 50.2692ZM42.0766 48.0791L36.9207 42.9233C36.7892 42.7917 36.7284 42.6068 36.7582 42.4288C36.9115 41.5122 37.1497 40.6397 37.4445 39.8177L45.1805 47.5537C44.1933 47.9073 43.3091 48.1183 42.5711 48.2417C42.3928 48.2713 42.2081 48.2107 42.0766 48.0791ZM35.167 35.0556L38.029 34.8345C36.8727 36.5618 36.0096 38.3748 35.4707 40.2077L31.8635 39.649L34.7307 35.3123C34.8295 35.1629 34.9886 35.0693 35.167 35.0556ZM50.9964 44.1544C49.5765 45.3387 48.1982 46.1953 46.9278 46.8152L38.1844 38.0718C38.9964 36.4134 39.9874 35.0324 40.8455 34.0036C42.637 31.8558 44.8652 30.003 46.9587 28.9202C51.088 26.7843 55.4387 26.6693 57.6645 26.7904C57.9591 26.8065 58.1934 27.0408 58.2095 27.3355C58.3308 29.5613 58.2156 33.9119 56.0797 38.0413C54.9969 40.1348 53.1441 42.3628 50.9964 44.1544Z" fill="white"/>
<path d="M50.5499 38.8425C51.675 38.8424 52.8006 38.4141 53.6572 37.5575C54.4873 36.7275 54.9443 35.6239 54.9443 34.4502C54.9443 33.2764 54.4872 32.1729 53.6572 31.3429C51.9438 29.6295 49.1559 29.6296 47.4426 31.3429C46.6126 32.1729 46.1555 33.2764 46.1555 34.4502C46.1555 35.6239 46.6127 36.7275 47.4426 37.5575C48.2994 38.4142 49.4244 38.8426 50.5499 38.8425ZM48.6855 32.5858C49.1995 32.0718 49.8746 31.8148 50.5498 31.8148C51.225 31.8148 51.9002 32.0718 52.4142 32.5858C52.9122 33.0838 53.1864 33.7459 53.1864 34.4501C53.1864 35.1544 52.9122 35.8165 52.4142 36.3145C51.3862 37.3426 49.7134 37.3425 48.6854 36.3145C48.1874 35.8165 47.9132 35.1544 47.9132 34.4502C47.9132 33.746 48.1875 33.0838 48.6855 32.5858Z" fill="white"/>
<path d="M30.8967 49.7226C31.1216 49.7226 31.3466 49.6368 31.5181 49.4651L34.3877 46.5956C34.7309 46.2524 34.7309 45.6959 34.3877 45.3526C34.0445 45.0094 33.4879 45.0094 33.1447 45.3526L30.2753 48.2222C29.932 48.5654 29.932 49.1219 30.2753 49.4651C30.4468 49.6367 30.6718 49.7226 30.8967 49.7226Z" fill="white"/>
<path d="M37.0172 47.9825C36.674 47.6393 36.1175 47.6393 35.7743 47.9825L30.2574 53.4994C29.9142 53.8427 29.9142 54.3991 30.2574 54.7424C30.4291 54.914 30.6539 54.9998 30.8789 54.9998C31.1038 54.9998 31.3288 54.914 31.5003 54.7423L37.0172 49.2255C37.3605 48.8822 37.3605 48.3258 37.0172 47.9825Z" fill="white"/>
<path d="M38.404 50.6124L35.5345 53.4819C35.1913 53.8252 35.1913 54.3816 35.5345 54.7249C35.7062 54.8965 35.9311 54.9823 36.156 54.9823C36.3809 54.9823 36.6059 54.8966 36.7774 54.7249L39.6469 51.8554C39.9902 51.5121 39.9902 50.9557 39.6469 50.6124C39.3037 50.2692 38.7472 50.2692 38.404 50.6124Z" fill="white"/>
</g>
</g>
</g>
<defs>
<filter id="filter0_d_30_18673" x="0" y="0" width="90" height="90" filterUnits="userSpaceOnUse" color-interpolation-filters="sRGB">
<feFlood flood-opacity="0" result="BackgroundImageFix"/>
<feColorMatrix in="SourceAlpha" type="matrix" values="0 0 0 0 0 0 0 0 0 0 0 0 0 0 0 0 0 0 127 0" result="hardAlpha"/>
<feOffset dy="5"/>
<feGaussianBlur stdDeviation="7.5"/>
<feColorMatrix type="matrix" values="0 0 0 0 0 0 0 0 0 0.272868 0 0 0 0 0.733333 0 0 0 0.4 0"/>
<feBlend mode="normal" in2="BackgroundImageFix" result="effect1_dropShadow_30_18673"/>
<feBlend mode="normal" in="SourceGraphic" in2="effect1_dropShadow_30_18673" result="shape"/>
</filter>
<filter id="filter1_d_30_18673" x="-1" y="-6" width="100" height="100" filterUnits="userSpaceOnUse" color-interpolation-filters="sRGB">
<feFlood flood-opacity="0" result="BackgroundImageFix"/>
<feColorMatrix in="SourceAlpha" type="matrix" values="0 0 0 0 0 0 0 0 0 0 0 0 0 0 0 0 0 0 127 0" result="hardAlpha"/>
<feOffset dx="4" dy="4"/>
<feGaussianBlur stdDeviation="10"/>
<feColorMatrix type="matrix" values="0 0 0 0 0 0 0 0 0 0 0 0 0 0 0 0 0 0 0.08 0"/>
<feBlend mode="normal" in2="BackgroundImageFix" result="effect1_dropShadow_30_18673"/>
<feBlend mode="normal" in="SourceGraphic" in2="effect1_dropShadow_30_18673" result="shape"/>
</filter>
<linearGradient id="paint0_linear_30_18673" x1="15" y1="40" x2="75" y2="40" gradientUnits="userSpaceOnUse">
<stop stop-color="#6A11CB"/>
<stop offset="1" stop-color="#2575FC"/>
</linearGradient>
<clipPath id="clip0_30_18673">
<rect x="15" y="10" width="60" height="60" rx="10" fill="white"/>
</clipPath>
<clipPath id="clip1_30_18673">
<rect width="30" height="30" fill="white" transform="translate(30 25)"/>
</clipPath>
</defs>
</svg>
