<svg width="90" height="90" viewBox="0 0 90 90" fill="none" xmlns="http://www.w3.org/2000/svg">
<g filter="url(#filter0_d_30_18774)">
<g clip-path="url(#clip0_30_18774)">
<g filter="url(#filter1_d_30_18774)">
<path d="M75 10H15V70H75V10Z" fill="url(#paint0_linear_30_18774)"/>
</g>
<path d="M56.4844 32.0898V28.5156H52.9102C52.9102 26.5771 51.333 25 49.3945 25C47.456 25 45.8789 26.5771 45.8789 28.5156H43.2422C35.9543 28.5156 30 34.4706 30 41.7578C30 49.0457 35.955 55 43.2422 55C50.5301 55 56.4844 49.045 56.4844 41.7578V39.1211C58.4229 39.1211 60 37.544 60 35.6055C60 33.667 58.4229 32.0898 56.4844 32.0898ZM42.3633 30.3068V34.3676C43.423 34.0137 43.6362 33.8477 44.1211 33.8477C45.0904 33.8477 45.8789 34.6362 45.8789 35.6055C45.8789 36.5747 45.0904 37.3633 44.1211 37.3633C43.6355 37.3633 43.4199 37.1962 42.3633 36.8434V40.8789H40.6055C40.6055 38.9404 39.0284 37.3633 37.0898 37.3633C35.1513 37.3633 33.5742 38.9404 33.5742 40.8789H31.7912C32.2195 35.2456 36.73 30.7351 42.3633 30.3068ZM31.7912 42.6367H35.8521C35.4977 41.576 35.332 41.3638 35.332 40.8789C35.332 39.9096 36.1206 39.1211 37.0898 39.1211C38.0591 39.1211 38.8477 39.9096 38.8477 40.8789C38.8477 41.3638 38.6817 41.5766 38.3276 42.6367H42.3633V44.3945C40.4248 44.3945 38.8477 45.9716 38.8477 47.9102C38.8477 49.8487 40.4248 51.4258 42.3633 51.4258V53.2088C36.73 52.7805 32.2195 48.27 31.7912 42.6367ZM44.1211 53.2088V49.1481C43.0614 49.5019 42.8481 49.668 42.3633 49.668C41.394 49.668 40.6055 48.8794 40.6055 47.9102C40.6055 46.9409 41.394 46.1523 42.3633 46.1523C42.8488 46.1523 43.0645 46.3194 44.1211 46.6722V42.6367H45.8789C45.8789 44.5752 47.456 46.1523 49.3945 46.1523C51.333 46.1523 52.9102 44.5746 52.9102 42.6361L54.6932 42.6367C54.2649 48.27 49.7544 52.7805 44.1211 53.2088ZM56.4844 37.3633C56.0858 37.3633 55.7838 37.182 54.7266 36.8192V40.8789H50.6323C50.9866 41.9396 51.1523 42.1519 51.1523 42.6367C51.1523 43.606 50.3638 44.3945 49.3945 44.3945C48.4253 44.3945 47.6367 43.606 47.6367 42.6367C47.6367 42.1519 47.8027 41.939 48.1567 40.8789H44.1211V39.1211C46.0596 39.1211 47.6367 37.544 47.6367 35.6055C47.6367 33.667 46.0596 32.0898 44.1211 32.0898V30.2734H48.1808C47.8221 29.228 47.6367 28.9139 47.6367 28.5156C47.6367 27.5464 48.4253 26.7578 49.3945 26.7578C50.3638 26.7578 51.1523 27.5464 51.1523 28.5156C51.1523 28.9143 50.9708 29.2168 50.6083 30.2734H54.7266V34.3917C55.772 34.033 56.0861 33.8477 56.4844 33.8477C57.4536 33.8477 58.2422 34.6362 58.2422 35.6055C58.2422 36.5747 57.4536 37.3633 56.4844 37.3633Z" fill="white"/>
</g>
</g>
<defs>
<filter id="filter0_d_30_18774" x="0" y="0" width="90" height="90" filterUnits="userSpaceOnUse" color-interpolation-filters="sRGB">
<feFlood flood-opacity="0" result="BackgroundImageFix"/>
<feColorMatrix in="SourceAlpha" type="matrix" values="0 0 0 0 0 0 0 0 0 0 0 0 0 0 0 0 0 0 127 0" result="hardAlpha"/>
<feOffset dy="5"/>
<feGaussianBlur stdDeviation="7.5"/>
<feColorMatrix type="matrix" values="0 0 0 0 0 0 0 0 0 0.272868 0 0 0 0 0.733333 0 0 0 0.4 0"/>
<feBlend mode="normal" in2="BackgroundImageFix" result="effect1_dropShadow_30_18774"/>
<feBlend mode="normal" in="SourceGraphic" in2="effect1_dropShadow_30_18774" result="shape"/>
</filter>
<filter id="filter1_d_30_18774" x="-1" y="-6" width="100" height="100" filterUnits="userSpaceOnUse" color-interpolation-filters="sRGB">
<feFlood flood-opacity="0" result="BackgroundImageFix"/>
<feColorMatrix in="SourceAlpha" type="matrix" values="0 0 0 0 0 0 0 0 0 0 0 0 0 0 0 0 0 0 127 0" result="hardAlpha"/>
<feOffset dx="4" dy="4"/>
<feGaussianBlur stdDeviation="10"/>
<feColorMatrix type="matrix" values="0 0 0 0 0 0 0 0 0 0 0 0 0 0 0 0 0 0 0.08 0"/>
<feBlend mode="normal" in2="BackgroundImageFix" result="effect1_dropShadow_30_18774"/>
<feBlend mode="normal" in="SourceGraphic" in2="effect1_dropShadow_30_18774" result="shape"/>
</filter>
<linearGradient id="paint0_linear_30_18774" x1="15" y1="40" x2="75" y2="40" gradientUnits="userSpaceOnUse">
<stop stop-color="#6A11CB"/>
<stop offset="1" stop-color="#2575FC"/>
</linearGradient>
<clipPath id="clip0_30_18774">
<rect x="15" y="10" width="60" height="60" rx="10" fill="white"/>
</clipPath>
</defs>
</svg>
