<svg width="90" height="90" viewBox="0 0 90 90" fill="none" xmlns="http://www.w3.org/2000/svg">
<g filter="url(#filter0_d_30_18790)">
<path d="M75 10H15V70H75V10Z" fill="url(#paint0_linear_30_18790)"/>
<path d="M57.0625 48.9211C58.9694 46.3541 60 43.2563 60 40C60 35.9934 58.4398 32.2265 55.6066 29.3934C52.7735 26.5603 49.0066 25 45 25V26.7578C48.5371 26.7578 51.8626 28.1352 54.3636 30.6364C56.8648 33.1375 58.2422 36.4629 58.2422 40C58.2422 42.8572 57.3429 45.576 55.6792 47.834L55.4777 45.5307L53.7265 45.6839L54.1862 50.9372L59.4396 50.4776L59.2864 48.7265L57.0625 48.9211Z" fill="white"/>
<path d="M31.7578 40.0002C31.7578 37.143 32.6571 34.4243 34.3208 32.1662L34.5223 34.4695L36.2735 34.3163L35.8138 29.063L30.5604 29.5225L30.7136 31.2737L32.9374 31.0791C31.0306 33.6461 30 36.7439 30 40.0002C30 44.0069 31.5602 47.7737 34.3934 50.6069C37.2265 53.4399 40.9934 55.0002 45 55.0002V53.2424C41.4629 53.2424 38.1374 51.865 35.6364 49.3638C33.1352 46.8627 31.7578 43.5373 31.7578 40.0002V40.0002Z" fill="white"/>
<path d="M45 42.6953C46.4886 42.6953 47.6953 41.4886 47.6953 40C47.6953 38.5114 46.4886 37.3047 45 37.3047C43.5114 37.3047 42.3047 38.5114 42.3047 40C42.3047 41.4886 43.5114 42.6953 45 42.6953Z" fill="white"/>
<path d="M53.1432 36.4301L51.4186 36.9904C51.0334 36.1724 50.4965 35.4395 49.8442 34.8281L50.9118 33.3587L49.4896 32.3254L48.4234 33.7931C47.6514 33.3657 46.792 33.078 45.8791 32.9646V31.1523H44.1213V32.9646C43.2084 33.078 42.3489 33.3657 41.577 33.7931L40.5107 32.3254L39.0886 33.3587L40.1562 34.8281C39.5039 35.4395 38.9669 36.1724 38.5818 36.9904L36.8572 36.4301L36.314 38.1018L38.0376 38.6618C37.9544 39.0954 37.9104 39.5426 37.9104 40C37.9104 40.4574 37.9544 40.9046 38.0376 41.3382L36.314 41.8982L36.8572 43.5699L38.5818 43.0096C38.967 43.8276 39.5039 44.5605 40.1562 45.1719L39.0886 46.6413L40.5107 47.6746L41.577 46.2069C42.3489 46.6343 43.2084 46.922 44.1213 47.0354V48.8477H45.8791V47.0354C46.792 46.922 47.6514 46.6343 48.4234 46.2069L49.4896 47.6746L50.9118 46.6413L49.8442 45.1719C50.4965 44.5605 51.0335 43.8276 51.4186 43.0096L53.1432 43.5699L53.6864 41.8982L51.9628 41.3382C52.046 40.9046 52.09 40.4574 52.09 40C52.09 39.5426 52.046 39.0954 51.9628 38.6618L53.6864 38.1018L53.1432 36.4301ZM49.4533 40C49.4533 42.4554 47.4557 44.4531 45.0002 44.4531C42.5447 44.4531 40.5471 42.4554 40.5471 40C40.5471 37.5446 42.5447 35.5469 45.0002 35.5469C47.4557 35.5469 49.4533 37.5446 49.4533 40Z" fill="white"/>
</g>
<defs>
<filter id="filter0_d_30_18790" x="0" y="0" width="90" height="90" filterUnits="userSpaceOnUse" color-interpolation-filters="sRGB">
<feFlood flood-opacity="0" result="BackgroundImageFix"/>
<feColorMatrix in="SourceAlpha" type="matrix" values="0 0 0 0 0 0 0 0 0 0 0 0 0 0 0 0 0 0 127 0" result="hardAlpha"/>
<feOffset dy="5"/>
<feGaussianBlur stdDeviation="7.5"/>
<feColorMatrix type="matrix" values="0 0 0 0 0 0 0 0 0 0.272868 0 0 0 0 0.733333 0 0 0 0.4 0"/>
<feBlend mode="normal" in2="BackgroundImageFix" result="effect1_dropShadow_30_18790"/>
<feBlend mode="normal" in="SourceGraphic" in2="effect1_dropShadow_30_18790" result="shape"/>
</filter>
<linearGradient id="paint0_linear_30_18790" x1="15" y1="40" x2="75" y2="40" gradientUnits="userSpaceOnUse">
<stop stop-color="#6A11CB"/>
<stop offset="1" stop-color="#2575FC"/>
</linearGradient>
</defs>
</svg>
