<svg width="90" height="90" viewBox="0 0 90 90" fill="none" xmlns="http://www.w3.org/2000/svg">
<g filter="url(#filter0_d_30_18688)">
<g clip-path="url(#clip0_30_18688)">
<g filter="url(#filter1_d_30_18688)">
<path d="M75 10H15V70H75V10Z" fill="url(#paint0_linear_30_18688)"/>
</g>
<g clip-path="url(#clip1_30_18688)">
<path d="M47.0789 55H42.9214C41.9064 55 41.0426 54.3062 40.8201 53.3137L40.2926 50.9725C39.4339 50.6087 38.6164 50.1337 37.8501 49.555L35.5726 50.2738C34.5951 50.575 33.5326 50.1612 33.0426 49.2887L30.9701 45.7038C30.4739 44.8162 30.6414 43.7225 31.3726 43.035L33.1376 41.4125C33.0839 40.9375 33.0564 40.4637 33.0564 40C33.0564 39.5363 33.0826 39.0625 33.1364 38.5875L31.3801 36.9725C30.6414 36.2775 30.4726 35.185 30.9639 34.3088L33.0489 30.7025C33.5339 29.84 34.5951 29.4225 35.5701 29.7262L37.8501 30.445C38.6164 29.8663 39.4351 29.3912 40.2926 29.0275L40.8201 26.685C41.0426 25.6938 41.9064 25 42.9214 25H47.0789C48.0939 25 48.9576 25.6937 49.1801 26.6862L49.7076 29.0275C50.5664 29.3912 51.3839 29.8663 52.1501 30.445L54.4276 29.7262C55.4026 29.4212 56.4664 29.8387 56.9576 30.7112L59.0301 34.2962C59.5264 35.1838 59.3589 36.2775 58.6276 36.965L56.8626 38.5875C56.9164 39.0625 56.9426 39.5363 56.9426 40C56.9426 40.4637 56.9164 40.9375 56.8626 41.4125L58.6201 43.0275C58.6226 43.03 58.6251 43.0325 58.6276 43.035C59.3589 43.7225 59.5276 44.815 59.0364 45.6912L56.9514 49.2975C56.4651 50.16 55.4039 50.5775 54.4301 50.2738L52.1489 49.5537C51.3826 50.1325 50.5639 50.6075 49.7064 50.9713L49.1789 53.3137C48.9576 54.3062 48.0939 55 47.0789 55ZM38.0426 47.5737C38.2576 47.5737 38.4689 47.6475 38.6401 47.7875C39.4964 48.4937 40.4339 49.0375 41.4251 49.4038C41.7226 49.5138 41.9451 49.7675 42.0151 50.0775L42.6514 52.9025C42.6801 53.0312 42.7951 53.125 42.9239 53.125H47.0814C47.2101 53.125 47.3239 53.0312 47.3539 52.9037L47.9901 50.0788C48.0601 49.7687 48.2814 49.515 48.5801 49.405C49.5714 49.0387 50.5089 48.4938 51.3651 47.7888C51.6101 47.5863 51.9389 47.5212 52.2439 47.6175L54.9951 48.4862C55.1251 48.5262 55.2651 48.4812 55.3264 48.37L57.4114 44.765C57.4739 44.6537 57.4514 44.5012 57.3501 44.4037L55.2401 42.4637C55.0101 42.2525 54.9014 41.9425 54.9489 41.6338C55.0314 41.0837 55.0739 40.5337 55.0739 40C55.0739 39.4663 55.0326 38.9175 54.9489 38.3663C54.9026 38.0575 55.0114 37.7475 55.2401 37.5363L57.3551 35.5912C57.4501 35.5012 57.4751 35.3475 57.4051 35.2238L55.3326 31.64C55.2651 31.5212 55.1301 31.475 54.9926 31.515L52.2451 32.3825C51.9401 32.4788 51.6114 32.4138 51.3664 32.2113C50.5101 31.505 49.5726 30.9612 48.5814 30.595C48.2839 30.485 48.0614 30.2312 47.9914 29.9212L47.3551 27.0963C47.3214 26.9688 47.2076 26.875 47.0789 26.875H42.9214C42.7926 26.875 42.6789 26.9688 42.6489 27.0963L42.0126 29.9225C41.9439 30.2325 41.7214 30.485 41.4239 30.5963C40.4326 30.9625 39.4951 31.5062 38.6389 32.2125C38.3939 32.415 38.0651 32.4788 37.7601 32.3837L35.0089 31.515C34.8789 31.475 34.7389 31.5212 34.6776 31.6312L32.5926 35.235C32.5289 35.3475 32.5539 35.5013 32.6564 35.5988L34.7651 37.5363C34.9951 37.7475 35.1039 38.0575 35.0564 38.3663C34.9739 38.9163 34.9314 39.4663 34.9314 40C34.9314 40.5337 34.9726 41.0825 35.0564 41.6338C35.1026 41.9425 34.9939 42.2525 34.7651 42.4637L32.6501 44.4088C32.5551 44.4988 32.5301 44.6525 32.6001 44.7763L34.6726 48.36C34.7414 48.48 34.8776 48.5287 35.0126 48.485L37.7601 47.6175C37.8526 47.5875 37.9476 47.5737 38.0426 47.5737Z" fill="white"/>
<path d="M44.0639 45C43.9926 45 43.9226 44.9925 43.8514 44.9763C43.3476 44.86 43.0326 44.3563 43.1489 43.8525L45.0239 35.7275C45.1401 35.2213 45.6501 34.91 46.1476 35.0238C46.6514 35.14 46.9664 35.6438 46.8501 36.1475L44.9751 44.2725C44.8751 44.7075 44.4901 45 44.0639 45Z" fill="white"/>
<path d="M49.0625 43.75C48.8063 43.75 48.5513 43.6462 48.365 43.44C48.0188 43.055 48.05 42.4625 48.435 42.115L50.7863 40L48.435 37.885C48.05 37.5387 48.0188 36.9462 48.365 36.56C48.7125 36.1762 49.305 36.145 49.69 36.49L52.815 39.3025C53.0125 39.4812 53.125 39.735 53.125 40C53.125 40.265 53.0125 40.5187 52.815 40.6975L49.69 43.51C49.51 43.6712 49.2863 43.75 49.0625 43.75Z" fill="white"/>
<path d="M40.9375 43.7502C40.7137 43.7502 40.49 43.6714 40.31 43.5102L37.185 40.6977C36.9875 40.5189 36.875 40.2652 36.875 40.0002C36.875 39.7352 36.9875 39.4814 37.185 39.3027L40.31 36.4902C40.695 36.1439 41.2862 36.1752 41.635 36.5602C41.9812 36.9452 41.95 37.5377 41.565 37.8852L39.2137 40.0002L41.565 42.1152C41.95 42.4614 41.9812 43.0539 41.635 43.4402C41.4487 43.6464 41.1937 43.7502 40.9375 43.7502Z" fill="white"/>
</g>
</g>
</g>
<defs>
<filter id="filter0_d_30_18688" x="0" y="0" width="90" height="90" filterUnits="userSpaceOnUse" color-interpolation-filters="sRGB">
<feFlood flood-opacity="0" result="BackgroundImageFix"/>
<feColorMatrix in="SourceAlpha" type="matrix" values="0 0 0 0 0 0 0 0 0 0 0 0 0 0 0 0 0 0 127 0" result="hardAlpha"/>
<feOffset dy="5"/>
<feGaussianBlur stdDeviation="7.5"/>
<feColorMatrix type="matrix" values="0 0 0 0 0 0 0 0 0 0.272868 0 0 0 0 0.733333 0 0 0 0.4 0"/>
<feBlend mode="normal" in2="BackgroundImageFix" result="effect1_dropShadow_30_18688"/>
<feBlend mode="normal" in="SourceGraphic" in2="effect1_dropShadow_30_18688" result="shape"/>
</filter>
<filter id="filter1_d_30_18688" x="-1" y="-6" width="100" height="100" filterUnits="userSpaceOnUse" color-interpolation-filters="sRGB">
<feFlood flood-opacity="0" result="BackgroundImageFix"/>
<feColorMatrix in="SourceAlpha" type="matrix" values="0 0 0 0 0 0 0 0 0 0 0 0 0 0 0 0 0 0 127 0" result="hardAlpha"/>
<feOffset dx="4" dy="4"/>
<feGaussianBlur stdDeviation="10"/>
<feColorMatrix type="matrix" values="0 0 0 0 0 0 0 0 0 0 0 0 0 0 0 0 0 0 0.08 0"/>
<feBlend mode="normal" in2="BackgroundImageFix" result="effect1_dropShadow_30_18688"/>
<feBlend mode="normal" in="SourceGraphic" in2="effect1_dropShadow_30_18688" result="shape"/>
</filter>
<linearGradient id="paint0_linear_30_18688" x1="15" y1="40" x2="75" y2="40" gradientUnits="userSpaceOnUse">
<stop stop-color="#6A11CB"/>
<stop offset="1" stop-color="#2575FC"/>
</linearGradient>
<clipPath id="clip0_30_18688">
<rect x="15" y="10" width="60" height="60" rx="10" fill="white"/>
</clipPath>
<clipPath id="clip1_30_18688">
<rect width="30" height="30" fill="white" transform="translate(30 25)"/>
</clipPath>
</defs>
</svg>
