<svg width="24" height="25" viewBox="0 0 24 25" fill="none" xmlns="http://www.w3.org/2000/svg">
<g clip-path="url(#clip0_67_6748)">
<path d="M14.8125 2.15625H13.9892C13.6988 1.33777 12.9167 0.75 12 0.75C11.0833 0.75 10.3013 1.33777 10.0108 2.15625H9.1875C8.02434 2.15625 7.07812 3.10247 7.07812 4.26562C7.07812 4.65427 7.39261 4.96875 7.78125 4.96875H16.2188C16.6074 4.96875 16.9219 4.65427 16.9219 4.26562C16.9219 3.10247 15.9757 2.15625 14.8125 2.15625Z" fill="url(#paint0_linear_67_6748)"/>
<path d="M19.0312 3.5625H18.257C18.3033 3.7898 18.3281 4.02487 18.3281 4.26562C18.3281 5.42878 17.3819 6.375 16.2188 6.375H7.78125C6.61809 6.375 5.67188 5.42878 5.67188 4.26562C5.67188 4.02487 5.69667 3.7898 5.74303 3.5625H4.96875C3.80559 3.5625 2.85938 4.50872 2.85938 5.67188V22.6406C2.85938 23.8038 3.80559 24.75 4.96875 24.75H19.0312C20.1944 24.75 21.1406 23.8038 21.1406 22.6406V5.67188C21.1406 4.50872 20.1944 3.5625 19.0312 3.5625ZM9.89062 20.4375H7.07812C6.68948 20.4375 6.375 20.123 6.375 19.7344C6.375 19.3457 6.68948 19.0312 7.07812 19.0312H9.89062C10.2793 19.0312 10.5938 19.3457 10.5938 19.7344C10.5938 20.123 10.2793 20.4375 9.89062 20.4375ZM9.89062 15.5156H7.07812C6.68948 15.5156 6.375 15.2011 6.375 14.8125C6.375 14.4239 6.68948 14.1094 7.07812 14.1094H9.89062C10.2793 14.1094 10.5938 14.4239 10.5938 14.8125C10.5938 15.2011 10.2793 15.5156 9.89062 15.5156ZM9.89062 10.5938H7.07812C6.68948 10.5938 6.375 10.2793 6.375 9.89062C6.375 9.50198 6.68948 9.1875 7.07812 9.1875H9.89062C10.2793 9.1875 10.5938 9.50198 10.5938 9.89062C10.5938 10.2793 10.2793 10.5938 9.89062 10.5938ZM16.7159 20.6435C16.9905 20.9182 16.9905 21.3631 16.7159 21.6378C16.5785 21.7751 16.3986 21.8438 16.2188 21.8438C16.0389 21.8438 15.8589 21.7751 15.7216 21.6378L14.8125 20.7286L13.9034 21.6378C13.766 21.7751 13.5861 21.8438 13.4062 21.8438C13.2264 21.8438 13.0464 21.7751 12.9091 21.6378C12.6345 21.3631 12.6345 20.9182 12.9091 20.6435L13.8182 19.7344L12.9091 18.8252C12.6345 18.5506 12.6345 18.1056 12.9091 17.831C13.1837 17.5563 13.6287 17.5563 13.9034 17.831L14.8125 18.7401L15.7216 17.831C15.9963 17.5563 16.4413 17.5563 16.7159 17.831C16.9905 18.1056 16.9905 18.5506 16.7159 18.8252L15.8068 19.7344L16.7159 20.6435ZM17.419 13.9034L15.3096 16.0127C15.1723 16.1501 14.9924 16.2188 14.8125 16.2188C14.6326 16.2188 14.4527 16.1501 14.3154 16.0127L12.9091 14.6065C12.6345 14.3318 12.6345 13.8869 12.9091 13.6122C13.1838 13.3376 13.6288 13.3376 13.9034 13.6122L14.8125 14.5214L16.4248 12.9091C16.6994 12.6345 17.1444 12.6345 17.419 12.9091C17.6937 13.1837 17.6937 13.6287 17.419 13.9034ZM17.419 9.68461L15.3096 11.794C15.1723 11.9313 14.9924 12 14.8125 12C14.6326 12 14.4527 11.9313 14.3154 11.794L12.9091 10.3877C12.6345 10.1131 12.6345 9.66811 12.9091 9.39347C13.1838 9.11883 13.6288 9.11883 13.9034 9.39347L14.8125 10.3026L16.4248 8.69034C16.6994 8.4157 17.1444 8.4157 17.419 8.69034C17.6937 8.96498 17.6937 9.40997 17.419 9.68461Z" fill="url(#paint1_linear_67_6748)"/>
</g>
<defs>
<linearGradient id="paint0_linear_67_6748" x1="7.07812" y1="2.85938" x2="16.9219" y2="2.85938" gradientUnits="userSpaceOnUse">
<stop stop-color="#6A11CB"/>
<stop offset="1" stop-color="#2575FC"/>
</linearGradient>
<linearGradient id="paint1_linear_67_6748" x1="2.85938" y1="14.1562" x2="21.1406" y2="14.1562" gradientUnits="userSpaceOnUse">
<stop stop-color="#6A11CB"/>
<stop offset="1" stop-color="#2575FC"/>
</linearGradient>
<clipPath id="clip0_67_6748">
<rect width="24" height="24" fill="white" transform="translate(0 0.75)"/>
</clipPath>
</defs>
</svg>
