<svg width="90" height="90" viewBox="0 0 90 90" fill="none" xmlns="http://www.w3.org/2000/svg">
<g filter="url(#filter0_d_30_18759)">
<g clip-path="url(#clip0_30_18759)">
<g filter="url(#filter1_d_30_18759)">
<path d="M75 10H15V70H75V10Z" fill="url(#paint0_linear_30_18759)"/>
</g>
<path d="M53.1046 27.9902L53.1048 27.9904C53.2713 28.1615 53.3826 28.3168 53.3826 28.4888C53.3826 28.6612 53.2708 28.814 53.1044 28.9803C52.8366 29.2576 52.5679 29.5334 52.2995 29.8091C51.7629 30.3601 51.227 30.9105 50.6993 31.47C50.6102 31.5665 50.5009 31.6421 50.3792 31.6915C50.2582 31.7406 50.1278 31.7626 49.9974 31.7558H49.9899H49.9798H49.9698H49.9597H49.9496H49.9395H49.9294H49.9193H49.9092H49.8991H49.889H49.879H49.8689H49.8588H49.8487H49.8386H49.8285H49.8184H49.8083H49.7982H49.7881H49.7781H49.768H49.7579H49.7478H49.7377H49.7276H49.7175H49.7074H49.6973H49.6872H49.6772H49.6671H49.657H49.6469H49.6368H49.6267H49.6166H49.6065H49.5964H49.5863H49.5763H49.5662H49.5561H49.546H49.5359H49.5258H49.5157H49.5056H49.4955H49.4854H49.4754H49.4653H49.4552H49.4451H49.435H49.4249H49.4148H49.4047H49.3946H49.3845H49.3745H49.3644H49.3543H49.3442H49.3341H49.324H49.3139H49.3038H49.2937H49.2836H49.2736H49.2635H49.2534H49.2433H49.2332H49.2231H49.213H49.2029H49.1928H49.1828H49.1727H49.1626H49.1525H49.1424H49.1323H49.1222H49.1121H49.102H49.0919H49.0819H49.0718H49.0617H49.0516H49.0415H49.0314H49.0213H49.0112H49.0011H48.991H48.981H48.9709H48.9608H48.9507H48.9406H48.9305H48.9204H48.9103H48.9002H48.8901H48.8801H48.87H48.8599H48.8498H48.8397H48.8296H48.8195H48.8094H48.7993H48.7892H48.7792H48.7691H48.759H48.7489H48.7388H48.7287H48.7186H48.7085H48.6984H48.6883H48.6783H48.6682H48.6581H48.648H48.6379H48.6278H48.6177H48.6076H48.5975H48.5875H48.5774H48.5673H48.5572H48.5471H48.537H48.5269H48.5168H48.5067H48.4966H48.4866H48.4765H48.4664H48.4563H48.4462H48.4361H48.426H48.4159H48.4058H48.3957H48.3857H48.3756H48.3655H48.3554H48.3453H48.3352H48.3251H48.315H48.3049H48.2948H48.2848H48.2747H48.2646H48.2545H48.2444H48.2343H48.2242H48.2141H48.204H48.1939H48.1839H48.1738H48.1637H48.1536H48.1435H48.1334H48.1233H48.1132H48.1031H48.093H48.083H48.0729H48.0628H48.0527H48.0426H48.0325H48.0224H48.0123H48.0022H47.9921H47.9821H47.972H47.9619H47.9518H47.9417H47.9316H47.9215H47.9114H47.9013H47.8913H47.8812H47.8711H47.861H47.8509H47.8408H47.8307H47.8206H47.8105H47.8004H47.7904H47.7803H47.7702H47.7601H47.75H47.7399H47.7298H47.7197H47.7096H47.6995H47.6895H47.6794H47.6693H47.6592H47.6491H47.639H47.6289H47.6188H47.6087H47.5986H47.5886H47.5785H47.5684H47.5583H47.5482H47.5381H47.528H47.5179H47.5078H47.4977H47.4877H47.4776H47.4675H47.4574H47.4473H47.4372H47.4271H47.417H47.4069H47.3968H47.3868H47.3767H47.3666H47.3565H47.3464H47.3363H47.3262H47.3161H47.306H47.2959H47.2859H47.2758H47.2657H47.2556H47.2455H47.2354H47.2253H47.2152H47.2051H47.1951H47.185H47.1749H47.1648H47.1547H47.1446H47.1345H47.1244H47.1143H47.1042H47.0942H47.0841H47.074H47.0639H47.0538H47.0437H47.0336H47.0235H47.0134H47.0033H46.9933H46.9832H46.9731H46.963H46.9529H46.9428H46.9327H46.9226H46.9125H46.9024H46.8924H46.8823H46.8722H46.8621H46.852H46.8419H46.8318H46.8217H46.8116H46.8015H46.7915H46.7814H46.7713H46.7612H46.7511H46.741H46.7309H46.7208H46.7107H46.7006H46.6906H46.6805H46.6704H46.6603H46.6502H46.6401H46.63H46.6199H46.6098H46.5998H46.5897H46.5796H46.5695H46.5594H46.5493H46.5392H46.5291H46.519H46.5089H46.4989H46.4888H46.4787H46.4686H46.4585H46.4484H46.4383H46.4282H46.4181H46.408H46.398H46.3879H46.3778H46.3677H46.3576H46.3475H46.3374H46.3273H46.3172H46.3071H46.2971H46.287H46.2769H46.2668H46.2567H46.2466H46.2365H46.2264H46.2163H46.2062H46.1962H46.1861H46.176H46.1659H46.1558H46.1457H46.1356H46.1255H46.1154H46.1053H46.0953H46.0852H46.0751H46.065H46.0549H46.0448H46.0347H46.0246H46.0145H46.0044H45.9944H45.9843H45.9742H45.9641H45.954H45.9439H45.9338H45.9237H45.9136H45.9036H45.8935H45.8834H45.8733H45.8632H45.8531H45.843H45.8329H45.8228H45.8127H45.8027H45.7926H45.7825H45.7724H45.7623H45.7522H45.7421H45.732H45.7219H45.7118H45.7018H45.6917H45.6816H45.6715H45.6614H45.6513H45.6412H45.6311H45.621H45.6109H45.6009H45.5908H45.5807H45.5706H45.5605H45.5504H45.5403H45.5302H45.5201H45.51H45.5H45.4899H45.4798H45.4697H45.4596H45.4495H45.4394H45.4293H45.4192H45.4091H45.3991H45.389H45.3789H45.3688H45.3587H45.3486H45.3385H45.3284H45.3183H45.3083H45.2982H45.2881H45.278H45.2679H45.2578H45.2477H45.2376H45.2275H45.2174H45.2074H45.1973H45.1872H45.1771H45.167H45.1569H45.1468H45.1367H45.1266H45.1165H45.1065H45.0964H45.0863H45.0762H45.0661H45.056H45.0459H45.0358H45.0257H45.0156H45.0056H44.9955H44.9854H44.9753H44.9652H44.9551H44.945H44.9349H44.9248H44.9147H44.9047H44.8946H44.8845H44.8744H44.8643H44.8542H44.8441H44.834H44.5525V33.6008C44.5622 33.65 44.5824 33.6965 44.6118 33.7372L44.6162 33.7433L44.6196 33.7499L49.8835 43.971L49.936 43.834L53.1046 27.9902ZM53.1046 27.9902C52.3026 27.1698 51.5014 26.3501 50.71 25.511C50.6302 25.4199 50.531 25.3477 50.4196 25.2998L50.3801 25.3916L50.4196 25.2998C50.3083 25.2519 50.1877 25.2294 50.0666 25.234H44.1981C44.0639 25.234 43.949 25.2407 43.8533 25.2612C43.7565 25.282 43.6728 25.3183 43.6073 25.382C43.4783 25.5075 43.4523 25.7087 43.4523 25.9691V25.9836V25.998V26.0125V26.027V26.0415V26.056V26.0705V26.085V26.0994V26.1139V26.1284V26.1429V26.1574V26.1719V26.1863V26.2008V26.2153V26.2298V26.2443V26.2588V26.2733V26.2877V26.3022V26.3167V26.3312V26.3457V26.3602V26.3747V26.3891V26.4036V26.4181V26.4326V26.4471V26.4616V26.476V26.4905V26.505V26.5195V26.534V26.5485V26.563V26.5774V26.5919V26.6064V26.6209V26.6354V26.6499V26.6643V26.6788V26.6933V26.7078V26.7223V26.7368V26.7513V26.7657V26.7802V26.7947V26.8092V26.8237V26.8382V26.8527V26.8671V26.8816V26.8961V26.9106V26.9251V26.9396V26.954V26.9685V26.983V26.9975V27.012V27.0265V27.041V27.0554V27.0699V27.0844V27.0989V27.1134V27.1279V27.1423V27.1568V27.1713V27.1858V27.2003V27.2148V27.2293V27.2437V27.2582V27.2727V27.2872V27.3017V27.3162V27.3307V27.3451V27.3596V27.3741V27.3886V27.4031V27.4176V27.432V27.4465V27.461V27.4755V27.49V27.5045V27.519V27.5334V27.5479V27.5624V27.5769V27.5914V27.6059V27.6203V27.6348V27.6493V27.6638V27.6783V27.6928V27.7073V27.7217V27.7362V27.7507V27.7652V27.7797V27.7942V27.8087V27.8231V27.8376V27.8521V27.8666V27.8811V27.8956V27.91V27.9245V27.939V27.9535V27.968V27.9825V27.997V28.0114V28.0259V28.0404V28.0549V28.0694V28.0839V28.0983V28.1128V28.1273V28.1418V28.1563V28.1708V28.1853V28.1997V28.2142V28.2287V28.2432V28.2577V28.2722V28.2867V28.3011V28.3156V28.3301V28.3446V28.3591V28.3736V28.388V28.4025V28.417V28.4315V28.446V28.4605V28.475V28.4894V28.5039V28.5184V28.5329V28.5474V28.5619V28.5763V28.5908V28.6053V28.6198V28.6343V28.6488V28.6633V28.6777V28.6922V28.7067V28.7212V28.7357V28.7502V28.7647V28.7791V28.7936V28.8081V28.8226V28.8371V28.8516V28.866V28.8805V28.895V28.9095V28.924V28.9385V28.953V28.9674V28.9819V28.9964V29.0109V29.0254V29.0399V29.0543V29.0688V29.0833V29.0978V29.1123V29.1268V29.1413V29.1557V29.1702V29.1847V29.1992V29.2137V29.2282V29.2427V29.2571V29.2716V29.2861V29.3006V29.3151V29.3296V29.344V29.3585V29.373V29.3875V29.402V29.4165V29.431V29.4454V29.4599V29.4744V29.4889V29.5034V29.5179V29.5323V29.5468V29.5613V29.5758V29.5903V29.6048V29.6193V29.6337V29.6482V29.6627V29.6772V29.6917V29.7062V29.7207V29.7351V29.7496V29.7641V29.7786V29.7931V29.8076V29.822V29.8365V29.851V29.8655V29.88V29.8945V29.909V29.9234V29.9379V29.9524V29.9669V29.9814V29.9959V30.0103V30.0248V30.0393V30.0538V30.0683V30.0828V30.0973V30.1117V30.1262V30.1407V30.1552V30.1697V30.1842V30.1987V30.2131V30.2276V30.2421V30.2566V30.2711V30.2856V30.3V30.3145V30.329V30.3435V30.358V30.3725V30.387V30.4014V30.4159V30.4304V30.4449V30.4594V30.4739V30.4883V30.5028V30.5173V30.5318V30.5463V30.5608V30.5753V30.5897V30.6042V30.6187V30.6332V30.6477V30.6622V30.6767V30.6911V30.7056V30.7201V30.7346V30.7491V30.7636V30.778V30.7925V30.807V30.8215V30.836V30.8505V30.865V30.8794V30.8939V30.9084V30.9229V30.9374V30.9519V30.9663V30.9808V30.9953V31.0098V31.0243V31.0388V31.0533V31.0677V31.0822V31.0967V31.1112V31.1257V31.1402V31.1547V31.1691V31.1836V31.1981V31.2126V31.2271V31.2416V31.256V31.2705V31.285V31.2995V31.314V31.3285V31.343V31.3574V31.3719V31.3864V31.4009V31.4154V31.4299V31.4443V31.4588V31.4733V31.4878V31.5023V31.5168V31.5313V31.5457V31.5602V31.5747V31.5892V31.6037V31.6182V31.6327V31.6471V31.6616V31.6761V31.6906V31.7051V31.7196V31.734V31.7485V31.763V31.7775V31.792V31.8065V31.821V31.8354V31.8499V31.8644V31.8789V31.8934V31.9079V31.9223V31.9368V31.9513V31.9658V31.9803V31.9948V32.0093V32.0237V32.0382V32.0527V32.0672V32.0817V32.0962V32.1107V32.1251V32.1396V32.1541V32.1686V32.1831V32.1976V32.212V32.2265V32.241V32.2555V32.27V32.2845V32.299V32.3134V32.3279V32.3424V32.3569V32.3714V32.3859V32.4003V32.4148V32.4293V32.4438V32.4583V32.4728V32.4873V32.5017V32.5162V32.5307V32.5452V32.5597V32.5742V32.5887V32.6031V32.6176V32.6321V32.6466V32.6611V32.6756V32.69V32.7045V32.719V32.7335V32.748V32.7625V32.777V32.7914V32.8059V32.8204V32.8349V32.8494V32.8639V32.8783V32.8928V32.9073V32.9218V32.9363V32.9508V32.9653V32.9797V32.9942V33.0087V33.0232V33.0377V33.0522V33.0667V33.0811V33.0956V33.1101V33.1246V33.1391V33.1536V33.168V33.1825V33.197V33.2115V33.226V33.2405V33.255V33.2694V33.2839V33.2984V33.3129V33.3274V33.3419V33.3563V33.3708V33.3841C43.4485 33.5417 43.412 33.6968 43.3451 33.8396C42.9252 34.6589 42.5036 35.4785 42.0816 36.2988C41.4424 37.5414 40.8023 38.7856 40.166 40.0331L38.1756 43.9149M53.1046 27.9902L38.1756 43.9149M38.1756 43.9149C38.1232 43.8232 38.0886 43.7582 38.0579 43.6846L38.0573 43.6833C37.6759 42.8041 37.2944 41.9153 36.9228 41.0362L36.9228 41.0362L36.9217 41.0337C36.9179 41.0254 36.9141 41.0171 36.9103 41.0086C36.8669 40.9128 36.8184 40.8053 36.7452 40.7229C36.6586 40.6254 36.5407 40.5648 36.3708 40.5648C36.2017 40.5648 36.0798 40.6247 35.9896 40.721C35.9048 40.8115 35.8525 40.9301 35.8089 41.0366C34.6546 43.746 33.4937 46.4554 32.3263 49.1648C31.6347 50.7416 30.9627 52.3151 30.3103 53.8855C30.2105 54.1217 30.2029 54.3462 30.3155 54.5156C30.4282 54.6852 30.6391 54.7667 30.9015 54.7667H59.0405C59.3206 54.7667 59.5527 54.7083 59.677 54.5422C59.8035 54.3733 59.7876 54.1359 59.6819 53.8594C59.6819 53.8593 59.6819 53.8592 59.6818 53.8591L53.5181 37.4442C53.4744 37.3281 53.4247 37.2076 53.341 37.118C53.2513 37.0221 53.1307 36.969 52.9646 36.969C52.8008 36.969 52.6733 37.0179 52.5733 37.1085C52.477 37.1959 52.4138 37.3154 52.363 37.4422L52.3623 37.4441C51.5535 39.5871 50.7447 41.717 49.936 43.8339L38.1756 43.9149ZM50.1329 30.4927L50.1335 30.4921L51.8938 28.6658L52.1487 28.388C51.9815 28.232 51.8164 28.0773 51.6526 27.9238C51.1331 27.4367 50.6274 26.9627 50.1108 26.5041C49.9983 26.41 49.859 26.3536 49.7127 26.3427L50.1329 30.4927ZM50.1329 30.4927C50.0605 30.5692 49.963 30.617 49.8583 30.6276H49.8527H49.8424H49.8321H49.8218H49.8115H49.8011H49.7908H49.7805H49.7702H49.7599H49.7495H49.7392H49.7289H49.7186H49.7083H49.6979H49.6876H49.6773H49.667H49.6567H49.6463H49.636H49.6257H49.6154H49.6051H49.5948H49.5844H49.5741H49.5638H49.5535H49.5432H49.5328H49.5225H49.5122H49.5019H49.4916H49.4812H49.4709H49.4606H49.4503H49.44H49.4296H49.4193H49.409H49.3987H49.3884H49.378H49.3677H49.3574H49.3471H49.3368H49.3265H49.3161H49.3058H49.2955H49.2852H49.2749H49.2645H49.2542H49.2439H49.2336H49.2233H49.2129H49.2026H49.1923H49.182H49.1717H49.1613H49.151H49.1407H49.1304H49.1201H49.1098H49.0994H49.0891H49.0788H49.0685H49.0582H49.0478H49.0375H49.0272H49.0169H49.0066H48.9962H48.9859H48.9756H48.9653H48.955H48.9446H48.9343H48.924H48.9137H48.9034H48.893H48.8827H48.8724H48.8621H48.8518H48.8415H48.8311H48.8208H48.8105H48.8002H48.7899H48.7795H48.7692H48.7589H48.7486H48.7383H48.7279H48.7176H48.7073H48.697H48.6867H48.6763H48.666H48.6557H48.6454H48.6351H48.6248H48.6144H48.6041H48.5938H48.5835H48.5732H48.5628H48.5525H48.5422H48.5319H48.5216H48.5112H48.5009H48.4906H48.4803H48.47H48.4596H48.4493H48.439H48.4287H48.4184H48.408H48.3977H48.3874H48.3771H48.3668H48.3565H48.3461H48.3358H48.3255H48.3152H48.3049H48.2945H48.2842H48.2739H48.2636H48.2533H48.2429H48.2326H48.2223H48.212H48.2017H48.1913H48.181H48.1707H48.1604H48.1501H48.1397H48.1294H48.1191H48.1088H48.0985H48.0882H48.0778H48.0675H48.0572H48.0469H48.0366H48.0262H48.0159H48.0056H47.9953H47.985H47.9746H47.9643H47.954H47.9437H47.9334H47.923H47.9127H47.9024H47.8921H47.8818H47.8715H47.8611H47.8508H47.8405H47.8302H47.8199H47.8095H47.7992H47.7889H47.7786H47.7683H47.7579H47.7476H47.7373H47.727H47.7167H47.7063H47.696H47.6857H47.6754H47.6651H47.6548H47.6444H47.6341H47.6238H47.6135H47.6032H47.5928H47.5825H47.5722H47.5619H47.5516H47.5412H47.5309H47.5206H47.5103H47.5H47.4896H47.4793H47.469H47.4587H47.4484H47.438H47.4277H47.4174H47.4071H47.3968H47.3865H47.3761H47.3658H47.3555H47.3452H47.3349H47.3245H47.3142H47.3039H47.2936H47.2833H47.2729H47.2626H47.2523H47.242H47.2317H47.2213H47.211H47.2007H47.1904H47.1801H47.1698H47.1594H47.1491H47.1388H47.1285H47.1182H47.1078H47.0975H47.0872H47.0769H47.0666H47.0562H47.0459H47.0356H47.0253H47.015H47.0046H46.9943H46.984H46.9737H46.9634H46.953H46.9427H46.9324H46.9221H46.9118H46.9015H46.8911H46.8808H46.8705H46.8602H46.8499H46.8395H46.8292H46.8189H46.8086H46.7983H46.7879H46.7776H46.7673H46.757H46.7467H46.7363H46.726H46.7157H46.7054H46.6951H46.6847H46.6744H46.6641H46.6538H46.6435H46.6332H46.6228H46.6125H46.6022H46.5919H46.5816H46.5712H46.5609H46.5506H46.5403H46.53H46.5196H46.5093H46.499H46.4887H46.4784H46.468H46.4577H46.4474H46.4371H46.4268H46.4165H46.4061H46.3958H46.3855H46.3752H46.3649H46.3545H46.3442H46.3339H46.3236H46.3133H46.3029H46.2926H46.2823H46.272H46.2617H46.2513H46.241H46.2307H46.2204H46.2101H46.1997H46.1894H46.1791H46.1688H46.1585H46.1482H46.1378H46.1275H46.1172H46.1069H46.0966H46.0862H46.0759H46.0656H46.0553H46.045H46.0346H46.0243H46.014H46.0037H45.9934H45.983H45.9727H45.9624H45.9521H45.9418H45.9315H45.9211H45.9108H45.9005H45.8902H45.8799H45.8695H45.8592H45.8489H45.8386H45.8283H45.8179H45.8076H45.7973H45.787H45.7767H45.7663H45.756H45.7457H45.7354H45.7251H45.7148H45.7044H45.6941H45.6838H45.6735H45.6632H45.6528H45.6425H45.6322H45.6219H45.6116H45.6012H45.5909H45.5806H45.5703H45.56H45.5496H45.5393H45.529H45.5187H45.5084H45.498H45.4877H45.4774H45.4671H45.4568H45.4465H45.4361H45.4258H45.4155H45.4052H45.3949H45.3845H45.3742H45.3639H45.3536H45.3433H45.3329H45.3226H45.3123H45.302H45.2917H45.2813H45.271H45.2607H45.2504H45.2401H45.2298H45.2194H45.2091H45.1988H45.1885H45.1782H45.1678H45.1575H45.1472H45.1369H45.1266H45.1162H45.1059H45.0956H45.0853H45.075H45.0646H45.0543H45.044H45.0337H45.0234H45.013H45.0027H44.9924H44.9821H44.9718H44.9615H44.9511H44.9408H44.9305H44.9202H44.9099H44.8995H44.8892H44.8789H44.8686H44.8583H44.8479H44.8376H44.8273H44.817H44.8067H44.7963H44.786H44.7757H44.7654H44.7551H44.7448H44.7344H44.7241H44.7138H44.7035H44.6932H44.6828H44.6725H44.6622H44.6519H44.6416H44.6312H44.6209H44.6106H44.6003H44.59H44.5796H44.5427V26.3278L50.1329 30.4927ZM44.046 34.9326L53.6717 53.6873H42.5348V53.6863L42.5209 53.6883C42.4494 53.6983 42.3767 53.6823 42.316 53.6432C42.2554 53.6042 42.2108 53.5447 42.1904 53.4756L42.1909 53.4755L42.1869 53.4658L38.8603 45.4047L38.8598 45.4035C38.8361 45.348 38.8238 45.2882 38.8238 45.2279C38.8238 45.1685 38.8357 45.1098 38.8586 45.0551C40.5731 41.6828 42.2974 38.317 44.0314 34.9576L44.046 34.9326ZM50.6294 45.1905L50.6296 45.1906L50.6318 45.1847C51.3944 43.1444 52.1661 41.1041 52.9643 38.994L58.4755 53.6584L54.9697 53.6677C54.9381 53.6613 54.9083 53.6483 54.882 53.6297C54.854 53.6099 54.8307 53.5842 54.8138 53.5543C53.4122 50.8394 52.0171 48.1245 50.6285 45.4095C50.6135 45.3753 50.6058 45.3384 50.6058 45.3011C50.6058 45.263 50.6139 45.2253 50.6294 45.1905ZM31.6594 53.658L36.4001 42.5225L41.1409 53.658H31.6594Z" fill="white" stroke="white" stroke-width="0.2"/>
<path d="M49.9466 51.6653L49.979 51.6222L49.9608 51.5714C49.9043 51.4141 49.8407 51.26 49.77 51.11L49.77 51.11L49.7693 51.1086L44.9996 41.387C44.9625 41.2952 44.9156 41.2086 44.8597 41.1291C44.7825 41.0137 44.6666 40.9329 44.5337 40.908C44.4016 40.8832 44.2673 40.9166 44.1587 40.9982C44.0459 41.0705 43.9637 41.1855 43.9249 41.3186C43.8857 41.4531 43.8929 41.5991 43.9454 41.7285L43.9454 41.7285L43.9467 41.7314C43.9568 41.7541 43.9693 41.7749 43.98 41.7918C43.9849 41.7996 43.9892 41.8061 43.9931 41.8121C43.999 41.8212 44.0041 41.8291 44.0098 41.8386C44.0279 41.8686 44.0316 41.8828 44.0316 41.8908V41.9139L44.0418 41.9346C45.6258 45.1828 47.2191 48.4205 48.8218 51.6477C48.831 51.6686 48.8404 51.693 48.8512 51.7212L48.8546 51.7299C48.8666 51.7612 48.8803 51.7964 48.8954 51.8289C48.91 51.8604 48.9288 51.8957 48.9533 51.9245C48.972 51.9466 49.0027 51.9746 49.0456 51.9851C49.1995 52.0776 49.3761 52.1161 49.5518 52.0938L49.5646 52.0922L49.5765 52.0874C49.6712 52.0494 49.7417 51.964 49.7948 51.8896C49.8199 51.8545 49.8441 51.8173 49.8668 51.7825C49.8693 51.7786 49.8718 51.7748 49.8743 51.771C49.8997 51.732 49.9231 51.6965 49.9466 51.6653Z" fill="white" stroke="white" stroke-width="0.2"/>
<path d="M47.3315 28.9011C47.5916 28.6705 47.8463 28.4413 48.0987 28.2142C48.4938 27.8587 48.8833 27.5082 49.2795 27.1649C49.3736 27.0648 49.499 27.006 49.6313 27C49.7072 27.0058 49.7799 27.0349 49.8408 27.0839C49.9018 27.133 49.9483 27.1998 49.9749 27.2764C50.0016 27.3531 50.0071 27.4364 49.9909 27.5163C49.9748 27.5963 49.9376 27.6696 49.8838 27.7275C49.7142 27.9145 49.5334 28.0894 49.3427 28.2512C49.1221 28.454 48.903 28.6582 48.6842 28.8622C48.3482 29.1754 48.0128 29.488 47.6742 29.7935C47.3495 30.0941 47.1421 30.065 46.8715 29.7159L46.141 28.7459C46.0966 28.7032 46.0611 28.6508 46.0368 28.5923C46.0126 28.5338 46 28.4705 46 28.4064C46 28.3424 46.0126 28.279 46.0368 28.2205C46.0611 28.162 46.0966 28.1097 46.141 28.0669C46.3123 27.9021 46.5649 27.9506 46.7633 28.193L47.3315 28.9011Z" fill="white"/>
<path d="M47.3315 28.9011C47.5916 28.6705 47.8463 28.4413 48.0987 28.2142C48.4938 27.8587 48.8833 27.5082 49.2795 27.1649C49.3736 27.0648 49.499 27.006 49.6313 27C49.7072 27.0058 49.7799 27.0349 49.8408 27.0839C49.9018 27.133 49.9483 27.1998 49.9749 27.2764C50.0016 27.3531 50.0071 27.4364 49.9909 27.5163C49.9748 27.5963 49.9376 27.6696 49.8838 27.7275C49.7142 27.9145 49.5334 28.0894 49.3427 28.2512C49.1221 28.454 48.903 28.6582 48.6842 28.8622C48.3482 29.1754 48.0128 29.488 47.6742 29.7935C47.3495 30.0941 47.1421 30.065 46.8715 29.7159L46.141 28.7459C46.0966 28.7032 46.0611 28.6508 46.0368 28.5923C46.0126 28.5338 46 28.4705 46 28.4064C46 28.3424 46.0126 28.279 46.0368 28.2205C46.0611 28.162 46.0966 28.1097 46.141 28.0669C46.3123 27.9021 46.5649 27.9506 46.7633 28.193L47.3315 28.9011Z" stroke="white"/>
</g>
</g>
<defs>
<filter id="filter0_d_30_18759" x="0" y="0" width="90" height="90" filterUnits="userSpaceOnUse" color-interpolation-filters="sRGB">
<feFlood flood-opacity="0" result="BackgroundImageFix"/>
<feColorMatrix in="SourceAlpha" type="matrix" values="0 0 0 0 0 0 0 0 0 0 0 0 0 0 0 0 0 0 127 0" result="hardAlpha"/>
<feOffset dy="5"/>
<feGaussianBlur stdDeviation="7.5"/>
<feColorMatrix type="matrix" values="0 0 0 0 0 0 0 0 0 0.272868 0 0 0 0 0.733333 0 0 0 0.4 0"/>
<feBlend mode="normal" in2="BackgroundImageFix" result="effect1_dropShadow_30_18759"/>
<feBlend mode="normal" in="SourceGraphic" in2="effect1_dropShadow_30_18759" result="shape"/>
</filter>
<filter id="filter1_d_30_18759" x="-1" y="-6" width="100" height="100" filterUnits="userSpaceOnUse" color-interpolation-filters="sRGB">
<feFlood flood-opacity="0" result="BackgroundImageFix"/>
<feColorMatrix in="SourceAlpha" type="matrix" values="0 0 0 0 0 0 0 0 0 0 0 0 0 0 0 0 0 0 127 0" result="hardAlpha"/>
<feOffset dx="4" dy="4"/>
<feGaussianBlur stdDeviation="10"/>
<feColorMatrix type="matrix" values="0 0 0 0 0 0 0 0 0 0 0 0 0 0 0 0 0 0 0.08 0"/>
<feBlend mode="normal" in2="BackgroundImageFix" result="effect1_dropShadow_30_18759"/>
<feBlend mode="normal" in="SourceGraphic" in2="effect1_dropShadow_30_18759" result="shape"/>
</filter>
<linearGradient id="paint0_linear_30_18759" x1="15" y1="40" x2="75" y2="40" gradientUnits="userSpaceOnUse">
<stop stop-color="#6A11CB"/>
<stop offset="1" stop-color="#2575FC"/>
</linearGradient>
<clipPath id="clip0_30_18759">
<rect x="15" y="10" width="60" height="60" rx="10" fill="white"/>
</clipPath>
</defs>
</svg>
