<svg width="24" height="25" viewBox="0 0 24 25" fill="none" xmlns="http://www.w3.org/2000/svg">
<path d="M24 6.39755V2.86814C24 1.70046 23.0537 0.750488 21.8906 0.750488H2.10938C0.946266 0.750488 0 1.70046 0 2.86814V6.39755H24ZM16.2188 3.57402H20.4375C20.8258 3.57402 21.1406 3.89006 21.1406 4.2799C21.1406 4.66974 20.8258 4.98578 20.4375 4.98578H16.2188C15.8304 4.98578 15.5156 4.66974 15.5156 4.2799C15.5156 3.89006 15.8304 3.57402 16.2188 3.57402ZM9.1875 3.57402C9.57581 3.57402 9.89062 3.89006 9.89062 4.2799C9.89062 4.66974 9.57581 4.98578 9.1875 4.98578C8.79919 4.98578 8.48438 4.66974 8.48438 4.2799C8.48438 3.89006 8.79919 3.57402 9.1875 3.57402ZM6.375 3.57402C6.76331 3.57402 7.07812 3.89006 7.07812 4.2799C7.07812 4.66974 6.76331 4.98578 6.375 4.98578C5.98669 4.98578 5.67188 4.66974 5.67188 4.2799C5.67188 3.89006 5.98669 3.57402 6.375 3.57402ZM3.5625 3.57402C3.95081 3.57402 4.26562 3.89006 4.26562 4.2799C4.26562 4.66974 3.95081 4.98578 3.5625 4.98578C3.17419 4.98578 2.85938 4.66974 2.85938 4.2799C2.85938 3.89006 3.17419 3.57402 3.5625 3.57402Z" fill="url(#paint0_linear_67_6664)"/>
<path d="M0 7.80957V22.6331C0 23.8008 0.946266 24.7507 2.10938 24.7507H21.8906C23.0537 24.7507 24 23.8008 24 22.6331V7.80957H0ZM8.22047 17.8466C8.52375 18.0901 8.57288 18.5343 8.3303 18.8387C8.08777 19.1431 7.64522 19.1925 7.34203 18.949L3.82641 16.1254C3.47489 15.8432 3.47466 15.3055 3.82641 15.023L7.34203 12.1995C7.64513 11.956 8.08767 12.0053 8.3303 12.3097C8.57288 12.6141 8.52375 13.0584 8.22047 13.3019L5.39119 15.5743L8.22047 17.8466ZM14.7556 10.9112L10.5369 20.7935C10.3839 21.1518 9.97069 21.3179 9.61364 21.1643C9.25673 21.0107 9.09136 20.5957 9.24436 20.2374L13.4631 10.355C13.6161 9.99672 14.0295 9.83075 14.3864 9.9843C14.7433 10.1379 14.9086 10.5528 14.7556 10.9112ZM20.1736 16.1255L16.658 18.949C16.3552 19.1922 15.9127 19.1436 15.6697 18.8388C15.4271 18.5344 15.4763 18.0901 15.7795 17.8467L18.6088 15.5743L15.7795 13.3019C15.4763 13.0584 15.4271 12.6142 15.6697 12.3098C15.9122 12.0054 16.3547 11.956 16.658 12.1996L20.1736 15.0231C20.5251 15.3053 20.5253 15.843 20.1736 16.1255Z" fill="url(#paint1_linear_67_6664)"/>
<defs>
<linearGradient id="paint0_linear_67_6664" x1="0" y1="3.57402" x2="24" y2="3.57402" gradientUnits="userSpaceOnUse">
<stop stop-color="#6A11CB"/>
<stop offset="1" stop-color="#2575FC"/>
</linearGradient>
<linearGradient id="paint1_linear_67_6664" x1="0" y1="16.2802" x2="24" y2="16.2802" gradientUnits="userSpaceOnUse">
<stop stop-color="#6A11CB"/>
<stop offset="1" stop-color="#2575FC"/>
</linearGradient>
</defs>
</svg>
