<svg width="90" height="90" viewBox="0 0 90 90" fill="none" xmlns="http://www.w3.org/2000/svg">
<g filter="url(#filter0_d_30_18731)">
<g clip-path="url(#clip0_30_18731)">
<g filter="url(#filter1_d_30_18731)">
<path d="M75 10H15V70H75V10Z" fill="url(#paint0_linear_30_18731)"/>
</g>
<g clip-path="url(#clip1_30_18731)">
<mask id="path-3-outside-1_30_18731" maskUnits="userSpaceOnUse" x="29.1169" y="24.5859" width="32" height="31" fill="black">
<rect fill="white" x="29.1169" y="24.5859" width="32" height="31"/>
<path d="M59.9999 38.2853C59.9999 35.775 58.3699 33.6396 56.1134 32.878C55.6588 31.0358 54.125 29.6403 52.2406 29.3121C52.1575 28.4432 51.7947 27.6277 51.1848 26.9611C50.3853 26.0872 49.2376 25.5859 48.0362 25.5859C46.6049 25.5859 45.3385 26.2851 44.5744 27.3513C43.8104 26.2851 42.544 25.5859 41.1126 25.5859C39.9112 25.5859 38.7636 26.0872 37.964 26.9611C37.3546 27.6272 36.9919 28.4422 36.9084 29.3103C35.6319 29.5276 34.5097 30.2282 33.758 31.2975C33.0302 32.3329 32.7557 33.5706 32.9691 34.7782C31.2167 35.7022 30.1169 37.4751 30.1169 39.459C30.1169 41.2003 30.9644 42.786 32.3781 43.7767C31.5647 45.0594 31.4423 46.6034 32.0726 48.0566C32.8452 49.8377 34.5779 50.9887 36.4867 50.9887C36.6353 50.9887 36.7848 50.9818 36.9347 50.9682C37.0528 51.7591 37.4044 52.5095 37.9543 53.1148C38.7546 53.9956 39.9058 54.5008 41.1126 54.5008C42.544 54.5008 43.8104 53.8016 44.5744 52.7354C45.3385 53.8016 46.6049 54.5008 48.0362 54.5008C49.2432 54.5008 50.3943 53.9956 51.1945 53.1149C51.7445 52.5095 52.0961 51.759 52.2141 50.9681C54.0605 51.1339 55.7843 50.28 56.7728 48.6446C57.7785 46.9808 57.6912 45.0246 56.5869 43.5093C58.5943 42.6243 59.9999 40.6164 59.9999 38.2853ZM43.8135 50.3797C43.8135 51.8129 42.6019 52.9789 41.1126 52.9789C40.3337 52.9789 39.5931 52.6555 39.0807 52.0916C38.6984 51.6709 38.473 51.1584 38.4231 50.6145C39.7951 50.0697 40.1496 49.1397 40.4156 48.4395C40.6391 47.8514 40.7512 47.5563 41.3879 47.3855C41.7939 47.2767 42.0348 46.8595 41.926 46.4535C41.8172 46.0477 41.4 45.8066 40.9941 45.9156C39.6051 46.2878 39.2513 47.219 38.993 47.899C38.7327 48.584 38.5608 49.0365 37.4693 49.329C37.4682 49.3293 37.4673 49.3297 37.4663 49.33C37.4656 49.3302 37.4649 49.3302 37.4642 49.3304C37.1354 49.421 36.8065 49.4669 36.4869 49.4669C35.1847 49.4669 34.0001 48.6757 33.4689 47.451C32.9606 46.2794 33.1829 45.0183 34.0634 44.0775C34.2291 43.9004 34.3005 43.6548 34.2555 43.4166C34.2105 43.1782 34.0546 42.9755 33.8357 42.871C32.4807 42.2238 31.6389 40.9165 31.6389 39.459C31.6389 37.8868 32.6178 36.4974 34.1329 35.9193C34.5138 35.774 34.7125 35.3542 34.5834 34.9674C34.2672 34.0206 34.4202 33.0019 35.0032 32.1727C35.6147 31.3027 36.5882 30.7887 37.675 30.7615C38.9698 30.7643 39.2555 31.2809 39.6503 31.9954C40.0099 32.6463 40.5023 33.5375 41.8265 33.5375C42.2467 33.5375 42.5874 33.1968 42.5874 32.7766C42.5874 32.3564 42.2467 32.0157 41.8265 32.0157C41.4344 32.0157 41.3317 31.8917 40.9824 31.2595C40.5955 30.5593 40.036 29.548 38.4455 29.2976C38.5243 28.8157 38.7428 28.3648 39.0871 27.9884C39.5989 27.4287 40.3373 27.1078 41.1126 27.1078C42.6018 27.1078 43.8134 28.2738 43.8134 29.7071V39.999C42.0268 39.8253 41.5804 39.0085 41.0333 38.0043C40.4978 37.0215 39.8315 35.7984 37.8288 35.5866C37.4112 35.5412 37.0362 35.8452 36.992 36.2633C36.9478 36.6812 37.2508 37.0558 37.6687 37.1C38.8771 37.2278 39.2033 37.8263 39.6969 38.7324C39.8755 39.0603 40.0662 39.4091 40.3087 39.7457C39.9078 40.1531 39.303 40.5751 38.6168 40.9152C38.2403 41.1019 38.0863 41.5584 38.273 41.9349C38.4058 42.2029 38.6753 42.3581 38.9553 42.3581C39.0688 42.3581 39.184 42.3326 39.2927 42.2788C40.1454 41.8561 40.8782 41.339 41.4046 40.7999C41.9803 41.1673 42.7476 41.4378 43.8135 41.5247V50.3797ZM55.4704 47.8574C54.869 48.8523 53.5165 49.8347 51.6847 49.3304C51.684 49.3302 51.6832 49.3301 51.6825 49.33C51.6815 49.3297 51.6806 49.3293 51.6796 49.329C50.5881 49.0365 50.4162 48.584 50.1559 47.899C49.8975 47.219 49.5438 46.2877 48.1548 45.9156C47.7488 45.8068 47.3316 46.0477 47.2229 46.4535C47.1141 46.8595 47.355 47.2767 47.7609 47.3855C48.3977 47.5562 48.5099 47.8514 48.7334 48.4395C48.9994 49.1397 49.3538 50.0697 50.7258 50.6144C50.6758 51.1584 50.4505 51.6709 50.0682 52.0916C49.5557 52.6555 48.8151 52.9789 48.0362 52.9789C46.547 52.9789 45.3354 51.8129 45.3354 50.3797V44.9357C45.3358 43.5653 46.0569 42.8837 46.7319 42.7028C47.5693 42.4787 48.4465 42.9147 48.9661 43.8145C49.1762 44.1783 49.6415 44.3031 50.0055 44.093C50.3694 43.8828 50.4941 43.4175 50.284 43.0535C49.4232 41.5628 47.8374 40.8311 46.338 41.2328C45.9704 41.3313 45.6345 41.4903 45.3355 41.6996V29.7071C45.3355 28.2738 46.5471 27.1078 48.0363 27.1078C48.8118 27.1078 49.5501 27.4287 50.0621 27.9883C50.4064 28.3647 50.6249 28.8156 50.7037 29.2975C49.1132 29.5479 48.5537 30.5592 48.1668 31.2594C47.8175 31.8917 47.7148 32.0156 47.3227 32.0156C46.9025 32.0156 46.5618 32.3563 46.5618 32.7765C46.5618 33.1967 46.9025 33.5374 47.3227 33.5374C48.6468 33.5374 49.1393 32.6462 49.4989 31.9954C49.8937 31.2807 50.1795 30.7641 51.475 30.7614C52.7455 30.7937 53.8568 31.5179 54.3912 32.5809C54.3585 32.5803 54.326 32.5784 54.2932 32.5784C51.1464 32.5784 48.5863 35.1385 48.5863 38.2853C48.5863 41.432 51.1464 43.9921 54.2932 43.9921C54.5288 43.9921 54.7605 43.9761 54.9886 43.9482C55.0157 43.9938 55.0479 44.0372 55.0856 44.0775C56.2814 45.3553 56.0685 46.8679 55.4704 47.8574ZM54.293 42.4704C51.9854 42.4704 50.108 40.593 50.108 38.2853C50.108 35.9777 51.9854 34.1003 54.293 34.1003C56.6007 34.1003 58.4781 35.9777 58.4781 38.2853C58.4781 40.593 56.6007 42.4704 54.293 42.4704Z"/>
</mask>
<path d="M59.9999 38.2853C59.9999 35.775 58.3699 33.6396 56.1134 32.878C55.6588 31.0358 54.125 29.6403 52.2406 29.3121C52.1575 28.4432 51.7947 27.6277 51.1848 26.9611C50.3853 26.0872 49.2376 25.5859 48.0362 25.5859C46.6049 25.5859 45.3385 26.2851 44.5744 27.3513C43.8104 26.2851 42.544 25.5859 41.1126 25.5859C39.9112 25.5859 38.7636 26.0872 37.964 26.9611C37.3546 27.6272 36.9919 28.4422 36.9084 29.3103C35.6319 29.5276 34.5097 30.2282 33.758 31.2975C33.0302 32.3329 32.7557 33.5706 32.9691 34.7782C31.2167 35.7022 30.1169 37.4751 30.1169 39.459C30.1169 41.2003 30.9644 42.786 32.3781 43.7767C31.5647 45.0594 31.4423 46.6034 32.0726 48.0566C32.8452 49.8377 34.5779 50.9887 36.4867 50.9887C36.6353 50.9887 36.7848 50.9818 36.9347 50.9682C37.0528 51.7591 37.4044 52.5095 37.9543 53.1148C38.7546 53.9956 39.9058 54.5008 41.1126 54.5008C42.544 54.5008 43.8104 53.8016 44.5744 52.7354C45.3385 53.8016 46.6049 54.5008 48.0362 54.5008C49.2432 54.5008 50.3943 53.9956 51.1945 53.1149C51.7445 52.5095 52.0961 51.759 52.2141 50.9681C54.0605 51.1339 55.7843 50.28 56.7728 48.6446C57.7785 46.9808 57.6912 45.0246 56.5869 43.5093C58.5943 42.6243 59.9999 40.6164 59.9999 38.2853ZM43.8135 50.3797C43.8135 51.8129 42.6019 52.9789 41.1126 52.9789C40.3337 52.9789 39.5931 52.6555 39.0807 52.0916C38.6984 51.6709 38.473 51.1584 38.4231 50.6145C39.7951 50.0697 40.1496 49.1397 40.4156 48.4395C40.6391 47.8514 40.7512 47.5563 41.3879 47.3855C41.7939 47.2767 42.0348 46.8595 41.926 46.4535C41.8172 46.0477 41.4 45.8066 40.9941 45.9156C39.6051 46.2878 39.2513 47.219 38.993 47.899C38.7327 48.584 38.5608 49.0365 37.4693 49.329C37.4682 49.3293 37.4673 49.3297 37.4663 49.33C37.4656 49.3302 37.4649 49.3302 37.4642 49.3304C37.1354 49.421 36.8065 49.4669 36.4869 49.4669C35.1847 49.4669 34.0001 48.6757 33.4689 47.451C32.9606 46.2794 33.1829 45.0183 34.0634 44.0775C34.2291 43.9004 34.3005 43.6548 34.2555 43.4166C34.2105 43.1782 34.0546 42.9755 33.8357 42.871C32.4807 42.2238 31.6389 40.9165 31.6389 39.459C31.6389 37.8868 32.6178 36.4974 34.1329 35.9193C34.5138 35.774 34.7125 35.3542 34.5834 34.9674C34.2672 34.0206 34.4202 33.0019 35.0032 32.1727C35.6147 31.3027 36.5882 30.7887 37.675 30.7615C38.9698 30.7643 39.2555 31.2809 39.6503 31.9954C40.0099 32.6463 40.5023 33.5375 41.8265 33.5375C42.2467 33.5375 42.5874 33.1968 42.5874 32.7766C42.5874 32.3564 42.2467 32.0157 41.8265 32.0157C41.4344 32.0157 41.3317 31.8917 40.9824 31.2595C40.5955 30.5593 40.036 29.548 38.4455 29.2976C38.5243 28.8157 38.7428 28.3648 39.0871 27.9884C39.5989 27.4287 40.3373 27.1078 41.1126 27.1078C42.6018 27.1078 43.8134 28.2738 43.8134 29.7071V39.999C42.0268 39.8253 41.5804 39.0085 41.0333 38.0043C40.4978 37.0215 39.8315 35.7984 37.8288 35.5866C37.4112 35.5412 37.0362 35.8452 36.992 36.2633C36.9478 36.6812 37.2508 37.0558 37.6687 37.1C38.8771 37.2278 39.2033 37.8263 39.6969 38.7324C39.8755 39.0603 40.0662 39.4091 40.3087 39.7457C39.9078 40.1531 39.303 40.5751 38.6168 40.9152C38.2403 41.1019 38.0863 41.5584 38.273 41.9349C38.4058 42.2029 38.6753 42.3581 38.9553 42.3581C39.0688 42.3581 39.184 42.3326 39.2927 42.2788C40.1454 41.8561 40.8782 41.339 41.4046 40.7999C41.9803 41.1673 42.7476 41.4378 43.8135 41.5247V50.3797ZM55.4704 47.8574C54.869 48.8523 53.5165 49.8347 51.6847 49.3304C51.684 49.3302 51.6832 49.3301 51.6825 49.33C51.6815 49.3297 51.6806 49.3293 51.6796 49.329C50.5881 49.0365 50.4162 48.584 50.1559 47.899C49.8975 47.219 49.5438 46.2877 48.1548 45.9156C47.7488 45.8068 47.3316 46.0477 47.2229 46.4535C47.1141 46.8595 47.355 47.2767 47.7609 47.3855C48.3977 47.5562 48.5099 47.8514 48.7334 48.4395C48.9994 49.1397 49.3538 50.0697 50.7258 50.6144C50.6758 51.1584 50.4505 51.6709 50.0682 52.0916C49.5557 52.6555 48.8151 52.9789 48.0362 52.9789C46.547 52.9789 45.3354 51.8129 45.3354 50.3797V44.9357C45.3358 43.5653 46.0569 42.8837 46.7319 42.7028C47.5693 42.4787 48.4465 42.9147 48.9661 43.8145C49.1762 44.1783 49.6415 44.3031 50.0055 44.093C50.3694 43.8828 50.4941 43.4175 50.284 43.0535C49.4232 41.5628 47.8374 40.8311 46.338 41.2328C45.9704 41.3313 45.6345 41.4903 45.3355 41.6996V29.7071C45.3355 28.2738 46.5471 27.1078 48.0363 27.1078C48.8118 27.1078 49.5501 27.4287 50.0621 27.9883C50.4064 28.3647 50.6249 28.8156 50.7037 29.2975C49.1132 29.5479 48.5537 30.5592 48.1668 31.2594C47.8175 31.8917 47.7148 32.0156 47.3227 32.0156C46.9025 32.0156 46.5618 32.3563 46.5618 32.7765C46.5618 33.1967 46.9025 33.5374 47.3227 33.5374C48.6468 33.5374 49.1393 32.6462 49.4989 31.9954C49.8937 31.2807 50.1795 30.7641 51.475 30.7614C52.7455 30.7937 53.8568 31.5179 54.3912 32.5809C54.3585 32.5803 54.326 32.5784 54.2932 32.5784C51.1464 32.5784 48.5863 35.1385 48.5863 38.2853C48.5863 41.432 51.1464 43.9921 54.2932 43.9921C54.5288 43.9921 54.7605 43.9761 54.9886 43.9482C55.0157 43.9938 55.0479 44.0372 55.0856 44.0775C56.2814 45.3553 56.0685 46.8679 55.4704 47.8574ZM54.293 42.4704C51.9854 42.4704 50.108 40.593 50.108 38.2853C50.108 35.9777 51.9854 34.1003 54.293 34.1003C56.6007 34.1003 58.4781 35.9777 58.4781 38.2853C58.4781 40.593 56.6007 42.4704 54.293 42.4704Z" fill="white"/>
<path d="M59.9999 38.2853C59.9999 35.775 58.3699 33.6396 56.1134 32.878C55.6588 31.0358 54.125 29.6403 52.2406 29.3121C52.1575 28.4432 51.7947 27.6277 51.1848 26.9611C50.3853 26.0872 49.2376 25.5859 48.0362 25.5859C46.6049 25.5859 45.3385 26.2851 44.5744 27.3513C43.8104 26.2851 42.544 25.5859 41.1126 25.5859C39.9112 25.5859 38.7636 26.0872 37.964 26.9611C37.3546 27.6272 36.9919 28.4422 36.9084 29.3103C35.6319 29.5276 34.5097 30.2282 33.758 31.2975C33.0302 32.3329 32.7557 33.5706 32.9691 34.7782C31.2167 35.7022 30.1169 37.4751 30.1169 39.459C30.1169 41.2003 30.9644 42.786 32.3781 43.7767C31.5647 45.0594 31.4423 46.6034 32.0726 48.0566C32.8452 49.8377 34.5779 50.9887 36.4867 50.9887C36.6353 50.9887 36.7848 50.9818 36.9347 50.9682C37.0528 51.7591 37.4044 52.5095 37.9543 53.1148C38.7546 53.9956 39.9058 54.5008 41.1126 54.5008C42.544 54.5008 43.8104 53.8016 44.5744 52.7354C45.3385 53.8016 46.6049 54.5008 48.0362 54.5008C49.2432 54.5008 50.3943 53.9956 51.1945 53.1149C51.7445 52.5095 52.0961 51.759 52.2141 50.9681C54.0605 51.1339 55.7843 50.28 56.7728 48.6446C57.7785 46.9808 57.6912 45.0246 56.5869 43.5093C58.5943 42.6243 59.9999 40.6164 59.9999 38.2853ZM43.8135 50.3797C43.8135 51.8129 42.6019 52.9789 41.1126 52.9789C40.3337 52.9789 39.5931 52.6555 39.0807 52.0916C38.6984 51.6709 38.473 51.1584 38.4231 50.6145C39.7951 50.0697 40.1496 49.1397 40.4156 48.4395C40.6391 47.8514 40.7512 47.5563 41.3879 47.3855C41.7939 47.2767 42.0348 46.8595 41.926 46.4535C41.8172 46.0477 41.4 45.8066 40.9941 45.9156C39.6051 46.2878 39.2513 47.219 38.993 47.899C38.7327 48.584 38.5608 49.0365 37.4693 49.329C37.4682 49.3293 37.4673 49.3297 37.4663 49.33C37.4656 49.3302 37.4649 49.3302 37.4642 49.3304C37.1354 49.421 36.8065 49.4669 36.4869 49.4669C35.1847 49.4669 34.0001 48.6757 33.4689 47.451C32.9606 46.2794 33.1829 45.0183 34.0634 44.0775C34.2291 43.9004 34.3005 43.6548 34.2555 43.4166C34.2105 43.1782 34.0546 42.9755 33.8357 42.871C32.4807 42.2238 31.6389 40.9165 31.6389 39.459C31.6389 37.8868 32.6178 36.4974 34.1329 35.9193C34.5138 35.774 34.7125 35.3542 34.5834 34.9674C34.2672 34.0206 34.4202 33.0019 35.0032 32.1727C35.6147 31.3027 36.5882 30.7887 37.675 30.7615C38.9698 30.7643 39.2555 31.2809 39.6503 31.9954C40.0099 32.6463 40.5023 33.5375 41.8265 33.5375C42.2467 33.5375 42.5874 33.1968 42.5874 32.7766C42.5874 32.3564 42.2467 32.0157 41.8265 32.0157C41.4344 32.0157 41.3317 31.8917 40.9824 31.2595C40.5955 30.5593 40.036 29.548 38.4455 29.2976C38.5243 28.8157 38.7428 28.3648 39.0871 27.9884C39.5989 27.4287 40.3373 27.1078 41.1126 27.1078C42.6018 27.1078 43.8134 28.2738 43.8134 29.7071V39.999C42.0268 39.8253 41.5804 39.0085 41.0333 38.0043C40.4978 37.0215 39.8315 35.7984 37.8288 35.5866C37.4112 35.5412 37.0362 35.8452 36.992 36.2633C36.9478 36.6812 37.2508 37.0558 37.6687 37.1C38.8771 37.2278 39.2033 37.8263 39.6969 38.7324C39.8755 39.0603 40.0662 39.4091 40.3087 39.7457C39.9078 40.1531 39.303 40.5751 38.6168 40.9152C38.2403 41.1019 38.0863 41.5584 38.273 41.9349C38.4058 42.2029 38.6753 42.3581 38.9553 42.3581C39.0688 42.3581 39.184 42.3326 39.2927 42.2788C40.1454 41.8561 40.8782 41.339 41.4046 40.7999C41.9803 41.1673 42.7476 41.4378 43.8135 41.5247V50.3797ZM55.4704 47.8574C54.869 48.8523 53.5165 49.8347 51.6847 49.3304C51.684 49.3302 51.6832 49.3301 51.6825 49.33C51.6815 49.3297 51.6806 49.3293 51.6796 49.329C50.5881 49.0365 50.4162 48.584 50.1559 47.899C49.8975 47.219 49.5438 46.2877 48.1548 45.9156C47.7488 45.8068 47.3316 46.0477 47.2229 46.4535C47.1141 46.8595 47.355 47.2767 47.7609 47.3855C48.3977 47.5562 48.5099 47.8514 48.7334 48.4395C48.9994 49.1397 49.3538 50.0697 50.7258 50.6144C50.6758 51.1584 50.4505 51.6709 50.0682 52.0916C49.5557 52.6555 48.8151 52.9789 48.0362 52.9789C46.547 52.9789 45.3354 51.8129 45.3354 50.3797V44.9357C45.3358 43.5653 46.0569 42.8837 46.7319 42.7028C47.5693 42.4787 48.4465 42.9147 48.9661 43.8145C49.1762 44.1783 49.6415 44.3031 50.0055 44.093C50.3694 43.8828 50.4941 43.4175 50.284 43.0535C49.4232 41.5628 47.8374 40.8311 46.338 41.2328C45.9704 41.3313 45.6345 41.4903 45.3355 41.6996V29.7071C45.3355 28.2738 46.5471 27.1078 48.0363 27.1078C48.8118 27.1078 49.5501 27.4287 50.0621 27.9883C50.4064 28.3647 50.6249 28.8156 50.7037 29.2975C49.1132 29.5479 48.5537 30.5592 48.1668 31.2594C47.8175 31.8917 47.7148 32.0156 47.3227 32.0156C46.9025 32.0156 46.5618 32.3563 46.5618 32.7765C46.5618 33.1967 46.9025 33.5374 47.3227 33.5374C48.6468 33.5374 49.1393 32.6462 49.4989 31.9954C49.8937 31.2807 50.1795 30.7641 51.475 30.7614C52.7455 30.7937 53.8568 31.5179 54.3912 32.5809C54.3585 32.5803 54.326 32.5784 54.2932 32.5784C51.1464 32.5784 48.5863 35.1385 48.5863 38.2853C48.5863 41.432 51.1464 43.9921 54.2932 43.9921C54.5288 43.9921 54.7605 43.9761 54.9886 43.9482C55.0157 43.9938 55.0479 44.0372 55.0856 44.0775C56.2814 45.3553 56.0685 46.8679 55.4704 47.8574ZM54.293 42.4704C51.9854 42.4704 50.108 40.593 50.108 38.2853C50.108 35.9777 51.9854 34.1003 54.293 34.1003C56.6007 34.1003 58.4781 35.9777 58.4781 38.2853C58.4781 40.593 56.6007 42.4704 54.293 42.4704Z" stroke="white" stroke-width="0.4" mask="url(#path-3-outside-1_30_18731)"/>
<path d="M56.0243 37.5247H55.0541V36.0201C55.0541 35.5999 54.7134 35.2592 54.2931 35.2592C53.8729 35.2592 53.5322 35.5999 53.5322 36.0201V38.2856C53.5322 38.7058 53.8729 39.0465 54.2931 39.0465H56.0243C56.4446 39.0465 56.7852 38.7058 56.7852 38.2856C56.7852 37.8654 56.4446 37.5247 56.0243 37.5247Z" fill="white"/>
<path d="M56.0243 37.5247H55.0541V36.0201C55.0541 35.5999 54.7134 35.2592 54.2931 35.2592C53.8729 35.2592 53.5322 35.5999 53.5322 36.0201V38.2856C53.5322 38.7058 53.8729 39.0465 54.2931 39.0465H56.0243C56.4446 39.0465 56.7852 38.7058 56.7852 38.2856C56.7852 37.8654 56.4446 37.5247 56.0243 37.5247Z" stroke="white"/>
</g>
</g>
</g>
<defs>
<filter id="filter0_d_30_18731" x="0" y="0" width="90" height="90" filterUnits="userSpaceOnUse" color-interpolation-filters="sRGB">
<feFlood flood-opacity="0" result="BackgroundImageFix"/>
<feColorMatrix in="SourceAlpha" type="matrix" values="0 0 0 0 0 0 0 0 0 0 0 0 0 0 0 0 0 0 127 0" result="hardAlpha"/>
<feOffset dy="5"/>
<feGaussianBlur stdDeviation="7.5"/>
<feColorMatrix type="matrix" values="0 0 0 0 0 0 0 0 0 0.272868 0 0 0 0 0.733333 0 0 0 0.4 0"/>
<feBlend mode="normal" in2="BackgroundImageFix" result="effect1_dropShadow_30_18731"/>
<feBlend mode="normal" in="SourceGraphic" in2="effect1_dropShadow_30_18731" result="shape"/>
</filter>
<filter id="filter1_d_30_18731" x="-1" y="-6" width="100" height="100" filterUnits="userSpaceOnUse" color-interpolation-filters="sRGB">
<feFlood flood-opacity="0" result="BackgroundImageFix"/>
<feColorMatrix in="SourceAlpha" type="matrix" values="0 0 0 0 0 0 0 0 0 0 0 0 0 0 0 0 0 0 127 0" result="hardAlpha"/>
<feOffset dx="4" dy="4"/>
<feGaussianBlur stdDeviation="10"/>
<feColorMatrix type="matrix" values="0 0 0 0 0 0 0 0 0 0 0 0 0 0 0 0 0 0 0.08 0"/>
<feBlend mode="normal" in2="BackgroundImageFix" result="effect1_dropShadow_30_18731"/>
<feBlend mode="normal" in="SourceGraphic" in2="effect1_dropShadow_30_18731" result="shape"/>
</filter>
<linearGradient id="paint0_linear_30_18731" x1="15" y1="40" x2="75" y2="40" gradientUnits="userSpaceOnUse">
<stop stop-color="#6A11CB"/>
<stop offset="1" stop-color="#2575FC"/>
</linearGradient>
<clipPath id="clip0_30_18731">
<rect x="15" y="10" width="60" height="60" rx="10" fill="white"/>
</clipPath>
<clipPath id="clip1_30_18731">
<rect width="30" height="30" fill="white" transform="translate(30 25)"/>
</clipPath>
</defs>
</svg>
