<svg width="24" height="25" viewBox="0 0 24 25" fill="none" xmlns="http://www.w3.org/2000/svg">
<g clip-path="url(#clip0_67_6819)">
<path d="M18.6868 13.4648C18.8218 14.7467 18.6477 16.0731 18.1143 17.326V17.3265L19.966 19.718C20.1317 19.9321 20.4425 19.9615 20.6477 19.7849C22.3104 18.354 23.4106 16.2885 23.5737 13.9643C23.5927 13.6937 23.375 13.4649 23.1037 13.4649H18.6868V13.4648Z" fill="url(#paint0_linear_67_6819)"/>
<path d="M14.0371 1.31182V7.15964C15.6059 7.83856 16.9082 9.02079 17.7396 10.501H23.1156C23.3814 10.501 23.5965 10.281 23.5862 10.0154C23.3948 5.0442 19.4313 1.09011 14.5279 0.841425C14.2604 0.827866 14.0371 1.04397 14.0371 1.31182Z" fill="url(#paint1_linear_67_6819)"/>
<path d="M11.0415 22.0649C6.76145 22.1092 3.22442 18.639 3.18981 14.3588C3.15492 10.0451 6.6542 6.52445 10.96 6.52445V4.23104C10.96 3.96267 10.7359 3.74798 10.4678 3.76027C4.87219 4.01734 0.413621 8.63537 0.413574 14.2949C0.413574 20.1307 5.19353 24.8786 11.0292 24.8411C13.23 24.8269 15.2701 24.139 16.9542 22.9733C17.1758 22.82 17.2224 22.5114 17.0574 22.2983L15.653 20.4844C14.3682 21.4606 12.7719 22.047 11.0415 22.0649Z" fill="url(#paint2_linear_67_6819)"/>
<path d="M4.60156 14.2945C4.60156 17.8002 7.45379 20.6524 10.9595 20.6524C14.4649 20.6524 17.3175 17.8008 17.3175 14.2945C17.3175 10.7888 14.4649 7.93652 10.9595 7.93652C7.45379 7.93652 4.60156 10.7888 4.60156 14.2945ZM11.6657 10.0707V10.7445C12.3898 10.7445 13.0307 11.0525 13.4826 11.5345C13.7491 11.8189 13.7345 12.2662 13.4502 12.5327C13.1675 12.7975 12.7224 12.7873 12.452 12.5002C12.2496 12.2845 11.9737 12.1593 11.6945 12.157C11.123 12.157 10.7367 12.157 10.1676 12.157C9.77178 12.157 9.45195 12.4776 9.45195 12.8726C9.45195 13.2671 9.77305 13.5882 10.1681 13.5882H11.7514C12.9247 13.5882 13.8795 14.5431 13.8795 15.7164C13.8795 16.8127 13.0363 17.8449 11.6657 17.8449V18.5182C11.6657 18.908 11.3498 19.2244 10.9595 19.2244C10.5697 19.2244 10.2533 18.908 10.2533 18.5182V17.8449C9.75582 17.8449 9.26569 17.7911 8.69158 17.3929C8.37142 17.1707 8.29185 16.7305 8.51408 16.4103C8.7363 16.0897 9.17652 16.0101 9.49668 16.2324C9.66617 16.351 9.87668 16.4297 10.0861 16.4325H11.7514C12.1447 16.4325 12.4671 16.1149 12.4671 15.7164C12.4671 15.3218 12.146 15.0007 11.7514 15.0007C11.0508 15.0007 10.9064 15.0007 10.1681 15.0007C8.99431 15.0007 8.03949 14.0459 8.03949 12.8726C8.03949 11.7728 8.88579 10.7445 10.2533 10.7445V10.0707C10.2533 9.68091 10.5697 9.36452 10.9595 9.36452C11.3498 9.36452 11.6657 9.68091 11.6657 10.0707Z" fill="url(#paint3_linear_67_6819)"/>
</g>
<defs>
<linearGradient id="paint0_linear_67_6819" x1="18.1143" y1="16.6825" x2="23.5748" y2="16.6825" gradientUnits="userSpaceOnUse">
<stop stop-color="#6A11CB"/>
<stop offset="1" stop-color="#2575FC"/>
</linearGradient>
<linearGradient id="paint1_linear_67_6819" x1="14.0371" y1="5.67093" x2="23.5866" y2="5.67093" gradientUnits="userSpaceOnUse">
<stop stop-color="#6A11CB"/>
<stop offset="1" stop-color="#2575FC"/>
</linearGradient>
<linearGradient id="paint2_linear_67_6819" x1="0.413574" y1="14.3005" x2="17.1562" y2="14.3005" gradientUnits="userSpaceOnUse">
<stop stop-color="#6A11CB"/>
<stop offset="1" stop-color="#2575FC"/>
</linearGradient>
<linearGradient id="paint3_linear_67_6819" x1="4.60156" y1="14.2945" x2="17.3175" y2="14.2945" gradientUnits="userSpaceOnUse">
<stop stop-color="#6A11CB"/>
<stop offset="1" stop-color="#2575FC"/>
</linearGradient>
<clipPath id="clip0_67_6819">
<rect width="24" height="24" fill="white" transform="translate(0 0.84082)"/>
</clipPath>
</defs>
</svg>
