<svg width="24" height="25" viewBox="0 0 24 25" fill="none" xmlns="http://www.w3.org/2000/svg">
<path d="M12.0002 13.4857C12.7322 13.4857 13.3202 12.8917 13.3202 12.1657C13.3202 11.4397 12.7322 10.8457 12.0002 10.8457C11.2742 10.8457 10.6802 11.4397 10.6802 12.1657C10.6802 12.8917 11.2742 13.4857 12.0002 13.4857Z" fill="url(#paint0_linear_67_6496)"/>
<path d="M12 0.165527C5.37003 0.165527 0 5.53555 0 12.1655C0 18.7895 5.37003 24.1655 12 24.1655C18.63 24.1655 24 18.7895 24 12.1655C24.0001 5.53555 18.63 0.165527 12 0.165527ZM14.628 14.7935L4.79999 19.3655L9.372 9.53752L19.2 4.96552L14.628 14.7935Z" fill="url(#paint1_linear_67_6496)"/>
<defs>
<linearGradient id="paint0_linear_67_6496" x1="10.6802" y1="12.1657" x2="13.3202" y2="12.1657" gradientUnits="userSpaceOnUse">
<stop stop-color="#6A11CB"/>
<stop offset="1" stop-color="#2575FC"/>
</linearGradient>
<linearGradient id="paint1_linear_67_6496" x1="0" y1="12.1655" x2="24" y2="12.1655" gradientUnits="userSpaceOnUse">
<stop stop-color="#6A11CB"/>
<stop offset="1" stop-color="#2575FC"/>
</linearGradient>
</defs>
</svg>
