<svg width="169" height="49" viewBox="0 0 169 49" fill="none" xmlns="http://www.w3.org/2000/svg">
<path fill-rule="evenodd" clip-rule="evenodd" d="M12.2881 31.0068V40.7284L19.9876 35.3621L12.2881 31.0068Z" fill="#F3F8FF"/>
<path fill-rule="evenodd" clip-rule="evenodd" d="M27.5315 39.7948L35.231 35.3617L27.6871 30.9287L19.9876 35.3617L12.3659 39.7948H12.2881V48.5831L19.832 44.2278L27.5315 39.7948Z" fill="url(#paint0_linear_67_6066)"/>
<path fill-rule="evenodd" clip-rule="evenodd" d="M27.6868 30.9285L27.8424 31.0063L35.2308 35.3616V26.4955L25.9759 20.9736L18.2764 25.4067L27.6868 30.9285Z" fill="url(#paint1_linear_67_6066)"/>
<path fill-rule="evenodd" clip-rule="evenodd" d="M12.8325 4.71917C18.0433 7.83007 22.7096 10.6299 27.9204 13.663L35.231 9.4633V9.07443L27.9982 4.79694L25.7428 3.47481L20.4542 0.286133L12.8325 4.71917Z" fill="url(#paint2_linear_67_6066)"/>
<path fill-rule="evenodd" clip-rule="evenodd" d="M12.2881 13.8965V22.3737V22.6848L19.832 18.3295L12.2881 13.8965Z" fill="#F3F8FF"/>
<path fill-rule="evenodd" clip-rule="evenodd" d="M4.82205 33.4952L4.6665 33.6508V44.2279L9.56618 47.0277L12.2882 48.6609V39.7948V38.006V30.0732L4.82205 33.4952Z" fill="url(#paint3_linear_67_6066)"/>
<path fill-rule="evenodd" clip-rule="evenodd" d="M4.89982 28.3611L12.2882 23.1503C12.2882 19.6505 12.2882 16.073 12.2882 12.5732L5.05537 17.6285L4.6665 17.8618V28.2055L4.89982 28.3611Z" fill="url(#paint4_linear_67_6066)"/>
<path fill-rule="evenodd" clip-rule="evenodd" d="M0 20.8954L5.59963 17.7068L20.2986 9.22956L12.7547 4.71875L6.06626 8.52961L5.52185 8.8407L0 12.1849V20.8954Z" fill="url(#paint5_linear_67_6066)"/>
<path fill-rule="evenodd" clip-rule="evenodd" d="M20.1431 26.4949L27.8426 22.0619L35.231 17.7844V8.99609L27.9981 13.1958L20.2986 17.6288L12.5992 22.0619L12.3658 22.2174L7.54394 25.0172L4.97745 26.4949L4.66635 26.6505L0.0777726 29.2947H0V38.083L4.66635 35.4388L4.74413 35.361L7.46617 33.8055L12.2881 31.0057L12.3658 30.928L20.1431 26.4949Z" fill="url(#paint6_linear_67_6066)"/>
<path fill-rule="evenodd" clip-rule="evenodd" d="M44.175 35.3614V26.1843C44.175 22.3734 46.1193 20.5069 48.9191 20.5069C49.5413 20.5069 50.1635 20.5846 50.7079 20.7402V17.0849C50.2412 16.9293 49.6191 16.8516 49.0747 16.8516C46.7415 16.8516 45.0305 17.8626 43.9417 19.8847V17.3182H40.4419V35.3614H44.175ZM61.285 32.4839C59.574 32.4839 58.174 31.8617 57.0852 30.6951C55.9964 29.5285 55.452 28.0508 55.452 26.3398C55.452 24.6288 55.9964 23.1511 57.0852 22.0623C58.174 20.8957 59.574 20.2736 61.285 20.2736C62.9959 20.2736 64.3958 20.8957 65.4847 22.0623C66.5735 23.1511 67.1179 24.6288 67.1179 26.3398C67.1179 28.0508 66.5735 29.5285 65.4847 30.6951C64.3958 31.8617 62.9959 32.4839 61.285 32.4839ZM66.9623 19.8847C65.3291 17.9404 63.307 16.9293 60.8183 16.9293C58.174 16.9293 56.0742 17.7848 54.3632 19.5736C52.6522 21.3624 51.7967 23.54 51.7967 26.3398C51.7967 29.1396 52.6522 31.3173 54.3632 33.1838C56.0742 34.9726 58.174 35.9058 60.8183 35.9058C63.307 35.9058 65.3291 34.9726 66.9623 33.0283V35.517H70.5399V17.3182H66.9623V19.8847ZM78.3949 17.3182H74.7396V35.3614H78.3949V17.3182ZM86.8721 35.3614V25.4843C86.8721 22.3734 88.8164 20.2736 91.5385 20.2736C94.105 20.2736 95.8938 22.1401 95.8938 25.4843V35.4392H99.6268V24.3955C99.6268 21.9846 98.8491 20.118 97.527 18.8736C96.1271 17.5515 94.4938 16.9293 92.4718 16.9293C89.8275 16.9293 87.8054 18.0959 86.7166 19.9625V17.396H83.139V35.4392H86.8721V35.3614ZM110.437 35.3614L115.026 22.529L119.692 35.3614H122.881L128.947 17.3182H125.058L121.17 30.3062L116.348 17.3182H113.704L109.037 30.3062L104.993 17.3182H101.105L107.326 35.3614H110.437ZM139.446 32.4839C137.735 32.4839 136.258 31.8617 135.247 30.6951C134.158 29.5285 133.613 28.0508 133.613 26.3398C133.613 24.6288 134.158 23.1511 135.247 22.0623C136.335 20.8957 137.735 20.2736 139.446 20.2736C141.157 20.2736 142.48 20.8957 143.646 22.0623C144.735 23.1511 145.279 24.6288 145.279 26.3398C145.279 28.0508 144.735 29.5285 143.646 30.6951C142.557 31.8617 141.157 32.4839 139.446 32.4839ZM145.046 19.8847C143.413 17.9404 141.391 16.9293 138.902 16.9293C136.336 16.9293 134.158 17.7848 132.447 19.5736C130.736 21.3624 129.88 23.54 129.88 26.3398C129.88 29.1396 130.736 31.3173 132.447 33.1838C134.158 34.9726 136.336 35.9058 138.902 35.9058C141.391 35.9058 143.413 34.9726 145.046 33.0283V35.517H148.624V17.3182H145.046V19.8847ZM156.245 42.361H160.134L160.523 41.3499L169 17.3182H165.111L160.601 29.9951L155.156 17.3182H150.879L158.812 34.9726L156.245 42.361Z" fill="white"/>
<path fill-rule="evenodd" clip-rule="evenodd" d="M76.6059 14.9853C78.0058 14.9853 79.0946 13.8964 79.0946 12.4965C79.0946 11.0966 78.0058 10.0078 76.6059 10.0078C75.1282 10.0078 74.1172 11.0966 74.1172 12.4965C74.1172 13.8964 75.1282 14.9853 76.6059 14.9853Z" fill="url(#paint7_linear_67_6066)"/>
<path d="M41.764 44.8499H42.3084V41.039H43.5528V40.4946H40.4419V41.039H41.6863V44.8499H41.764ZM45.2638 44.9276C45.7304 44.9276 46.1193 44.6943 46.2748 44.3055V44.7721H46.897V41.2723H46.2748V43.2166C46.2748 43.8388 45.9637 44.3055 45.3416 44.3055C44.7194 44.3055 44.4083 43.9166 44.4083 43.2166V41.2723H43.8639V43.2166C43.7861 44.3832 44.3305 44.9276 45.2638 44.9276ZM47.8303 44.8499H48.4525V43.9166C48.4525 43.45 48.4525 42.9833 48.4525 42.9056C48.4525 42.2056 48.7636 41.9723 49.2302 41.9723C49.4635 41.9723 49.6191 42.0501 49.7746 42.1278L50.0079 41.5834C49.8524 41.5056 49.6191 41.3501 49.3857 41.3501C48.9969 41.3501 48.608 41.5834 48.4525 41.8945V41.4279H47.8303V44.8499ZM50.6301 44.8499H51.1745V42.9056C51.1745 42.2834 51.6411 41.8167 52.2633 41.8167C52.9633 41.8167 53.3521 42.2056 53.3521 42.9056V44.8499H53.8966V42.9056C53.8966 41.8945 53.3521 41.2723 52.4189 41.2723C51.9522 41.2723 51.4856 41.5056 51.2523 41.8945V41.3501H50.7079L50.6301 44.8499ZM56.7741 44.8499H57.3963V40.4946H56.7741V44.8499ZM59.9628 44.9276C60.1961 44.9276 60.4294 44.8499 60.7405 44.6943C60.9739 44.6165 61.1294 44.461 61.2849 44.2277V44.8499H61.9071V40.4168H61.2849V41.8945C61.0516 41.5056 60.5072 41.2723 60.0406 41.2723C59.1073 41.2723 58.2518 42.0501 58.2518 43.0611C58.174 44.1499 58.9518 44.9276 59.9628 44.9276ZM59.9628 44.3832C59.2629 44.3832 58.7185 43.7611 58.7185 43.0611C58.7185 42.3611 59.2629 41.8167 59.9628 41.8167C60.7405 41.8167 61.2072 42.4389 61.2072 43.0611C61.2849 43.8388 60.7405 44.3832 59.9628 44.3832ZM64.4736 44.9276C65.2513 44.9276 65.7958 44.5388 66.1068 43.9166L65.6402 43.6833C65.4069 44.1499 65.018 44.461 64.4736 44.461C63.6959 44.461 63.2293 44.0721 63.1515 43.3722H66.2624V43.0611C66.2624 41.9723 65.4847 41.2723 64.4736 41.2723C63.4626 41.2723 62.6849 42.0501 62.6849 43.1389C62.6071 44.1499 63.3848 44.9276 64.4736 44.9276ZM64.3959 41.8167C65.0958 41.8167 65.4847 42.2056 65.6402 42.8278H63.1515C63.3848 42.2056 63.8514 41.8167 64.3959 41.8167ZM68.6733 44.9276C68.9067 44.9276 69.14 44.8499 69.4511 44.6943C69.6844 44.6165 69.8399 44.461 69.9955 44.2277V44.8499H70.6177V41.3501H69.9955V41.8945C69.7622 41.5056 69.2178 41.2723 68.7511 41.2723C67.8178 41.2723 66.9623 42.0501 66.9623 43.0611C66.9623 44.1499 67.7401 44.9276 68.6733 44.9276ZM68.7511 44.3832C68.0512 44.3832 67.5068 43.7611 67.5068 43.0611C67.5068 42.3611 68.1289 41.8167 68.7511 41.8167C69.5288 41.8167 69.9955 42.4389 69.9955 43.0611C70.0732 43.8388 69.5288 44.3832 68.7511 44.3832ZM72.7175 44.9276C73.6508 44.9276 74.1174 44.3055 74.1174 43.8388C74.1174 43.1389 73.4952 42.9833 72.8731 42.8278C72.4064 42.75 71.9398 42.5945 71.9398 42.2834C71.9398 42.0501 72.1731 41.739 72.7175 41.739C73.1064 41.739 73.3397 41.8945 73.573 42.1278L74.0396 41.8167C73.7286 41.4279 73.2619 41.1946 72.7175 41.1946C71.9398 41.1946 71.3954 41.6612 71.3954 42.2056C71.3954 42.9056 72.0176 43.0611 72.6397 43.2166C73.1064 43.2944 73.573 43.45 73.573 43.7611C73.573 44.0721 73.3397 44.3832 72.7953 44.3832C72.4064 44.3832 72.0176 44.1499 71.862 43.8388L71.3176 44.1499C71.5509 44.6943 72.0953 44.9276 72.7175 44.9276ZM76.8395 44.8499H77.4616V40.4946H76.8395V44.8499ZM78.3949 44.8499H78.9393V42.9056C78.9393 42.2834 79.406 41.8167 80.0281 41.8167C80.7281 41.8167 81.0392 42.2056 81.0392 42.9056V44.8499H81.6614V42.9056C81.6614 41.8945 81.0392 41.2723 80.1837 41.2723C79.6393 41.2723 79.2504 41.5056 78.9393 41.8945V41.3501H78.3949V44.8499ZM82.2058 41.8167H82.828V43.45C82.828 44.5388 83.0613 44.7721 84.0723 44.7721H84.1501V44.2277C83.4501 44.2277 83.2946 44.1499 83.2946 43.45V41.8167H84.1501V41.3501H83.2946V40.2613L82.7502 40.6501V41.3501H82.128V41.8167H82.2058ZM86.561 44.9276C87.5721 44.9276 88.3498 44.1499 88.3498 43.0611C88.3498 42.0501 87.5721 41.2723 86.561 41.2723C85.55 41.2723 84.7723 42.0501 84.7723 43.0611C84.7723 44.1499 85.55 44.9276 86.561 44.9276ZM86.561 44.3832C85.8611 44.3832 85.3167 43.7611 85.3167 43.0611C85.3167 42.3611 85.8611 41.8167 86.561 41.8167C87.261 41.8167 87.8054 42.4389 87.8054 43.0611C87.8832 43.8388 87.261 44.3832 86.561 44.3832ZM91.1496 44.8499H91.7718V43.3722H92.7051L93.5606 44.8499H94.1827L93.2495 43.2166C93.7939 42.9833 94.1827 42.5167 94.1827 41.9723C94.1827 41.1946 93.5606 40.4946 92.6273 40.4946H91.2274V44.8499H91.1496ZM92.4718 40.9612C93.0939 40.9612 93.4828 41.3501 93.4828 41.8945C93.4828 42.2834 93.1717 42.8278 92.4718 42.8278H91.694V41.039L92.4718 40.9612ZM96.4382 44.9276C97.2159 44.9276 97.7603 44.5388 98.0714 43.9166L97.6047 43.6833C97.3714 44.1499 96.9826 44.461 96.4382 44.461C95.7382 44.461 95.1938 44.0721 95.1938 43.3722H98.2269V43.0611C98.2269 41.9723 97.4492 41.2723 96.4382 41.2723C95.4271 41.2723 94.6494 42.0501 94.6494 43.1389C94.5716 44.1499 95.3493 44.9276 96.4382 44.9276ZM96.4382 41.8167C97.1381 41.8167 97.527 42.2056 97.6825 42.8278H95.1938C95.3493 42.2056 95.816 41.8167 96.4382 41.8167ZM100.716 44.9276C100.949 44.9276 101.182 44.8499 101.493 44.6943C101.727 44.6165 101.882 44.461 102.038 44.2277V44.8499H102.66V41.3501H102.038V41.8945C101.804 41.5056 101.26 41.2723 100.793 41.2723C99.8602 41.2723 99.0047 42.0501 99.0047 43.0611C98.9269 44.1499 99.7046 44.9276 100.716 44.9276ZM100.716 44.3832C100.016 44.3832 99.4713 43.7611 99.4713 43.0611C99.4713 42.3611 100.016 41.8167 100.716 41.8167C101.493 41.8167 101.96 42.4389 101.96 43.0611C102.038 43.8388 101.493 44.3832 100.716 44.3832ZM103.515 44.8499H104.138V40.4168H103.515V44.8499ZM106.937 44.8499H109.348V44.3055H107.56V40.4946H106.937V44.8499ZM110.204 44.8499H110.826V41.3501H110.204V44.8499ZM110.048 40.4946C110.048 40.7279 110.204 40.8835 110.437 40.8835C110.671 40.8835 110.826 40.7279 110.826 40.4946C110.826 40.2613 110.748 40.1057 110.437 40.1057C110.204 40.1057 110.048 40.2613 110.048 40.4946ZM111.526 41.8167H112.148V44.7721H112.77V41.8167H113.548V41.3501H112.77V41.2723C112.77 40.4946 112.848 40.4168 113.548 40.4168V39.9502H113.47C112.459 39.9502 112.148 40.2613 112.148 41.3501V41.4279H111.526V41.8167ZM115.804 44.9276C116.581 44.9276 117.126 44.5388 117.437 43.9166L116.97 43.6833C116.737 44.1499 116.348 44.461 115.804 44.461C115.104 44.461 114.559 44.0721 114.559 43.3722H117.592V43.0611C117.592 41.9723 116.815 41.2723 115.804 41.2723C114.792 41.2723 114.015 42.0501 114.015 43.1389C113.937 44.1499 114.637 44.9276 115.804 44.9276ZM115.726 41.8167C116.426 41.8167 116.815 42.2056 116.97 42.8278H114.481C114.637 42.2056 115.181 41.8167 115.726 41.8167ZM120.314 44.8499H120.937V43.5277H121.714C122.648 43.5277 123.347 42.9056 123.347 42.0501C123.347 41.1946 122.725 40.4946 121.714 40.4946H120.314V44.8499ZM121.636 40.9612C122.259 40.9612 122.648 41.3501 122.648 41.9723C122.648 42.5167 122.259 42.9056 121.636 42.9056H120.859V40.9612H121.636ZM124.047 44.8499H124.67V43.9166C124.67 43.45 124.67 42.9833 124.67 42.9056C124.67 42.2056 124.981 41.9723 125.447 41.9723C125.681 41.9723 125.836 42.0501 125.992 42.1278L126.225 41.5834C125.992 41.5056 125.836 41.3501 125.525 41.3501C125.136 41.3501 124.747 41.5834 124.592 41.8945V41.4279H123.97V44.8499H124.047ZM128.403 44.9276C129.414 44.9276 130.191 44.1499 130.191 43.0611C130.191 42.0501 129.414 41.2723 128.403 41.2723C127.392 41.2723 126.614 42.0501 126.614 43.0611C126.614 44.1499 127.392 44.9276 128.403 44.9276ZM128.403 44.3832C127.703 44.3832 127.158 43.7611 127.158 43.0611C127.158 42.3611 127.703 41.8167 128.403 41.8167C129.103 41.8167 129.647 42.4389 129.647 43.0611C129.647 43.8388 129.103 44.3832 128.403 44.3832ZM132.758 44.9276C132.991 44.9276 133.225 44.8499 133.458 44.6943C133.691 44.6165 133.925 44.461 134.08 44.2277V44.8499H134.702V40.4168H134.08V41.8945C133.847 41.5056 133.302 41.2723 132.836 41.2723C131.825 41.2723 131.047 42.0501 131.047 43.0611C130.891 44.1499 131.669 44.9276 132.758 44.9276ZM132.758 44.3832C132.058 44.3832 131.514 43.7611 131.514 43.0611C131.514 42.3611 132.136 41.8167 132.758 41.8167C133.458 41.8167 134.002 42.4389 134.002 43.0611C134.08 43.8388 133.458 44.3832 132.758 44.3832ZM136.958 44.9276C137.424 44.9276 137.813 44.6943 138.046 44.3055V44.7721H138.591V41.2723H138.046V43.2166C138.046 43.8388 137.658 44.3055 137.113 44.3055C136.413 44.3055 136.18 43.9166 136.18 43.2166V41.2723H135.558V43.2166C135.48 44.3832 136.024 44.9276 136.958 44.9276ZM141.235 44.9276C142.013 44.9276 142.635 44.461 142.868 43.8388L142.402 43.6055C142.168 43.9944 141.78 44.3832 141.235 44.3832C140.457 44.3832 139.991 43.7611 139.991 43.0611C139.991 42.3611 140.535 41.8167 141.235 41.8167C141.78 41.8167 142.168 42.0501 142.324 42.5945L142.868 42.3611C142.635 41.739 141.935 41.2723 141.235 41.2723C140.224 41.2723 139.369 42.0501 139.369 43.0611C139.369 44.0721 140.146 44.9276 141.235 44.9276ZM143.413 41.8167H144.035V43.45C144.035 44.5388 144.346 44.7721 145.357 44.7721H145.435V44.2277C144.735 44.2277 144.657 44.1499 144.657 43.45V41.8167H145.435V41.3501H144.657V40.2613L144.035 40.6501V41.3501H143.413V41.8167ZM147.457 44.9276C148.39 44.9276 148.857 44.3055 148.857 43.8388C148.857 43.1389 148.235 42.9833 147.613 42.8278C147.146 42.75 146.679 42.5945 146.679 42.2834C146.679 42.0501 146.913 41.739 147.457 41.739C147.846 41.739 148.079 41.8945 148.312 42.1278L148.779 41.8167C148.468 41.4279 148.001 41.1946 147.457 41.1946C146.679 41.1946 146.213 41.6612 146.213 42.2056C146.213 42.9056 146.835 43.0611 147.379 43.2166C147.846 43.2944 148.312 43.45 148.312 43.7611C148.312 44.0721 148.079 44.3832 147.535 44.3832C147.146 44.3832 146.757 44.1499 146.601 43.8388L146.135 44.1499C146.29 44.6943 146.835 44.9276 147.457 44.9276Z" fill="white"/>
<defs>
<linearGradient id="paint0_linear_67_6066" x1="32.6645" y1="29.4507" x2="8.16615" y2="44.2275" gradientUnits="userSpaceOnUse">
<stop offset="0.133081" stop-color="#1B9DFC"/>
<stop offset="0.735592" stop-color="#495AFF"/>
</linearGradient>
<linearGradient id="paint1_linear_67_6066" x1="20.6095" y1="24.3959" x2="36.1641" y2="32.9509" gradientUnits="userSpaceOnUse">
<stop stop-color="#1B9DFC"/>
<stop offset="1" stop-color="#495AFF"/>
</linearGradient>
<linearGradient id="paint2_linear_67_6066" x1="19.4432" y1="6.11907" x2="41.6084" y2="22.0625" gradientUnits="userSpaceOnUse">
<stop offset="0.260417" stop-color="#2575FC"/>
<stop offset="1" stop-color="#6A11CB"/>
</linearGradient>
<linearGradient id="paint3_linear_67_6066" x1="7.77741" y1="52.3941" x2="7.77741" y2="18.9519" gradientUnits="userSpaceOnUse">
<stop stop-color="#2575FC"/>
<stop offset="0.998603" stop-color="#6A11CB"/>
</linearGradient>
<linearGradient id="paint4_linear_67_6066" x1="8.55513" y1="40.7271" x2="8.55513" y2="13.8955" gradientUnits="userSpaceOnUse">
<stop offset="0.317708" stop-color="#6A11CB"/>
<stop offset="1" stop-color="#2575FC"/>
</linearGradient>
<linearGradient id="paint5_linear_67_6066" x1="-4.27749" y1="21.2842" x2="55.9963" y2="-14.4912" gradientUnits="userSpaceOnUse">
<stop stop-color="#1B9DFC"/>
<stop offset="1" stop-color="#6A11CB"/>
</linearGradient>
<linearGradient id="paint6_linear_67_6066" x1="120.936" y1="-33.1568" x2="-9.33271" y2="38.394" gradientUnits="userSpaceOnUse">
<stop stop-color="#6A11CB"/>
<stop offset="1" stop-color="#2575FC"/>
</linearGradient>
<linearGradient id="paint7_linear_67_6066" x1="74.1172" y1="12.4965" x2="79.0946" y2="12.4965" gradientUnits="userSpaceOnUse">
<stop stop-color="#6A11CB"/>
<stop offset="1" stop-color="#2575FC"/>
</linearGradient>
</defs>
</svg>
