<svg width="14" height="17" viewBox="0 0 14 17" fill="none" xmlns="http://www.w3.org/2000/svg">
<path d="M6.22677 16.3785C1.5208 9.75407 0.647461 9.07473 0.647461 6.64105C0.647461 3.3074 3.43124 0.605469 6.86588 0.605469C10.3005 0.605469 13.0843 3.3074 13.0843 6.64105C13.0843 9.07473 12.211 9.75273 7.505 16.3758C7.43353 16.4757 7.33826 16.5573 7.22729 16.6138C7.11632 16.6703 6.99294 16.6999 6.86764 16.7002C6.74234 16.7005 6.61882 16.6714 6.5076 16.6153C6.39638 16.5593 6.30075 16.4781 6.22884 16.3785L6.22746 16.3758L6.22677 16.3785ZM6.86588 9.15588C7.55306 9.15588 8.21209 8.89092 8.698 8.4193C9.18391 7.94768 9.45689 7.30802 9.45689 6.64105C9.45689 5.97408 9.18391 5.33442 8.698 4.8628C8.21209 4.39118 7.55306 4.12622 6.86588 4.12622C6.1787 4.12622 5.51967 4.39118 5.03376 4.8628C4.54785 5.33442 4.27487 5.97408 4.27487 6.64105C4.27487 7.30802 4.54785 7.94768 5.03376 8.4193C5.51967 8.89092 6.1787 9.15588 6.86588 9.15588Z" fill="url(#paint0_linear_67_6033)"/>
<defs>
<linearGradient id="paint0_linear_67_6033" x1="0.647461" y1="8.65284" x2="13.0843" y2="8.65284" gradientUnits="userSpaceOnUse">
<stop stop-color="#6A11CB"/>
<stop offset="1" stop-color="#2575FC"/>
</linearGradient>
</defs>
</svg>
