<svg width="16" height="15" viewBox="0 0 16 15" fill="none" xmlns="http://www.w3.org/2000/svg">
<path d="M11.677 14.8738C8.69014 14.87 5.82675 13.6818 3.71475 11.5697C1.60274 9.45774 0.414516 6.59436 0.410645 3.60753C0.410645 2.71501 0.765198 1.85904 1.39631 1.22793C2.02742 0.596825 2.88338 0.242271 3.77591 0.242271C3.9649 0.240832 4.15358 0.257984 4.33922 0.293482C4.51869 0.320038 4.69511 0.364144 4.86596 0.425166C4.98612 0.467326 5.0932 0.540121 5.1766 0.636352C5.26 0.732583 5.31683 0.848917 5.34149 0.97385L6.34375 5.36332C6.37076 5.48247 6.36751 5.60649 6.33429 5.72405C6.30106 5.84162 6.23892 5.94899 6.15354 6.03638C6.05843 6.1388 6.05112 6.14611 5.15128 6.61432C5.87188 8.19516 7.1362 9.46467 8.71407 10.1917C9.18959 9.28459 9.19691 9.27727 9.29933 9.18217C9.38671 9.09678 9.49409 9.03464 9.61165 9.00142C9.72922 8.96819 9.85323 8.96494 9.97238 8.99196L14.3619 9.99422C14.4828 10.0223 14.5946 10.0806 14.6867 10.1638C14.7789 10.247 14.8484 10.3523 14.8886 10.4697C14.9503 10.6434 14.9968 10.8221 15.0276 11.0038C15.057 11.1877 15.0717 11.3736 15.0715 11.5598C15.058 12.4485 14.6935 13.2958 14.0575 13.9167C13.4215 14.5376 12.5657 14.8817 11.677 14.8738Z" fill="url(#paint0_linear_67_6029)"/>
<defs>
<linearGradient id="paint0_linear_67_6029" x1="0.410645" y1="7.55808" x2="15.0715" y2="7.55808" gradientUnits="userSpaceOnUse">
<stop stop-color="#6A11CB"/>
<stop offset="1" stop-color="#2575FC"/>
</linearGradient>
</defs>
</svg>
