<svg width="50" height="50" viewBox="0 0 50 50" fill="none" xmlns="http://www.w3.org/2000/svg">
<path d="M25 46.875C19.1984 46.875 13.6344 44.5703 9.53204 40.468C5.42968 36.3656 3.125 30.8016 3.125 25C3.125 19.1984 5.42968 13.6344 9.53204 9.53204C13.6344 5.42968 19.1984 3.125 25 3.125C30.8016 3.125 36.3656 5.42968 40.468 9.53204C44.5703 13.6344 46.875 19.1984 46.875 25C46.875 30.8016 44.5703 36.3656 40.468 40.468C36.3656 44.5703 30.8016 46.875 25 46.875ZM25 50C31.6304 50 37.9893 47.3661 42.6777 42.6777C47.3661 37.9893 50 31.6304 50 25C50 18.3696 47.3661 12.0107 42.6777 7.32233C37.9893 2.63392 31.6304 0 25 0C18.3696 0 12.0107 2.63392 7.32233 7.32233C2.63392 12.0107 0 18.3696 0 25C0 31.6304 2.63392 37.9893 7.32233 42.6777C12.0107 47.3661 18.3696 50 25 50Z" fill="white"/>
<path d="M18.9719 15.7984C19.2274 15.6668 19.5144 15.6082 19.8011 15.6292C20.0878 15.6501 20.3631 15.7497 20.5969 15.9171L31.5343 23.7296C31.7369 23.8741 31.902 24.0649 32.0159 24.2861C32.1298 24.5074 32.1892 24.7526 32.1892 25.0014C32.1892 25.2502 32.1298 25.4955 32.0159 25.7167C31.902 25.9379 31.7369 26.1287 31.5343 26.2733L20.5969 34.0857C20.3632 34.253 20.088 34.3525 19.8014 34.3735C19.5149 34.3944 19.2281 34.336 18.9726 34.2045C18.7171 34.073 18.5028 33.8737 18.3533 33.6283C18.2038 33.383 18.1248 33.1012 18.125 32.8139V17.189C18.1247 16.9017 18.2036 16.62 18.353 16.3746C18.5024 16.1293 18.7165 15.9299 18.9719 15.7984Z" fill="white"/>
</svg>
