<svg width="20" height="20" viewBox="0 0 20 20" fill="none" xmlns="http://www.w3.org/2000/svg">
<circle cx="10" cy="10" r="10" fill="white"/>
<path fill-rule="evenodd" clip-rule="evenodd" d="M5.24836 8.02491H5.19539C4.84416 8.02491 4.50732 8.16444 4.25897 8.41279C4.01062 8.66114 3.87109 8.99798 3.87109 9.34921V10.6735C3.87109 11.0247 4.01062 11.3616 4.25897 11.6099C4.50732 11.8583 4.84416 11.9978 5.19539 11.9978H5.24836C5.43943 11.9977 5.62825 12.039 5.80187 12.1188C5.97548 12.1985 6.12978 12.3149 6.25416 12.46L8.66571 15.2741C9.06564 15.7403 9.83043 15.4575 9.83043 14.8431V5.17966C9.83043 4.56519 9.06564 4.28245 8.66504 4.74927L6.25483 7.56207C6.13043 7.70731 5.97606 7.82389 5.80232 7.90379C5.62858 7.98368 5.43959 8.02501 5.24836 8.02491ZM14.2244 4.89626C14.1618 4.8345 14.0874 4.78585 14.0057 4.75315C13.9241 4.72046 13.8367 4.70436 13.7487 4.70582C13.6607 4.70728 13.5739 4.72625 13.4934 4.76164C13.4128 4.79702 13.3401 4.84811 13.2795 4.91191C13.2189 4.97571 13.1717 5.05095 13.1405 5.13322C13.1093 5.2155 13.0948 5.30317 13.0979 5.3911C13.101 5.47903 13.1216 5.56547 13.1585 5.64535C13.1953 5.72524 13.2478 5.79698 13.3127 5.85638C15.7328 8.15535 15.7328 11.8674 13.3127 14.1663C13.2478 14.2257 13.1953 14.2975 13.1585 14.3774C13.1216 14.4572 13.101 14.5437 13.0979 14.6316C13.0948 14.7195 13.1093 14.8072 13.1405 14.8895C13.1717 14.9718 13.2189 15.047 13.2795 15.1108C13.3401 15.1746 13.4128 15.2257 13.4934 15.2611C13.5739 15.2965 13.6607 15.3154 13.7487 15.3169C13.8367 15.3183 13.9241 15.3023 14.0057 15.2696C14.0874 15.2369 14.1618 15.1882 14.2244 15.1264C17.1942 12.3057 17.1942 7.71701 14.2244 4.89626ZM12.2731 6.75028C12.1458 6.62928 11.9756 6.56382 11.8 6.56829C11.6244 6.57276 11.4578 6.6468 11.3368 6.77411C11.2158 6.90143 11.1504 7.0716 11.1548 7.24719C11.1593 7.42278 11.2333 7.58939 11.3606 7.71039C12.7028 8.98503 12.7028 11.0377 11.3606 12.3123C11.2976 12.3722 11.247 12.444 11.2117 12.5234C11.1764 12.6029 11.157 12.6886 11.1548 12.7755C11.1526 12.8625 11.1675 12.949 11.1988 13.0302C11.23 13.1113 11.2769 13.1856 11.3368 13.2486C11.4578 13.3759 11.6244 13.45 11.8 13.4544C11.887 13.4566 11.9735 13.4417 12.0547 13.4105C12.1358 13.3793 12.21 13.3323 12.2731 13.2724C14.1648 11.4754 14.1648 8.54735 12.2731 6.75028Z" fill="black"/>
</svg>
