<svg width="211" height="227" viewBox="0 0 211 227" fill="none" xmlns="http://www.w3.org/2000/svg">
<path opacity="0.2" d="M189.74 160.651C178.392 187.129 79.8904 122.673 75.9565 88.6284C72.0225 54.5842 144.499 -2.76125 190.042 16.1522C215.764 26.895 216.672 63.2087 198.969 92.865C183.99 117.982 195.943 146.428 189.74 160.651Z" fill="url(#paint0_linear_67_6406)"/>
<path opacity="0.2" d="M80.6466 0.264528C64.9107 2.83675 65.8185 37.7887 74.7456 50.1959C83.6728 62.6031 107.579 37.1835 108.336 24.0198C109.395 10.7047 94.113 -2.00508 80.6466 0.264528Z" fill="url(#paint1_linear_67_6406)"/>
<path d="M50.3851 137.047C50.3851 137.047 15.2818 121.765 10.4399 74.708C10.4399 74.708 47.5102 76.3724 63.3975 131.297L50.3851 137.047Z" fill="url(#paint2_linear_67_6406)"/>
<path d="M12.8608 77.2803L54.1677 131.902L44.7867 131.6C44.7867 131.6 14.3739 114.956 12.8608 77.2803Z" fill="#BDE0FF"/>
<path d="M50.8397 140.829C50.8397 140.829 43.2743 106.18 4.84229 106.18C4.84229 106.18 7.11189 140.224 46.3005 141.888L50.8397 140.829Z" fill="url(#paint3_radial_67_6406)"/>
<path d="M4.8418 106.331L50.8392 140.98L44.9382 140.829C44.9382 140.678 11.6506 139.619 4.8418 106.331Z" fill="#BDE0FF"/>
<path d="M182.779 167.61C182.779 167.61 182.779 179.26 171.734 179.26H39.9453C35.5574 178.807 32.5312 173.511 32.5312 169.879C32.5312 168.518 33.2878 152.63 34.1956 133.566C35.7087 103.607 37.5244 65.9313 37.5244 65.9313C37.5244 65.9313 38.2809 60.7869 46.4515 60.1816L110.606 60.7869L171.734 61.3921C171.734 61.3921 177.635 61.6947 180.056 67.747L182.779 167.61Z" fill="url(#paint4_linear_67_6406)"/>
<path d="M38.2812 165.945C38.2812 165.945 131.335 171.241 175.517 166.551C175.517 166.551 179.602 116.014 174.004 69.1087C174.004 69.1087 104.554 64.2669 44.0308 67.5956C44.0308 67.4443 38.1299 111.021 38.2812 165.945Z" fill="url(#paint5_linear_67_6406)"/>
<path d="M33.4385 148.395H23.7549V158.381H32.9846L33.4385 148.395Z" fill="url(#paint6_linear_67_6406)"/>
<path d="M159.024 168.519L163.866 179.261H171.734C171.734 179.261 181.418 179.867 182.78 167.611V147.487L176.576 148.395L175.517 166.552L159.024 168.519Z" fill="#361488"/>
<path d="M81.7059 197.72C59.1612 197.72 41.7608 194.543 33.4389 192.576C22.2422 190.003 16.1899 187.734 14.2229 185.313C8.62451 184.405 4.23661 182.892 1.967 180.774C0.605234 179.563 0 178.05 0 176.386C0 163.222 23.9065 153.236 24.8144 152.782L25.2683 153.841C24.9657 153.992 1.05915 163.978 1.05915 176.386C1.05915 177.747 1.51308 178.958 2.72354 179.866C4.69053 181.833 8.4732 183.195 13.4663 183.951C13.4663 183.8 13.4663 183.8 13.4663 183.648C13.1637 181.984 14.3742 180.471 17.0977 178.655C20.5778 176.386 25.2683 175.932 29.8075 177.294C34.0441 178.655 37.5242 181.53 39.9451 185.313C48.5696 185.313 57.9507 184.859 67.1804 184.556C86.5478 183.8 104.856 183.194 115.447 185.161C119.381 185.918 121.197 186.675 121.197 187.885C121.197 188.793 120.289 190.003 113.178 191.365C94.5671 195.148 44.1817 197.72 40.7017 189.095C40.399 188.188 39.9451 187.28 39.3399 186.372C30.7154 186.372 22.6961 186.221 16.1899 185.313C18.9134 187.128 24.6631 189.095 33.7415 191.214C47.2079 194.391 83.5216 200.595 128.157 191.819C151.307 187.28 153.88 183.648 154.031 182.287C154.182 180.925 151.761 179.866 151.005 179.563L151.307 178.504C151.459 178.504 155.241 179.866 155.09 182.287C154.939 185.918 146.163 189.398 128.309 192.878C111.211 196.51 95.4749 197.72 81.7059 197.72ZM40.5504 186.675C41.0043 187.431 41.3069 188.188 41.6095 188.944C43.5765 193.937 67.937 194.845 90.7844 193.181C110.152 191.819 119.684 189.247 119.987 188.036C119.987 188.036 119.684 187.28 115.145 186.523C104.553 184.556 86.3965 185.313 67.0291 185.918C58.102 186.221 49.0236 186.675 40.5504 186.675ZM14.6768 184.254C21.183 185.313 29.3536 185.615 38.432 185.464C36.1624 182.135 32.985 179.714 29.2023 178.504C25.117 177.142 20.7291 177.596 17.4003 179.714C15.1307 181.228 14.0716 182.438 14.2229 183.497C14.5255 183.8 14.5255 184.102 14.6768 184.254Z" fill="url(#paint7_linear_67_6406)"/>
<path d="M115.297 61.8464L111.514 65.1752C111.514 65.1752 56.2867 64.7213 43.1229 66.3857C43.1229 66.3857 37.3733 106.633 37.3733 131.599L34.1958 133.566V133.415C35.7089 103.456 37.5246 65.7804 37.5246 65.7804C37.5246 65.7804 38.2811 60.636 46.4517 60.0308L110.606 60.636L115.297 61.8464Z" fill="url(#paint8_linear_67_6406)"/>
<path d="M38.2808 165.946L37.0703 167.308C37.0703 167.308 125.888 172.15 177.03 167.308L175.516 166.703C175.516 166.552 111.816 170.183 38.2808 165.946Z" fill="url(#paint9_linear_67_6406)"/>
<path d="M70.2065 168.367L82.1598 177.294H136.479L128.309 169.577C128.309 169.577 79.7389 169.123 70.2065 168.367Z" fill="url(#paint10_linear_67_6406)"/>
<path d="M23.7549 148.394L31.0176 146.729H33.4385V148.394H23.7549Z" fill="url(#paint11_linear_67_6406)"/>
<path d="M47.3594 78.189C47.3594 78.189 44.7871 93.471 44.7871 105.424H85.7914C85.7914 105.424 85.6401 85.3004 85.7914 78.189H47.3594Z" fill="#9275C2"/>
<path d="M60.221 92.2595H53.5635L53.8661 85.4507H60.5236L60.221 92.2595Z" fill="#6EFFE8"/>
<path d="M68.845 92.2595H62.1875L62.3388 85.4507H68.9963L68.845 92.2595Z" fill="#839FFF"/>
<path d="M77.47 92.2595H70.6611L70.8124 85.4507H77.47V92.2595Z" fill="#6877FF"/>
<path d="M59.9177 101.641H53.1089L53.4115 94.832H60.2203L59.9177 101.641Z" fill="#FF1D9C"/>
<path d="M68.6941 101.641H61.8853L62.0366 94.832H68.8454L68.6941 101.641Z" fill="#981382"/>
<path d="M77.4694 101.641H70.5093L70.6606 94.832H77.4694V101.641Z" fill="#140047"/>
<path d="M46.6025 82.8785H85.6398L85.7911 78.188H47.3591L46.6025 82.8785Z" fill="url(#paint12_linear_67_6406)"/>
<path d="M47.5107 82.2736L47.9647 78.9448H51.1421L50.8395 82.2736H47.5107Z" fill="white"/>
<path d="M40.0962 119.797L106.217 66.537C106.217 66.537 74.5942 65.9318 44.0302 67.5961C44.0302 67.4448 41.458 103.153 40.0962 119.797Z" fill="url(#paint13_linear_67_6406)"/>
<path d="M104.705 134.626L105.764 125.245H116.658L117.414 134.323L113.783 136.744H108.336L104.705 134.626Z" fill="url(#paint14_linear_67_6406)"/>
<path d="M111.06 91.6543C94.5671 91.6543 95.1723 109.509 101.073 116.166C105.159 120.857 103.494 122.672 103.948 123.58C104.402 124.488 105.915 125.093 105.915 125.093H111.211H116.507C116.507 125.093 118.02 124.488 118.474 123.58C118.928 122.672 117.112 120.857 121.348 116.166C127.098 109.357 127.855 91.6543 111.06 91.6543Z" fill="url(#paint15_linear_67_6406)"/>
<path d="M108.336 136.744L109.849 137.651H112.421L113.783 136.744H108.336Z" fill="url(#paint16_linear_67_6406)"/>
<path d="M99.8626 101.943H103.191C103.191 101.943 103.797 97.7064 105.764 95.588L102.889 94.8315C102.737 94.6802 99.56 97.2524 99.8626 101.943Z" fill="white"/>
<path d="M118.776 113.443L120.592 114.502C120.592 114.502 124.223 110.568 124.072 105.121H121.5C121.349 104.969 121.803 109.811 118.776 113.443Z" fill="white"/>
<path d="M103.948 123.731C103.948 123.731 114.086 125.093 118.171 123.731C118.171 123.731 117.717 124.942 116.658 125.245L116.961 130.086C116.961 130.086 112.27 127.212 105.613 126.909L105.764 125.245C105.764 125.245 104.251 124.337 103.948 123.731Z" fill="url(#paint17_linear_67_6406)"/>
<path d="M36.6163 82.8779H34.498V88.4763L36.3137 88.7789L36.6163 82.8779Z" fill="url(#paint18_linear_67_6406)"/>
<path d="M36.1628 92.2593L34.4984 92.7132L34.1958 96.9498L36.0115 97.555L36.1628 92.2593Z" fill="url(#paint19_linear_67_6406)"/>
<path d="M186.562 64.8727L196.7 57.7612L201.088 60.1821L189.739 70.6224L186.562 64.8727Z" fill="#FF1D9C"/>
<path d="M44.6357 52.4654L54.9246 47.6235L57.6482 52.6167L47.0566 55.1889L44.6357 52.4654Z" fill="#4F31E0"/>
<path d="M148.735 196.661L163.26 196.208L166.438 201.201L149.794 200.444L148.735 196.661Z" fill="#6877FF"/>
<path d="M144.347 96.1924C144.347 96.1924 140.413 109.659 141.169 115.257C141.169 115.257 141.623 121.158 147.978 121.461L154.787 104.514L144.347 96.1924Z" fill="url(#paint20_linear_67_6406)"/>
<path d="M115.447 108.297C115.447 108.297 113.026 110.113 113.178 110.869C113.329 111.626 115.901 112.836 115.901 112.836L115.447 108.297Z" fill="url(#paint21_linear_67_6406)"/>
<path d="M198.364 180.471L195.792 224.804C195.792 224.804 159.629 176.386 148.735 167.761C147.827 167.005 146.919 166.248 146.012 165.643C137.084 158.834 132.999 158.077 131.637 157.321C130.124 156.413 127.25 152.176 126.947 150.815C126.644 149.453 126.644 129.329 125.434 124.941C124.223 120.402 118.928 115.863 118.474 114.198C118.02 112.534 119.987 109.81 121.954 109.508C123.921 109.205 134.058 112.231 137.236 122.369C137.236 122.369 136.025 124.638 135.269 127.362C134.512 130.086 135.571 134.625 135.571 134.625C135.571 134.625 139.808 135.381 141.624 134.927C143.439 134.473 146.919 124.336 146.617 116.468C146.466 108.6 138.749 93.6205 138.749 93.6205L133.151 80.3054C133.151 80.3054 139.657 77.128 143.288 77.8845C143.288 77.8845 148.886 86.963 152.215 88.9299C152.215 88.9299 159.629 90.1404 163.866 91.5022C163.866 91.5022 169.01 92.2587 173.247 95.7388C173.247 95.7388 177.937 96.0414 180.207 97.8571C182.325 99.5215 192.009 111.626 192.463 114.955V115.106C192.766 119.04 185.352 141.434 170.675 156.11C170.675 156.11 174.155 159.439 179.299 164.13C184.898 169.123 191.858 175.326 198.364 180.471Z" fill="url(#paint22_linear_67_6406)"/>
<path d="M182.779 102.548C182.173 102.85 181.417 103.153 180.812 103.153C180.812 103.153 159.326 106.482 143.741 109.508C135.42 111.021 128.762 112.383 127.703 112.988C126.644 113.593 126.038 114.198 125.585 114.955C124.525 116.468 124.525 117.83 124.525 117.83C124.525 117.83 119.835 117.376 116.052 112.837C116.052 112.837 114.236 111.021 115.144 108.751C115.144 108.751 116.657 104.817 120.743 102.245C121.651 101.64 122.71 101.186 123.92 100.732C123.92 100.732 123.92 101.035 124.071 101.337C124.223 102.094 124.677 103.304 125.736 103.304C126.492 103.304 136.781 99.5216 148.583 94.6797C160.234 89.9892 173.398 84.2395 181.114 80.0029C181.114 80.0029 188.377 80.1542 189.739 88.3248C190.949 95.1337 186.864 100.429 182.779 102.548Z" fill="url(#paint23_linear_67_6406)"/>
<path opacity="0.86" d="M143.59 109.507C135.268 111.02 128.611 112.382 127.552 112.987C126.493 113.593 125.887 114.198 125.434 114.954L120.289 116.316C117.566 110.718 120.743 102.245 120.743 102.245L124.072 101.337C124.223 102.093 124.677 103.304 125.736 103.304C126.493 103.304 136.782 99.521 148.584 94.6792C142.834 100.58 143.59 109.507 143.59 109.507Z" fill="#9A7AB3"/>
<path d="M120.592 102.093C120.592 102.093 122.105 107.086 131.183 102.85C131.183 102.85 143.288 92.1071 145.709 81.5156L143.439 78.1868C143.439 78.1868 136.782 77.1276 133.302 80.6077C133.302 80.6077 131.94 88.7783 128.46 94.3767C127.249 96.1924 120.592 100.278 120.592 100.278V102.093Z" fill="url(#paint24_linear_67_6406)"/>
<path d="M118.473 114.198C118.473 114.198 124.979 122.52 125.433 124.941C125.887 127.362 126.795 150.21 126.795 150.21C126.795 150.21 126.341 141.131 135.571 134.776C135.571 134.776 135.117 131.599 135.571 128.421C136.025 125.093 136.933 123.882 137.235 122.52C137.538 121.159 133.453 109.962 123.466 108.6C123.466 108.6 121.651 109.205 120.44 110.416C119.078 111.626 118.473 114.198 118.473 114.198Z" fill="url(#paint25_linear_67_6406)"/>
<path d="M200.028 218.751C198.818 221.778 196.851 224.047 194.884 226.014L183.687 209.219C183.687 209.219 178.845 211.943 177.484 211.64C173.852 210.883 173.852 203.167 173.852 203.167C173.852 203.167 172.944 193.937 175.365 184.556C177.03 178.05 180.358 171.392 187.016 167.912C187.016 167.912 191.404 166.399 194.581 173.964L203.811 180.168C203.66 180.168 206.081 203.923 200.028 218.751Z" fill="url(#paint26_linear_67_6406)"/>
<path opacity="0.5" d="M200.028 218.6C198.817 221.626 197.304 224.198 195.186 226.165L183.535 209.068C183.535 209.068 178.694 211.791 177.332 211.489C173.7 210.732 173.7 203.015 173.7 203.015C173.7 203.015 172.793 193.786 175.214 184.405C175.062 185.615 172.641 200.746 175.97 205.739C179.45 211.035 185.2 177.444 194.43 173.813C194.43 173.813 185.048 189.246 185.805 199.989C186.713 210.732 200.028 218.6 200.028 218.6Z" fill="url(#paint27_linear_67_6406)"/>
<path d="M171.128 156.413C171.128 156.413 174.608 159.742 179.753 164.432C179.753 164.432 167.497 161.406 157.208 162.616C149.642 163.524 147.07 165.037 146.162 165.794C137.235 158.985 133.15 158.229 131.788 157.472L143.439 150.209C143.439 150.209 154.787 125.244 156.3 112.382L153.425 107.692L162.05 108.902C162.05 108.902 167.799 110.567 177.483 110.415C177.483 110.415 182.476 112.988 186.864 112.534L192.765 115.257V115.409C193.068 119.191 185.653 141.585 171.128 156.413Z" fill="url(#paint28_linear_67_6406)"/>
<path d="M135.571 134.776C135.571 134.776 138.446 137.5 141.018 137.954C141.018 137.954 143.288 135.23 144.65 129.935C144.65 129.935 143.288 133.717 141.624 134.474C141.624 134.322 138.9 135.684 135.571 134.776Z" fill="url(#paint29_linear_67_6406)"/>
<path d="M118.473 114.198C118.473 114.198 123.769 121.007 125.282 121.007C127.4 121.007 128.611 117.83 127.098 113.593C126.039 110.567 122.861 109.356 122.861 109.356C122.861 109.356 120.289 109.962 118.473 114.198Z" fill="url(#paint30_linear_67_6406)"/>
<path d="M119.23 115.106C119.23 115.106 120.894 111.626 124.072 109.962L123.012 109.356C123.012 109.356 120.289 110.113 118.473 114.198L119.23 115.106Z" fill="url(#paint31_linear_67_6406)"/>
<path d="M125.585 111.172C125.585 111.172 128.309 113.442 127.703 117.83C127.098 122.218 124.375 120.856 123.315 119.797C123.315 119.797 124.526 121.159 125.736 121.31C126.947 121.461 128.46 119.948 128.46 116.922C128.611 113.896 125.585 111.172 125.585 111.172Z" fill="url(#paint32_linear_67_6406)"/>
<path d="M182.779 102.547L182.023 102.85C182.023 102.85 176.576 98.7645 176.576 90.2913C176.576 82.7259 181.115 79.8511 181.115 79.8511C181.115 79.8511 188.378 80.0024 189.739 88.173C190.95 95.1331 186.865 100.429 182.779 102.547Z" fill="url(#paint33_linear_67_6406)"/>
<path d="M186.259 91.9554L186.108 92.1067C186.108 92.1067 184.443 91.0476 184.443 89.0806C184.443 87.2649 185.956 86.6597 185.956 86.6597C185.956 86.6597 187.621 86.6597 188.075 88.6267C188.226 90.1397 187.318 91.3502 186.259 91.9554Z" fill="url(#paint34_linear_67_6406)"/>
<path opacity="0.86" d="M185.653 90.8971C185.502 90.8971 184.746 90.4431 184.746 89.2327C184.746 88.1735 185.502 87.417 185.502 87.417C185.502 87.417 186.561 87.417 186.864 88.6275C186.864 89.8379 186.259 90.5945 185.653 90.8971Z" fill="#9A7AD9"/>
<path d="M139.051 94.0749L135.571 85.9043L136.63 96.9497C136.63 97.101 137.992 95.588 139.051 94.0749Z" fill="url(#paint35_linear_67_6406)"/>
<path d="M134.512 101.337L165.228 89.2324L164.168 91.8047L134.512 102.547V101.337Z" fill="url(#paint36_linear_67_6406)"/>
<path d="M166.287 91.5018L167.648 88.0218L173.852 84.9956L172.188 89.8374L166.287 91.5018Z" fill="white"/>
<path d="M186.864 93.772C186.864 93.772 186.411 95.739 184.897 97.5547L186.108 98.7651C186.108 98.7651 188.226 97.1007 188.68 94.5285L186.864 93.772Z" fill="white"/>
<path d="M193.219 175.024C192.16 169.274 187.015 168.215 186.864 168.215L187.015 167.458C187.015 167.458 192.765 168.669 193.975 174.873L193.219 175.024Z" fill="white"/>
<path d="M190.798 178.504C187.923 173.208 182.174 171.695 182.174 171.695L182.325 171.09C182.628 171.09 188.377 172.754 191.404 178.201L190.798 178.504Z" fill="white"/>
<path d="M188.68 182.438C184.292 178.807 177.937 177.596 177.937 177.596L178.088 176.84C178.391 176.84 184.595 178.05 189.134 181.833L188.68 182.438Z" fill="white"/>
<path d="M186.713 188.944C181.568 185.162 175.667 183.649 175.667 183.497L175.819 182.892C175.819 182.892 181.871 184.405 187.167 188.339L186.713 188.944Z" fill="white"/>
<path d="M185.2 194.845C177.937 191.365 174.154 191.819 174.154 191.819L174.003 191.062C174.154 191.062 177.937 190.608 185.502 194.089L185.2 194.845Z" fill="white"/>
<path d="M180.358 201.2C176.575 201.2 173.852 200.443 173.7 200.443L173.852 199.838C173.852 199.838 178.693 201.048 184.292 200.292L184.443 201.048C182.93 201.048 181.568 201.2 180.358 201.2Z" fill="white"/>
<path d="M175.062 209.219C174.911 209.219 174.911 209.068 175.062 209.219L174.911 208.463C174.911 208.463 178.694 208.614 183.536 205.588L183.838 206.193C179.299 208.917 175.668 209.219 175.062 209.219Z" fill="white"/>
<path d="M183.989 209.219H183.232C183.232 208.917 183.535 184.405 194.278 173.662L194.732 174.116C184.443 184.556 183.989 208.917 183.989 209.219Z" fill="white"/>
<path d="M133.301 80.6077C133.301 80.6077 137.992 88.3244 141.169 91.3506C145.708 95.7385 151.156 91.6532 151.156 91.6532L152.215 89.8375C152.215 89.8375 146.768 83.9365 143.59 78.1868C143.439 78.1868 137.235 76.9764 133.301 80.6077Z" fill="#E1D197"/>
<defs>
<linearGradient id="paint0_linear_67_6406" x1="75.8027" y1="89.6463" x2="211" y2="89.6463" gradientUnits="userSpaceOnUse">
<stop stop-color="#6A11CB"/>
<stop offset="1" stop-color="#2575FC"/>
</linearGradient>
<linearGradient id="paint1_linear_67_6406" x1="68.3516" y1="26.7578" x2="108.388" y2="26.7578" gradientUnits="userSpaceOnUse">
<stop stop-color="#6A11CB"/>
<stop offset="1" stop-color="#2575FC"/>
</linearGradient>
<linearGradient id="paint2_linear_67_6406" x1="39.5112" y1="137.842" x2="34.7288" y2="72.8626" gradientUnits="userSpaceOnUse">
<stop stop-color="#1C257B"/>
<stop offset="1" stop-color="#6A2C9A"/>
</linearGradient>
<radialGradient id="paint3_radial_67_6406" cx="0" cy="0" r="1" gradientUnits="userSpaceOnUse" gradientTransform="translate(23.2075 106.723) rotate(169.647) scale(29.8636 29.8636)">
<stop stop-color="#3996F7"/>
<stop offset="1" stop-color="#6840D5"/>
</radialGradient>
<linearGradient id="paint4_linear_67_6406" x1="107.661" y1="179.282" x2="107.661" y2="60.2114" gradientUnits="userSpaceOnUse">
<stop stop-color="#1C257B"/>
<stop offset="1" stop-color="#482C83"/>
</linearGradient>
<linearGradient id="paint5_linear_67_6406" x1="107.636" y1="168.442" x2="107.636" y2="66.3679" gradientUnits="userSpaceOnUse">
<stop stop-color="#FDFDFF"/>
<stop offset="1" stop-color="#DBCAFF"/>
</linearGradient>
<linearGradient id="paint6_linear_67_6406" x1="28.6426" y1="158.396" x2="28.6426" y2="148.342" gradientUnits="userSpaceOnUse">
<stop stop-color="#1C257B"/>
<stop offset="1" stop-color="#482C83"/>
</linearGradient>
<linearGradient id="paint7_linear_67_6406" x1="77.4628" y1="197.744" x2="77.4628" y2="152.832" gradientUnits="userSpaceOnUse">
<stop stop-color="#1C257B"/>
<stop offset="1" stop-color="#482C83"/>
</linearGradient>
<linearGradient id="paint8_linear_67_6406" x1="74.7583" y1="133.698" x2="74.7583" y2="60.2119" gradientUnits="userSpaceOnUse">
<stop stop-color="#B9ACF4"/>
<stop offset="1" stop-color="#E1D1F5"/>
</linearGradient>
<linearGradient id="paint9_linear_67_6406" x1="106.997" y1="169.406" x2="106.997" y2="165.937" gradientUnits="userSpaceOnUse">
<stop stop-color="#744FD8"/>
<stop offset="1" stop-color="#3996F7"/>
</linearGradient>
<linearGradient id="paint10_linear_67_6406" x1="103.395" y1="177.367" x2="103.395" y2="168.442" gradientUnits="userSpaceOnUse">
<stop stop-color="#B9ACF4"/>
<stop offset="1" stop-color="#E1D1F5"/>
</linearGradient>
<linearGradient id="paint11_linear_67_6406" x1="28.6426" y1="148.342" x2="28.6426" y2="146.739" gradientUnits="userSpaceOnUse">
<stop stop-color="#744FD8"/>
<stop offset="1" stop-color="#3996F7"/>
</linearGradient>
<linearGradient id="paint12_linear_67_6406" x1="66.1737" y1="82.9131" x2="66.1737" y2="78.1913" gradientUnits="userSpaceOnUse">
<stop stop-color="#B9ACF4"/>
<stop offset="1" stop-color="#E1D1F5"/>
</linearGradient>
<linearGradient id="paint13_linear_67_6406" x1="73.1695" y1="119.747" x2="73.1695" y2="66.382" gradientUnits="userSpaceOnUse">
<stop stop-color="#B9ACF4"/>
<stop offset="1" stop-color="#E1D1F5"/>
</linearGradient>
<linearGradient id="paint14_linear_67_6406" x1="111.031" y1="136.725" x2="111.031" y2="125.174" gradientUnits="userSpaceOnUse">
<stop stop-color="#EFEAFF"/>
<stop offset="1" stop-color="#D1BBFF"/>
</linearGradient>
<linearGradient id="paint15_linear_67_6406" x1="111.134" y1="125.174" x2="111.134" y2="91.7289" gradientUnits="userSpaceOnUse">
<stop stop-color="#CF95FF"/>
<stop offset="1" stop-color="#9552FF"/>
</linearGradient>
<linearGradient id="paint16_linear_67_6406" x1="111.082" y1="137.72" x2="111.082" y2="136.725" gradientUnits="userSpaceOnUse">
<stop stop-color="#1C257B"/>
<stop offset="1" stop-color="#482C83"/>
</linearGradient>
<linearGradient id="paint17_linear_67_6406" x1="103.89" y1="126.81" x2="118.174" y2="126.81" gradientUnits="userSpaceOnUse">
<stop stop-color="#8B8BE0"/>
<stop offset="1" stop-color="white"/>
</linearGradient>
<linearGradient id="paint18_linear_67_6406" x1="35.6129" y1="88.8484" x2="35.6129" y2="82.9126" gradientUnits="userSpaceOnUse">
<stop stop-color="#1C257B"/>
<stop offset="1" stop-color="#482C83"/>
</linearGradient>
<linearGradient id="paint19_linear_67_6406" x1="35.1708" y1="97.5305" x2="35.1708" y2="92.2724" gradientUnits="userSpaceOnUse">
<stop stop-color="#1C257B"/>
<stop offset="1" stop-color="#482C83"/>
</linearGradient>
<linearGradient id="paint20_linear_67_6406" x1="141.055" y1="108.858" x2="154.623" y2="108.858" gradientUnits="userSpaceOnUse">
<stop stop-color="#CF6074"/>
<stop offset="1" stop-color="#FF817F"/>
</linearGradient>
<linearGradient id="paint21_linear_67_6406" x1="114.497" y1="112.838" x2="114.497" y2="108.285" gradientUnits="userSpaceOnUse">
<stop stop-color="#1C257B"/>
<stop offset="1" stop-color="#482C83"/>
</linearGradient>
<linearGradient id="paint22_linear_67_6406" x1="158.419" y1="224.822" x2="158.419" y2="78.049" gradientUnits="userSpaceOnUse">
<stop offset="0.0159875" stop-color="#FFC2A9"/>
<stop offset="1" stop-color="#FF9595"/>
</linearGradient>
<linearGradient id="paint23_linear_67_6406" x1="152.321" y1="117.79" x2="152.321" y2="79.823" gradientUnits="userSpaceOnUse">
<stop stop-color="#1C257B"/>
<stop offset="1" stop-color="#482C83"/>
</linearGradient>
<linearGradient id="paint24_linear_67_6406" x1="133.127" y1="104.604" x2="133.127" y2="77.9909" gradientUnits="userSpaceOnUse">
<stop offset="0.0159875" stop-color="#FF9A93"/>
<stop offset="1" stop-color="#FF9595"/>
</linearGradient>
<linearGradient id="paint25_linear_67_6406" x1="127.889" y1="150.189" x2="127.889" y2="108.516" gradientUnits="userSpaceOnUse">
<stop offset="0.0159875" stop-color="#FF9A93"/>
<stop offset="1" stop-color="#FF9595"/>
</linearGradient>
<linearGradient id="paint26_linear_67_6406" x1="188.948" y1="226" x2="188.948" y2="167.703" gradientUnits="userSpaceOnUse">
<stop stop-color="#744FD8"/>
<stop offset="1" stop-color="#3996F7"/>
</linearGradient>
<linearGradient id="paint27_linear_67_6406" x1="186.869" y1="226.256" x2="186.869" y2="173.876" gradientUnits="userSpaceOnUse">
<stop stop-color="#8B8BE0"/>
<stop offset="1" stop-color="white"/>
</linearGradient>
<linearGradient id="paint28_linear_67_6406" x1="162.213" y1="165.757" x2="162.213" y2="107.707" gradientUnits="userSpaceOnUse">
<stop offset="0.0159875" stop-color="#FF997C"/>
<stop offset="1" stop-color="#FF898E"/>
</linearGradient>
<linearGradient id="paint29_linear_67_6406" x1="135.605" y1="133.822" x2="144.66" y2="133.822" gradientUnits="userSpaceOnUse">
<stop stop-color="#CF6074"/>
<stop offset="1" stop-color="#FF817F"/>
</linearGradient>
<linearGradient id="paint30_linear_67_6406" x1="118.545" y1="115.201" x2="127.871" y2="115.201" gradientUnits="userSpaceOnUse">
<stop stop-color="#B9ACF4"/>
<stop offset="1" stop-color="#E1D1F5"/>
</linearGradient>
<linearGradient id="paint31_linear_67_6406" x1="121.348" y1="115.117" x2="121.348" y2="109.438" gradientUnits="userSpaceOnUse">
<stop stop-color="#B9ACF4"/>
<stop offset="1" stop-color="#E1D1F5"/>
</linearGradient>
<linearGradient id="paint32_linear_67_6406" x1="125.946" y1="121.216" x2="125.946" y2="111.151" gradientUnits="userSpaceOnUse">
<stop stop-color="#CF6074"/>
<stop offset="1" stop-color="#FF817F"/>
</linearGradient>
<linearGradient id="paint33_linear_67_6406" x1="183.228" y1="102.866" x2="183.228" y2="79.8225" gradientUnits="userSpaceOnUse">
<stop stop-color="#B9ACF4"/>
<stop offset="1" stop-color="#E1D1F5"/>
</linearGradient>
<linearGradient id="paint34_linear_67_6406" x1="186.249" y1="91.9625" x2="186.249" y2="86.4928" gradientUnits="userSpaceOnUse">
<stop stop-color="#FDFDFF"/>
<stop offset="1" stop-color="#DBCAFF"/>
</linearGradient>
<linearGradient id="paint35_linear_67_6406" x1="137.36" y1="97.0983" x2="137.36" y2="85.9807" gradientUnits="userSpaceOnUse">
<stop stop-color="#CF6074"/>
<stop offset="1" stop-color="#FF817F"/>
</linearGradient>
<linearGradient id="paint36_linear_67_6406" x1="149.926" y1="102.58" x2="149.926" y2="89.2282" gradientUnits="userSpaceOnUse">
<stop stop-color="#B9ACF4"/>
<stop offset="1" stop-color="#E1D1F5"/>
</linearGradient>
</defs>
</svg>
