<svg width="178" height="168" viewBox="0 0 178 168" fill="none" xmlns="http://www.w3.org/2000/svg">
<path fill-rule="evenodd" clip-rule="evenodd" d="M160.995 70.1225L3.99548 119.913C3.38115 120.11 2.81262 120.428 2.32367 120.849C1.83471 121.27 1.43522 121.785 1.14892 122.363C0.862621 122.941 0.695368 123.571 0.656978 124.215C0.618589 124.859 0.709883 125.504 0.925472 126.112L14.1755 163.873C14.5921 165.03 15.4344 165.985 16.5308 166.542C17.6272 167.099 18.8949 167.218 20.0754 166.873L174.595 121.923C175.795 121.57 176.811 120.767 177.432 119.683C178.052 118.598 178.229 117.315 177.925 116.103L167.165 73.5325C167.003 72.8919 166.711 72.2914 166.308 71.7682C165.904 71.2449 165.398 70.81 164.819 70.4903C164.241 70.1707 163.603 69.9732 162.946 69.9099C162.288 69.8466 161.624 69.919 160.995 70.1225ZM9.74548 129.283C9.19032 129.442 8.60021 129.434 8.04992 129.258C7.49963 129.082 7.01384 128.747 6.65399 128.295C6.29414 127.843 6.07643 127.295 6.02838 126.719C5.98032 126.144 6.10408 125.567 6.38403 125.061C6.66398 124.556 7.08753 124.145 7.60107 123.88C8.11461 123.616 8.69509 123.51 9.26904 123.575C9.84299 123.641 10.3846 123.875 10.8254 124.248C11.2662 124.621 11.5865 125.117 11.7455 125.673C11.8523 126.041 11.8853 126.427 11.8425 126.808C11.7997 127.189 11.682 127.558 11.4961 127.893C11.3102 128.229 11.0599 128.524 10.7595 128.763C10.459 129.001 10.1144 129.178 9.74548 129.283Z" fill="url(#paint0_linear_67_6505)"/>
<path fill-rule="evenodd" clip-rule="evenodd" d="M160.845 69.6824L3.84509 119.472C3.23076 119.67 2.66223 119.988 2.17327 120.409C1.68432 120.83 1.28489 121.345 0.998592 121.923C0.712292 122.501 0.544977 123.131 0.506588 123.775C0.468198 124.419 0.559492 125.064 0.775081 125.672L14.0251 163.432C14.4417 164.59 15.2841 165.544 16.3804 166.102C17.4768 166.659 18.7446 166.778 19.9251 166.432L174.435 121.482C175.637 121.134 176.657 120.332 177.278 119.246C177.899 118.16 178.074 116.875 177.765 115.662L167.035 73.0524C166.869 72.4131 166.573 71.8148 166.166 71.2943C165.76 70.7738 165.25 70.3423 164.67 70.0264C164.09 69.7106 163.451 69.5171 162.793 69.4579C162.135 69.3987 161.472 69.4751 160.845 69.6824ZM9.56506 128.842C9.0099 129.002 8.41986 128.994 7.86956 128.818C7.31927 128.642 6.83348 128.307 6.47363 127.855C6.11378 127.403 5.89607 126.855 5.84802 126.279C5.79997 125.703 5.92372 125.126 6.20367 124.621C6.48362 124.116 6.90717 123.705 7.42071 123.44C7.93425 123.176 8.51473 123.07 9.08868 123.135C9.66263 123.2 10.2043 123.435 10.6451 123.808C11.0859 124.181 11.406 124.677 11.5651 125.232C11.7781 125.976 11.6871 126.774 11.3121 127.451C10.9371 128.128 10.3087 128.629 9.56506 128.842Z" fill="url(#paint1_linear_67_6505)"/>
<path fill-rule="evenodd" clip-rule="evenodd" d="M48.7753 153.013L29.3752 158.653L16.9053 121.033L36.4553 114.863L48.7753 153.013Z" fill="#598800"/>
<path fill-rule="evenodd" clip-rule="evenodd" d="M71.4155 146.422L51.5056 152.212L39.2256 113.992L59.3055 107.652L71.4155 146.422Z" fill="#5E9339"/>
<path fill-rule="evenodd" clip-rule="evenodd" d="M94.6652 139.663L74.2153 145.603L62.1353 106.763L82.7753 100.243L94.6652 139.663Z" fill="#97B368"/>
<path fill-rule="evenodd" clip-rule="evenodd" d="M118.546 132.713L97.5455 138.823L85.6855 99.3228L106.896 92.6328L118.546 132.713Z" fill="#B1CC00"/>
<path fill-rule="evenodd" clip-rule="evenodd" d="M143.095 125.573L121.505 131.853L109.885 91.6927L131.695 84.8027L143.095 125.573Z" fill="#E5CC00"/>
<path fill-rule="evenodd" clip-rule="evenodd" d="M168.326 118.233L146.136 124.683L134.766 83.8329L157.206 76.7529L168.326 118.233Z" fill="#EAD631"/>
<path fill-rule="evenodd" clip-rule="evenodd" d="M147.035 39.8624L3.71504 121.032C3.15467 121.353 2.66437 121.784 2.27315 122.298C1.88193 122.811 1.59776 123.398 1.4374 124.024C1.27703 124.65 1.24377 125.301 1.33956 125.94C1.43534 126.578 1.65824 127.191 1.99507 127.742L22.765 162.032C23.4099 163.085 24.4329 163.852 25.6245 164.175C26.8161 164.499 28.0863 164.355 29.1751 163.772L171.045 87.7724C172.137 87.1723 172.955 86.1734 173.327 84.9844C173.7 83.7955 173.599 82.5085 173.045 81.3924L153.775 41.9324C153.484 41.3397 153.074 40.8128 152.571 40.3843C152.069 39.9558 151.484 39.6347 150.852 39.4408C150.221 39.2469 149.557 39.1843 148.9 39.2568C148.244 39.3293 147.609 39.5354 147.035 39.8624ZM11.3051 129.032C10.7963 129.306 10.2177 129.423 9.6426 129.368C9.06746 129.313 8.52162 129.088 8.07411 128.723C7.62661 128.357 7.29759 127.867 7.12868 127.315C6.95977 126.762 6.95854 126.172 7.1252 125.619C7.29186 125.066 7.61888 124.574 8.0649 124.207C8.51091 123.84 9.05591 123.613 9.63082 123.556C10.2057 123.498 10.7847 123.613 11.2946 123.884C11.8044 124.156 12.2223 124.573 12.4951 125.082C12.6772 125.42 12.791 125.79 12.8297 126.171C12.8685 126.552 12.8315 126.938 12.721 127.305C12.6104 127.672 12.4284 128.013 12.1854 128.31C11.9424 128.606 11.6432 128.852 11.3051 129.032Z" fill="url(#paint2_linear_67_6505)"/>
<path fill-rule="evenodd" clip-rule="evenodd" d="M146.765 39.4726L3.44543 120.683C2.88744 121.005 2.39937 121.435 2.00982 121.948C1.62028 122.461 1.33714 123.047 1.17694 123.671C1.01674 124.295 0.982706 124.945 1.0769 125.582C1.1711 126.219 1.3916 126.832 1.72546 127.383L22.5054 161.583C23.1452 162.638 24.1657 163.408 25.3564 163.734C26.5472 164.06 27.8175 163.916 28.9055 163.333L170.775 87.3326C171.861 86.7469 172.681 85.7671 173.066 84.5951C173.451 83.4232 173.372 82.1481 172.845 81.0326L153.505 41.5326C153.214 40.9397 152.805 40.4128 152.302 39.9845C151.799 39.5562 151.213 39.2355 150.582 39.0425C149.95 38.8494 149.285 38.7879 148.629 38.8619C147.973 38.9359 147.338 39.1438 146.765 39.4726ZM11.0355 128.653C10.5264 128.919 9.94997 129.03 9.37835 128.97C8.80674 128.911 8.26537 128.684 7.82208 128.318C7.37878 127.953 7.05324 127.464 6.88629 126.914C6.71934 126.364 6.71834 125.777 6.88348 125.227C7.04862 124.677 7.37255 124.187 7.81463 123.82C8.25672 123.453 8.79736 123.224 9.36877 123.163C9.94019 123.101 10.517 123.21 11.0269 123.475C11.5369 123.74 11.9573 124.15 12.2355 124.653C12.4238 124.993 12.5422 125.368 12.5837 125.754C12.6252 126.141 12.589 126.532 12.4772 126.905C12.3654 127.278 12.1803 127.624 11.9327 127.924C11.6851 128.224 11.3801 128.472 11.0355 128.653Z" fill="url(#paint3_linear_67_6505)"/>
<path fill-rule="evenodd" clip-rule="evenodd" d="M54.3852 144.183L36.5852 153.723L16.5952 119.503L34.4452 109.413L54.3852 144.183Z" fill="#005D88"/>
<path fill-rule="evenodd" clip-rule="evenodd" d="M75.1855 133.053L56.9056 142.843L36.9756 107.983L55.3156 97.6328L75.1855 133.053Z" fill="#005AD9"/>
<path fill-rule="evenodd" clip-rule="evenodd" d="M96.5255 121.632L77.7555 131.672L57.8955 96.1725L76.7355 85.5225L96.5255 121.632Z" fill="#5B5BFF"/>
<path fill-rule="evenodd" clip-rule="evenodd" d="M118.456 109.893L99.1655 120.213L79.3955 84.023L98.7655 73.083L118.456 109.893Z" fill="#8D91FF"/>
<path fill-rule="evenodd" clip-rule="evenodd" d="M140.995 97.823L121.165 108.433L101.485 71.543L121.405 60.293L140.995 97.823Z" fill="#C2BAFF"/>
<path fill-rule="evenodd" clip-rule="evenodd" d="M164.165 85.4226L143.785 96.3326L124.205 58.7126L144.695 47.1426L164.165 85.4226Z" fill="#FF8DF4"/>
<g style="mix-blend-mode:multiply" opacity="0.5">
<path fill-rule="evenodd" clip-rule="evenodd" d="M127.025 13.6727L2.44522 121.453C1.96098 121.878 1.56661 122.396 1.28524 122.976C1.00388 123.556 0.841193 124.186 0.806728 124.83C0.772262 125.474 0.866732 126.118 1.08456 126.724C1.30239 127.331 1.63919 127.888 2.07522 128.363L29.1652 157.813C30.0015 158.723 31.1552 159.279 32.3886 159.364C33.622 159.45 34.8413 159.059 35.7953 158.273L159.975 55.9327C160.939 55.1367 161.557 53.9981 161.699 52.756C161.84 51.514 161.495 50.2654 160.735 49.2727L134.035 14.3727C133.635 13.8475 133.13 13.4103 132.553 13.0882C131.976 12.7661 131.34 12.5661 130.682 12.5004C130.025 12.4348 129.361 12.505 128.732 12.7066C128.103 12.9083 127.522 13.2371 127.025 13.6727ZM11.4552 127.783C11.0092 128.15 10.4645 128.376 9.8898 128.433C9.31512 128.491 8.73636 128.376 8.22671 128.105C7.71706 127.833 7.29941 127.416 7.02658 126.907C6.75374 126.398 6.63793 125.82 6.69387 125.245C6.74982 124.67 6.97498 124.125 7.34085 123.678C7.70671 123.231 8.19683 122.903 8.74929 122.734C9.30176 122.566 9.89176 122.565 10.4446 122.732C10.9975 122.899 11.4884 123.227 11.8553 123.673C12.3472 124.271 12.5814 125.04 12.5064 125.811C12.4314 126.581 12.0533 127.291 11.4552 127.783Z" fill="#914881"/>
</g>
<path fill-rule="evenodd" clip-rule="evenodd" d="M126.555 12.7627L1.98526 120.553C1.50103 120.978 1.10665 121.496 0.825285 122.076C0.54392 122.656 0.381235 123.286 0.34677 123.93C0.312304 124.573 0.406713 125.218 0.624541 125.824C0.842369 126.431 1.17923 126.988 1.61526 127.463L28.7052 156.913C29.5411 157.821 30.6927 158.374 31.9237 158.46C33.1548 158.545 34.3719 158.156 35.3252 157.373L159.505 55.0327C160.471 54.2399 161.09 53.1027 161.232 51.8615C161.373 50.6204 161.027 49.3728 160.265 48.3827L133.565 13.4727C133.163 12.9492 132.659 12.5134 132.082 12.1921C131.506 11.8708 130.87 11.6707 130.214 11.6042C129.557 11.5377 128.894 11.6062 128.265 11.8054C127.636 12.0046 127.054 12.3304 126.555 12.7627ZM10.9953 126.883C10.5502 127.251 10.0059 127.479 9.4313 127.537C8.85672 127.596 8.27763 127.483 7.76724 127.213C7.25686 126.942 6.83811 126.527 6.56399 126.018C6.28988 125.51 6.1727 124.932 6.22726 124.357C6.28183 123.782 6.50566 123.236 6.87051 122.788C7.23536 122.34 7.72481 122.011 8.27695 121.841C8.82908 121.672 9.4191 121.67 9.97238 121.835C10.5257 122.001 11.0173 122.327 11.3852 122.773C11.8783 123.369 12.1143 124.138 12.0412 124.908C11.968 125.679 11.5918 126.389 10.9953 126.883Z" fill="url(#paint4_linear_67_6505)"/>
<path fill-rule="evenodd" clip-rule="evenodd" d="M126.215 12.4328L1.64541 120.223C1.16118 120.648 0.766804 121.166 0.485439 121.746C0.204074 122.326 0.0413884 122.956 0.00692303 123.6C-0.0275423 124.244 0.0669272 124.888 0.284755 125.494C0.502583 126.101 0.839384 126.658 1.27542 127.133L28.3654 156.583C29.2026 157.489 30.3549 158.041 31.5859 158.124C32.8169 158.208 34.0333 157.818 34.9854 157.033L159.165 54.6928C160.132 53.8983 160.751 52.7593 160.893 51.5166C161.035 50.2738 160.688 49.0246 159.925 48.0328L133.225 13.1328C132.824 12.6088 132.319 12.1728 131.742 11.8515C131.165 11.5303 130.529 11.3307 129.872 11.2651C129.215 11.1995 128.552 11.2693 127.923 11.4701C127.294 11.671 126.713 11.9986 126.215 12.4328ZM10.6554 126.543C10.2103 126.911 9.6661 127.139 9.09152 127.198C8.51693 127.256 7.93784 127.143 7.42746 126.873C6.91707 126.603 6.49833 126.187 6.22421 125.679C5.95009 125.17 5.83285 124.592 5.88742 124.017C5.94198 123.442 6.16588 122.896 6.53073 122.448C6.89558 122 7.38503 121.671 7.93716 121.501C8.48929 121.332 9.07932 121.33 9.63259 121.496C10.1859 121.661 10.6775 121.988 11.0454 122.433C11.5386 123.03 11.7745 123.798 11.7013 124.569C11.6282 125.339 11.252 126.049 10.6554 126.543Z" fill="url(#paint5_linear_67_6505)"/>
<path fill-rule="evenodd" clip-rule="evenodd" d="M56.2152 133.253L40.6252 146.103L14.3052 116.473L29.8252 103.073L56.2152 133.253Z" fill="#88005B"/>
<path fill-rule="evenodd" clip-rule="evenodd" d="M74.4153 118.253L58.4153 131.443L32.0254 101.183L47.9754 87.4229L74.4153 118.253Z" fill="#D9005B"/>
<path fill-rule="evenodd" clip-rule="evenodd" d="M93.0953 102.863L76.6653 116.403L50.2153 85.4825L66.6053 71.3525L93.0953 102.863Z" fill="#FF665B"/>
<path fill-rule="evenodd" clip-rule="evenodd" d="M112.295 87.0428L95.4053 100.953L68.9053 69.3528L85.7452 54.8228L112.295 87.0428Z" fill="#FF928D"/>
<path fill-rule="evenodd" clip-rule="evenodd" d="M132.015 70.783L114.665 85.083L88.125 52.783L105.435 37.833L132.015 70.783Z" fill="#FFC4BA"/>
<path fill-rule="evenodd" clip-rule="evenodd" d="M152.295 54.0728L134.455 68.7728L107.875 35.7328L125.695 20.3628L152.295 54.0728Z" fill="#FFD88D"/>
<g style="mix-blend-mode:multiply" opacity="0.5">
<path fill-rule="evenodd" clip-rule="evenodd" d="M114.195 2.44282L2.28524 123.353C1.84861 123.827 1.51104 124.383 1.29238 124.99C1.07373 125.596 0.978395 126.24 1.01193 126.884C1.04546 127.527 1.20722 128.158 1.4877 128.738C1.76817 129.318 2.16169 129.837 2.64523 130.263L32.0952 156.103C33.0232 156.916 34.2271 157.343 35.46 157.296C36.6928 157.25 37.8611 156.733 38.7252 155.853L151.425 41.0328C152.292 40.1328 152.776 38.9321 152.776 37.6828C152.776 36.4335 152.292 35.2328 151.425 34.3328L121.245 2.39282C120.79 1.91372 120.241 1.53313 119.633 1.2746C119.025 1.01606 118.37 0.885083 117.709 0.88977C117.049 0.894457 116.396 1.03471 115.791 1.30185C115.187 1.56898 114.644 1.95732 114.195 2.44282ZM11.9052 128.693C11.4968 129.101 10.9765 129.379 10.4101 129.492C9.84372 129.604 9.25663 129.547 8.72311 129.325C8.18959 129.104 7.73363 128.73 7.41281 128.25C7.09198 127.77 6.92074 127.205 6.92074 126.628C6.92074 126.05 7.09198 125.486 7.41281 125.006C7.73363 124.525 8.18959 124.151 8.72311 123.93C9.25663 123.709 9.84372 123.651 10.4101 123.764C10.9765 123.876 11.4968 124.155 11.9052 124.563C12.1765 124.834 12.3916 125.156 12.5384 125.51C12.6852 125.865 12.7607 126.244 12.7607 126.628C12.7607 127.011 12.6852 127.391 12.5384 127.745C12.3916 128.1 12.1765 128.422 11.9052 128.693Z" fill="#914881"/>
</g>
<path fill-rule="evenodd" clip-rule="evenodd" d="M113.626 1.87236L1.70565 122.782C1.26902 123.256 0.931452 123.813 0.712795 124.419C0.494137 125.026 0.398805 125.669 0.432338 126.313C0.465871 126.957 0.627629 127.587 0.908107 128.167C1.18858 128.748 1.5821 129.266 2.06564 129.692L31.5157 155.542C32.4453 156.356 33.6508 156.783 34.8853 156.737C36.1198 156.69 37.2899 156.174 38.1557 155.292L150.846 40.4224C151.72 39.5302 152.215 38.3338 152.226 37.0845C152.238 35.8351 151.764 34.6301 150.906 33.7224L120.666 1.83237C120.213 1.35158 119.666 0.969205 119.059 0.709077C118.452 0.448949 117.797 0.316637 117.137 0.32039C116.477 0.324143 115.824 0.463887 115.22 0.730897C114.616 0.997907 114.073 1.38646 113.626 1.87236ZM11.3357 128.122C10.9278 128.532 10.4076 128.812 9.84079 128.925C9.274 129.039 8.68616 128.982 8.15182 128.761C7.61748 128.541 7.16065 128.167 6.8392 127.686C6.51775 127.206 6.34616 126.64 6.34616 126.062C6.34616 125.484 6.51775 124.919 6.8392 124.439C7.16065 123.958 7.61748 123.584 8.15182 123.363C8.68616 123.143 9.274 123.086 9.84079 123.199C10.4076 123.313 10.9278 123.593 11.3357 124.002C11.6066 124.273 11.8215 124.594 11.9682 124.947C12.1148 125.301 12.1903 125.68 12.1903 126.062C12.1903 126.445 12.1148 126.824 11.9682 127.177C11.8215 127.531 11.6066 127.852 11.3357 128.122Z" fill="url(#paint6_linear_67_6505)"/>
<path fill-rule="evenodd" clip-rule="evenodd" d="M113.296 1.55246L1.37563 122.462C0.938996 122.937 0.601433 123.493 0.382775 124.099C0.164117 124.706 0.0687239 125.35 0.102257 125.993C0.13579 126.637 0.297549 127.267 0.578026 127.848C0.858504 128.428 1.25208 128.946 1.73562 129.372L31.1856 155.212C32.1151 156.025 33.3194 156.453 34.5532 156.408C35.787 156.363 36.9572 155.85 37.8256 154.972L150.516 40.1025C151.392 39.2085 151.887 38.0093 151.896 36.7576C151.905 35.5058 151.428 34.2994 150.566 33.3925L120.336 1.50246C119.881 1.02363 119.333 0.643206 118.726 0.38478C118.119 0.126355 117.465 -0.00456619 116.805 0.000121578C116.145 0.00480935 115.493 0.145006 114.889 0.412033C114.285 0.679059 113.743 1.06723 113.296 1.55246ZM11.0056 127.802C10.5972 128.211 10.0769 128.489 9.51052 128.601C8.94412 128.714 8.35703 128.656 7.82351 128.435C7.28999 128.214 6.83397 127.84 6.51315 127.36C6.19232 126.879 6.02108 126.315 6.02108 125.737C6.02108 125.16 6.19232 124.595 6.51315 124.115C6.83397 123.635 7.28999 123.261 7.82351 123.04C8.35703 122.819 8.94412 122.761 9.51052 122.874C10.0769 122.986 10.5972 123.264 11.0056 123.672C11.2768 123.944 11.492 124.266 11.6388 124.62C11.7855 124.974 11.8611 125.354 11.8611 125.737C11.8611 126.121 11.7855 126.501 11.6388 126.855C11.492 127.209 11.2768 127.531 11.0056 127.802Z" fill="url(#paint7_linear_67_6505)"/>
<path d="M85.2824 56.536C84.5363 55.8041 84.0321 54.9793 83.7696 54.0616C83.4999 53.1367 83.4802 52.2203 83.7106 51.3124C83.9482 50.3971 84.415 49.5847 85.1111 48.8752C85.9291 48.0413 86.8442 47.5108 87.8564 47.2838C88.8687 47.0567 89.8841 47.1629 90.9027 47.6023L89.7295 48.7983C89.0606 48.5583 88.4045 48.5175 87.7611 48.6759C87.1249 48.8269 86.5342 49.1804 85.9888 49.7363C85.465 50.2703 85.1193 50.8714 84.9519 51.5396C84.7844 52.2078 84.8127 52.8886 85.0367 53.5821C85.2534 54.2684 85.669 54.9129 86.2834 55.5156C86.8905 56.1112 87.5429 56.5143 88.2405 56.725C88.9308 56.9285 89.6084 56.9401 90.2733 56.7598C90.9382 56.5795 91.5325 56.2224 92.0564 55.6884C92.6017 55.1325 92.9474 54.5387 93.0935 53.9069C93.2395 53.2606 93.1861 52.6054 92.9334 51.9412L94.1066 50.7452C94.5582 51.7481 94.6802 52.7577 94.4726 53.7741C94.2577 54.7833 93.7412 55.7049 92.9232 56.5388C92.2271 57.2483 91.4275 57.7342 90.5243 57.9965C89.6209 58.2442 88.708 58.2458 87.7854 58.001C86.8628 57.7563 86.0285 57.2679 85.2824 56.536ZM101.27 48.0521C100.574 48.7616 99.7743 49.2475 98.8711 49.5098C97.9606 49.7649 97.0404 49.7737 96.1107 49.5363C95.1808 49.2844 94.3428 48.7924 93.5967 48.0605C92.8506 47.3286 92.3464 46.5038 92.084 45.5861C91.8214 44.6539 91.8126 43.7338 92.0575 42.8257C92.295 41.9105 92.7618 41.0981 93.4579 40.3885C94.1611 39.6717 94.9679 39.1857 95.8785 38.9306C96.7817 38.6684 97.6946 38.6596 98.6171 38.9043C99.5397 39.1491 100.378 39.641 101.131 40.3801C101.885 41.1192 102.392 41.9476 102.655 42.8653C102.917 43.783 102.93 44.6995 102.692 45.6147C102.447 46.5228 101.973 47.3352 101.27 48.0521ZM100.403 47.2018C100.927 46.6678 101.273 46.0667 101.44 45.3985C101.615 44.7229 101.59 44.0385 101.366 43.345C101.149 42.6442 100.737 41.9961 100.13 41.4005C99.5157 40.7977 98.8597 40.3983 98.1622 40.2021C97.4646 39.9914 96.7834 39.9762 96.1185 40.1565C95.4536 40.3368 94.8556 40.6976 94.3247 41.2389C93.7937 41.7801 93.4444 42.3849 93.2769 43.0531C93.1095 43.7213 93.1341 44.4058 93.351 45.1066C93.5677 45.7929 93.9833 46.4374 94.5977 47.0401C95.2048 47.6357 95.8572 48.0388 96.5548 48.2495C97.2596 48.4529 97.9445 48.4644 98.6094 48.2841C99.2814 48.0965 99.8794 47.7358 100.403 47.2018ZM106.421 41.0235L109.047 38.3463L109.859 39.1428L106.253 42.8184L98.6059 35.3163L99.5853 34.3179L106.421 41.0235ZM114.377 34.6906C113.681 35.4001 112.882 35.886 111.978 36.1483C111.068 36.4034 110.148 36.4122 109.218 36.1748C108.288 35.9229 107.45 35.431 106.704 34.6991C105.958 33.9671 105.454 33.1423 105.191 32.2246C104.929 31.2924 104.92 30.3723 105.165 29.4642C105.402 28.549 105.869 27.7366 106.565 27.0271C107.268 26.3102 108.075 25.8243 108.986 25.5692C109.889 25.3069 110.802 25.2981 111.725 25.5429C112.647 25.7876 113.485 26.2795 114.238 27.0186C114.992 27.7577 115.5 28.5861 115.762 29.5038C116.025 30.4215 116.037 31.338 115.799 32.2532C115.555 33.1613 115.081 33.9738 114.377 34.6906ZM113.511 33.8403C114.034 33.3063 114.38 32.7052 114.548 32.037C114.722 31.3615 114.697 30.677 114.473 29.9835C114.257 29.2828 113.845 28.6346 113.237 28.039C112.623 27.4363 111.967 27.0368 111.27 26.8406C110.572 26.6299 109.891 26.6147 109.226 26.795C108.561 26.9753 107.963 27.3361 107.432 27.8774C106.901 28.4187 106.552 29.0234 106.384 29.6916C106.217 30.3599 106.242 31.0444 106.458 31.7451C106.675 32.4314 107.091 33.0759 107.705 33.6787C108.312 34.2742 108.965 34.6774 109.662 34.888C110.367 35.0914 111.052 35.1029 111.717 34.9227C112.389 34.7351 112.987 34.3743 113.511 33.8403ZM123.311 25.4302L118.397 24.184L117.213 25.3909L120.34 28.4585L119.361 29.4569L111.713 21.9548L114.135 19.4861C114.702 18.9083 115.278 18.5187 115.863 18.3175C116.455 18.1089 117.016 18.0709 117.546 18.2035C118.077 18.3361 118.557 18.614 118.989 19.0374C119.516 19.554 119.829 20.1633 119.93 20.8652C120.039 21.5597 119.861 22.2752 119.397 23.0114L124.484 24.2342L123.311 25.4302ZM116.412 24.6052L117.855 23.1349C118.386 22.5936 118.652 22.0585 118.654 21.5295C118.649 20.9934 118.423 20.5065 117.977 20.0688C117.524 19.6239 117.04 19.4148 116.526 19.4414C116.019 19.4608 115.496 19.7448 114.958 20.2934L113.516 21.7636L116.412 24.6052Z" fill="#642F4D"/>
<defs>
<linearGradient id="paint0_linear_67_6505" x1="135.564" y1="162.562" x2="46.7737" y2="75.4604" gradientUnits="userSpaceOnUse">
<stop offset="0.02" stop-color="#C289B0"/>
<stop offset="1" stop-color="#FF93AC"/>
</linearGradient>
<linearGradient id="paint1_linear_67_6505" x1="135.382" y1="162.118" x2="46.5923" y2="75.0166" gradientUnits="userSpaceOnUse">
<stop offset="0.02" stop-color="#FFDBE7"/>
<stop offset="1" stop-color="#FFE8DE"/>
</linearGradient>
<linearGradient id="paint2_linear_67_6505" x1="124270" y1="35215.9" x2="124270" y2="23139.6" gradientUnits="userSpaceOnUse">
<stop offset="0.02" stop-color="#C289B0"/>
<stop offset="1" stop-color="#FF93AC"/>
</linearGradient>
<linearGradient id="paint3_linear_67_6505" x1="124299" y1="35145.6" x2="124299" y2="23072.3" gradientUnits="userSpaceOnUse">
<stop offset="0.02" stop-color="#FFDBE7"/>
<stop offset="1" stop-color="#FFE8DE"/>
</linearGradient>
<linearGradient id="paint4_linear_67_6505" x1="117202" y1="36703.6" x2="117202" y2="26920.6" gradientUnits="userSpaceOnUse">
<stop offset="0.02" stop-color="#C289B0"/>
<stop offset="1" stop-color="#FF93AC"/>
</linearGradient>
<linearGradient id="paint5_linear_67_6505" x1="117202" y1="36635" x2="117202" y2="26851.8" gradientUnits="userSpaceOnUse">
<stop offset="0.02" stop-color="#FFDBE7"/>
<stop offset="1" stop-color="#FFE8DE"/>
</linearGradient>
<linearGradient id="paint6_linear_67_6505" x1="110558" y1="36500.9" x2="110558" y2="28121.5" gradientUnits="userSpaceOnUse">
<stop offset="0.02" stop-color="#C289B0"/>
<stop offset="1" stop-color="#FF93AC"/>
</linearGradient>
<linearGradient id="paint7_linear_67_6505" x1="93.9626" y1="97.6995" x2="55.721" y2="60.1851" gradientUnits="userSpaceOnUse">
<stop offset="0.02" stop-color="#FFE5EE"/>
<stop offset="1" stop-color="#FFE8DE"/>
</linearGradient>
</defs>
</svg>
