<svg width="104" height="104" viewBox="0 0 104 104" fill="none" xmlns="http://www.w3.org/2000/svg">
<path d="M13.7467 83.1295L12.8989 77.6572L77.2378 94.8968L74.6297 100.6C74.649 100.528 42.6841 89.4177 13.7467 83.1295Z" fill="url(#paint0_linear_67_6614)"/>
<path d="M12.9186 77.5854L38.5972 19.7502L87.5289 30.0074L77.3294 94.8443L12.9186 77.5854Z" fill="url(#paint1_linear_67_6614)"/>
<path d="M55.06 18.7619L56.0048 15.2355C56.0048 15.2355 66.75 15.7235 76.9295 19.7623L75.644 23.1203C75.5913 23.0291 67.3499 19.818 55.06 18.7619Z" fill="url(#paint2_linear_67_6614)"/>
<path d="M55.06 18.7626L56.0187 19.7908L73.9875 23.8342L75.6441 23.1211C75.5914 23.0298 66.3283 19.3136 55.06 18.7626Z" fill="#140047"/>
<path opacity="0.86" d="M19.0013 75.8991L74.7516 91.223L84.8285 32.6012L44.9355 21.1406L19.0013 75.8991Z" fill="#9ABAB3"/>
<path d="M74.7516 91.2232C52.0888 79.3656 16.53 75.6227 16.53 75.6227L41.8295 17.763C66.9982 17.1021 88.8942 24.049 88.8942 24.049L88.8556 24.1929L74.7516 91.2232Z" fill="url(#paint3_linear_67_6614)"/>
<path opacity="0.62" d="M42.9136 26.3838C42.9136 26.3838 51.7067 25.8088 66.5282 28.9317L65.7568 31.8104C65.7568 31.8104 56.1184 28.9193 41.7593 28.3886L42.9136 26.3838Z" fill="url(#paint4_linear_67_6614)"/>
<path opacity="0.62" d="M33.2986 47.8731C33.2986 47.8731 43.7404 49.2054 56.8771 52.5711L56.2407 54.946C56.2407 54.946 46.6022 52.0549 31.9233 50.1272L33.2986 47.8731Z" fill="url(#paint5_linear_67_6614)"/>
<path opacity="0.62" d="M29.0719 58.4656C29.0719 58.4656 39.6525 60.1437 52.7891 63.5093L52.2492 65.5244C52.2492 65.5244 43.3445 63.0613 28.2248 60.4755L29.0719 58.4656Z" fill="url(#paint6_linear_67_6614)"/>
<path opacity="0.62" d="M38.0199 36.8739C38.0199 36.8739 48.5968 37.7025 62.3336 40.8433L61.4042 43.4482C61.4042 43.4482 52.1063 40.7255 36.8657 38.8787L38.0199 36.8739Z" fill="url(#paint7_linear_67_6614)"/>
<path d="M38.646 35.1138L41.3594 29.593L41.4314 29.6123C41.5753 29.6508 54.9654 29.7676 69.9346 33.7786C70.1505 33.8365 70.2944 33.875 70.5104 33.9329L70.5823 33.9522L68.8661 40.3573L68.7941 40.338C68.6502 40.2994 54.3762 36.8604 38.7899 35.1524L38.646 35.1138ZM41.3928 29.7562L38.8285 35.0084C53.8004 36.7061 67.59 39.9382 68.6887 40.1555L70.3279 34.0383C70.1839 33.9997 69.968 33.9418 69.8241 33.9033C55.3393 30.0992 42.295 29.8437 41.3928 29.7562Z" fill="url(#paint8_linear_67_6614)"/>
<path d="M33.4826 46.6112L33.5019 46.5392L36.2539 40.8745L36.3259 40.8938C36.4698 40.9323 51.3171 42.5195 66.2144 46.5112C66.5022 46.5883 66.7181 46.6462 67.006 46.7233L67.078 46.7426L65.246 53.5795L65.1741 53.5602C64.9582 53.5024 49.4852 49.3564 33.6265 46.6498L33.4826 46.6112ZM36.3593 41.057L33.7371 46.5251C49.0727 49.1687 63.9892 53.0885 65.1407 53.397L66.8955 46.848C52.2334 42.8422 37.3334 41.1637 36.3593 41.057Z" fill="url(#paint9_linear_67_6614)"/>
<path d="M28.8768 57.1789L28.8961 57.107L31.4271 51.6915L31.499 51.7108C31.643 51.7494 48.0106 54.2838 62.8359 58.2563C63.1957 58.3527 63.4836 58.4298 63.8434 58.5262L63.9154 58.5455L62.122 65.2385L62.05 65.2192C61.9061 65.1806 45.6904 60.0643 28.9295 57.2702L28.8768 57.1789ZM31.4797 51.7828L29.0786 57.0016C45.2251 59.7854 60.8317 64.5842 62.0359 64.984L63.7521 58.5789C63.4643 58.5018 63.1044 58.4054 62.8166 58.3282C48.3511 54.4522 32.5785 52.0001 31.4797 51.7828Z" fill="url(#paint10_linear_67_6614)"/>
<path d="M24.5888 67.1366L24.608 67.0646L27.139 61.6491L27.2109 61.6684C27.4269 61.7263 46.3236 64.3214 60.9124 69.4645L60.9843 69.4838L59.3452 75.6011L59.2733 75.5818C59.1293 75.5432 41.383 70.0939 24.6414 67.2278L24.5888 67.1366ZM27.2444 61.8316L24.8432 67.0505C40.9898 69.8342 58.055 74.9468 59.2591 75.3466L60.8211 69.5172C46.6449 64.5617 28.3624 61.977 27.2444 61.8316Z" fill="url(#paint11_linear_67_6614)"/>
<path d="M72.9308 88.8066C66.0491 84.2629 57.6097 82.0787 57.5377 82.0594L57.5763 81.9155C57.6482 81.9348 66.179 84.0663 73.0413 88.6819L72.9308 88.8066Z" fill="url(#paint12_linear_67_6614)"/>
<path opacity="0.3" d="M74.7517 91.2232C52.0889 79.3656 16.5301 75.6227 16.5301 75.6227L41.8296 17.7631C41.8296 17.7631 27.1304 56.7883 31.0286 67.8603C35.4627 80.3872 60.3224 85.1971 67.6911 75.8327C76.8141 64.2388 88.1808 26.7118 88.7837 24.1736L74.7517 91.2232Z" fill="url(#paint13_linear_67_6614)"/>
<path d="M61.4179 15.7607L61.536 17.335L72.7206 19.6377L73.3556 18.4194C73.3556 18.4194 69.6711 17.2008 61.4179 15.7607Z" fill="url(#paint14_linear_67_6614)"/>
<path d="M34.7964 83.4478C34.7964 83.4478 68.4644 91.0807 77.3291 94.8444L34.7964 83.4478Z" fill="#9A7DF8"/>
<path d="M86.3742 68.5736L92.8275 62.0493L94.4993 64.7342L88.893 69.2485L86.3742 68.5736Z" fill="#4F31E0"/>
<path d="M22.2453 28.0962L24.2067 25.3821L19.6539 19.9198L15.8317 21.5182L22.2453 28.0962Z" fill="#FF1D9C"/>
<path d="M37.4188 6.01365L43.2599 5.80467L43.8277 8.57938L37.0331 7.453L37.4188 6.01365Z" fill="#FFC188"/>
<path d="M91.5761 29.0094L100.232 26.932L100.156 30.3827L91.5978 30.9435L91.5761 29.0094Z" fill="#BDE0FF"/>
<defs>
<linearGradient id="paint0_linear_67_6614" x1="43.531" y1="92.2006" x2="45.1279" y2="86.2407" gradientUnits="userSpaceOnUse">
<stop stop-color="#1C257B"/>
<stop offset="1" stop-color="#482C83"/>
</linearGradient>
<linearGradient id="paint1_linear_67_6614" x1="45.1283" y1="86.2409" x2="62.019" y2="23.2039" gradientUnits="userSpaceOnUse">
<stop stop-color="#744FD8"/>
<stop offset="1" stop-color="#3996F7"/>
</linearGradient>
<linearGradient id="paint2_linear_67_6614" x1="65.3864" y1="21.4948" x2="66.6984" y2="16.598" gradientUnits="userSpaceOnUse">
<stop stop-color="#1C257B"/>
<stop offset="1" stop-color="#482C83"/>
</linearGradient>
<linearGradient id="paint3_linear_67_6614" x1="45.6769" y1="83.4334" x2="63.4233" y2="17.2029" gradientUnits="userSpaceOnUse">
<stop stop-color="#D1BBFF"/>
<stop offset="1" stop-color="white"/>
</linearGradient>
<linearGradient id="paint4_linear_67_6614" x1="42.4911" y1="25.5359" x2="65.7262" y2="31.7617" gradientUnits="userSpaceOnUse">
<stop stop-color="#8B8BE0"/>
<stop offset="1" stop-color="#A177B7"/>
</linearGradient>
<linearGradient id="paint5_linear_67_6614" x1="32.4526" y1="48.1671" x2="56.3172" y2="54.5616" gradientUnits="userSpaceOnUse">
<stop stop-color="#8B8BE0"/>
<stop offset="1" stop-color="#A177B7"/>
</linearGradient>
<linearGradient id="paint6_linear_67_6614" x1="28.6991" y1="58.8001" x2="52.3802" y2="65.1455" gradientUnits="userSpaceOnUse">
<stop stop-color="#8B8BE0"/>
<stop offset="1" stop-color="#A177B7"/>
</linearGradient>
<linearGradient id="paint7_linear_67_6614" x1="37.4898" y1="36.5938" x2="61.7426" y2="43.0923" gradientUnits="userSpaceOnUse">
<stop stop-color="#8B8BE0"/>
<stop offset="1" stop-color="#A177B7"/>
</linearGradient>
<linearGradient id="paint8_linear_67_6614" x1="39.8176" y1="30.6143" x2="69.2691" y2="38.5058" gradientUnits="userSpaceOnUse">
<stop stop-color="#8B8BE0"/>
<stop offset="1" stop-color="#A177B7"/>
</linearGradient>
<linearGradient id="paint9_linear_67_6614" x1="34.6154" y1="42.4656" x2="65.9577" y2="50.8638" gradientUnits="userSpaceOnUse">
<stop stop-color="#8B8BE0"/>
<stop offset="1" stop-color="#A177B7"/>
</linearGradient>
<linearGradient id="paint10_linear_67_6614" x1="29.8622" y1="53.3805" x2="62.9106" y2="62.2358" gradientUnits="userSpaceOnUse">
<stop stop-color="#8B8BE0"/>
<stop offset="1" stop-color="#A177B7"/>
</linearGradient>
<linearGradient id="paint11_linear_67_6614" x1="25.5549" y1="63.5143" x2="60.0885" y2="72.7675" gradientUnits="userSpaceOnUse">
<stop stop-color="#8B8BE0"/>
<stop offset="1" stop-color="#A177B7"/>
</linearGradient>
<linearGradient id="paint12_linear_67_6614" x1="57.2066" y1="83.2333" x2="73.3342" y2="87.5547" gradientUnits="userSpaceOnUse">
<stop stop-color="#8B8BE0"/>
<stop offset="1" stop-color="#A177B7"/>
</linearGradient>
<linearGradient id="paint13_linear_67_6614" x1="45.677" y1="83.4334" x2="63.3732" y2="17.39" gradientUnits="userSpaceOnUse">
<stop stop-color="#8B8BE0"/>
<stop offset="1" stop-color="#595992"/>
</linearGradient>
<linearGradient id="paint14_linear_67_6614" x1="61.3249" y1="16.2473" x2="73.1283" y2="19.41" gradientUnits="userSpaceOnUse">
<stop stop-color="#B9ACF4"/>
<stop offset="1" stop-color="#E1D1F5"/>
</linearGradient>
</defs>
</svg>
