<svg width="173" height="200" viewBox="0 0 173 200" fill="none" xmlns="http://www.w3.org/2000/svg">
<path opacity="0.2" d="M2.85681 97.5443C1.26978 61.645 51.7373 16.5326 95.0633 23.9984C140.928 31.9407 181.239 131.696 137.754 165.213C94.2698 198.888 4.44384 133.92 2.85681 97.5443Z" fill="url(#paint0_linear_67_6829)"/>
<path d="M100.459 107.075C100.459 107.075 101.729 66.8869 145.531 43.6953C145.531 43.6953 158.386 80.5477 111.092 117.4L100.459 107.075Z" fill="url(#paint1_linear_67_6829)"/>
<path d="M143.944 47.1895L106.966 108.822L103.633 99.45C103.474 99.45 107.759 63.3918 143.944 47.1895Z" fill="#BDE0FF"/>
<path d="M67.2904 112.634C67.2904 112.634 77.7648 76.8939 42.374 57.5146C42.374 57.5146 27.2972 90.0782 62.688 111.205L67.2904 112.634Z" fill="url(#paint2_radial_67_6829)"/>
<path d="M42.3741 57.5146L67.2904 112.634L62.0532 109.457C61.8945 109.616 31.8996 91.6667 42.3741 57.5146Z" fill="#BDE0FF"/>
<path d="M113.155 101.675C113.155 101.675 120.138 78.3246 146.483 80.2308C146.483 80.2308 143.309 103.581 116.171 102.628L113.155 101.675Z" fill="url(#paint3_radial_67_6829)"/>
<path d="M146.483 80.0713L113.155 101.516L117.123 101.674C117.282 101.833 140.135 102.628 146.483 80.0713Z" fill="#BDE0FF"/>
<path d="M0 63.551L10.6331 47.3486L16.1877 51.161L4.91981 66.4102L0 63.551Z" fill="#FF1D9C"/>
<path d="M129.026 39.7239L121.725 49.7312L118.551 47.0308L125.217 37.9766L129.026 39.7239Z" fill="#4F31E0"/>
<path d="M65.8618 53.3846L53.8004 56.4026L53.0068 52.4315L64.1161 49.5723L65.8618 53.3846Z" fill="#4F31E0"/>
<path d="M89.5089 34.1642L88.2393 19.0737L93.3178 16.0557L97.444 34.323L89.5089 34.1642Z" fill="#6877FF"/>
<path d="M52.5305 138.844L51.8957 139.797L54.9111 151.393C54.9111 151.552 54.9111 151.711 55.0698 151.87C55.5459 154.411 55.5459 157.747 55.2285 159.177L53.9589 158.859L45.3889 156.476L36.3428 154.094L18.8855 163.148C18.2506 162.036 17.6158 158.224 17.4571 155.206V155.047L17.9333 143.61L17.1398 142.816L3.96738 129.79C3.33257 127.725 2.85647 126.454 3.33258 124.548L22.3769 122.483L30.1534 121.689L43.1671 120.259L62.2114 118.194C62.8463 119.783 63.3224 120.895 62.8462 123.436L52.5305 138.844Z" fill="url(#paint4_radial_67_6829)"/>
<path d="M52.6891 139.003C52.5304 139.162 52.213 139.48 52.0543 139.797L54.4349 154.094L55.2284 159.177C54.7523 159.177 54.4348 159.177 53.9587 159.177C53.9587 159.177 53.8001 159.177 53.6414 159.177C52.8478 159.177 51.8956 159.018 51.1021 158.859C50.626 158.859 50.1499 158.7 49.5151 158.541C49.1977 158.383 48.7215 158.383 48.4041 158.224C47.928 158.065 47.6106 158.065 47.1345 157.906C46.6584 157.747 46.341 157.747 45.8649 157.588H45.7062C45.5475 157.588 45.3888 157.429 45.3888 157.429C42.2147 156.318 39.1993 155.047 36.5014 153.935C31.1055 157.906 26.3444 160.13 19.0441 162.989L18.7267 157.747L18.0918 143.292C17.7744 143.133 17.6157 142.974 17.2983 142.816C11.585 138.527 7.14134 134.873 4.12598 129.631L6.50652 128.678L22.5355 122.642L22.6943 122.324L26.8205 114.223L31.4229 105.169L43.4843 120.259L43.643 120.577L60.1481 123.119L63.0048 123.595C60.1482 129.949 57.2915 133.761 52.6891 139.003Z" fill="url(#paint5_radial_67_6829)"/>
<path d="M59.9898 122.959C56.8157 127.883 51.4198 134.555 51.4198 134.555C51.4198 134.555 51.8959 136.302 52.5307 138.844V139.003C53.6416 142.974 54.9113 148.851 54.9113 151.869C54.9113 152.981 54.7526 153.617 54.4352 153.934C54.4352 153.934 54.2764 154.093 54.1177 154.093C53.8003 154.252 53.1655 154.252 52.5307 154.093C52.5307 154.093 52.5307 154.093 52.372 154.093C52.0546 154.093 51.7372 153.934 51.4198 153.934C50.9437 153.775 50.4676 153.775 49.9915 153.617C48.5631 153.299 46.9761 152.822 45.2304 152.346C41.2628 151.075 37.2952 149.486 35.8669 149.01C35.5495 148.851 35.3908 148.851 35.3908 148.851C35.3908 148.851 21.5836 158.064 18.2508 157.905C18.0921 157.905 18.0922 157.905 17.9335 157.905C17.4573 157.746 17.2986 156.635 16.9812 155.046C16.6638 151.869 16.6638 146.786 16.8225 143.133V142.974C16.8225 140.432 16.9812 138.367 16.9812 138.367C16.9812 138.367 9.9983 133.125 6.03072 128.995C4.28499 127.089 3.01533 125.501 3.17404 124.706C3.65015 122.324 21.5836 117.717 21.5836 117.717C21.5836 117.717 22.8532 114.381 24.4402 110.569C26.5034 105.804 29.0427 100.403 30.3123 100.244C33.0102 99.9264 42.5324 115.493 42.5324 115.493C42.5324 115.493 61.7355 116.605 61.8942 118.511C62.2116 118.988 61.2594 120.735 59.9898 122.959Z" fill="url(#paint6_radial_67_6829)"/>
<path opacity="0.62" d="M53.9588 159.176C53.9588 159.176 53.8002 159.176 53.6415 159.176C53.1654 159.176 52.3718 159.176 51.1022 158.859C50.6261 158.859 50.15 158.7 49.5152 158.541C49.1978 158.382 48.7216 158.382 48.4042 158.223C47.9281 158.064 47.6107 158.064 47.1346 157.905C46.6585 157.747 46.3411 157.747 45.865 157.588H45.7063C45.5476 157.588 45.3889 157.588 45.3889 157.429C42.8496 156.635 39.993 155.523 36.5015 153.934L35.8667 148.692C35.8667 148.692 36.0254 148.692 36.3428 148.851C37.6124 149.487 41.4213 151.075 45.5476 152.346C47.1346 152.822 48.7217 153.299 50.3087 153.617C50.7848 153.775 51.2609 153.775 51.737 153.934C52.0544 153.934 52.3718 154.093 52.6892 154.093C52.6892 154.093 52.6892 154.093 52.8479 154.093C53.0067 154.093 53.0066 154.093 53.1653 154.093L54.1176 158.7L53.9588 159.176Z" fill="url(#paint7_linear_67_6829)"/>
<path opacity="0.5" d="M62.6879 123.436C59.9899 130.107 57.292 133.92 52.5309 139.161C53.6418 143.133 54.9114 149.01 54.9114 152.028C55.3875 154.57 55.3875 157.905 55.0701 159.335C54.594 159.335 54.2766 159.335 53.8005 159.335C53.8005 159.335 53.6418 159.335 53.4831 159.335C53.007 159.335 52.2135 159.335 50.9438 159.017C50.4677 159.017 49.9916 158.858 49.3568 158.7C49.0394 158.541 48.5633 158.541 48.2459 158.382C47.7698 158.223 47.4524 158.223 46.9763 158.064C46.5002 157.905 46.1828 157.905 45.7067 157.747H45.5479C45.3892 157.747 45.2305 157.747 45.2305 157.588V156.476L45.3892 152.346V152.187L30.1537 121.371L26.5036 114.064L24.5991 110.093C26.6623 105.327 29.2015 99.9263 30.4712 99.7675C33.1691 99.4498 42.6913 115.017 42.6913 115.017C42.6913 115.017 61.8944 116.129 62.0531 118.035C62.8466 119.623 63.164 120.894 62.6879 123.436Z" fill="#361488"/>
<path d="M123.471 138.843L124.106 139.796L121.09 151.392C121.09 151.551 121.09 151.71 120.932 151.869C120.456 154.41 120.456 157.746 120.773 159.176L122.043 158.858L130.613 156.475L139.659 154.093L157.116 163.147C157.751 162.035 158.386 158.223 158.544 155.205V155.046L158.068 143.609L158.862 142.815L172.034 129.789C172.669 127.724 173.145 126.453 172.669 124.547L153.625 122.482L145.848 121.688L132.835 120.258L113.79 118.193C113.155 119.782 112.679 120.894 113.155 123.435L123.471 138.843Z" fill="url(#paint8_radial_67_6829)"/>
<path d="M123.471 139.002C123.63 139.161 123.947 139.479 124.106 139.796L121.725 154.093L120.932 159.176C121.408 159.176 121.725 159.176 122.201 159.176C122.201 159.176 122.36 159.176 122.519 159.176C123.312 159.176 124.264 159.017 125.058 158.858C125.534 158.858 126.01 158.699 126.645 158.54C126.962 158.382 127.439 158.382 127.756 158.223C128.232 158.064 128.549 158.064 129.026 157.905C129.502 157.746 129.819 157.746 130.295 157.587H130.454C130.613 157.587 130.771 157.428 130.771 157.428C133.945 156.317 136.961 155.046 139.659 153.934C145.055 157.905 149.816 160.129 157.116 162.988L157.433 157.746L158.068 143.291C158.386 143.132 158.544 142.973 158.862 142.815C164.575 138.526 169.019 134.872 172.034 129.63L169.654 128.677L153.625 122.641L153.466 122.323L149.34 114.222L144.737 105.168L132.676 120.258L132.517 120.576L116.012 123.118L113.155 123.594C116.012 129.948 118.71 133.76 123.471 139.002Z" fill="url(#paint9_radial_67_6829)"/>
<path d="M116.171 122.959C119.345 127.883 124.741 134.555 124.741 134.555C124.741 134.555 124.265 136.302 123.63 138.844V139.003C122.519 142.974 121.249 148.851 121.249 151.869C121.249 152.981 121.408 153.617 121.725 153.934C121.725 153.934 121.884 154.093 122.043 154.093C122.36 154.252 122.995 154.252 123.63 154.093C123.63 154.093 123.63 154.093 123.789 154.093C124.106 154.093 124.423 153.934 124.741 153.934C125.217 153.775 125.693 153.775 126.169 153.617C127.597 153.299 129.185 152.822 130.93 152.346C134.898 151.075 138.865 149.486 140.294 149.01C140.611 148.851 140.77 148.851 140.77 148.851C140.77 148.851 154.577 158.064 157.91 157.905C158.068 157.905 158.068 157.905 158.227 157.905C158.703 157.746 158.862 156.635 159.179 155.046C159.497 151.869 159.497 146.786 159.338 143.133V142.974C159.338 140.432 159.179 138.367 159.179 138.367C159.179 138.367 166.162 133.125 170.13 128.995C171.876 127.089 173.145 125.501 172.987 124.706C172.51 122.324 154.577 117.717 154.577 117.717C154.577 117.717 153.307 114.381 151.72 110.569C149.657 105.804 147.118 100.403 145.848 100.244C143.15 99.9264 133.628 115.493 133.628 115.493C133.628 115.493 114.425 116.605 114.266 118.511C113.79 118.988 114.743 120.735 116.171 122.959Z" fill="url(#paint10_radial_67_6829)"/>
<path opacity="0.62" d="M122.042 159.176C122.042 159.176 122.201 159.176 122.36 159.176C122.836 159.176 123.63 159.176 124.899 158.859C125.375 158.859 125.851 158.7 126.486 158.541C126.804 158.382 127.28 158.382 127.597 158.223C128.073 158.064 128.391 158.064 128.867 157.905C129.343 157.747 129.66 157.747 130.136 157.588H130.295C130.454 157.588 130.612 157.588 130.612 157.429C133.152 156.635 136.008 155.523 139.5 153.934L140.135 148.692C140.135 148.692 139.976 148.692 139.659 148.851C138.389 149.487 134.58 151.075 130.454 152.346C128.867 152.822 127.28 153.299 125.693 153.617C125.217 153.775 124.74 153.775 124.264 153.934C123.947 153.934 123.63 154.093 123.312 154.093C123.312 154.093 123.312 154.093 123.153 154.093C122.995 154.093 122.995 154.093 122.836 154.093L121.884 158.7L122.042 159.176Z" fill="url(#paint11_linear_67_6829)"/>
<path d="M135.215 99.1321C136.009 101.674 136.326 103.58 135.215 107.392L115.695 131.06L118.393 149.486C118.869 153.617 118.075 159.335 117.44 161.718L88.8738 150.44L60.3073 161.559C59.6724 159.653 59.0376 153.617 59.355 148.851L62.2117 130.901L42.8499 107.074C42.0564 103.739 41.739 101.674 42.8499 98.8145L135.215 99.1321Z" fill="#981382"/>
<path d="M105.538 99.6088L135.215 107.551C129.819 117.876 124.582 123.436 115.695 131.219L117.441 161.877C106.014 160.765 96.8092 154.887 88.874 150.599C79.8279 155.84 72.0515 158.541 60.3074 161.718L62.2119 131.06C53.4832 122.959 46.8177 116.447 42.8501 107.233L72.5276 99.4499L89.1914 73.7168L105.538 99.6088Z" fill="#981382"/>
<path d="M105.538 91.349C105.538 91.349 135.215 96.2732 135.215 99.2913C135.215 103.58 115.695 122.959 115.695 122.959C115.695 122.959 120.773 151.87 117.441 153.617C113.632 155.682 88.8741 142.339 88.8741 142.339C88.8741 142.339 64.2751 155.364 60.3076 153.458C57.6096 152.187 62.212 122.801 62.212 122.801C62.212 122.801 41.5806 103.262 42.8502 98.9736C43.9612 95.3202 72.5277 91.1902 72.5277 91.1902C72.5277 91.1902 85.224 65.457 89.1916 65.457C93.3178 65.457 105.538 91.349 105.538 91.349Z" fill="url(#paint12_linear_67_6829)"/>
<path d="M115.377 150.598C110.934 150.598 95.2219 142.815 89.6673 139.797L88.8738 139.32L88.0803 139.797C82.367 142.815 66.8141 150.439 62.2117 150.439C61.4182 147.58 62.8465 134.078 64.5922 122.482L64.7509 121.688L64.1161 121.053C55.3874 112.793 46.1826 102.309 45.8652 99.7674C47.7697 98.0201 61.4182 95.002 73.1622 93.4135L73.9557 93.2547L74.2731 92.4604C79.5103 81.8177 86.4932 69.7454 88.8738 68.4746C91.2543 69.5865 98.2373 81.6589 103.316 92.4604L103.633 93.2547L104.427 93.4135C115.853 95.3197 129.026 98.1789 131.565 99.7674C130.454 102.785 121.567 112.793 113.314 121.053L112.679 121.688L112.838 122.482C114.901 134.237 116.329 147.898 115.219 150.439C115.377 150.598 115.377 150.598 115.377 150.598Z" fill="url(#paint13_radial_67_6829)"/>
<path opacity="0.62" d="M88.874 150.599V142.339C88.874 142.339 104.268 151.234 114.743 153.617L115.536 161.559C115.536 161.559 106.173 161.083 88.874 150.599Z" fill="url(#paint14_linear_67_6829)"/>
<path d="M51.5786 97.7026C51.5786 97.7026 79.8278 118.035 115.377 117.717C115.377 117.717 131.565 105.645 133.787 99.6088C133.787 99.6088 127.756 95.9553 104.744 92.7784C104.744 92.7784 97.7612 74.9876 88.8738 66.7275C88.8738 66.7275 80.3039 76.2584 75.0667 92.4607C75.0667 92.3019 61.2595 93.2549 51.5786 97.7026Z" fill="white"/>
<path opacity="0.2" d="M27.2973 27.8104C29.8365 32.7347 71.5755 21.2977 75.8604 13.0377C80.1454 4.7777 59.0379 -1.89387 47.4526 0.488832C35.8672 2.87153 24.1232 21.4566 27.2973 27.8104Z" fill="url(#paint15_linear_67_6829)"/>
<path d="M44.2778 157.271C44.2778 157.271 48.8802 152.346 56.3393 149.487C56.3393 149.487 86.969 143.61 124.582 149.487C124.582 149.487 131.247 153.141 133.469 157.271H44.2778Z" fill="url(#paint16_radial_67_6829)"/>
<path d="M101.887 147.422L104.268 153.935C104.268 153.935 115.218 154.411 121.884 155.364L118.075 148.693C118.075 148.534 107.442 147.422 101.887 147.422Z" fill="white"/>
<path d="M50.7847 193.964C50.7847 193.964 44.2778 182.051 44.2778 157.27C44.2778 157.27 83.7949 148.057 133.469 157.27C133.469 157.27 133.469 182.051 124.423 200L118.392 193.964H50.7847Z" fill="url(#paint17_linear_67_6829)"/>
<path d="M62.2114 164.896L63.0049 169.344H112.044L112.838 164.578L62.2114 164.896Z" fill="white"/>
<path d="M63.3223 171.727L64.1158 175.539H86.8104V171.727H63.3223Z" fill="white"/>
<path d="M64.1157 177.921L64.9092 181.892H97.126V177.921H64.1157Z" fill="white"/>
<path opacity="0.81" d="M118.392 193.964L123.788 188.404C123.788 188.404 87.9213 195.87 49.1978 190.31L50.7848 193.964H118.392Z" fill="url(#paint18_linear_67_6829)"/>
<defs>
<linearGradient id="paint0_linear_67_6829" x1="2.82031" y1="98.8917" x2="156.379" y2="98.8917" gradientUnits="userSpaceOnUse">
<stop stop-color="#6A11CB"/>
<stop offset="1" stop-color="#2575FC"/>
</linearGradient>
<linearGradient id="paint1_linear_67_6829" x1="95.3808" y1="96.7699" x2="156.807" y2="66.7913" gradientUnits="userSpaceOnUse">
<stop stop-color="#1C257B"/>
<stop offset="1" stop-color="#6A2C9A"/>
</linearGradient>
<radialGradient id="paint2_radial_67_6829" cx="0" cy="0" r="1" gradientUnits="userSpaceOnUse" gradientTransform="translate(59.086 67.2792) rotate(-161.642) scale(31.3263 31.349)">
<stop stop-color="#3996F7"/>
<stop offset="1" stop-color="#6840D5"/>
</radialGradient>
<radialGradient id="paint3_radial_67_6829" cx="0" cy="0" r="1" gradientUnits="userSpaceOnUse" gradientTransform="translate(133.887 79.4916) rotate(14.531) scale(20.5766 20.5929)">
<stop stop-color="#3996F7"/>
<stop offset="1" stop-color="#6840D5"/>
</radialGradient>
<radialGradient id="paint4_radial_67_6829" cx="0" cy="0" r="1" gradientUnits="userSpaceOnUse" gradientTransform="translate(34.9536 141.136) rotate(-6.18819) scale(25.5317 25.5543)">
<stop stop-color="#A157FF"/>
<stop offset="1" stop-color="#63399A"/>
</radialGradient>
<radialGradient id="paint5_radial_67_6829" cx="0" cy="0" r="1" gradientUnits="userSpaceOnUse" gradientTransform="translate(34.0772 133.119) rotate(-6.18819) scale(28.85 28.8755)">
<stop stop-color="#A157FF"/>
<stop offset="1" stop-color="#63399A"/>
</radialGradient>
<radialGradient id="paint6_radial_67_6829" cx="0" cy="0" r="1" gradientUnits="userSpaceOnUse" gradientTransform="translate(29.1836 110.542) rotate(-6.18819) scale(33.2367 33.266)">
<stop stop-color="#FF81FF"/>
<stop offset="1" stop-color="#9552FF"/>
</radialGradient>
<linearGradient id="paint7_linear_67_6829" x1="36.3453" y1="154.857" x2="53.2801" y2="153.024" gradientUnits="userSpaceOnUse">
<stop stop-color="#8B8BE0"/>
<stop offset="1" stop-color="#A177B7"/>
</linearGradient>
<radialGradient id="paint8_radial_67_6829" cx="0" cy="0" r="1" gradientUnits="userSpaceOnUse" gradientTransform="translate(141.109 141.135) rotate(-173.812) scale(25.5317 25.5543)">
<stop stop-color="#A157FF"/>
<stop offset="1" stop-color="#63399A"/>
</radialGradient>
<radialGradient id="paint9_radial_67_6829" cx="0" cy="0" r="1" gradientUnits="userSpaceOnUse" gradientTransform="translate(141.985 133.118) rotate(-173.812) scale(28.85 28.8755)">
<stop stop-color="#A157FF"/>
<stop offset="1" stop-color="#63399A"/>
</radialGradient>
<radialGradient id="paint10_radial_67_6829" cx="0" cy="0" r="1" gradientUnits="userSpaceOnUse" gradientTransform="translate(159.937 116.224) rotate(-173.812) scale(33.2368 33.2662)">
<stop stop-color="#FF81FF"/>
<stop offset="1" stop-color="#9552FF"/>
</radialGradient>
<linearGradient id="paint11_linear_67_6829" x1="139.716" y1="154.857" x2="122.782" y2="153.024" gradientUnits="userSpaceOnUse">
<stop stop-color="#8B8BE0"/>
<stop offset="1" stop-color="#A177B7"/>
</linearGradient>
<linearGradient id="paint12_linear_67_6829" x1="48.8534" y1="90.3506" x2="123.701" y2="145.012" gradientUnits="userSpaceOnUse">
<stop stop-color="#971A8F"/>
<stop offset="0.4678" stop-color="#EF22AC"/>
<stop offset="1" stop-color="#FE4CCE"/>
</linearGradient>
<radialGradient id="paint13_radial_67_6829" cx="0" cy="0" r="1" gradientUnits="userSpaceOnUse" gradientTransform="translate(96.2068 91.8638) rotate(36.1898) scale(47.7189 47.732)">
<stop stop-color="#FE117E"/>
<stop offset="1" stop-color="#B31A8F"/>
</radialGradient>
<linearGradient id="paint14_linear_67_6829" x1="88.8131" y1="151.932" x2="115.475" y2="151.932" gradientUnits="userSpaceOnUse">
<stop stop-color="#8B8BE0"/>
<stop offset="1" stop-color="#A177B7"/>
</linearGradient>
<linearGradient id="paint15_linear_67_6829" x1="26.771" y1="14.4998" x2="76.4258" y2="14.4998" gradientUnits="userSpaceOnUse">
<stop stop-color="#6A11CB"/>
<stop offset="1" stop-color="#2575FC"/>
</linearGradient>
<radialGradient id="paint16_radial_67_6829" cx="0" cy="0" r="1" gradientUnits="userSpaceOnUse" gradientTransform="translate(103.176 150.364) scale(41.0246 41.0616)">
<stop stop-color="#3996F7"/>
<stop offset="1" stop-color="#744FD8"/>
</radialGradient>
<linearGradient id="paint17_linear_67_6829" x1="88.9531" y1="200.054" x2="88.9531" y2="153.141" gradientUnits="userSpaceOnUse">
<stop stop-color="#1C257B"/>
<stop offset="1" stop-color="#4F3BBA"/>
</linearGradient>
<linearGradient id="paint18_linear_67_6829" x1="86.5355" y1="194.019" x2="86.5355" y2="188.415" gradientUnits="userSpaceOnUse">
<stop stop-color="#7460E0"/>
<stop offset="1" stop-color="white"/>
</linearGradient>
</defs>
</svg>
