<svg width="73" height="95" viewBox="0 0 73 95" fill="none" xmlns="http://www.w3.org/2000/svg">
<path d="M68.8555 37.882C68.432 39.1259 67.9858 40.2814 67.5179 41.3379C61.9978 53.94 53.7833 54.2947 47.1944 75.5604L22.296 72.8904C20.3299 50.2454 12.0769 48.5546 9.52691 34.2598C9.37373 33.3838 9.23684 32.4558 9.12691 31.4771C7.2039 14.5419 28.2512 2.02543 42.3256 3.53469C56.4 5.04394 74.3149 21.7385 68.8555 37.882Z" fill="url(#paint0_radial_67_6558)"/>
<g style="mix-blend-mode:multiply" opacity="0.8">
<path style="mix-blend-mode:multiply" opacity="0.8" d="M42.2971 3.80024C50.7949 4.71149 60.3802 11.1115 65.6212 19.2483C68.3807 23.5733 71.1411 30.2945 68.5922 37.8323C66.1541 45.0381 62.9758 48.7265 59.612 52.642C55.5493 57.3636 50.9357 62.7138 47.0059 75.3145L22.5748 72.6947C21.3954 59.5461 18.0318 53.3404 15.0519 47.8636C12.5971 43.3026 10.2708 39.0455 9.41601 31.4866C8.52937 23.6233 12.6521 17.6403 16.2705 13.9562C23.1115 7.07208 33.8313 2.89241 42.329 3.80366L42.2971 3.80024ZM42.3256 3.53469C28.2512 2.02543 7.20504 14.5313 9.12691 31.4771C11.0488 48.4228 20.1581 48.841 22.296 72.8904L47.1944 75.5604C54.3404 52.5064 63.3854 54.0244 68.8555 37.882C74.3255 21.7396 56.4106 5.04508 42.3256 3.53469Z" fill="url(#paint1_radial_67_6558)"/>
</g>
<path style="mix-blend-mode:multiply" opacity="0.8" fill-rule="evenodd" clip-rule="evenodd" d="M43.7774 40.189C43.7774 40.189 43.5933 50.3227 37.3606 51.5346C31.5265 49.0287 33.4951 39.0864 33.4951 39.0864L32.0702 39.7502C33.076 50.409 31.3317 71.7858 31.3317 71.7858L38.9584 72.6037C38.9584 72.6037 41.7863 51.343 45.0293 41.1398L43.7774 40.189Z" fill="url(#paint2_linear_67_6558)"/>
<path style="mix-blend-mode:multiply" opacity="0.8" fill-rule="evenodd" clip-rule="evenodd" d="M21.6519 67.4707C22.3883 70.6226 42.9345 74.2011 48.623 71.3514L47.7093 73.961L22.183 71.5353L21.6519 67.4707Z" fill="url(#paint3_linear_67_6558)"/>
<path style="mix-blend-mode:screen" d="M49.4623 36.9736C57.2648 37.8103 64.2682 32.1634 65.1048 24.361C65.9415 16.5586 60.2947 9.55525 52.4922 8.71856C44.6898 7.88188 37.6865 13.5287 36.8498 21.3311C36.0131 29.1335 41.6599 36.1369 49.4623 36.9736Z" fill="url(#paint4_radial_67_6558)"/>
<path style="mix-blend-mode:screen" d="M20.7122 48.5709C24.4023 47.5052 25.7481 40.9432 23.7181 33.9143C21.6881 26.8854 17.051 22.0514 13.3608 23.1171C9.67067 24.1829 8.32485 30.7449 10.3549 37.7738C12.3849 44.8026 17.022 49.6367 20.7122 48.5709Z" fill="url(#paint5_radial_67_6558)"/>
<path style="mix-blend-mode:multiply" opacity="0.3" d="M67.5179 41.3379C61.9977 53.94 53.7832 54.2947 47.1943 75.5604L22.2959 72.8904C20.3298 50.2454 12.0768 48.5546 9.52686 34.2598C13.1822 44.8589 23.8359 49.9123 41.9537 51.1889C60.0714 52.4656 67.5179 41.3379 67.5179 41.3379Z" fill="url(#paint6_linear_67_6558)"/>
<path fill-rule="evenodd" clip-rule="evenodd" d="M19.7895 71.7083L19.7879 89.4578C19.7879 89.4578 28.7703 88.1539 45.6636 92.2325L49.8324 75.8002C49.8324 75.8002 37.816 70.128 19.7895 71.7083Z" fill="url(#paint7_radial_67_6558)"/>
<path fill-rule="evenodd" clip-rule="evenodd" d="M19.8093 87.3543L17.6789 84.977C17.6789 84.977 32.866 78.5151 50.229 82.0208L47.4646 85.356C47.4646 85.356 33.1773 80.0204 19.8093 87.3543Z" fill="url(#paint8_radial_67_6558)"/>
<path fill-rule="evenodd" clip-rule="evenodd" d="M19.8132 80.7043L18.2997 79.1882C18.2997 79.1882 31.3522 70.789 52.1719 74.6225L49.2957 77.9994C44.4525 76.4417 39.3446 75.8784 34.2784 76.3432C29.2122 76.808 24.2921 78.2914 19.8132 80.7043Z" fill="url(#paint9_radial_67_6558)"/>
<path fill-rule="evenodd" clip-rule="evenodd" d="M18.2998 79.1886L19.8144 77.589C19.8144 77.589 37.3259 69.9903 52.1732 74.6123C40.691 72.2189 28.7353 73.8341 18.2998 79.1886Z" fill="url(#paint10_linear_67_6558)"/>
<path fill-rule="evenodd" clip-rule="evenodd" d="M17.6836 84.9344L19.8102 82.9383C29.1198 80.2698 38.9051 79.6973 48.4624 81.2618L50.1972 82.0173C50.1972 82.0173 33.9898 78.6569 17.6836 84.9344Z" fill="url(#paint11_linear_67_6558)"/>
<g style="mix-blend-mode:multiply" opacity="0.3">
<path d="M17.6837 84.9347L19.814 87.312L19.8844 88.7593C19.8844 88.7593 24.4168 83.7657 34.1112 83.8383C43.8055 83.9108 46.746 88.0511 46.746 88.0511L47.4329 85.3528L50.1973 82.0176C50.1973 82.0176 32.181 79.1939 17.6837 84.9347Z" fill="#614881"/>
</g>
<g style="mix-blend-mode:multiply" opacity="0.3">
<path d="M18.2999 79.1879L19.8135 80.704L19.8103 82.9384C19.8103 82.9384 23.5221 77.18 34.1926 76.7663C44.8631 76.3526 48.7195 80.2688 48.7195 80.2688L49.296 77.9991L52.1722 74.6222C40.6907 72.251 28.7439 73.8614 18.2999 79.1879Z" fill="#614881"/>
</g>
<defs>
<radialGradient id="paint0_radial_67_6558" cx="0" cy="0" r="1" gradientUnits="userSpaceOnUse" gradientTransform="translate(43.7859 22.681) rotate(6.12067) scale(38.5018 54.2876)">
<stop offset="0.25" stop-color="#FFFEAE"/>
<stop offset="0.29" stop-color="#FFF9A8"/>
<stop offset="0.48" stop-color="#FFE795"/>
<stop offset="0.68" stop-color="#FFDD89"/>
<stop offset="0.87" stop-color="#FFD985"/>
<stop offset="0.89" stop-color="#FFD385"/>
<stop offset="0.94" stop-color="#FFC884"/>
<stop offset="1" stop-color="#FFC584"/>
</radialGradient>
<radialGradient id="paint1_radial_67_6558" cx="0" cy="0" r="1" gradientUnits="userSpaceOnUse" gradientTransform="translate(38.536 38.8747) rotate(6.12067) scale(33.1176 33.1176)">
<stop offset="0.06" stop-color="white"/>
<stop offset="0.15" stop-color="#FEFBFD"/>
<stop offset="0.99" stop-color="#FFBEDE"/>
</radialGradient>
<linearGradient id="paint2_linear_67_6558" x1="35.1451" y1="72.1947" x2="38.6363" y2="39.6377" gradientUnits="userSpaceOnUse">
<stop offset="0.01" stop-color="#D486C2"/>
<stop offset="0.94" stop-color="#FFDDD1"/>
</linearGradient>
<linearGradient id="paint3_linear_67_6558" x1="18526.2" y1="2720.54" x2="18527.8" y2="2705.77" gradientUnits="userSpaceOnUse">
<stop offset="0.01" stop-color="#D486C2"/>
<stop offset="0.94" stop-color="#FFDDD1"/>
</linearGradient>
<radialGradient id="paint4_radial_67_6558" cx="0" cy="0" r="1" gradientUnits="userSpaceOnUse" gradientTransform="translate(50.9773 22.8461) rotate(6.12067) scale(14.2085 14.2085)">
<stop offset="0.01" stop-color="#FFFFA9"/>
<stop offset="0.09" stop-color="#E0E095"/>
<stop offset="0.28" stop-color="#9D9D68"/>
<stop offset="0.46" stop-color="#656543"/>
<stop offset="0.62" stop-color="#393926"/>
<stop offset="0.77" stop-color="#1A1A11"/>
<stop offset="0.9" stop-color="#070705"/>
<stop offset="0.99"/>
</radialGradient>
<radialGradient id="paint5_radial_67_6558" cx="0" cy="0" r="1" gradientUnits="userSpaceOnUse" gradientTransform="translate(9766.83 5707.99) rotate(-16.1093) scale(91.4126 328.527)">
<stop offset="0.01" stop-color="#FFFFA9"/>
<stop offset="0.09" stop-color="#E0E095"/>
<stop offset="0.28" stop-color="#9D9D68"/>
<stop offset="0.46" stop-color="#656543"/>
<stop offset="0.62" stop-color="#393926"/>
<stop offset="0.77" stop-color="#1A1A11"/>
<stop offset="0.9" stop-color="#070705"/>
<stop offset="0.99"/>
</radialGradient>
<linearGradient id="paint6_linear_67_6558" x1="34.6177" y1="74.2117" x2="38.5679" y2="37.374" gradientUnits="userSpaceOnUse">
<stop offset="0.01" stop-color="#D486C2"/>
<stop offset="0.94" stop-color="white"/>
</linearGradient>
<radialGradient id="paint7_radial_67_6558" cx="0" cy="0" r="1" gradientUnits="userSpaceOnUse" gradientTransform="translate(33.9735 73.8985) rotate(6.12067) scale(12.6488 14.9256)">
<stop stop-color="#B3B0D3"/>
<stop offset="0.46" stop-color="#B1AED1"/>
<stop offset="0.69" stop-color="#ACA6CB"/>
<stop offset="0.87" stop-color="#A399C1"/>
<stop offset="0.98" stop-color="#998CB6"/>
</radialGradient>
<radialGradient id="paint8_radial_67_6558" cx="0" cy="0" r="1" gradientUnits="userSpaceOnUse" gradientTransform="translate(33.8177 84.5686) rotate(6.12067) scale(11.7407 21.8377)">
<stop stop-color="#9490C1"/>
<stop offset="0.45" stop-color="#938EBF"/>
<stop offset="0.68" stop-color="#8D86B9"/>
<stop offset="0.85" stop-color="#8579AE"/>
<stop offset="0.98" stop-color="#7A69A0"/>
</radialGradient>
<radialGradient id="paint9_radial_67_6558" cx="0" cy="0" r="1" gradientUnits="userSpaceOnUse" gradientTransform="translate(22360.9 5558.88) rotate(6.12067) scale(379.721 205.827)">
<stop stop-color="#9490C1"/>
<stop offset="0.45" stop-color="#938EBF"/>
<stop offset="0.68" stop-color="#8D86B9"/>
<stop offset="0.85" stop-color="#8579AE"/>
<stop offset="0.98" stop-color="#7A69A0"/>
</radialGradient>
<linearGradient id="paint10_linear_67_6558" x1="34.7961" y1="80.9576" x2="35.729" y2="72.258" gradientUnits="userSpaceOnUse">
<stop offset="0.02" stop-color="#B1ACC7"/>
<stop offset="1" stop-color="#CCCAE2"/>
</linearGradient>
<linearGradient id="paint11_linear_67_6558" x1="21733.1" y1="3678.39" x2="21738" y2="3632.37" gradientUnits="userSpaceOnUse">
<stop offset="0.02" stop-color="#B1ACC7"/>
<stop offset="1" stop-color="#CCCAE2"/>
</linearGradient>
</defs>
</svg>
