<svg width="192" height="187" viewBox="0 0 192 187" fill="none" xmlns="http://www.w3.org/2000/svg">
<path opacity="0.2" d="M148.556 139.091C121.44 169.706 98.5514 171.602 80.9114 148.713C56.5651 117.078 11.9547 132.677 8.74737 93.023C5.54008 53.3693 79.8909 -7.86078 129.166 0.886373C178.442 9.63352 198.706 82.5265 148.556 139.091Z" fill="url(#paint0_linear_67_6760)"/>
<path d="M36.009 130.344C23.6172 122.18 9.47596 132.676 8.89282 141.569C8.30967 150.462 36.1548 152.795 40.5283 149.296C44.7561 145.797 39.5078 132.676 36.009 130.344Z" fill="#E1F3FF"/>
<path d="M123.189 22.8999L139.226 32.2302L135.727 37.7701L120.711 27.7108L123.189 22.8999Z" fill="#FF1D9C"/>
<path d="M0 76.549L15.7449 64.1572L19.6811 69.5513L5.1025 80.9226L0 76.549Z" fill="#A74AFF"/>
<path d="M61.8134 34.125L60.7929 46.0794L57.0024 45.6421L57.8772 34.7081L61.8134 34.125Z" fill="#4F31E0"/>
<path d="M180.483 79.1731L188.647 88.2118L192 84.5672L184.128 75.9658L180.483 79.1731Z" fill="#6877FF"/>
<path d="M111.089 142.736C111.089 143.902 110.214 144.777 109.048 144.777C107.882 144.777 107.007 143.902 107.007 142.736C107.007 141.57 107.882 140.695 109.048 140.695C110.214 140.695 111.089 141.57 111.089 142.736Z" fill="url(#paint1_linear_67_6760)"/>
<path d="M78.5785 158.48C78.5785 158.48 64.2915 139.965 68.8109 116.348C68.8109 116.348 104.091 134.571 105.549 156.877L130.041 157.46C130.041 157.46 157.886 132.676 186.314 131.364C186.314 131.364 181.941 158.48 156.574 161.833L78.5785 158.48Z" fill="url(#paint2_linear_67_6760)"/>
<path d="M137.185 153.087C137.185 153.087 138.788 108.622 186.169 100.021C186.169 100.021 191.125 142.59 143.016 153.378L137.185 153.087Z" fill="url(#paint3_radial_67_6760)"/>
<path d="M57.5855 158.48C57.5855 158.48 28.7199 144.777 27.1162 94.772C27.1162 94.772 66.041 99.4371 78.5786 158.48H57.5855Z" fill="url(#paint4_linear_67_6760)"/>
<path d="M186.169 100.021L137.185 153.087L144.328 151.629C144.474 151.629 185.294 142.736 186.169 100.021Z" fill="#BDE0FF"/>
<path d="M29.4485 97.6875L68.8107 158.48L58.8973 157.46C58.8973 157.314 28.1365 137.633 29.4485 97.6875Z" fill="#BDE0FF"/>
<path d="M72.3097 155.273C72.3097 155.273 52.1912 130.781 28.7197 144.193C28.7197 144.339 43.7357 171.601 72.3097 155.273Z" fill="url(#paint5_radial_67_6760)"/>
<path d="M28.7197 144.339L70.4145 153.961C70.4145 153.961 49.8587 170.872 28.7197 144.339Z" fill="#BDE0FF"/>
<path d="M109.048 161.98C138.194 161.98 161.822 138.352 161.822 109.205C161.822 80.0586 138.194 56.4307 109.048 56.4307C79.9014 56.4307 56.2734 80.0586 56.2734 109.205C56.2734 138.352 79.9014 161.98 109.048 161.98Z" fill="url(#paint6_linear_67_6760)"/>
<path d="M107.736 60.804V56.5762C107.736 56.5762 130.916 54.3894 148.264 74.0705L144.911 76.5489C144.911 76.5489 131.062 60.0751 107.736 60.804Z" fill="white"/>
<path d="M148.265 80.6311L151.764 78.4443C151.764 78.4443 155.846 83.9842 157.595 88.6493L153.513 89.5241C153.513 89.6698 151.618 85.1505 148.265 80.6311Z" fill="white"/>
<path d="M109.048 157.46C136.746 157.46 159.199 135.007 159.199 107.31C159.199 79.6127 136.746 57.1597 109.048 57.1597C81.351 57.1597 58.8979 79.6127 58.8979 107.31C58.8979 135.007 81.351 157.46 109.048 157.46Z" fill="url(#paint7_radial_67_6760)"/>
<path d="M109.048 145.943C130.384 145.943 147.681 128.646 147.681 107.31C147.681 85.973 130.384 68.6763 109.048 68.6763C87.7113 68.6763 70.4146 85.973 70.4146 107.31C70.4146 128.646 87.7113 145.943 109.048 145.943Z" fill="url(#paint8_linear_67_6760)"/>
<path d="M109.048 144.34C128.21 144.34 143.745 128.805 143.745 109.643C143.745 90.4802 128.21 74.9458 109.048 74.9458C89.885 74.9458 74.3506 90.4802 74.3506 109.643C74.3506 128.805 89.885 144.34 109.048 144.34Z" fill="url(#paint9_linear_67_6760)"/>
<path d="M106.57 107.31L108.611 75.2368H110.506L112.255 107.31H106.57Z" fill="url(#paint10_linear_67_6760)"/>
<path d="M109.485 109.205L109.048 104.394L129.895 105.415V107.31L109.485 109.205Z" fill="url(#paint11_linear_67_6760)"/>
<path d="M113.276 106.435C113.276 108.33 111.672 109.934 109.777 109.934C107.882 109.934 106.278 108.33 106.278 106.435C106.278 104.54 107.882 102.936 109.777 102.936C111.672 102.936 113.276 104.394 113.276 106.435Z" fill="url(#paint12_linear_67_6760)"/>
<path d="M78.2871 108.476C79.4143 108.476 80.3281 107.562 80.3281 106.435C80.3281 105.308 79.4143 104.394 78.2871 104.394C77.1599 104.394 76.2461 105.308 76.2461 106.435C76.2461 107.562 77.1599 108.476 78.2871 108.476Z" fill="url(#paint13_linear_67_6760)"/>
<path d="M139.663 108.476C140.79 108.476 141.704 107.562 141.704 106.435C141.704 105.308 140.79 104.394 139.663 104.394C138.536 104.394 137.622 105.308 137.622 106.435C137.622 107.562 138.536 108.476 139.663 108.476Z" fill="url(#paint14_linear_67_6760)"/>
<path d="M109.777 77.2778C110.904 77.2778 111.818 76.364 111.818 75.2368C111.818 74.1096 110.904 73.1958 109.777 73.1958C108.65 73.1958 107.736 74.1096 107.736 75.2368C107.736 76.364 108.65 77.2778 109.777 77.2778Z" fill="url(#paint15_linear_67_6760)"/>
<path opacity="0.73" d="M100.301 71.155L104.674 83.401C104.674 83.401 123.189 83.6925 132.519 94.9181L141.704 90.3987C139.663 82.672 123.189 65.7609 100.301 71.155Z" fill="white"/>
<path d="M86.7427 136.467L91.262 130.198C91.262 130.198 101.467 137.342 117.212 136.321L119.544 143.173C119.544 143.173 102.196 148.567 86.7427 136.467Z" fill="white"/>
<path d="M119.544 58.3257C119.544 58.3257 125.667 74.6537 139.226 67.3644C139.226 67.2186 131.207 60.3667 119.544 58.3257Z" fill="white"/>
<path d="M52.7743 182.098L51.0249 154.253C51.0249 154.253 107.444 151.483 165.175 153.961L161.968 183.41L52.7743 182.098Z" fill="url(#paint16_linear_67_6760)"/>
<path d="M56.5649 179.62L55.5444 156.731C55.5444 156.731 107.153 155.565 160.948 157.606L159.052 180.64L56.5649 179.62Z" fill="url(#paint17_linear_67_6760)"/>
<path opacity="0.4" d="M160.948 157.752C160.948 157.752 157.157 161.688 156.137 167.811L59.918 166.499L55.5444 156.877C55.5444 156.877 137.185 156.003 160.948 157.752Z" fill="url(#paint18_linear_67_6760)"/>
<path d="M55.5444 156.877L56.4192 179.037L107.153 180.203L105.549 156.877C105.549 156.877 88.2005 155.857 55.5444 156.877Z" fill="url(#paint19_linear_67_6760)"/>
<path d="M56.1274 176.704L70.9976 156.439H75.8085L59.9179 179.036H56.419L56.1274 176.704Z" fill="url(#paint20_linear_67_6760)"/>
<path d="M71.1436 179.328L87.4716 156.439H91.9909L76.8292 179.474L71.1436 179.328Z" fill="url(#paint21_linear_67_6760)"/>
<path d="M90.6787 179.765L105.549 156.877L105.84 162.125L94.9065 179.765H90.6787Z" fill="url(#paint22_linear_67_6760)"/>
<path d="M52.7744 182.098L56.1275 185.743L158.323 186.763L161.968 183.41L52.7744 182.098Z" fill="#A181C9"/>
<path d="M55.1997 155.739L55.4938 165.12H106.08L105.491 155.739C105.639 155.739 88.2864 155.246 55.1997 155.739Z" fill="#EAE7FF"/>
<path d="M91.9907 156.439C91.9907 156.439 97.9679 162.562 106.132 156.585L91.9907 156.439Z" fill="white"/>
<path d="M100.301 152.94C100.301 152.94 103.508 156.439 111.089 156.293C118.67 156.148 121.148 152.94 121.148 152.94C121.148 152.94 103.362 152.94 100.301 152.94Z" fill="white"/>
<path d="M60 179.265C60 179.265 89.9636 173.71 103.2 180.48L60 179.265Z" fill="#E8E3FF"/>
<path d="M159.198 180.786C159.198 180.786 156.865 179.911 155.845 173.788H106.715L107.152 180.203L159.198 180.786Z" fill="#C9C3FD"/>
<path d="M135.872 180.348C135.872 180.348 143.599 175.975 149.284 180.64L135.872 180.348Z" fill="white"/>
<path opacity="0.2" d="M179.171 11.237C178.151 0.886255 166.342 -2.02946 161.239 1.32361C156.137 4.82247 167.071 21.0047 170.861 21.7336C174.652 22.6083 179.463 14.1528 179.171 11.237Z" fill="url(#paint23_linear_67_6760)"/>
<defs>
<linearGradient id="paint0_linear_67_6760" x1="8.64697" y1="82.1208" x2="177.59" y2="82.1208" gradientUnits="userSpaceOnUse">
<stop stop-color="#6A11CB"/>
<stop offset="1" stop-color="#2575FC"/>
</linearGradient>
<linearGradient id="paint1_linear_67_6760" x1="109.036" y1="144.73" x2="109.036" y2="140.641" gradientUnits="userSpaceOnUse">
<stop stop-color="#1C257B"/>
<stop offset="1" stop-color="#482C83"/>
</linearGradient>
<linearGradient id="paint2_linear_67_6760" x1="127.035" y1="161.81" x2="127.035" y2="116.343" gradientUnits="userSpaceOnUse">
<stop stop-color="#1C257B"/>
<stop offset="1" stop-color="#6A2C9A"/>
</linearGradient>
<radialGradient id="paint3_radial_67_6760" cx="0" cy="0" r="1" gradientUnits="userSpaceOnUse" gradientTransform="translate(163.596 104.767) scale(37.464)">
<stop stop-color="#3996F7"/>
<stop offset="1" stop-color="#6840D5"/>
</radialGradient>
<linearGradient id="paint4_linear_67_6760" x1="52.8044" y1="158.499" x2="52.8044" y2="94.7242" gradientUnits="userSpaceOnUse">
<stop stop-color="#1C257B"/>
<stop offset="1" stop-color="#6A2C9A"/>
</linearGradient>
<radialGradient id="paint5_radial_67_6760" cx="0" cy="0" r="1" gradientUnits="userSpaceOnUse" gradientTransform="translate(44.4624 142.753) scale(16.9894 16.9894)">
<stop stop-color="#3996F7"/>
<stop offset="1" stop-color="#6840D5"/>
</radialGradient>
<linearGradient id="paint6_linear_67_6760" x1="109.036" y1="161.986" x2="109.036" y2="56.5604" gradientUnits="userSpaceOnUse">
<stop stop-color="#4C25A6"/>
<stop offset="0.6015" stop-color="#457AE2"/>
<stop offset="1" stop-color="#6DD9F7"/>
</linearGradient>
<radialGradient id="paint7_radial_67_6760" cx="0" cy="0" r="1" gradientUnits="userSpaceOnUse" gradientTransform="translate(112.716 66.006) scale(71.5282 71.5282)">
<stop stop-color="#3996F7"/>
<stop offset="1" stop-color="#6840D5"/>
</radialGradient>
<linearGradient id="paint8_linear_67_6760" x1="109.036" y1="145.881" x2="109.036" y2="68.7277" gradientUnits="userSpaceOnUse">
<stop stop-color="#DDCDFF"/>
<stop offset="1" stop-color="#9F9CFF"/>
</linearGradient>
<linearGradient id="paint9_linear_67_6760" x1="109.036" y1="144.362" x2="109.036" y2="74.9149" gradientUnits="userSpaceOnUse">
<stop stop-color="#EEF0FF"/>
<stop offset="1" stop-color="#DDCDFF"/>
</linearGradient>
<linearGradient id="paint10_linear_67_6760" x1="109.426" y1="107.305" x2="109.426" y2="75.2915" gradientUnits="userSpaceOnUse">
<stop stop-color="#1C257B"/>
<stop offset="1" stop-color="#482C83"/>
</linearGradient>
<linearGradient id="paint11_linear_67_6760" x1="119.52" y1="109.239" x2="119.52" y2="104.42" gradientUnits="userSpaceOnUse">
<stop stop-color="#1C257B"/>
<stop offset="1" stop-color="#482C83"/>
</linearGradient>
<linearGradient id="paint12_linear_67_6760" x1="109.807" y1="109.89" x2="109.807" y2="102.865" gradientUnits="userSpaceOnUse">
<stop stop-color="#1C257B"/>
<stop offset="1" stop-color="#482C83"/>
</linearGradient>
<linearGradient id="paint13_linear_67_6760" x1="78.3391" y1="108.422" x2="78.3391" y2="104.333" gradientUnits="userSpaceOnUse">
<stop stop-color="#1C257B"/>
<stop offset="1" stop-color="#482C83"/>
</linearGradient>
<linearGradient id="paint14_linear_67_6760" x1="139.624" y1="108.422" x2="139.624" y2="104.333" gradientUnits="userSpaceOnUse">
<stop stop-color="#1C257B"/>
<stop offset="1" stop-color="#482C83"/>
</linearGradient>
<linearGradient id="paint15_linear_67_6760" x1="109.806" y1="77.336" x2="109.806" y2="73.247" gradientUnits="userSpaceOnUse">
<stop stop-color="#1C257B"/>
<stop offset="1" stop-color="#482C83"/>
</linearGradient>
<linearGradient id="paint16_linear_67_6760" x1="108.077" y1="183.363" x2="108.077" y2="152.95" gradientUnits="userSpaceOnUse">
<stop stop-color="#D1BBFF"/>
<stop offset="1" stop-color="#EFEAFF"/>
</linearGradient>
<linearGradient id="paint17_linear_67_6760" x1="108.265" y1="180.779" x2="108.265" y2="156.52" gradientUnits="userSpaceOnUse">
<stop stop-color="#DDCDFF"/>
<stop offset="1" stop-color="#9F9CFF"/>
</linearGradient>
<linearGradient id="paint18_linear_67_6760" x1="108.265" y1="167.727" x2="108.265" y2="156.611" gradientUnits="userSpaceOnUse">
<stop stop-color="white"/>
<stop offset="1" stop-color="#7460E0"/>
</linearGradient>
<linearGradient id="paint19_linear_67_6760" x1="81.3109" y1="180.225" x2="81.3109" y2="156.404" gradientUnits="userSpaceOnUse">
<stop stop-color="#B31A8F"/>
<stop offset="0.00896716" stop-color="#B51A8F"/>
<stop offset="0.1486" stop-color="#D01789"/>
<stop offset="0.3008" stop-color="#E41484"/>
<stop offset="0.4721" stop-color="#F31281"/>
<stop offset="0.6764" stop-color="#FB117F"/>
<stop offset="1" stop-color="#FE117E"/>
</linearGradient>
<linearGradient id="paint20_linear_67_6760" x1="65.9426" y1="179.049" x2="65.9426" y2="156.403" gradientUnits="userSpaceOnUse">
<stop stop-color="#B9ACF4"/>
<stop offset="1" stop-color="#E1D1F5"/>
</linearGradient>
<linearGradient id="paint21_linear_67_6760" x1="81.5289" y1="179.524" x2="81.5289" y2="156.423" gradientUnits="userSpaceOnUse">
<stop stop-color="#B9ACF4"/>
<stop offset="1" stop-color="#E1D1F5"/>
</linearGradient>
<linearGradient id="paint22_linear_67_6760" x1="98.2876" y1="179.821" x2="98.2876" y2="156.829" gradientUnits="userSpaceOnUse">
<stop stop-color="#B9ACF4"/>
<stop offset="1" stop-color="#E1D1F5"/>
</linearGradient>
<linearGradient id="paint23_linear_67_6760" x1="159.907" y1="10.8984" x2="179.184" y2="10.8984" gradientUnits="userSpaceOnUse">
<stop stop-color="#6A11CB"/>
<stop offset="1" stop-color="#2575FC"/>
</linearGradient>
</defs>
</svg>
