<svg width="208" height="248" viewBox="0 0 208 248" fill="none" xmlns="http://www.w3.org/2000/svg">
<g clip-path="url(#clip0_67_6672)">
<path opacity="0.2" d="M57.1589 177.981C23.9227 155.252 17.7137 79.7341 53.5065 45.8242C91.3081 10.0814 207.269 41.0585 208.183 102.646C208.913 164.234 90.7603 200.893 57.1589 177.981Z" fill="url(#paint0_linear_67_6672)"/>
<path d="M132.762 223.072C132.762 223.072 142.989 176.881 193.939 176.881C193.939 176.881 191.017 222.339 138.789 224.538L132.762 223.072Z" fill="url(#paint1_radial_67_6672)"/>
<path d="M193.939 176.881L132.762 223.072L140.615 222.889C140.615 222.889 184.808 221.239 193.939 176.881Z" fill="#BDE0FF"/>
<path d="M83.8209 236.636C83.8209 236.636 32.8709 238.469 0 184.58C0 184.58 45.4715 165.15 96.0562 222.155L83.8209 236.636Z" fill="url(#paint2_linear_67_6672)"/>
<path d="M4.38281 186.413L85.2819 228.204L73.777 233.337C73.9596 233.337 27.9403 230.954 4.38281 186.413Z" fill="#BDE0FF"/>
<path d="M81.995 194.111C81.995 194.111 81.8124 154.152 48.211 148.47C48.0283 148.654 41.2715 187.329 81.995 194.111Z" fill="url(#paint3_radial_67_6672)"/>
<path d="M48.0284 148.654L81.0819 191.362C81.0819 191.362 47.6631 191.545 48.0284 148.654Z" fill="#BDE0FF"/>
<path d="M123.083 29.5112L149.198 30.7943L148.65 39.4092L124.362 38.4928L123.083 29.5112Z" fill="#FF1D9C"/>
<path d="M54.4199 80.6506L65.1943 92.5648L69.3945 87.6158L59.168 76.2515L54.4199 80.6506Z" fill="#6877FF"/>
<path d="M191.382 144.438C191.382 144.254 191.382 144.071 191.382 143.888L197.956 143.338C197.956 138.939 196.678 134.723 194.121 131.607L188.825 134.906C186.269 130.324 181.886 126.841 176.59 125.558L177.868 120.059C173.668 118.593 169.285 118.593 165.633 120.059L166.911 125.558C161.615 126.841 157.233 130.324 154.676 134.906L149.745 131.607C147.189 135.09 145.728 139.305 145.91 143.338L152.485 143.888C152.485 144.071 152.485 144.254 152.485 144.438C152.485 149.57 154.493 154.152 157.598 157.635L151.937 162.401C154.493 166.067 157.963 168.633 161.798 169.733L164.72 162.584C166.911 163.5 169.285 163.867 171.842 163.867C174.398 163.867 176.772 163.317 178.964 162.584L181.886 169.733C186.086 168.45 189.556 165.883 191.747 162.401L186.269 157.635C189.373 154.152 191.382 149.57 191.382 144.438ZM174.581 151.953C173.668 152.319 172.938 152.503 171.842 152.503C170.929 152.503 170.016 152.319 169.103 151.953C168.007 151.586 167.094 151.036 166.181 150.12C164.72 148.837 163.807 146.821 163.807 144.804C163.807 144.621 163.807 144.621 163.807 144.438C163.807 143.155 163.989 142.055 164.537 140.955C165.45 138.939 167.276 137.289 169.65 136.739C170.381 136.556 170.929 136.373 171.659 136.373C172.39 136.373 173.12 136.556 173.668 136.739C175.859 137.289 177.686 138.939 178.781 140.955C179.329 142.055 179.512 143.155 179.512 144.438C179.512 144.621 179.512 144.621 179.512 144.804C179.329 146.821 178.599 148.837 177.138 150.12C176.59 150.853 175.677 151.586 174.581 151.953Z" fill="url(#paint4_linear_67_6672)"/>
<path d="M191.382 139.122C191.382 138.939 191.382 138.756 191.382 138.572L197.956 138.022C197.956 133.623 196.678 129.408 194.121 126.291L188.825 129.591C186.269 125.008 181.886 121.526 176.59 120.243L177.868 114.744C173.668 113.277 169.285 113.277 165.633 114.744L166.911 120.243C161.615 121.526 157.233 125.008 154.676 129.591L149.745 126.291C147.189 129.774 145.728 133.99 145.91 138.022L152.485 138.572C152.485 138.756 152.485 138.939 152.485 139.122C152.485 144.255 154.493 148.837 157.598 152.32L151.937 157.085C154.493 160.751 157.963 163.317 161.798 164.417L164.72 157.269C166.911 158.185 169.285 158.552 171.842 158.552C174.398 158.552 176.772 158.002 178.964 157.269L181.886 164.417C186.086 163.134 189.556 160.568 191.747 157.085L186.086 152.32C189.373 148.837 191.382 144.071 191.382 139.122ZM174.581 146.454C173.668 146.821 172.938 147.004 171.842 147.004C170.929 147.004 170.016 146.821 169.103 146.454C168.007 146.087 167.094 145.538 166.181 144.621C164.72 143.338 163.807 141.322 163.807 139.306C163.807 139.122 163.807 139.122 163.807 138.939C163.807 137.656 163.989 136.556 164.537 135.456C165.45 133.44 167.276 131.79 169.65 131.24C170.381 131.057 170.929 130.874 171.659 130.874C172.39 130.874 173.12 131.057 173.668 131.24C175.859 131.79 177.686 133.44 178.781 135.456C179.329 136.556 179.512 137.656 179.512 138.939C179.512 139.122 179.512 139.122 179.512 139.306C179.329 141.322 178.599 143.338 177.138 144.621C176.59 145.538 175.677 146.087 174.581 146.454Z" fill="url(#paint5_linear_67_6672)"/>
<path d="M161.433 162.95C158.328 161.851 155.589 159.834 153.58 157.085L159.241 152.136L158.511 151.403C155.406 147.92 153.58 143.521 153.58 138.939C153.58 138.755 153.58 138.755 153.58 138.572V137.472L146.823 136.922C146.823 133.623 147.919 130.507 149.928 127.574L155.224 130.874L155.771 129.957C158.145 125.558 162.346 122.259 167.276 120.976L168.189 120.792L166.911 115.11C168.372 114.56 170.016 114.377 171.659 114.377C173.303 114.377 175.129 114.56 176.772 115.11L175.494 120.976L176.407 121.159C181.338 122.442 185.538 125.558 187.912 130.14L188.46 131.057L193.756 127.758C195.582 130.324 196.678 133.623 196.86 137.106L190.103 137.656V138.755C190.103 138.939 190.103 138.939 190.103 139.122C190.103 143.704 188.46 148.287 185.173 151.586L184.442 152.319L190.103 157.268C188.095 159.834 185.355 161.851 182.068 163.134L179.512 155.802L178.598 156.169C176.407 157.085 174.216 157.452 171.842 157.452C169.468 157.452 167.276 157.085 165.085 156.169L164.354 155.802L161.433 162.95ZM171.842 130.14C170.929 130.14 170.198 130.324 169.468 130.507C166.911 131.24 164.902 132.89 163.807 135.273C163.259 136.373 162.893 137.656 162.893 139.122C162.893 139.305 162.893 139.489 162.893 139.672C162.893 141.871 163.989 143.888 165.633 145.537C166.546 146.454 167.642 147.187 168.92 147.554C169.833 147.92 170.929 148.103 171.842 148.103C172.937 148.103 173.85 147.92 174.946 147.554C176.042 147.187 177.32 146.454 178.233 145.537C179.877 143.888 180.79 141.871 180.972 139.489C180.972 139.489 180.972 139.305 180.972 139.122C180.972 137.656 180.607 136.373 180.059 135.273C178.964 132.89 176.955 131.24 174.398 130.507C173.485 130.14 172.755 130.14 171.842 130.14Z" fill="url(#paint6_linear_67_6672)"/>
<path d="M191.747 157.085V162.401C191.747 162.401 188.277 168.083 181.886 169.733V164.417C181.886 164.234 188.277 161.851 191.747 157.085Z" fill="url(#paint7_linear_67_6672)"/>
<path d="M161.981 164.234V169.549C161.981 169.549 155.406 167.716 152.119 162.217V156.902C151.937 157.085 156.319 162.951 161.981 164.234Z" fill="url(#paint8_linear_67_6672)"/>
<path d="M197.956 138.022V143.338L191.382 143.887V138.572L197.956 138.022Z" fill="url(#paint9_linear_67_6672)"/>
<path d="M177.503 120.426L178.051 119.876V114.561L176.772 120.243L177.503 120.426Z" fill="url(#paint10_linear_67_6672)"/>
<path d="M165.815 114.561V119.876L166.363 120.426L167.094 120.243L165.815 114.561Z" fill="url(#paint11_linear_67_6672)"/>
<path d="M145.91 138.022V143.338L152.484 143.887V138.572L145.91 138.022Z" fill="url(#paint12_linear_67_6672)"/>
<path d="M161.98 169.549V164.234L164.902 157.269V162.584L161.98 169.549Z" fill="url(#paint13_linear_67_6672)"/>
<path d="M178.964 162.584V157.269L181.886 164.234V169L178.964 162.584Z" fill="url(#paint14_linear_67_6672)"/>
<path d="M201.608 86.883L190.651 93.665L186.269 85.2333L198.321 78.2681L201.608 86.883Z" fill="#4F31E0"/>
<path opacity="0.2" d="M102.63 1.1003C90.3949 -3.66541 80.351 8.06556 81.4467 15.764C82.725 23.4625 107.013 20.1631 109.935 16.4972C113.039 12.648 106.1 2.38337 102.63 1.1003Z" fill="url(#paint15_linear_67_6672)"/>
<path d="M155.771 210.608C157.597 205.293 158.876 192.645 155.771 184.947L148.284 195.395C147.553 190.079 145.727 185.13 142.988 180.731L148.649 176.882C146.64 172.666 141.527 167.35 136.962 165.151L133.309 170.466C129.109 167.35 123.996 165.151 118.7 164.051L119.796 158.002C115.413 156.536 107.926 156.352 103.178 158.002L104.273 164.051C98.7949 165.151 93.8643 167.35 89.6641 170.466L86.0118 165.151C81.8116 167.167 76.5157 172.299 74.3243 176.882L79.9854 180.731C77.2462 185.13 75.42 190.079 74.6896 195.395L67.2023 193.928C65.7414 198.327 65.5587 205.842 67.2023 210.608L75.2374 209.142C76.3331 214.274 78.5245 218.856 81.629 222.889L74.3243 228.021C76.3331 232.237 81.4464 237.553 86.0118 239.752L91.3076 232.054C95.3252 234.803 100.073 236.636 105.004 237.369L103.178 246.901C107.561 248.367 115.048 248.55 119.796 246.901L117.97 237.369C122.9 236.453 127.466 234.62 131.666 232.054L136.962 239.752C141.162 237.736 146.458 232.604 148.649 228.021L141.345 222.889C144.266 218.856 146.458 214.274 147.736 209.142L155.771 210.608ZM124.544 211.158C123.266 212.624 121.805 213.907 120.161 215.007C118.335 216.107 116.326 216.84 114.135 217.207C113.222 217.39 112.309 217.39 111.395 217.39C110.482 217.39 109.569 217.39 108.656 217.207C106.465 216.84 104.456 216.107 102.812 215.007C101.169 213.907 99.708 212.624 98.4297 211.158C96.9688 209.508 95.8731 207.492 95.3252 205.293C94.96 203.826 94.5947 202.176 94.5947 200.527C94.5947 199.977 94.5947 199.61 94.5947 199.06C94.7774 196.494 95.5078 194.111 96.7861 192.095C97.8818 190.079 99.3428 188.429 101.169 186.963C103.178 185.497 105.552 184.213 108.108 183.847C109.204 183.664 110.3 183.48 111.578 183.48C112.674 183.48 113.952 183.664 115.048 183.847C117.604 184.397 119.978 185.497 121.987 186.963C123.813 188.429 125.274 190.079 126.37 192.095C127.466 194.111 128.196 196.494 128.561 199.06C128.561 199.427 128.561 199.977 128.561 200.527C128.561 202.176 128.379 203.826 127.831 205.293C127.1 207.492 126.005 209.508 124.544 211.158Z" fill="#7C006F"/>
<path d="M155.771 201.626C157.05 197.96 157.415 192.278 156.502 187.879C156.319 186.779 156.137 185.863 155.771 184.946L148.284 186.413C147.554 181.097 145.727 176.148 142.988 171.749L148.649 167.9C147.919 166.433 146.823 164.784 145.545 163.317C143.171 160.385 139.884 157.635 136.962 156.169L133.31 161.301C129.109 158.185 123.996 155.986 118.7 154.886L119.796 148.837C115.413 147.371 107.926 147.187 103.178 148.837L104.274 154.886C98.9776 155.986 93.8644 158.185 89.6642 161.301L86.0119 155.986C81.8117 158.002 76.5158 163.134 74.3244 167.717L79.9855 171.566C77.2463 175.965 75.4201 180.914 74.6897 186.229L67.2024 184.763C66.6545 186.596 66.1067 188.979 66.1067 191.362C65.9241 194.844 66.2893 198.51 67.2024 201.443L75.2375 199.977C76.3332 205.109 78.5246 209.691 81.6291 213.724L74.3244 218.856C75.2375 220.689 76.6984 222.889 78.5246 224.722C80.716 227.105 83.4552 229.304 86.0119 230.587L91.3077 222.889C95.3253 225.638 100.073 227.471 105.004 228.204L103.178 237.736C107.561 239.202 115.048 239.385 119.796 237.736L117.97 228.204C121.257 227.654 124.361 226.738 127.101 225.272C128.561 224.538 130.205 223.805 131.483 222.705L136.779 230.404C140.979 228.388 146.275 223.255 148.467 218.673L141.162 213.541C144.084 209.508 146.275 204.926 147.554 199.793L155.771 201.626ZM124.544 202.176C123.266 203.643 121.805 204.926 120.161 206.025C118.335 207.125 116.326 207.858 114.317 208.225C113.404 208.408 112.491 208.408 111.578 208.408C110.665 208.408 109.752 208.408 108.839 208.225C106.83 207.858 105.004 207.309 103.36 206.392C103.178 206.392 102.995 206.209 102.995 206.209C101.352 205.109 99.8907 203.826 98.6124 202.36C97.1515 200.71 96.0558 198.694 95.5079 196.494C95.5079 196.311 95.5079 196.311 95.3253 196.127C94.9601 194.661 94.7775 193.195 94.7775 191.728C94.7775 191.362 94.7775 190.812 94.7775 190.262C94.9601 187.696 95.6905 185.313 96.9689 183.297C97.6993 182.014 98.6124 180.731 99.7081 179.631C100.256 179.081 100.804 178.531 101.352 178.164C103.36 176.698 105.734 175.415 108.291 175.048C109.387 174.865 110.482 174.682 111.761 174.682C112.309 174.682 112.856 174.682 113.587 174.682C114.135 174.682 114.683 174.865 115.23 174.865C117.787 175.415 120.161 176.515 122.17 177.981C123.996 179.448 125.457 181.097 126.553 183.113C127.648 185.13 128.379 187.513 128.744 190.079C128.744 190.445 128.744 190.995 128.744 191.545C128.744 193.195 128.561 194.844 128.014 196.311C127.831 196.861 127.648 197.411 127.466 197.96C126.553 199.427 125.64 200.893 124.544 202.176Z" fill="url(#paint16_linear_67_6672)"/>
<path d="M103.178 206.209L81.6291 213.724C78.7072 209.692 76.5158 205.109 75.2375 199.977L67.2024 201.444C66.2893 198.694 65.9241 194.845 66.1067 191.362L99.5255 179.265C98.4298 180.364 97.5167 181.464 96.7862 182.931C95.6905 184.947 94.9601 187.33 94.5948 189.896C94.5948 190.262 94.5948 190.812 94.5948 191.362C94.5948 192.829 94.7775 194.295 95.1427 195.761C95.1427 195.945 95.1427 195.945 95.3253 196.128C96.0558 198.327 96.9689 200.344 98.4298 201.993C99.7081 203.46 101.169 204.743 102.813 205.843C102.995 206.026 103.178 206.209 103.178 206.209Z" fill="white"/>
<path d="M127.649 196.311C128.014 194.845 128.379 193.195 128.379 191.545C128.379 191.179 128.379 190.629 128.379 190.079C128.197 187.513 127.466 185.13 126.188 183.114C125.092 181.097 123.631 179.448 121.805 177.981C119.796 176.515 117.422 175.232 114.866 174.865C114.318 174.682 113.77 174.682 113.222 174.682L145.545 163.134C146.824 164.784 147.919 166.25 148.65 167.717L142.989 171.566C145.728 175.965 147.554 180.914 148.284 186.23L155.772 184.763C156.137 185.68 156.32 186.596 156.502 187.696L127.101 197.961C127.284 197.411 127.466 196.861 127.649 196.311Z" fill="white"/>
<path d="M111.578 236.82C109.387 236.82 107.378 236.636 105.552 236.27L107.378 226.555L105.369 226.188C100.804 225.455 96.4213 223.622 92.5863 221.056L90.9428 219.956L85.6469 227.838C83.8207 226.738 81.9946 225.089 80.351 223.256C79.2553 221.973 78.1596 220.69 77.2465 219.406L84.7338 214.274L83.4555 212.625C80.5336 208.775 78.5249 204.376 77.4292 199.611L77.0639 197.778L68.8462 199.244C68.1157 195.761 68.1157 190.996 68.8462 187.33L76.5161 188.796L76.8813 186.596C77.6118 181.647 79.2553 177.065 81.9946 172.666L83.0903 171.016L77.2465 166.984C79.2553 163.868 82.5424 160.568 85.6469 158.552L89.4818 164.051L91.1254 162.768C95.1429 159.652 99.891 157.636 105.004 156.719L107.013 156.353L105.552 150.304C107.196 149.937 109.204 149.754 111.396 149.754C113.587 149.754 115.596 149.937 117.422 150.304L116.326 156.536L118.335 156.902C123.448 157.819 128.014 160.019 132.214 162.951L133.858 164.234L137.693 158.735C140.797 160.752 144.084 164.051 146.093 167.167L140.249 171.2L141.345 172.849C144.084 177.065 145.728 181.831 146.458 186.78L146.823 188.979L154.493 187.513C155.224 190.996 155.224 195.761 154.493 199.427L146.276 197.961L145.91 199.977C144.815 204.743 142.806 208.959 139.884 212.991L138.606 214.641L146.093 219.773C144.267 222.889 140.797 226.188 137.693 228.205L132.397 220.323L130.753 221.423C129.475 222.339 128.014 223.072 126.553 223.806C123.814 225.089 120.892 226.005 117.97 226.555L115.961 226.922L117.787 236.636C115.779 236.636 113.77 236.82 111.578 236.82ZM111.578 172.483C110.3 172.483 109.022 172.666 107.743 172.849C105.004 173.399 102.265 174.682 99.891 176.515C97.8822 177.982 96.2386 179.998 94.9603 182.197C93.682 184.58 92.7689 187.33 92.5863 190.079C92.5863 190.629 92.5863 191.179 92.5863 191.545C92.5863 193.195 92.7689 194.845 93.3168 196.494C93.3168 196.678 93.4994 196.861 93.4994 197.044C94.2299 199.427 95.3256 201.627 96.9691 203.643C98.43 205.293 100.074 206.759 101.9 207.859C104.091 209.142 106.283 209.875 108.657 210.242C109.57 210.425 110.665 210.425 111.761 210.425C112.857 210.425 113.952 210.242 114.866 210.058C117.24 209.692 119.431 208.775 121.44 207.676C123.266 206.576 124.909 205.109 126.37 203.46C128.014 201.443 129.11 199.244 129.84 196.861C130.388 195.028 130.571 193.378 130.571 191.545C130.571 190.996 130.571 190.446 130.571 189.896C130.388 187.146 129.475 184.397 128.196 182.197C126.918 179.998 125.275 177.982 123.266 176.515C121.074 174.682 118.335 173.582 115.596 172.849C114.135 172.666 112.857 172.483 111.578 172.483Z" fill="url(#paint17_linear_67_6672)"/>
<path d="M148.649 167.716V176.698L146.641 178.164L142.988 171.566L148.649 167.716Z" fill="#7C006F"/>
<path d="M148.649 227.837V218.856C148.649 218.856 143.353 227.288 136.962 230.587V239.568C136.962 239.568 146.093 235.169 148.649 227.837Z" fill="#981382"/>
<path d="M74.3247 227.837V218.856C74.3247 218.856 77.7944 226.188 86.0122 230.587V239.568C86.0122 239.568 79.8032 237.369 74.3247 227.837Z" fill="#7C006F"/>
<path d="M67.2025 210.608V201.626C67.2025 201.626 64.8285 193.378 67.2025 184.946C67.2025 184.946 61.724 197.227 67.2025 210.608Z" fill="#7C006F"/>
<path d="M74.3247 176.698V167.716L79.9858 171.566L76.3335 178.164L74.3247 176.698Z" fill="#7C006F"/>
<path d="M103.178 153.603V148.837L104.274 154.886H103.361L103.178 153.603Z" fill="url(#paint18_linear_67_6672)"/>
<path d="M119.796 148.837V153.603L119.613 155.069L118.7 154.886L119.796 148.837Z" fill="url(#paint19_linear_67_6672)"/>
<path opacity="0.62" d="M136.962 239.569V230.587L131.666 222.889V231.87L136.962 239.569Z" fill="url(#paint20_linear_67_6672)"/>
<path opacity="0.62" d="M147.736 209.141V199.977L155.771 201.626V210.608L147.736 209.141Z" fill="url(#paint21_linear_67_6672)"/>
<path opacity="0.62" d="M91.3076 231.87V222.889L86.0117 230.587V239.569L91.3076 231.87Z" fill="url(#paint22_linear_67_6672)"/>
<path opacity="0.62" d="M75.2378 209.141L75.4204 199.977L67.2026 201.626V210.608L75.2378 209.141Z" fill="url(#paint23_linear_67_6672)"/>
<path opacity="0.86" d="M117.97 228.204L119.796 237.735C113.952 240.485 105.369 238.285 103.178 237.735L105.004 228.204C100.074 227.288 95.5082 225.455 91.308 222.888L86.0122 230.587C83.4555 229.304 80.7163 227.288 78.5249 224.721L95.143 195.944C95.143 196.127 95.143 196.127 95.3256 196.31C96.0561 198.51 96.9692 200.526 98.4301 202.176C99.7084 203.642 101.169 204.925 102.813 206.025C104.639 207.125 106.648 207.858 108.657 208.225C109.57 208.408 110.483 208.408 111.396 208.408C112.309 208.408 113.222 208.408 114.135 208.225C116.326 207.858 118.335 207.125 119.979 206.025C121.622 204.925 123.083 203.642 124.362 202.176L126.918 225.271C124.362 226.738 121.257 227.654 117.97 228.204Z" fill="#C99AC7"/>
<path d="M119.796 237.736V246.717C119.796 246.717 113.77 249.65 103.178 246.717V237.736C103.178 237.736 109.57 239.569 119.796 237.736Z" fill="#7C006F"/>
<path d="M150.659 97.6973C151.207 81.2007 141.893 68.1866 141.893 68.1866L136.232 67.4534L134.771 91.4653C129.11 97.5141 122.171 98.2472 122.171 98.2472C122.171 98.2472 115.596 95.6811 111.579 88.5325L116.144 65.0706L110.483 64.3374C110.483 64.3374 98.2479 74.4187 94.7782 90.7321C94.7782 90.7321 93.8651 96.231 94.0477 96.7809C94.4129 99.8969 97.5174 105.029 106.466 109.978L100.439 186.046C95.326 188.796 91.4911 193.928 90.7606 200.16C89.4823 210.241 96.6043 219.589 106.831 220.873C116.875 222.156 126.188 215.007 127.467 204.742C128.197 198.51 125.823 192.645 121.44 188.612L134.406 113.461C144.085 110.895 148.467 106.862 149.746 103.746C150.111 103.013 150.659 97.6973 150.659 97.6973ZM113.222 211.708L102.996 210.425L98.9784 200.893L105.187 192.645L115.414 193.928L119.431 203.459L113.222 211.708Z" fill="url(#paint24_linear_67_6672)"/>
<path d="M149.746 103.746C150.294 87.249 140.98 74.235 140.98 74.235L135.319 73.5018L133.858 97.5136C128.197 103.562 121.258 104.296 121.258 104.296C121.258 104.296 114.683 101.729 110.666 94.5809L115.231 71.1189L109.57 70.3857C109.57 70.3857 97.3348 80.467 93.8651 96.7804C93.8651 96.7804 94.9608 110.161 105.553 116.027L99.5262 192.095C94.4129 194.844 90.578 199.976 89.8475 206.208C88.5692 216.29 95.6913 225.638 105.918 226.921C115.962 228.204 125.275 221.055 126.553 210.791C127.284 204.559 124.91 198.693 120.527 194.661L133.493 119.509C145.545 116.393 149.746 103.746 149.746 103.746ZM112.492 217.756L102.265 216.473L98.2479 206.942L104.457 198.693L114.683 199.976L118.701 209.508L112.492 217.756Z" fill="url(#paint25_linear_67_6672)"/>
<path d="M110.755 64.3212L110.003 70.3228L115.62 71.0319L116.372 65.0303L110.755 64.3212Z" fill="#E5E2FF"/>
<path d="M136.368 67.6068L135.616 73.6084L141.233 74.3175L141.985 68.3159L136.368 67.6068Z" fill="#E5E2FF"/>
<path d="M103.02 210.451L102.268 216.453L112.414 217.734L113.166 211.732L103.02 210.451Z" fill="#E5E2FF"/>
<path d="M109.753 124.092L104.64 185.863C110.849 190.079 117.24 187.513 117.24 187.513L128.197 126.475C119.432 120.61 109.753 124.092 109.753 124.092ZM115.049 186.78C113.953 186.963 112.31 187.146 110.666 186.78C109.205 186.596 107.927 186.23 106.648 185.68L111.031 124.825C112.857 124.459 115.779 124.276 119.249 124.642C121.806 125.009 124.18 125.559 126.371 126.658L115.049 186.78Z" fill="url(#paint26_linear_67_6672)"/>
<path d="M115.049 186.779L117.058 187.513C117.058 187.513 111.214 190.629 104.457 185.863L106.648 185.68C106.831 185.68 110.483 187.513 115.049 186.779Z" fill="#E5E2FF"/>
<path opacity="0.62" d="M109.753 124.092L111.214 124.825C111.214 124.825 117.971 123.176 126.554 126.658L128.197 126.475C128.197 126.475 125.458 123.909 119.249 123.176C113.04 122.442 109.753 124.092 109.753 124.092Z" fill="url(#paint27_linear_67_6672)"/>
<path opacity="0.62" d="M105.918 115.844C105.918 115.844 118.884 121.159 133.676 119.326L132.032 128.858C132.032 128.858 130.754 122.992 120.893 121.343C109.388 119.326 105.37 127.025 105.37 127.025L105.918 115.844Z" fill="url(#paint28_linear_67_6672)"/>
<path opacity="0.5" d="M132.032 129.04C130.754 126.108 128.38 124.458 128.38 124.458L116.145 195.76L120.71 194.661L132.032 129.04Z" fill="url(#paint29_linear_67_6672)"/>
<path d="M132.032 129.041C132.032 129.041 124.91 135.089 129.658 143.154L132.032 129.041Z" fill="white"/>
</g>
<defs>
<linearGradient id="paint0_linear_67_6672" x1="29.3154" y1="107.77" x2="208.186" y2="107.77" gradientUnits="userSpaceOnUse">
<stop stop-color="#6A11CB"/>
<stop offset="1" stop-color="#2575FC"/>
</linearGradient>
<radialGradient id="paint1_radial_67_6672" cx="0" cy="0" r="1" gradientUnits="userSpaceOnUse" gradientTransform="translate(169.473 177.451) rotate(10.3902) scale(39.7193 39.8577)">
<stop stop-color="#3996F7"/>
<stop offset="1" stop-color="#6840D5"/>
</radialGradient>
<linearGradient id="paint2_linear_67_6672" x1="71.1815" y1="243.911" x2="27.8519" y2="168.597" gradientUnits="userSpaceOnUse">
<stop stop-color="#1C257B"/>
<stop offset="1" stop-color="#6A2C9A"/>
</linearGradient>
<radialGradient id="paint3_radial_67_6672" cx="0" cy="0" r="1" gradientUnits="userSpaceOnUse" gradientTransform="translate(64.7475 159.695) rotate(39.2276) scale(21.4232 21.4393)">
<stop stop-color="#3996F7"/>
<stop offset="1" stop-color="#6840D5"/>
</radialGradient>
<linearGradient id="paint4_linear_67_6672" x1="145.865" y1="144.247" x2="197.936" y2="144.247" gradientUnits="userSpaceOnUse">
<stop stop-color="#3D2C97"/>
<stop offset="1" stop-color="#183683"/>
</linearGradient>
<linearGradient id="paint5_linear_67_6672" x1="171.893" y1="164.279" x2="171.893" y2="113.521" gradientUnits="userSpaceOnUse">
<stop stop-color="#7459F1"/>
<stop offset="1" stop-color="#60B3F7"/>
</linearGradient>
<linearGradient id="paint6_linear_67_6672" x1="171.889" y1="163.015" x2="171.889" y2="114.555" gradientUnits="userSpaceOnUse">
<stop stop-color="#744FD8"/>
<stop offset="1" stop-color="#3996F7"/>
</linearGradient>
<linearGradient id="paint7_linear_67_6672" x1="181.855" y1="163.33" x2="191.795" y2="163.33" gradientUnits="userSpaceOnUse">
<stop stop-color="#3D2C97"/>
<stop offset="1" stop-color="#183683"/>
</linearGradient>
<linearGradient id="paint8_linear_67_6672" x1="152.024" y1="163.33" x2="161.964" y2="163.33" gradientUnits="userSpaceOnUse">
<stop stop-color="#3D2C97"/>
<stop offset="1" stop-color="#183683"/>
</linearGradient>
<linearGradient id="paint9_linear_67_6672" x1="191.312" y1="140.981" x2="197.933" y2="140.981" gradientUnits="userSpaceOnUse">
<stop stop-color="#3D2C97"/>
<stop offset="1" stop-color="#183683"/>
</linearGradient>
<linearGradient id="paint10_linear_67_6672" x1="176.692" y1="117.495" x2="178.045" y2="117.495" gradientUnits="userSpaceOnUse">
<stop stop-color="#3D2C97"/>
<stop offset="1" stop-color="#183683"/>
</linearGradient>
<linearGradient id="paint11_linear_67_6672" x1="165.762" y1="117.495" x2="167.108" y2="117.495" gradientUnits="userSpaceOnUse">
<stop stop-color="#3D2C97"/>
<stop offset="1" stop-color="#183683"/>
</linearGradient>
<linearGradient id="paint12_linear_67_6672" x1="149.191" y1="143.911" x2="149.191" y2="138.051" gradientUnits="userSpaceOnUse">
<stop stop-color="#3D2C97"/>
<stop offset="1" stop-color="#183683"/>
</linearGradient>
<linearGradient id="paint13_linear_67_6672" x1="163.41" y1="169.626" x2="163.41" y2="157.209" gradientUnits="userSpaceOnUse">
<stop stop-color="#8B8BE0"/>
<stop offset="1" stop-color="#A177B7"/>
</linearGradient>
<linearGradient id="paint14_linear_67_6672" x1="180.405" y1="169.082" x2="180.405" y2="157.209" gradientUnits="userSpaceOnUse">
<stop stop-color="#8B8BE0"/>
<stop offset="1" stop-color="#A177B7"/>
</linearGradient>
<linearGradient id="paint15_linear_67_6672" x1="81.3647" y1="10.2202" x2="110.714" y2="10.2202" gradientUnits="userSpaceOnUse">
<stop stop-color="#6A11CB"/>
<stop offset="1" stop-color="#2575FC"/>
</linearGradient>
<linearGradient id="paint16_linear_67_6672" x1="111.526" y1="238.893" x2="111.526" y2="147.554" gradientUnits="userSpaceOnUse">
<stop stop-color="#971A8F"/>
<stop offset="0.4678" stop-color="#EF22AC"/>
<stop offset="1" stop-color="#FE4CCE"/>
</linearGradient>
<linearGradient id="paint17_linear_67_6672" x1="111.527" y1="236.827" x2="111.527" y2="149.622" gradientUnits="userSpaceOnUse">
<stop stop-color="#B31A8F"/>
<stop offset="1" stop-color="#FE117E"/>
</linearGradient>
<linearGradient id="paint18_linear_67_6672" x1="103.789" y1="154.833" x2="103.789" y2="148.774" gradientUnits="userSpaceOnUse">
<stop stop-color="#3D2CB0"/>
<stop offset="1" stop-color="#0355C7"/>
</linearGradient>
<linearGradient id="paint19_linear_67_6672" x1="119.249" y1="155.014" x2="119.249" y2="148.774" gradientUnits="userSpaceOnUse">
<stop stop-color="#3D2CB0"/>
<stop offset="1" stop-color="#0355C7"/>
</linearGradient>
<linearGradient id="paint20_linear_67_6672" x1="134.333" y1="239.585" x2="134.333" y2="222.827" gradientUnits="userSpaceOnUse">
<stop stop-color="#8B8BE0"/>
<stop offset="1" stop-color="#A177B7"/>
</linearGradient>
<linearGradient id="paint21_linear_67_6672" x1="151.755" y1="210.589" x2="151.755" y2="200.033" gradientUnits="userSpaceOnUse">
<stop stop-color="#8B8BE0"/>
<stop offset="1" stop-color="#A177B7"/>
</linearGradient>
<linearGradient id="paint22_linear_67_6672" x1="88.7022" y1="239.585" x2="88.7022" y2="222.806" gradientUnits="userSpaceOnUse">
<stop stop-color="#8B8BE0"/>
<stop offset="1" stop-color="#A177B7"/>
</linearGradient>
<linearGradient id="paint23_linear_67_6672" x1="71.2708" y1="210.589" x2="71.2708" y2="200.033" gradientUnits="userSpaceOnUse">
<stop stop-color="#8B8BE0"/>
<stop offset="1" stop-color="#A177B7"/>
</linearGradient>
<linearGradient id="paint24_linear_67_6672" x1="106.965" y1="220.629" x2="126.449" y2="66.2962" gradientUnits="userSpaceOnUse">
<stop stop-color="#DBCCFF"/>
<stop offset="1" stop-color="#D1BBFF"/>
</linearGradient>
<linearGradient id="paint25_linear_67_6672" x1="106.201" y1="226.649" x2="125.686" y2="72.3164" gradientUnits="userSpaceOnUse">
<stop stop-color="#B5A6E7"/>
<stop offset="1" stop-color="#7760BF"/>
</linearGradient>
<linearGradient id="paint26_linear_67_6672" x1="111.011" y1="188.276" x2="119.224" y2="123.222" gradientUnits="userSpaceOnUse">
<stop stop-color="#B5A6E7"/>
<stop offset="1" stop-color="#7760BF"/>
</linearGradient>
<linearGradient id="paint27_linear_67_6672" x1="109.802" y1="123.356" x2="128.202" y2="125.661" gradientUnits="userSpaceOnUse">
<stop stop-color="#8B8BE0"/>
<stop offset="1" stop-color="#A177B7"/>
</linearGradient>
<linearGradient id="paint28_linear_67_6672" x1="118.464" y1="128.804" x2="119.875" y2="117.627" gradientUnits="userSpaceOnUse">
<stop stop-color="white"/>
<stop offset="1" stop-color="#A177B7"/>
</linearGradient>
<linearGradient id="paint29_linear_67_6672" x1="119.91" y1="196.145" x2="128.964" y2="124.429" gradientUnits="userSpaceOnUse">
<stop/>
<stop offset="1" stop-color="white"/>
</linearGradient>
<clipPath id="clip0_67_6672">
<rect width="208" height="248" fill="white"/>
</clipPath>
</defs>
</svg>
